<?xml version="1.0" encoding="UTF-8"?> <svg xmlns="http://www.w3.org/2000/svg" xmlns:xlink="http://www.w3.org/1999/xlink" version="1.1" id="Layer_1" x="0px" y="0px" viewBox="0 0 130 120" style="enable-background:new 0 0 130 120;" xml:space="preserve"> <style type="text/css"> .st0{fill:#002554;} .st1{fill:#FFFFFF;} .st2{fill:#E31837;} .st3{fill-rule:evenodd;clip-rule:evenodd;fill:#FFFFFF;} </style> <g> <g> <g> <g> <path class="st0" d="M65,109.5c-1.7,0-3.4-0.4-4.7-1.1L22.9,87.5c-2.6-1.4-4.8-4.6-5.4-7.4l-0.3-1.8L0.4,73.6V47.5h11L9.1,34.8 c-0.6-2.9,0.5-6.7,2.5-8.9l10.5-11.7c1.9-2.1,5.4-3.7,8.3-3.7h69.2c2.9,0,6.4,1.6,8.3,3.7l10.5,11.7c2,2.2,3.1,6,2.5,8.9 l-2.4,12.7h11v26.1l-16.8,4.7l-0.3,1.8c-0.5,2.9-2.8,6-5.4,7.4l-37.3,20.8C68.4,109.1,66.7,109.5,65,109.5z"></path> </g> <polygon class="st0" points="111.4,72.7 128.4,72.7 128.4,72.7 111.4,77.4 "></polygon> <polygon class="st0" points="18.6,72.7 1.6,72.7 1.6,72.7 18.6,77.4 "></polygon> <g> <path class="st1" d="M111.2,79.9c-0.5,2.5-2.5,5.4-4.8,6.6l-37.3,20.8c-1.1,0.6-2.6,1-4.1,1c-1.5,0-3-0.4-4.1-1L23.5,86.5 c-2.2-1.2-4.3-4.1-4.8-6.6l-0.9-5l-6.2-33.1l-1.3-7.2c-0.5-2.6,0.5-5.9,2.2-7.9L23,15c1.7-1.9,4.9-3.3,7.4-3.3h69.2 c2.5,0,5.7,1.4,7.4,3.3l10.5,11.7c1.7,1.9,2.7,5.3,2.2,7.9l-1.3,7.2L111.2,79.9z"></path> <path class="st0" d="M65,109.7c-1.8,0-3.5-0.4-4.8-1.2L22.9,87.7c-2.6-1.4-4.9-4.6-5.4-7.6L8.9,34.9c-0.6-3,0.5-6.8,2.5-9.1 L22,14.1c2-2.2,5.5-3.8,8.4-3.8h69.2c2.9,0,6.5,1.6,8.4,3.8l10.5,11.7c2,2.3,3.1,6.1,2.5,9.1l-8.5,45.3v0 c-0.5,2.9-2.8,6.1-5.4,7.6l-37.3,20.8C68.5,109.2,66.8,109.7,65,109.7z M30.4,13.1c-2.1,0-4.9,1.2-6.4,2.8L13.5,27.7 c-1.5,1.6-2.3,4.6-1.9,6.7l8.5,45.3c0.4,2.1,2.2,4.6,4.1,5.6l37.3,20.8c1.9,1,5,1,6.9,0l37.3-20.8c1.9-1,3.7-3.5,4.1-5.6v0 l8.5-45.3c0.4-2.1-0.4-5.1-1.9-6.7L105.9,16c-1.4-1.6-4.2-2.8-6.4-2.8H30.4z"></path> </g> <path class="st1" d="M111.2,79.9c-0.5,2.5-2.5,5.4-4.8,6.6l-37.3,20.8c-1.1,0.6-2.6,1-4.1,1c-1.5,0-3-0.4-4.1-1L23.5,86.5 c-2.2-1.2-4.3-4.1-4.8-6.6l-0.9-5l-6.2-33.1l-1.3-7.2c-0.5-2.6,0.5-5.9,2.2-7.9L23,15c1.7-1.9,4.9-3.3,7.4-3.3h69.2 c2.5,0,5.7,1.4,7.4,3.3l10.5,11.7c1.7,1.9,2.7,5.3,2.2,7.9l-1.3,7.2L111.2,79.9z"></path> <g> <path class="st2" d="M21.5,79.4c0.3,1.7,1.9,3.9,3.4,4.7l37.3,20.8c1.5,0.9,4.1,0.9,5.6,0l37.3-20.8c1.5-0.9,3.1-3,3.4-4.7 l1.3-7.2H20.1L21.5,79.4z"></path> <path class="st0" d="M117,34.1c0.3-1.7-0.4-4.2-1.6-5.6L105,16.9c-1.2-1.3-3.6-2.4-5.4-2.4H30.4c-1.8,0-4.2,1.1-5.4,2.4 L14.5,28.5c-1.2,1.3-1.9,3.8-1.6,5.6l2.8,15.1h98.4L117,34.1z"></path> </g> <path class="st1" d="M128.4,72.7H1.6v-24h126.7V72.7z"></path> <rect x="1.6" y="72.7" class="st0" width="126.7" height="1.2"></rect> <rect x="1.6" y="47.5" class="st0" width="126.7" height="1.2"></rect> <g> <path class="st0" d="M25.3,53.8c1,0,1.8,1,1.8,2.4V59c0,0.5-0.1,0.9-0.3,1.2c-0.2,0.3-0.4,0.4-0.6,0.4c0.2,0,0.4,0.1,0.6,0.3 c0.2,0.2,0.3,0.6,0.3,1v3.3c0,1.4-0.7,2.4-1.8,2.4h-6.6V53.8H25.3z M24,59.6V57h-2.4v2.6H24z M24,64.4v-2.6h-2.4v2.6H24z"></path> <path class="st0" d="M27.9,53.8h3v10.4h2.5V53.8h3v13.8h-7.1c-0.8,0-1.5-0.8-1.5-2V53.8z"></path> <path class="st0" d="M37.4,67.6V53.8h6.6c1,0,1.8,1,1.8,2.4v9c0,1.4-0.7,2.4-1.8,2.4H37.4z M42.8,64.2v-7h-2.4v7H42.8z"></path> <path class="st0" d="M46.8,67.6V53.8h6.6c1,0,1.8,1,1.8,2.4v9c0,1.4-0.7,2.4-1.8,2.4H46.8z M52.2,64.2v-7h-2.4v7H52.2z"></path> <path class="st0" d="M55.6,67.6l0.9-3.4h4.4v-2.1h-3.1c-1,0-1.8-1-1.8-2.4v-3.6c0-1.4,0.7-2.4,1.8-2.4H64l-0.9,3.4h-4.1v2.1h3 c1,0,1.8,1,1.8,2.4v3.6c0,1.4-0.7,2.4-1.8,2.4H55.6z"></path> <path class="st0" d="M75.3,53.8l-0.9,3.4h-3.7v7h4.5l-0.9,3.4h-4.9c-1,0-1.8-1-1.8-2.4v-9c0-1.4,0.7-2.4,1.8-2.4H75.3z"></path> <path class="st0" d="M84.5,59.9c0,1.2-0.6,2-1.5,2h-0.1l2.2,5.8H82l-2.7-7.5h2.2v-3H79v10.4h-3V53.8h6.8c1,0,1.8,1,1.8,2.4V59.9 z"></path> <path class="st0" d="M85.7,53.8h7.7l-0.9,3.4h-3.8v2.1h3.8v2.6h-3.8v2.3h4.7l-0.9,3.4h-6.8V53.8z"></path> <path class="st0" d="M94.4,53.8h7.7l-0.9,3.4h-3.8v2.1h3.8v2.6h-3.8v2.3h4.7l-0.9,3.4h-6.8V53.8z"></path> <path class="st0" d="M105.8,67.6h-3V53.8h3V59h1.2l1.3-5.2h3.5l-1.6,5.2c-0.3,0.8-0.6,1.2-1.1,1.4c0.5,0.1,0.8,0.5,1.1,1.3 l1.7,5.9h-3.6l-1.4-5.2h-1.2V67.6z"></path> </g> </g> <g> <polyline class="st3" points="65,93.4 66.2,97 70.2,97 66.9,99.3 68.1,103 65,100.8 61.9,103 63,99.3 60,97.1 63.8,97 65,93.4 "></polyline> <g> <g> <path class="st1" d="M31.1,76.8h2.2l2.7,3.4h0v-3.4h1.4v4.6h-2.2L32.6,78h0v3.4h-1.4V76.8z"></path> <path class="st1" d="M43.4,76.8h1.8l2.5,4.6h-1.6l-0.4-0.8h-2.9l-0.4,0.8h-1.6L43.4,76.8z M43.4,79.6h1.8l-0.9-1.7L43.4,79.6z"></path> <path class="st1" d="M50.4,76.8h5.4v1.2h-2v3.5h-1.4v-3.5h-2V76.8z"></path> <path class="st1" d="M59.5,76.8h1.4v4.6h-1.4V76.8z"></path> <path class="st1" d="M64.8,78.4c0-1.4,0.8-1.7,2-1.7h2.3c1.3,0,2,0.3,2,1.7v1.4c0,1.4-0.8,1.7-2,1.7h-2.3c-1.3,0-2-0.3-2-1.7 V78.4z M66.2,79.3c0,0.7,0.1,0.9,0.8,0.9h1.8c0.7,0,0.8-0.3,0.8-0.9v-0.5c0-0.6-0.1-0.9-0.9-0.9h-1.7c-0.7,0-0.9,0.4-0.9,0.9 V79.3z"></path> <path class="st1" d="M74.9,76.8h2.2l2.7,3.4h0v-3.4h1.4v4.6H79L76.3,78h0v3.4h-1.4V76.8z"></path> <path class="st1" d="M87.2,76.8H89l2.5,4.6H90l-0.4-0.8h-2.9l-0.4,0.8h-1.6L87.2,76.8z M87.2,79.6H89l-0.9-1.7L87.2,79.6z"></path> <path class="st1" d="M95,76.8h1.4v3.4h3.2v1.2H95V76.8z"></path> </g> </g> <g> <g> <path class="st0" d="M41.5,84.6h0.6l1.7,2.4l1.7-2.4H46v2.8h-0.4V85h0l-1.7,2.5h-0.3L41.9,85h0v2.5h-0.4V84.6z"></path> <path class="st0" d="M46.1,87.5h-0.5v-2.3l-1.6,2.3h-0.4L42,85.2v2.3h-0.5v-3h0.7l1.6,2.3l1.6-2.3h0.7V87.5z M45.7,87.4h0.2 v-2.7h-0.5l-1.7,2.4l-1.7-2.4h-0.5v2.7h0.2v-2.5h0.1l0,0l1.7,2.5h0.2l1.7-2.5h0.1l0,0.1V87.4z"></path> </g> <g> <path class="st0" d="M46.7,84.6h2.8V85h-2.4v0.9h2.3v0.3h-2.3v1h2.4v0.3h-2.8V84.6z"></path> <path class="st0" d="M49.6,87.5h-2.9v-3h2.9V85h-2.4v0.8h2.3v0.5h-2.3v0.8h2.4V87.5z M46.8,87.4h2.6v-0.2H47v-1.1h2.3v-0.2H47 v-1.1h2.4v-0.2h-2.6V87.4z"></path> </g> <g> <path class="st0" d="M50,85.7c0-0.7,0.2-1.1,1-1.1h1.5c0.7,0,0.9,0.3,0.9,0.7v0.2h-0.3v-0.1c0-0.5-0.3-0.5-0.6-0.5h-1.3 c-0.4,0-0.7,0.1-0.7,0.6v1.1c0,0.5,0.3,0.6,0.7,0.6h1.3c0.5,0,0.7-0.1,0.7-0.5v-0.2h0.4v0.2c0,0.5-0.2,0.8-1,0.8H51 c-0.8,0-1-0.3-1-1.1V85.7z"></path> <path class="st0" d="M52.5,87.6H51c-0.8,0-1.1-0.3-1.1-1.1v-0.8c0-0.8,0.3-1.1,1.1-1.1h1.5c0.8,0,1,0.4,1,0.8v0.3H53v-0.2 c0-0.4-0.2-0.4-0.6-0.4h-1.3c-0.4,0-0.6,0.2-0.6,0.5v1.1c0,0.4,0.2,0.5,0.6,0.5h1.3c0.5,0,0.6-0.1,0.6-0.4v-0.3h0.5v0.3 C53.5,87.2,53.4,87.6,52.5,87.6z M51,84.7c-0.7,0-0.9,0.3-0.9,1v0.8c0,0.7,0.3,1,0.9,1h1.4c0.7,0,0.9-0.2,0.9-0.7v-0.1h-0.2 v0.1c0,0.5-0.2,0.6-0.7,0.6h-1.3c-0.2,0-0.7,0-0.7-0.7v-1.1c0-0.7,0.6-0.7,0.7-0.7h1.3c0.3,0,0.7,0,0.7,0.6v0.1h0.2v-0.2 c0-0.3-0.1-0.6-0.8-0.6H51z"></path> </g> <g> <path class="st0" d="M54.1,84.6h0.4v1.2H57v-1.2h0.4v2.8H57v-1.3h-2.6v1.3h-0.4V84.6z"></path> <path class="st0" d="M57.5,87.5h-0.5v-1.3h-2.4v1.3H54v-3h0.5v1.2h2.4v-1.2h0.5V87.5z M57.1,87.4h0.2v-2.7h-0.2v1.2h-2.7v-1.2 h-0.2v2.7h0.2v-1.3h2.7V87.4z"></path> </g> <g> <path class="st0" d="M59.5,84.6H60l1.7,2.8h-0.4l-0.4-0.6h-2.3l-0.4,0.6h-0.4L59.5,84.6z M59.7,85l-0.9,1.6h1.9L59.7,85z"></path> <path class="st0" d="M61.8,87.5h-0.6l-0.4-0.6h-2.2l-0.4,0.6h-0.6l1.8-3H60l0,0L61.8,87.5z M61.3,87.4h0.3l-1.6-2.7h-0.4 L58,87.4h0.3l0.4-0.6h2.4L61.3,87.4z M60.8,86.6h-2.2l1.1-1.8L60.8,86.6z M58.9,86.5h1.6l-0.8-1.4L58.9,86.5z"></path> </g> <g> <path class="st0" d="M62.1,84.6h0.6l2.6,2.5v-2.5h0.4v2.8h-0.6L62.5,85v2.5h-0.4V84.6z"></path> <path class="st0" d="M65.7,87.5H65l0,0l-2.5-2.4v2.4H62v-3h0.7l0,0l2.5,2.4v-2.4h0.5V87.5z M65.1,87.4h0.5v-2.7h-0.2v2.6 l-2.7-2.6h-0.5v2.7h0.2v-2.6L65.1,87.4z"></path> </g> <g> <path class="st0" d="M66.4,84.6h0.4v2.8h-0.4V84.6z"></path> <path class="st0" d="M66.8,87.5h-0.5v-3h0.5V87.5z M66.4,87.4h0.2v-2.7h-0.2V87.4z"></path> </g> <g> <path class="st0" d="M67.4,85.7c0-0.7,0.2-1.1,1-1.1h1.5c0.7,0,0.9,0.3,0.9,0.7v0.2h-0.3v-0.1c0-0.5-0.3-0.5-0.6-0.5h-1.3 c-0.4,0-0.7,0.1-0.7,0.6v1.1c0,0.5,0.3,0.6,0.7,0.6h1.3c0.5,0,0.7-0.1,0.7-0.5v-0.2h0.4v0.2c0,0.5-0.2,0.8-1,0.8h-1.4 c-0.8,0-1-0.3-1-1.1V85.7z"></path> <path class="st0" d="M69.9,87.6h-1.4c-0.8,0-1.1-0.3-1.1-1.1v-0.8c0-0.8,0.3-1.1,1.1-1.1h1.5c0.8,0,1,0.4,1,0.8v0.3h-0.5v-0.2 c0-0.4-0.2-0.4-0.6-0.4h-1.3c-0.4,0-0.6,0.2-0.6,0.5v1.1c0,0.4,0.2,0.5,0.6,0.5h1.3c0.5,0,0.6-0.1,0.6-0.4v-0.3h0.5v0.3 C70.9,87.2,70.7,87.6,69.9,87.6z M68.4,84.7c-0.7,0-0.9,0.3-0.9,1v0.8c0,0.7,0.3,1,0.9,1h1.4c0.7,0,0.9-0.2,0.9-0.7v-0.1h-0.2 v0.1c0,0.5-0.2,0.6-0.7,0.6h-1.3c-0.2,0-0.7,0-0.7-0.7v-1.1c0-0.7,0.6-0.7,0.7-0.7h1.3c0.3,0,0.7,0,0.7,0.6v0.1h0.2v-0.2 c0-0.3-0.1-0.6-0.8-0.6H68.4z"></path> </g> <g> <path class="st0" d="M71.4,86.6h0.4v0.2c0,0.3,0.1,0.4,0.6,0.4h1.2c0.6,0,0.7-0.1,0.7-0.5c0-0.4-0.1-0.4-0.6-0.4h-0.7 c-1.2,0-1.6-0.1-1.6-0.8c0-0.6,0.4-0.8,1.2-0.8h0.8c0.9,0,1.2,0.2,1.2,0.7v0.1h-0.4c0-0.4-0.1-0.5-1.1-0.5h-0.4 c-0.7,0-1,0-1,0.5c0,0.3,0.1,0.4,0.7,0.4h1.1c0.7,0,1.1,0.2,1.1,0.7v0.2c0,0.7-0.6,0.7-1.1,0.7h-1.1c-0.6,0-1.1-0.1-1.1-0.7 V86.6z"></path> <path class="st0" d="M73.5,87.6h-1.1c-0.6,0-1.1-0.1-1.1-0.8v-0.3h0.5v0.3c0,0.2,0,0.3,0.5,0.3h1.2c0.6,0,0.6-0.1,0.6-0.4 c0-0.3-0.1-0.4-0.5-0.4h-0.7c-1.1,0-1.6,0-1.6-0.9c0-0.7,0.5-0.9,1.2-0.9h0.8c0.9,0,1.3,0.2,1.3,0.8v0.2h-0.5l0-0.1 c0-0.4,0-0.5-1-0.5h-0.4c-0.8,0-0.9,0.1-0.9,0.4c0,0.3,0,0.4,0.6,0.4h1.1c0.8,0,1.1,0.2,1.1,0.8v0.2 C74.7,87.6,74,87.6,73.5,87.6z M71.5,86.7v0.1c0,0.5,0.4,0.6,1,0.6h1.1c0.7,0,1.1-0.1,1.1-0.7v-0.2c0-0.3-0.1-0.6-1-0.6h-1.1 c-0.6,0-0.8-0.1-0.8-0.5c0-0.6,0.4-0.6,1.1-0.6h0.4c0.9,0,1.1,0.1,1.1,0.5h0.2v0c0-0.4-0.2-0.7-1.1-0.7h-0.8 c-0.8,0-1.1,0.2-1.1,0.7c0,0.7,0.3,0.7,1.5,0.7h0.7c0.5,0,0.7,0.1,0.7,0.5c0,0.5-0.3,0.6-0.8,0.6h-1.2c-0.5,0-0.7-0.1-0.7-0.5 v-0.1H71.5z"></path> </g> <g> <path class="st0" d="M75,84.6h0.4l1.4,2.5l1.4-2.5h0.4l-1.6,2.8h-0.5L75,84.6z"></path> <path class="st0" d="M77.1,87.5h-0.6l0,0l-1.6-2.9h0.6l1.3,2.4l1.3-2.4h0.6L77.1,87.5z M76.6,87.4H77l1.5-2.7h-0.3l-1.4,2.6 l-1.4-2.6h-0.3L76.6,87.4z"></path> </g> <g> <path class="st0" d="M79.1,84.6h0.4v2.8h-0.4V84.6z"></path> <path class="st0" d="M79.6,87.5H79v-3h0.5V87.5z M79.2,87.4h0.2v-2.7h-0.2V87.4z"></path> </g> <g> <path class="st0" d="M80.3,84.6h0.4v2.5h2.2v0.3h-2.6V84.6z"></path> <path class="st0" d="M82.9,87.5h-2.7v-3h0.5v2.5h2.2V87.5z M80.3,87.4h2.4v-0.2h-2.2v-2.5h-0.2V87.4z"></path> </g> <g> <path class="st0" d="M83.2,84.6h0.4v2.5h2.2v0.3h-2.6V84.6z"></path> <path class="st0" d="M85.9,87.5h-2.7v-3h0.5v2.5h2.2V87.5z M83.3,87.4h2.4v-0.2h-2.2v-2.5h-0.2V87.4z"></path> </g> <g> <path class="st0" d="M86.2,84.6H89V85h-2.4v0.9h2.3v0.3h-2.3v1H89v0.3h-2.8V84.6z"></path> <path class="st0" d="M89.1,87.5h-2.9v-3h2.9V85h-2.4v0.8H89v0.5h-2.3v0.8h2.4V87.5z M86.3,87.4H89v-0.2h-2.4v-1.1h2.3v-0.2 h-2.3v-1.1h2.4v-0.2h-2.6V87.4z"></path> </g> <g> <path class="st0" d="M49.5,88.8h0.6l1.7,2.4l1.7-2.4H54v2.8h-0.4v-2.5h0l-1.7,2.5h-0.3l-1.7-2.5h0v2.5h-0.4V88.8z"></path> <path class="st0" d="M54.1,91.7h-0.5v-2.3l-1.6,2.3h-0.4l-1.6-2.3v2.3h-0.5v-3h0.7l1.6,2.3l1.6-2.3h0.7V91.7z M53.7,91.6h0.2 v-2.7h-0.5l-1.7,2.4L50,88.9h-0.5v2.7h0.2v-2.5h0.1l0,0l1.7,2.5h0.2l1.7-2.5h0.1l0,0.1V91.6z"></path> </g> <g> <path class="st0" d="M56.1,88.8h0.5l1.7,2.8h-0.4L57.4,91h-2.3l-0.4,0.6h-0.4L56.1,88.8z M56.3,89.1l-0.9,1.6h1.9L56.3,89.1z"></path> <path class="st0" d="M58.4,91.7h-0.6l-0.4-0.6h-2.2l-0.4,0.6h-0.6l1.8-3h0.6l0,0L58.4,91.7z M57.8,91.6h0.3l-1.6-2.7h-0.4 l-1.6,2.7h0.3l0.4-0.6h2.4L57.8,91.6z M57.4,90.8h-2.2l1.1-1.8L57.4,90.8z M55.5,90.7h1.6l-0.8-1.4L55.5,90.7z"></path> </g> <g> <path class="st0" d="M58.6,88.8h2.3c0.8,0,0.9,0.3,0.9,0.8v0.2c0,0.4-0.2,0.5-0.5,0.5v0c0.4,0.1,0.5,0.3,0.5,0.5v0.7h-0.4V91 c0-0.4-0.2-0.5-0.6-0.5H59v1.1h-0.4V88.8z M60.9,90.2c0.4,0,0.6-0.1,0.6-0.4v-0.3c0-0.3-0.1-0.4-0.7-0.4H59v1.1H60.9z"></path> <path class="st0" d="M61.9,91.7h-0.5V91c0-0.4-0.2-0.4-0.5-0.4h-1.8v1.1h-0.5v-3h2.3c0.9,0,1,0.3,1,0.9v0.2 c0,0.3-0.1,0.5-0.3,0.6c0.2,0.1,0.3,0.3,0.3,0.5V91.7z M61.5,91.6h0.2v-0.6c0-0.2-0.1-0.4-0.4-0.5l-0.1,0v-0.1l0.1,0 c0.3,0,0.5-0.1,0.5-0.5v-0.2c0-0.5-0.1-0.7-0.9-0.7h-2.2v2.7H59v-1.1h1.9c0.3,0,0.6,0,0.6,0.6V91.6z M60.9,90.3H59v-1.2h1.8 c0.5,0,0.8,0.1,0.8,0.5v0.3C61.5,90.2,61.2,90.3,60.9,90.3z M59.1,90.1h1.8c0.4,0,0.5-0.1,0.5-0.3v-0.3c0-0.2-0.1-0.3-0.6-0.3 h-1.7V90.1z"></path> </g> <g> <path class="st0" d="M63.8,90.4l-1.6-1.6h0.5l1.3,1.3l1.3-1.3h0.5l-1.6,1.6v1.2h-0.4V90.4z"></path> <path class="st0" d="M64.3,91.7h-0.5v-1.2L62,88.7h0.7l0,0L64,90l1.3-1.3H66l-1.7,1.7V91.7z M63.9,91.6h0.2v-1.2l0,0l1.5-1.5 h-0.3L64,90.2l-1.3-1.3h-0.3l1.5,1.5V91.6z"></path> </g> <g> <path class="st0" d="M66.3,88.8h0.4v2.5h2.2v0.3h-2.6V88.8z"></path> <path class="st0" d="M68.9,91.7h-2.7v-3h0.5v2.5h2.2V91.7z M66.4,91.6h2.4v-0.2h-2.2v-2.5h-0.2V91.6z"></path> </g> <g> <path class="st0" d="M70.6,88.8h0.5l1.7,2.8h-0.4L72,91h-2.3l-0.4,0.6H69L70.6,88.8z M70.9,89.1l-0.9,1.6h1.9L70.9,89.1z"></path> <path class="st0" d="M72.9,91.7h-0.6L72,91.1h-2.2l-0.4,0.6h-0.6l1.8-3h0.6l0,0L72.9,91.7z M72.4,91.6h0.3l-1.6-2.7h-0.4 l-1.6,2.7h0.3l0.4-0.6h2.4L72.4,91.6z M72,90.8h-2.2l1.1-1.8L72,90.8z M70.1,90.7h1.6l-0.8-1.4L70.1,90.7z"></path> </g> <g> <path class="st0" d="M73.2,88.8h0.6l2.6,2.5v-2.5h0.4v2.8h-0.6l-2.6-2.5v2.5h-0.4V88.8z"></path> <path class="st0" d="M76.8,91.7h-0.7l0,0l-2.5-2.4v2.4h-0.5v-3h0.7l0,0l2.5,2.4v-2.4h0.5V91.7z M76.2,91.6h0.5v-2.7h-0.2v2.6 l-2.7-2.6h-0.5v2.7h0.2V89L76.2,91.6z"></path> </g> <g> <path class="st0" d="M77.5,88.8h2.3c0.9,0,1.2,0.3,1.2,1.4c0,1-0.3,1.4-1.2,1.4h-2.3V88.8z M80.6,90.1c0-0.8-0.3-1-0.7-1h-2 v2.2h1.9c0.5,0,0.8-0.1,0.8-0.9V90.1z"></path> <path class="st0" d="M79.7,91.7h-2.3v-3h2.4c1,0,1.3,0.3,1.3,1.5C81,91.3,80.7,91.7,79.7,91.7z M77.5,91.6h2.2 c0.9,0,1.1-0.3,1.1-1.3c0-1.1-0.2-1.3-1.1-1.3h-2.2V91.6z M79.8,91.4h-2v-2.4h2.1c0.5,0,0.8,0.2,0.8,1v0.3 C80.7,91.2,80.3,91.4,79.8,91.4z M77.9,91.3h1.9c0.4,0,0.7-0.1,0.7-0.9v-0.3c0-0.8-0.3-0.9-0.6-0.9h-1.9V91.3z"></path> </g> </g> </g> </g> <g> <g> <g> <g> <g> <polygon class="st1" points="84.8,22.7 84.8,36.3 87.6,36.3 87.6,30.6 90,30.6 90,36.3 92.7,36.3 92.7,22.7 90,22.7 90,28.2 87.6,28.2 87.6,22.7 "></polygon> <polygon class="st1" points="63.3,22.7 63.3,36.3 65.9,36.3 65.9,27.7 67.4,36.3 69.1,36.3 70.6,27.7 70.6,36.3 73.1,36.3 73.1,22.7 69.3,22.7 68.2,29.3 67.1,22.7 "></polygon> <polygon class="st1" points="47.3,22.7 49,28.8 50.7,22.7 53.5,22.7 50.5,31.9 50.5,36.3 47.5,36.3 47.5,31.9 44.6,22.7 "></polygon> <path class="st1" d="M59.4,22.7h-3.7l-2.4,13.6H56l0.5-3.2h2.1l0.5,3.2h2.8L59.4,22.7z M57.5,25.8l0.7,4.8h-1.4L57.5,25.8z"></path> <path class="st1" d="M80.8,22.7h-3.7l-2.4,13.6h2.7l0.5-3.2H80l0.5,3.2h2.8L80.8,22.7z M78.9,25.8l0.7,4.8h-1.4L78.9,25.8z"></path> <path class="st1" d="M100.4,22.7h-3.7l-2.4,13.6h2.7l0.5-3.2h2.1l0.5,3.2h2.8L100.4,22.7z M98.6,25.8l0.7,4.8h-1.4L98.6,25.8z "></path> </g> <g> <g> <path class="st1" d="M35.2,37.5c4.4,0,8-3.6,8-8c0-4.4-3.6-8-8-8c-4.4,0-8,3.6-8,8C27.2,34,30.8,37.5,35.2,37.5z M41.9,33.4 c0,0.1-0.1,0.1-0.2,0.1l-1.1-0.2c-1.2,1.7-3.2,2.9-5.5,2.9c-2.3,0-4.3-1.1-5.5-2.9l-1.1,0.2c-0.1,0-0.1,0-0.2-0.1 c0-0.1,0-0.1,0-0.2l0.8-0.8c-0.4-0.9-0.7-1.8-0.7-2.9c0-3.5,2.7-6.3,6.1-6.6l0.3-1.1c0-0.1,0.1-0.1,0.2-0.1 c0.1,0,0.1,0,0.2,0.1l0.3,1.1c3.4,0.3,6.1,3.1,6.1,6.6c0,1-0.2,2-0.7,2.9l0.8,0.8C41.9,33.3,41.9,33.3,41.9,33.4z"></path> <path class="st1" d="M41.8,33.2l-1.7-1.8c-0.2,0.1-0.5,0.1-0.7,0c-0.2-0.1-0.4-0.4-0.4-0.6l0,0c0-0.4-0.3-0.7-0.6-0.9 l-0.7-0.4l3-1.7l-0.3-0.6L37,29.1l-0.6-0.3v-0.7l3.3-1.9l-0.3-0.6l-3,1.7v-0.8c0-0.4-0.2-0.8-0.5-1l0,0 c-0.2-0.2-0.3-0.4-0.3-0.7c0-0.3,0.1-0.5,0.3-0.7l0,0L35.2,22c0,0,0,0,0,0c0,0,0,0,0,0l-0.7,2.3c0.2,0.2,0.3,0.4,0.3,0.7 c0,0.3-0.1,0.5-0.3,0.7l0,0c-0.3,0.2-0.5,0.6-0.5,1v0.8l-3-1.7l-0.3,0.6l3.3,1.9v0.7l-0.6,0.3l-3.3-1.9l-0.3,0.6l3,1.7 L32,29.9l0,0c-0.4,0.2-0.6,0.6-0.6,0.9l0,0c0,0.2-0.2,0.5-0.4,0.6c-0.2,0.1-0.5,0.1-0.7,0l0,0l-1.7,1.8c0,0,0,0,0,0.1 c0,0,0,0,0.1,0l2.4-0.6c0-0.2,0.2-0.5,0.4-0.6c0.2-0.1,0.5-0.1,0.7,0l0,0c0.3,0.1,0.8,0.1,1.1-0.1l0.7-0.4v3.5h0.7v-3.8 l0.6-0.3l0.6,0.3v3.8h0.7v-3.5l0.7,0.4c0.4,0.2,0.8,0.2,1.1,0.1l0,0c0.2-0.1,0.5-0.1,0.7,0c0.2,0.1,0.4,0.4,0.4,0.6l0,0 L41.8,33.2C41.7,33.3,41.8,33.3,41.8,33.2C41.8,33.3,41.8,33.3,41.8,33.2z M35.2,30.2l-0.6-0.3v-0.7l0.6-0.3l0.6,0.3v0.7 L35.2,30.2z M34.6,26.6c0-0.3,0.3-0.6,0.6-0.6c0.3,0,0.6,0.3,0.6,0.6v1.2l-0.6,0.3l-0.6-0.3V26.6z M33,31.5 c-0.3,0.2-0.6,0.1-0.8-0.2c-0.2-0.3-0.1-0.6,0.2-0.8l1-0.6l0.6,0.3v0.7L33,31.5z M38.2,31.3c-0.2,0.3-0.5,0.4-0.8,0.2l-1-0.6 v-0.7l0.6-0.3l1,0.6C38.3,30.6,38.4,31,38.2,31.3z M38.3,29.9C38.3,29.9,38.3,29.9,38.3,29.9L38.3,29.9L38.3,29.9z M37.1,32 L37.1,32C37.1,32,37.1,32,37.1,32L37.1,32z M33.3,32C33.3,32,33.3,32,33.3,32L33.3,32L33.3,32z"></path> </g> </g> </g> <g> <path class="st1" d="M39.2,40.9c0.8,0.1,0.9,0.4,0.9,0.8V42h-1.6v-0.2c0-0.3,0.1-0.5-0.7-0.6c-0.3,0-0.6,0-0.9,0 c-0.5,0-1.1,0-1.6,0V42h-1.6v-2.9h4.8c1.4,0,1.6,0.4,1.6,1C40.1,40.6,39.9,40.7,39.2,40.9z M37.7,39.8h-2.4v0.7h2.4 c0.5,0,0.8,0,0.8-0.3C38.5,39.9,38.2,39.8,37.7,39.8z"></path> <path class="st1" d="M51.3,42l-0.5-0.5h-3.2L47,42h-1.8l2.8-2.9h2.1L53,42H51.3z M49.1,39.8l-1,1.1h2L49.1,39.8z"></path> <path class="st1" d="M63,42h-2.8c-1.8,0-2.3-0.3-2.3-1.3c0-0.4-0.1-1,0.5-1.4c0.5-0.3,1.3-0.3,2-0.3c0.6,0,1.2,0,1.8,0 c1.6,0,2.4,0,2.4,1v0h-1.6c0-0.4-0.7-0.3-1.3-0.3c-0.5,0-0.9,0-1.4,0c-0.3,0-0.6,0-0.7,0.2c-0.1,0.1-0.1,0.4-0.1,0.5 c0,0.7,0.1,0.8,1.4,0.8c0.5,0,0.9,0,1.4,0c0.6,0,0.8-0.1,0.8-0.4h1.6C64.8,41.7,64.6,42,63,42z"></path> <path class="st1" d="M71.3,42v-2.9h1.6V42H71.3z"></path> <path class="st1" d="M83.9,42l-3-2.1V42h-1.6v-2.9h2.5l3,2.1v-2.1h1.6V42H83.9z"></path> <path class="st1" d="M96.5,42h-3.1c-1.6,0-1.8-0.5-1.8-1.3c0-1-0.2-1.6,2.2-1.6h2.7c1.3,0,1.8,0.2,1.8,0.9v0.1h-1.6 c-0.1-0.4-0.6-0.3-1.1-0.3c-0.4,0-0.7,0-1.1,0c-1,0-1.4,0-1.4,0.6c0,0.8-0.1,0.9,1.4,0.9c0.5,0,1,0,1.5,0c0.2,0,0.5,0,0.6-0.1 c0,0,0-0.1,0-0.1v-0.1h-2v-0.6h3.6c0,0.2,0,0.4,0,0.6C98.4,41.8,98,42,96.5,42z"></path> </g> </g> </g> </g> </g> </svg> 