<?xml version="1.0" encoding="UTF-8"?> <svg xmlns="http://www.w3.org/2000/svg" xmlns:xlink="http://www.w3.org/1999/xlink" version="1.1" id="Layer_1" x="0px" y="0px" viewBox="0 0 130 120" style="enable-background:new 0 0 130 120;" xml:space="preserve"> <style type="text/css"> .st0{fill:#002554;} .st1{fill:#FFFFFF;} .st2{fill:#E31837;} .st3{fill-rule:evenodd;clip-rule:evenodd;fill:#FFFFFF;} .st4{fill:#002F65;} .st5{fill:#231F20;} .st6{fill:#F26522;} .st7{fill:#081218;} </style> <g> <g> <g> <g> <g> <g> <g> <path class="st0" d="M65,109.48c-1.72,0-3.4-0.41-4.73-1.14L22.95,87.54c-2.56-1.42-4.82-4.56-5.36-7.44l-0.35-1.84 L0.42,73.6V47.5h11.05L9.1,34.83c-0.55-2.94,0.5-6.69,2.5-8.91l10.53-11.7c1.93-2.14,5.42-3.7,8.3-3.7h69.16 c2.88,0,6.37,1.55,8.3,3.7l10.53,11.7c2,2.23,3.05,5.98,2.5,8.92l-2.38,12.67h11.05v26.1l-16.82,4.66l-0.35,1.84 c-0.54,2.89-2.79,6.01-5.36,7.44l-37.32,20.79C68.4,109.07,66.73,109.48,65,109.48z"></path> </g> <polygon class="st0" points="111.4,72.67 128.36,72.67 128.36,72.67 111.4,77.38 "></polygon> <polygon class="st0" points="18.6,72.67 1.64,72.67 1.64,72.67 18.6,77.38 "></polygon> <g> <path class="st1" d="M111.22,79.88c-0.47,2.52-2.52,5.36-4.75,6.6l-37.33,20.79c-1.15,0.64-2.61,0.99-4.14,0.99 c-1.52,0-2.99-0.35-4.13-0.99L23.54,86.48c-2.24-1.25-4.28-4.09-4.75-6.6l-0.93-4.96l-6.22-33.15l-1.35-7.16 c-0.48-2.56,0.47-5.94,2.21-7.88l10.52-11.69c1.69-1.88,4.87-3.29,7.4-3.29h69.16c2.53,0,5.71,1.41,7.39,3.29l10.53,11.69 c1.74,1.94,2.69,5.32,2.21,7.88l-1.35,7.16L111.22,79.88z"></path> <path class="st0" d="M65,109.66c-1.76,0-3.47-0.41-4.82-1.17L22.86,87.7c-2.61-1.45-4.9-4.63-5.45-7.57l-8.5-45.27 c-0.56-2.99,0.51-6.81,2.55-9.07L21.98,14.1c1.96-2.18,5.51-3.76,8.43-3.76h69.16c2.93,0,6.48,1.58,8.43,3.76l10.53,11.69 c2.04,2.27,3.11,6.08,2.54,9.07l-8.49,45.27v0c-0.55,2.93-2.84,6.12-5.45,7.57l-37.33,20.79 C68.47,109.25,66.76,109.66,65,109.66z M30.42,13.14c-2.13,0-4.93,1.24-6.36,2.83L13.54,27.66 c-1.45,1.62-2.28,4.55-1.88,6.69l8.5,45.27c0.4,2.12,2.18,4.6,4.06,5.64l37.33,20.79c1.88,1.05,5.03,1.05,6.91,0l37.33-20.79 c1.88-1.05,3.67-3.53,4.06-5.64v0l8.49-45.27c0.4-2.13-0.42-5.07-1.88-6.69l-10.53-11.69c-1.43-1.59-4.22-2.83-6.36-2.83 H30.42z"></path> </g> <path class="st1" d="M111.22,79.88c-0.47,2.52-2.52,5.36-4.75,6.6l-37.33,20.79c-1.15,0.64-2.61,0.99-4.14,0.99 c-1.52,0-2.99-0.35-4.13-0.99L23.54,86.48c-2.24-1.25-4.28-4.09-4.75-6.6l-0.93-4.96l-6.22-33.15l-1.35-7.16 c-0.48-2.56,0.47-5.94,2.21-7.88l10.52-11.69c1.69-1.88,4.87-3.29,7.4-3.29h69.16c2.53,0,5.71,1.41,7.39,3.29l10.53,11.69 c1.74,1.94,2.69,5.32,2.21,7.88l-1.35,7.16L111.22,79.88z"></path> <g> <path class="st2" d="M21.46,79.38c0.33,1.74,1.86,3.87,3.41,4.73l37.33,20.79c1.54,0.86,4.08,0.86,5.62,0l37.33-20.79 c1.55-0.86,3.08-2.99,3.41-4.73l1.35-7.18H20.11L21.46,79.38z"></path> <path class="st0" d="M117.04,34.1c0.33-1.74-0.38-4.24-1.56-5.56l-10.53-11.69c-1.18-1.32-3.6-2.39-5.37-2.39H30.42 c-1.77,0-4.19,1.08-5.37,2.39L14.52,28.55c-1.18,1.32-1.89,3.82-1.56,5.56l2.83,15.09h98.41L117.04,34.1z"></path> </g> <path class="st1" d="M128.36,72.67H1.64V48.71h126.72V72.67z"></path> <rect x="1.64" y="72.67" class="st0" width="126.72" height="1.22"></rect> <rect x="1.64" y="47.5" class="st0" width="126.72" height="1.22"></rect> </g> <g> <polyline class="st3" points="65,93.44 66.2,97.04 70.16,97 66.94,99.33 68.08,102.95 65,100.75 61.9,102.95 63.04,99.33 59.99,97.07 63.79,97.04 65,93.44 "></polyline> <g> <path class="st1" d="M31.14,76.76h2.2L36,80.12h0.01v-3.36h1.42v4.63h-2.2l-2.67-3.36h-0.01v3.36h-1.42V76.76z"></path> <path class="st1" d="M43.39,76.76h1.85l2.54,4.63H46.2l-0.44-0.82h-2.88l-0.42,0.82h-1.59L43.39,76.76z M43.41,79.57h1.82 l-0.92-1.74L43.41,79.57z"></path> <path class="st1" d="M50.42,76.76h5.41v1.15h-2v3.48h-1.42v-3.48h-2V76.76z"></path> <path class="st1" d="M59.47,76.76h1.42v4.63h-1.42V76.76z"></path> <path class="st1" d="M64.76,78.38c0-1.36,0.76-1.67,2.04-1.67h2.28c1.28,0,2.04,0.32,2.04,1.67v1.38 c0,1.36-0.76,1.67-2.04,1.67H66.8c-1.28,0-2.04-0.32-2.04-1.67V78.38z M66.22,79.32c0,0.67,0.14,0.93,0.81,0.93h1.82 c0.67,0,0.81-0.26,0.81-0.93v-0.5c0-0.58-0.14-0.93-0.89-0.93h-1.66c-0.75,0-0.89,0.35-0.89,0.93V79.32z"></path> <path class="st1" d="M74.91,76.76h2.2l2.67,3.36h0.01v-3.36h1.42v4.63h-2.2l-2.67-3.36h-0.01v3.36h-1.42V76.76z"></path> <path class="st1" d="M87.17,76.76h1.85l2.54,4.63h-1.58l-0.44-0.82h-2.88l-0.42,0.82h-1.59L87.17,76.76z M87.19,79.57h1.82 l-0.92-1.74L87.19,79.57z"></path> <path class="st1" d="M95,76.76h1.42v3.44h3.19v1.19H95V76.76z"></path> </g> <g> <g> <path class="st0" d="M58.39,84.64h2.33c0.52,0,0.81,0.11,0.81,0.77c0,0.63-0.05,0.95-0.88,0.95h-1.87v1.11h-0.38V84.64z M61.15,85.37c0-0.34-0.18-0.42-0.52-0.42h-1.86v1.09h1.89c0.3,0,0.48-0.11,0.48-0.4V85.37z"></path> <path class="st0" d="M58.85,87.54h-0.53v-2.98h2.4c0.56,0,0.88,0.14,0.88,0.84c0,0.63-0.05,1.02-0.96,1.02h-1.8V87.54z M58.47,87.39h0.23v-1.11h1.95c0.77,0,0.81-0.27,0.81-0.87c0-0.59-0.23-0.69-0.73-0.69h-2.25V87.39z M60.66,86.12H58.7 v-1.24h1.93c0.29,0,0.59,0.06,0.59,0.49v0.27C61.22,85.96,61.03,86.12,60.66,86.12z M58.85,85.97h1.81 c0.29,0,0.41-0.1,0.41-0.33v-0.27c0-0.26-0.11-0.34-0.44-0.34h-1.78V85.97z"></path> </g> <g> <path class="st0" d="M63.21,84.64h0.48l1.68,2.83h-0.43l-0.35-0.6h-2.27l-0.35,0.6h-0.43L63.21,84.64z M63.45,84.95 l-0.95,1.61h1.9L63.45,84.95z"></path> <path class="st0" d="M65.5,87.54h-0.61l-0.35-0.6h-2.18l-0.35,0.6H61.4l1.77-2.98h0.56L65.5,87.54z M64.98,87.39h0.26 l-1.59-2.68h-0.39l-1.59,2.68h0.26l0.35-0.6h2.35L64.98,87.39z M64.53,86.63h-2.16l1.08-1.83L64.53,86.63z M62.63,86.48 h1.64l-0.82-1.38L62.63,86.48z"></path> </g> <g> <path class="st0" d="M65.81,84.64h0.38v2.52h2.2v0.31h-2.58V84.64z"></path> <path class="st0" d="M68.46,87.54h-2.73v-2.98h0.53v2.52h2.2V87.54z M65.88,87.39h2.43v-0.16h-2.2v-2.52h-0.23V87.39z"></path> </g> <g> <path class="st0" d="M70.16,84.64h0.48l1.68,2.83h-0.43l-0.35-0.6h-2.27l-0.35,0.6h-0.43L70.16,84.64z M70.4,84.95 l-0.95,1.61h1.9L70.4,84.95z"></path> <path class="st0" d="M72.45,87.54h-0.61l-0.35-0.6h-2.18l-0.35,0.6h-0.61l1.77-2.98h0.56l0.02,0.04L72.45,87.54z M71.92,87.39h0.26l-1.59-2.68H70.2l-1.59,2.68h0.26l0.35-0.6h2.35L71.92,87.39z M71.48,86.63h-2.16l1.08-1.83L71.48,86.63z M69.58,86.48h1.63L70.4,85.1L69.58,86.48z"></path> </g> <g> <path class="st0" d="M49.09,89.84c0-0.71,0.24-1.06,1.01-1.06h1.46c0.7,0,0.89,0.32,0.89,0.7v0.24h-0.34V89.6 c0-0.48-0.3-0.5-0.65-0.5h-1.33c-0.37,0-0.66,0.11-0.66,0.6v1.06c0,0.49,0.3,0.6,0.66,0.6h1.34c0.52,0,0.66-0.11,0.66-0.49 v-0.18h0.36v0.19c0,0.51-0.16,0.79-0.96,0.79H50.1c-0.77,0-1.01-0.34-1.01-1.06V89.84z"></path> <path class="st0" d="M51.54,91.75H50.1c-0.77,0-1.08-0.33-1.08-1.13v-0.77c0-0.81,0.31-1.13,1.08-1.13h1.46 c0.79,0,0.96,0.42,0.96,0.78v0.32h-0.49v-0.2c0-0.39-0.18-0.43-0.57-0.43h-1.33c-0.42,0-0.59,0.15-0.59,0.53v1.06 c0,0.37,0.17,0.53,0.59,0.53h1.34c0.5,0,0.59-0.1,0.59-0.42v-0.25h0.51v0.27C52.57,91.42,52.4,91.75,51.54,91.75z M50.1,88.86c-0.68,0-0.93,0.27-0.93,0.98v0.77c0,0.72,0.25,0.98,0.93,0.98h1.45c0.75,0,0.88-0.24,0.88-0.71v-0.12h-0.21 v0.1c0,0.48-0.25,0.57-0.74,0.57h-1.34c-0.18,0-0.74,0-0.74-0.68V89.7c0-0.68,0.56-0.68,0.74-0.68h1.33 c0.31,0,0.72,0,0.72,0.58v0.05h0.19v-0.17c0-0.27-0.08-0.63-0.81-0.63H50.1z"></path> </g> <g> <path class="st0" d="M54.48,88.81h0.48l1.68,2.83h-0.43l-0.35-0.6h-2.27l-0.35,0.6H52.8L54.48,88.81z M54.72,89.13 l-0.95,1.61h1.9L54.72,89.13z"></path> <path class="st0" d="M56.77,91.72h-0.61l-0.35-0.6h-2.18l-0.35,0.6h-0.61l1.77-2.98H55L56.77,91.72z M56.25,91.57h0.26 l-1.59-2.68h-0.39l-1.59,2.68h0.26l0.35-0.6h2.35L56.25,91.57z M55.8,90.81h-2.16l1.08-1.83L55.8,90.81z M53.9,90.66h1.64 l-0.82-1.38L53.9,90.66z"></path> </g> <g> <path class="st0" d="M57.08,88.81h0.38v2.52h2.2v0.31h-2.58V88.81z"></path> <path class="st0" d="M59.73,91.72H57v-2.98h0.53v2.52h2.2V91.72z M57.15,91.57h2.43V91.4h-2.2v-2.52h-0.23V91.57z"></path> </g> <g> <path class="st0" d="M60.08,88.81h0.38v2.83h-0.38V88.81z"></path> <path class="st0" d="M60.54,91.72h-0.53v-2.98h0.53V91.72z M60.16,91.57h0.23v-2.68h-0.23V91.57z"></path> </g> <g> <path class="st0" d="M61.23,88.81h2.7v0.31h-2.31v0.9h2.22v0.31h-2.22v1.3h-0.38V88.81z"></path> <path class="st0" d="M61.68,91.72h-0.53v-2.98H64v0.46h-2.31v0.75h2.22v0.46h-2.22V91.72z M61.3,91.57h0.23v-1.3h2.22V90.1 h-2.22v-1.05h2.31v-0.16H61.3V91.57z"></path> </g> <g> <path class="st0" d="M64.43,89.84c0-0.71,0.24-1.06,1.01-1.06h1.63c0.77,0,1.01,0.34,1.01,1.06v0.77 c0,0.71-0.24,1.06-1.01,1.06h-1.63c-0.77,0-1.01-0.34-1.01-1.06V89.84z M67.69,89.7c0-0.49-0.3-0.6-0.66-0.6h-1.55 c-0.37,0-0.66,0.11-0.66,0.6v1.06c0,0.49,0.3,0.6,0.66,0.6h1.55c0.37,0,0.66-0.11,0.66-0.6V89.7z"></path> <path class="st0" d="M67.07,91.75h-1.63c-0.77,0-1.08-0.33-1.08-1.13v-0.77c0-0.81,0.31-1.13,1.08-1.13h1.63 c0.77,0,1.08,0.33,1.08,1.13v0.77C68.15,91.42,67.84,91.75,67.07,91.75z M65.44,88.86c-0.68,0-0.93,0.27-0.93,0.98v0.77 c0,0.72,0.25,0.98,0.93,0.98h1.63c0.68,0,0.93-0.27,0.93-0.98v-0.77c0-0.72-0.25-0.98-0.93-0.98H65.44z M67.03,91.44h-1.55 c-0.18,0-0.74,0-0.74-0.68V89.7c0-0.68,0.56-0.68,0.74-0.68h1.55c0.18,0,0.74,0,0.74,0.68v1.06 C67.77,91.44,67.21,91.44,67.03,91.44z M65.48,89.17c-0.42,0-0.59,0.15-0.59,0.53v1.06c0,0.37,0.17,0.53,0.59,0.53h1.55 c0.42,0,0.59-0.15,0.59-0.53V89.7c0-0.37-0.17-0.53-0.59-0.53H65.48z"></path> </g> <g> <path class="st0" d="M68.73,88.81h2.26c0.82,0,0.95,0.27,0.95,0.8v0.23c0,0.4-0.23,0.51-0.52,0.54v0.01 c0.39,0.07,0.48,0.27,0.48,0.53v0.72h-0.36v-0.62c0-0.44-0.21-0.5-0.56-0.5h-1.87v1.12h-0.38V88.81z M70.95,90.21 c0.43,0,0.61-0.11,0.61-0.41v-0.26c0-0.32-0.14-0.42-0.7-0.42h-1.74v1.09H70.95z"></path> <path class="st0" d="M71.98,91.72h-0.51v-0.7c0-0.38-0.16-0.42-0.49-0.42h-1.79v1.12h-0.53v-2.98h2.34 c0.86,0,1.02,0.31,1.02,0.88v0.23c0,0.33-0.15,0.48-0.32,0.55c0.19,0.1,0.29,0.27,0.29,0.52V91.72z M71.62,91.57h0.21v-0.65 c0-0.23-0.07-0.39-0.42-0.46l-0.06-0.01v-0.13l0.07-0.01c0.27-0.03,0.45-0.11,0.45-0.46v-0.23c0-0.51-0.12-0.73-0.87-0.73 h-2.19v2.68h0.23v-1.12h1.94c0.34,0,0.64,0.04,0.64,0.57V91.57z M70.95,90.29h-1.91v-1.24h1.82c0.51,0,0.77,0.08,0.77,0.49 v0.26C71.63,90.23,71.27,90.29,70.95,90.29z M69.19,90.14h1.76c0.44,0,0.53-0.12,0.53-0.33v-0.26 c0-0.24-0.06-0.34-0.62-0.34h-1.67V90.14z"></path> </g> <g> <path class="st0" d="M72.59,88.81h0.57l2.59,2.48v-2.48h0.38v2.83h-0.57l-2.59-2.48v2.48h-0.38V88.81z"></path> <path class="st0" d="M76.21,91.72h-0.68l-0.02-0.02l-2.46-2.36v2.38h-0.53v-2.98h0.68l0.02,0.02l2.46,2.36v-2.38h0.53V91.72 z M75.59,91.57h0.46v-2.68h-0.23v2.58l-2.7-2.58h-0.46v2.68h0.23v-2.58L75.59,91.57z"></path> </g> <g> <path class="st0" d="M76.88,88.81h0.38v2.83h-0.38V88.81z"></path> <path class="st0" d="M77.33,91.72H76.8v-2.98h0.53V91.72z M76.95,91.57h0.23v-2.68h-0.23V91.57z"></path> </g> <g> <path class="st0" d="M79.39,88.81h0.48l1.68,2.83h-0.43l-0.35-0.6h-2.27l-0.35,0.6h-0.43L79.39,88.81z M79.62,89.13 l-0.95,1.61h1.9L79.62,89.13z"></path> <path class="st0" d="M81.67,91.72h-0.61l-0.35-0.6h-2.18l-0.35,0.6h-0.61l1.77-2.98h0.56l0.02,0.04L81.67,91.72z M81.15,91.57h0.26l-1.59-2.68h-0.39l-1.59,2.68h0.26l0.35-0.6h2.35L81.15,91.57z M80.71,90.81h-2.16l1.08-1.83L80.71,90.81 z M78.81,90.66h1.63l-0.82-1.38L78.81,90.66z"></path> </g> </g> </g> </g> <g> <g> <g> <g> <g> <g> <g> <g> <g> <path class="st4" d="M106.36,89.19h1.19c0.26,0,0.41,0.06,0.41,0.39c0,0.32-0.03,0.48-0.45,0.48h-0.96v0.57h-0.2V89.19 z M107.77,89.57c0-0.17-0.09-0.21-0.26-0.21h-0.95v0.56h0.97c0.16,0,0.25-0.06,0.25-0.21V89.57z"></path> <path class="st4" d="M106.61,90.69h-0.3v-1.55h1.24c0.29,0,0.47,0.07,0.47,0.45c0,0.33-0.03,0.54-0.5,0.54h-0.91V90.69 z M106.42,90.59h0.09v-0.57h1.01c0.38,0,0.4-0.12,0.4-0.43c0-0.29-0.11-0.34-0.36-0.34h-1.14V90.59z M107.53,89.96 h-1.02V89.3h1c0.15,0,0.32,0.03,0.32,0.27v0.14C107.83,89.82,107.77,89.96,107.53,89.96z M106.61,89.86h0.91 c0.17,0,0.2-0.07,0.2-0.15v-0.14c0-0.12-0.05-0.16-0.21-0.16h-0.9V89.86z"></path> </g> <g> <path class="st4" d="M108.23,89.19h1.16c0.42,0,0.48,0.14,0.48,0.41v0.12c0,0.2-0.12,0.26-0.27,0.27v0 c0.2,0.04,0.25,0.14,0.25,0.27v0.37h-0.18v-0.32c0-0.23-0.11-0.25-0.29-0.25h-0.96v0.57h-0.2V89.19z M109.36,89.91 c0.22,0,0.31-0.06,0.31-0.21v-0.13c0-0.16-0.07-0.21-0.36-0.21h-0.89v0.56H109.36z"></path> <path class="st4" d="M109.9,90.69h-0.29v-0.37c0-0.18-0.07-0.2-0.24-0.2h-0.9v0.57h-0.3v-1.55h1.21 c0.45,0,0.54,0.16,0.54,0.46v0.12c0,0.16-0.07,0.24-0.15,0.28c0.09,0.05,0.13,0.14,0.13,0.27V90.69z M109.72,90.59 h0.08v-0.32c0-0.11-0.03-0.19-0.21-0.22l-0.01,0c0.08,0.04,0.14,0.11,0.14,0.27V90.59z M108.28,90.59h0.09v-0.57h1.01 c0.06,0,0.12,0,0.17,0.02v-0.08l0.05-0.01c0.16-0.02,0.22-0.08,0.22-0.22V89.6c0-0.24-0.04-0.36-0.43-0.36h-1.11V90.59 z M109.37,89.96h-0.99V89.3h0.94c0.27,0,0.41,0.04,0.41,0.27v0.13C109.73,89.93,109.53,89.96,109.37,89.96z M108.48,89.86h0.89c0.24,0,0.26-0.07,0.26-0.16v-0.13c0-0.11-0.01-0.16-0.31-0.16h-0.84V89.86z"></path> </g> <g> <path class="st4" d="M110.22,89.19h1.42v0.16h-1.23v0.46h1.18v0.16h-1.18v0.51h1.23v0.16h-1.43V89.19z"></path> <path class="st4" d="M111.7,90.69h-1.53v-1.55h1.52v0.26h-1.23v0.36h1.18v0.26h-1.18v0.4h1.23V90.69z M110.27,90.59 h1.33v-0.06h-1.23v-0.61h1.18v-0.06h-1.18V89.3h1.23v-0.06h-1.32V90.59z"></path> </g> <g> <path class="st4" d="M111.91,90.19h0.18v0.1c0,0.14,0.08,0.21,0.32,0.21h0.61c0.28,0,0.37-0.06,0.37-0.27 c0-0.18-0.07-0.23-0.32-0.23h-0.37c-0.6,0-0.79-0.04-0.79-0.42c0-0.33,0.2-0.4,0.6-0.4h0.42 c0.49,0,0.61,0.12,0.61,0.38v0.05h-0.18c0-0.23-0.03-0.27-0.54-0.27h-0.21c-0.38,0-0.51,0.02-0.51,0.26 c0,0.17,0.05,0.23,0.36,0.23h0.58c0.38,0,0.54,0.11,0.54,0.36v0.09c0,0.36-0.29,0.38-0.58,0.38h-0.54 c-0.29,0-0.54-0.05-0.54-0.37V90.19z"></path> <path class="st4" d="M112.99,90.71h-0.54c-0.18,0-0.59,0-0.59-0.42v-0.16h0.29v0.15c0,0.09,0.02,0.16,0.27,0.16h0.61 c0.29,0,0.32-0.06,0.32-0.22c0-0.13-0.02-0.18-0.26-0.18h-0.37c-0.55,0-0.84-0.02-0.84-0.47 c0-0.38,0.25-0.46,0.65-0.46h0.42c0.48,0,0.66,0.12,0.66,0.43v0.1h-0.29l0-0.05c0-0.19,0-0.22-0.49-0.22h-0.21 c-0.4,0-0.46,0.03-0.46,0.21c0,0.12,0,0.18,0.31,0.18h0.58c0.25,0,0.59,0.04,0.59,0.41v0.09 C113.62,90.71,113.23,90.71,112.99,90.71z M111.96,90.24v0.05c0,0.23,0.14,0.31,0.49,0.31h0.54 c0.34,0,0.53-0.05,0.53-0.33v-0.09c0-0.16-0.06-0.3-0.49-0.3h-0.58c-0.31,0-0.41-0.07-0.41-0.28 c0-0.29,0.2-0.31,0.56-0.31h0.21c0.48,0,0.58,0.04,0.59,0.27h0.08c0-0.19-0.04-0.33-0.56-0.33h-0.42 c-0.42,0-0.55,0.08-0.55,0.35c0,0.32,0.1,0.37,0.74,0.37h0.37c0.24,0,0.37,0.04,0.37,0.28c0,0.27-0.15,0.32-0.42,0.32 h-0.61c-0.18,0-0.37-0.03-0.37-0.26v-0.05H111.96z"></path> </g> <g> <path class="st4" d="M113.92,89.19h1.42v0.16h-1.23v0.46h1.18v0.16h-1.18v0.51h1.23v0.16h-1.43V89.19z"></path> <path class="st4" d="M115.4,90.69h-1.53v-1.55h1.52v0.26h-1.23v0.36h1.18v0.26h-1.18v0.4h1.23V90.69z M113.97,90.59 h1.33v-0.06h-1.23v-0.61h1.18v-0.06h-1.18V89.3h1.23v-0.06h-1.32V90.59z"></path> </g> <g> <path class="st4" d="M115.63,89.19h0.29l1.33,1.27v-1.27h0.2v1.45h-0.29l-1.33-1.27v1.27h-0.2V89.19z"></path> <path class="st4" d="M117.5,90.69h-0.36l-0.02-0.01l-1.24-1.19v1.2h-0.3v-1.55h0.36l0.02,0.01l1.24,1.19v-1.2h0.3 V90.69z M117.17,90.59h0.22v-1.34h-0.09v1.34l-1.4-1.34h-0.22v1.34h0.09v-1.34L117.17,90.59z"></path> </g> <g> <path class="st4" d="M118.39,89.35h-0.73v-0.16h1.66v0.16h-0.73v1.29h-0.2V89.35z"></path> <path class="st4" d="M118.64,90.69h-0.3v-1.29h-0.73v-0.26h1.76v0.26h-0.73V90.69z M118.44,90.59h0.09V89.3h0.73v-0.06 h-1.56v0.06h0.73V90.59z"></path> </g> <g> <path class="st4" d="M119.55,89.19h1.42v0.16h-1.23v0.46h1.18v0.16h-1.18v0.51h1.23v0.16h-1.43V89.19z"></path> <path class="st4" d="M121.03,90.69h-1.53v-1.55h1.52v0.26h-1.23v0.36h1.18v0.26h-1.18v0.4h1.23V90.69z M119.6,90.59 h1.33v-0.06h-1.23v-0.61h1.18v-0.06h-1.18V89.3h1.23v-0.06h-1.32V90.59z"></path> </g> <g> <path class="st4" d="M121.26,89.19h1.17c0.49,0,0.62,0.15,0.62,0.72c0,0.53-0.13,0.72-0.62,0.72h-1.16V89.19z M122.85,89.85c0-0.42-0.13-0.49-0.37-0.49h-1.03v1.13h0.99c0.24,0,0.4-0.05,0.4-0.49V89.85z"></path> <path class="st4" d="M122.42,90.69h-1.22v-1.55h1.22c0.52,0,0.67,0.17,0.67,0.78C123.1,90.5,122.93,90.69,122.42,90.69 z M121.31,90.59h1.11c0.44,0,0.57-0.15,0.57-0.67c0-0.54-0.11-0.67-0.57-0.67h-1.12V90.59z M122.45,90.53h-1.04V89.3 h1.08c0.26,0,0.42,0.09,0.42,0.55V90C122.9,90.44,122.73,90.53,122.45,90.53z M121.51,90.43h0.94 c0.21,0,0.35-0.03,0.35-0.43v-0.15c0-0.41-0.13-0.44-0.32-0.44h-0.97V90.43z"></path> </g> <g> <path class="st4" d="M124.36,89.19h1.24c0.3,0,0.38,0.16,0.38,0.32v0.12c0,0.1-0.06,0.21-0.23,0.23v0.01 c0.15,0.01,0.29,0.07,0.29,0.29v0.17c0,0.2-0.18,0.31-0.42,0.31h-1.26V89.19z M125.78,89.51 c0-0.13-0.15-0.15-0.21-0.15h-1.02v0.46h1.01c0.11,0,0.22-0.03,0.22-0.18V89.51z M125.84,90.18 c0-0.18-0.1-0.21-0.28-0.21h-1.01v0.51h1.04c0.18,0,0.25-0.07,0.25-0.19V90.18z"></path> <path class="st4" d="M125.61,90.69h-1.31v-1.55h1.29c0.38,0,0.44,0.23,0.44,0.37v0.12c0,0.1-0.04,0.17-0.11,0.22 c0.11,0.05,0.17,0.15,0.17,0.3v0.17C126.09,90.55,125.9,90.69,125.61,90.69z M124.41,90.59h1.2 c0.18,0,0.37-0.07,0.37-0.26v-0.17c0-0.16-0.07-0.23-0.24-0.23l-0.05,0v-0.08c-0.04,0.01-0.08,0.02-0.13,0.02h-1.06 V89.3h1.07c0.13,0,0.26,0.06,0.26,0.2v0.13c0,0.08-0.03,0.14-0.08,0.18c0.14-0.02,0.17-0.11,0.17-0.17v-0.12 c0-0.18-0.11-0.27-0.33-0.27h-1.18V90.59z M124.61,89.76h0.96c0.15,0,0.16-0.07,0.16-0.13v-0.13 c0-0.1-0.13-0.1-0.15-0.1h-0.97V89.76z M125.59,90.53h-1.09v-0.61h1.06c0.16,0,0.33,0.02,0.33,0.26v0.1 C125.89,90.45,125.79,90.53,125.59,90.53z M124.61,90.43h0.98c0.18,0,0.2-0.07,0.2-0.14v-0.1 c0-0.13-0.04-0.16-0.23-0.16h-0.95V90.43z"></path> </g> <g> <path class="st4" d="M127.06,90.03l-0.83-0.84h0.26l0.66,0.67l0.66-0.67h0.26l-0.83,0.84v0.61h-0.2V90.03z"></path> <path class="st4" d="M127.3,90.69H127v-0.64l-0.9-0.91h0.41l0.64,0.65l0.64-0.65h0.41l-0.9,0.91V90.69z M127.11,90.59 h0.09v-0.58l0.02-0.02l0.74-0.75h-0.12l-0.68,0.69l-0.69-0.69h-0.12l0.76,0.76V90.59z"></path> </g> </g> </g> </g> </g> </g> </g> </g> <path class="st5" d="M122.53,97.31c0,0,0.54-1.09,0.54-2.66c0-1.37-0.49-2.36-0.49-2.36s-2.08,0.23-3.95,2.36h-2.74 c-1.87-2.13-3.95-2.36-3.95-2.36s-0.49,1-0.49,2.36c0,1.56,0.54,2.66,0.54,2.66c-0.59,0.52-1.76,1.63-1.74,3.46 c0.02,1.59,0.61,2.27,0.61,2.27c0.46-0.75,0.8-0.78,0.8-0.78c0.03,1.41,0.86,2.19,0.86,2.19c0.14-1.2,0.77-1.33,0.77-1.33 c0.1,1.29,1.01,2.26,1.01,2.26c-0.1-1.24,0.58-1.69,0.58-1.69l1.87,5.6h1l1.87-5.6c0,0,0.67,0.45,0.58,1.69 c0,0,0.92-0.98,1.01-2.26c0,0,0.63,0.13,0.77,1.33c0,0,0.83-0.78,0.86-2.19c0,0,0.34,0.04,0.8,0.78c0,0,0.59-0.68,0.61-2.27 C124.29,98.94,123.12,97.83,122.53,97.31z M116.11,102.78c0,0.08-0.13,0.08-0.13,0c0-0.08,0-0.83-0.09-1.51 c-0.09-0.68-0.22-1.1-0.4-1.4c-0.18-0.3-0.4-0.2-0.52-0.07c-0.25,0.25-0.31,0.31-0.65,0.09c-0.35-0.23-0.63-0.26-1.12-0.38 c-0.49-0.12-1.02-0.46-1.06-0.91c-0.03-0.45,0.34-0.69,0.34-0.69s0.29,0.53,1.06,0.58c1,0.06,1.38-0.04,1.93,0.13 c0.58,0.17,0.65,0.42,0.65,0.93C116.13,99.96,116.11,102.68,116.11,102.78z M122.37,98.6c-0.03,0.45-0.56,0.79-1.06,0.91 c-0.49,0.12-0.77,0.15-1.12,0.38c-0.33,0.22-0.39,0.16-0.65-0.09c-0.12-0.12-0.34-0.22-0.52,0.07c-0.18,0.3-0.31,0.72-0.4,1.4 c-0.09,0.68-0.09,1.43-0.09,1.51c0,0.08-0.13,0.08-0.13,0c0-0.11-0.02-2.82-0.02-3.23c0-0.51,0.07-0.76,0.65-0.93 c0.56-0.16,0.94-0.06,1.93-0.13c0.78-0.05,1.06-0.58,1.06-0.58S122.4,98.15,122.37,98.6z"></path> </g> </g> </g> <g> <g> <path class="st0" d="M14.81,53.81h7.68l-0.86,3.4h-3.8v2.57h3.8v3.08h-3.8v4.78h-3.02V53.81z"></path> <path class="st0" d="M29.86,53.81c1.02,0,1.76,1.01,1.76,2.41v9c0,1.4-0.73,2.41-1.76,2.41h-5.18c-1.02,0-1.76-1.01-1.76-2.41 v-9c0-1.4,0.73-2.41,1.76-2.41H29.86z M28.59,64.23V57.2h-2.65v7.03H28.59z"></path> <path class="st0" d="M38.38,53.81h3.31l-1.58,5.23c-0.26,0.83-0.59,1.24-1.05,1.44c0.46,0.14,0.82,0.45,1.06,1.26l1.74,5.88 h-3.42l-1.38-5h-0.35l-1.38,5H31.9l1.74-5.88c0.24-0.81,0.6-1.13,1.06-1.26c-0.46-0.2-0.79-0.61-1.05-1.44l-1.58-5.23h3.31 l1.29,5.03h0.4L38.38,53.81z"></path> <path class="st0" d="M53.77,59.85c0,1.16-0.62,2.01-1.47,2.01h-0.13l2.22,5.77h-3.11l-2.69-7.46h2.16V57.2h-2.49v10.43h-3.02 V53.81h6.78c1.02,0,1.76,1.01,1.76,2.41V59.85z"></path> <path class="st0" d="M56.85,53.81h5.09l2.73,13.82h-5.87v-3h1.97l-1.15-6.83h-0.58l-1.8,9.83H54.1L56.85,53.81z"></path> <path class="st0" d="M72.5,53.81l-0.86,3.4h-3.65v7.03h4.52l-0.86,3.4h-4.92c-1.02,0-1.76-1.01-1.76-2.41v-9 c0-1.4,0.73-2.41,1.76-2.41H72.5z"></path> <path class="st0" d="M73.37,53.81h7.68l-0.86,3.4h-3.8v2.13h3.8v2.61h-3.8v2.29h4.66l-0.86,3.4h-6.82V53.81z"></path> <path class="st0" d="M81.77,53.81h3.02v10.43h2.34V53.81h3.02v10.43h2.34V53.81h3.02v13.82h-12c-1.02,0-1.76-1.01-1.76-2.41 V53.81z"></path> <path class="st0" d="M98.63,53.81h5.09l2.73,13.82h-5.87v-3h1.97l-1.15-6.83h-0.58l-1.8,9.83h-3.15L98.63,53.81z"></path> <path class="st0" d="M106.75,67.63l0.86-3.4h4.56v-1.34h-3.77c-0.85,0-1.47-0.85-1.47-2.01v-7.07h3.02v5.69h2.22v-5.69h3.02 v11.41c0,1.4-0.73,2.41-1.75,2.41H106.75z"></path> </g> </g> </g> <g> <rect x="34.12" y="17.85" class="st6" width="61.77" height="27.48"></rect> <g> <polygon class="st7" points="44.97,38.78 50.57,38.78 51.97,35.34 54.56,38.78 66.62,38.78 70.35,35.31 69.73,38.78 74.45,38.78 78.35,35.34 77.82,38.78 82.91,38.78 85.03,29.19 79.9,29.19 75.75,32.85 76.56,29.19 71.65,29.19 66.29,34.56 68.53,27.99 76.72,27.99 77.09,26.31 55.62,26.31 54.99,27.99 62.89,27.99 59.56,36.42 56.93,32.97 61.47,29.19 57.68,29.19 53.02,32.91 54.59,29.19 49.04,29.19 "></polygon> </g> </g> </g> </svg> 