<?xml version="1.0" encoding="UTF-8"?> <svg xmlns="http://www.w3.org/2000/svg" xmlns:xlink="http://www.w3.org/1999/xlink" version="1.1" id="Layer_1" x="0px" y="0px" viewBox="0 0 130 120" style="enable-background:new 0 0 130 120;" xml:space="preserve"> <style type="text/css"> .st0{fill:#002554;} .st1{fill:#FFFFFF;} .st2{fill:#E31837;} .st3{fill-rule:evenodd;clip-rule:evenodd;fill:#FFFFFF;} </style> <g> <g> <g> <g> <path class="st0" d="M65,109.48c-1.72,0-3.4-0.41-4.73-1.14L22.95,87.54c-2.56-1.43-4.82-4.56-5.36-7.44l-0.35-1.84L0.42,73.6 V47.5h11.05L9.09,34.83c-0.55-2.94,0.5-6.69,2.5-8.91l10.52-11.7c1.93-2.14,5.42-3.7,8.3-3.7h69.16c2.88,0,6.37,1.55,8.3,3.7 l10.53,11.7c2,2.23,3.05,5.98,2.5,8.92l-2.38,12.67h11.05v26.1l-16.82,4.66l-0.34,1.84c-0.54,2.88-2.79,6.01-5.36,7.44 l-37.32,20.79C68.4,109.07,66.73,109.48,65,109.48z"></path> </g> <polygon class="st0" points="111.4,72.68 128.36,72.68 128.36,72.68 111.4,77.38 "></polygon> <polygon class="st0" points="18.6,72.68 1.64,72.68 1.64,72.68 18.6,77.38 "></polygon> <g> <path class="st1" d="M111.22,79.88c-0.47,2.52-2.52,5.36-4.76,6.6l-37.33,20.79c-1.15,0.64-2.61,0.99-4.14,0.99 c-1.52,0-2.99-0.35-4.13-0.99L23.54,86.48c-2.24-1.24-4.28-4.09-4.75-6.6l-0.93-4.96l-6.22-33.14l-1.34-7.17 c-0.48-2.56,0.47-5.94,2.21-7.88l10.52-11.69c1.69-1.88,4.87-3.29,7.39-3.29h69.16c2.53,0,5.7,1.42,7.39,3.29l10.53,11.69 c1.74,1.94,2.69,5.32,2.21,7.88l-1.35,7.16L111.22,79.88z"></path> <path class="st0" d="M65,109.66c-1.76,0-3.47-0.41-4.82-1.17L22.86,87.7c-2.61-1.45-4.9-4.63-5.45-7.57l-8.5-45.27 c-0.56-2.99,0.51-6.81,2.55-9.07L21.99,14.1c1.96-2.18,5.51-3.76,8.43-3.76h69.16c2.93,0,6.47,1.58,8.43,3.76l10.53,11.69 c2.04,2.27,3.11,6.08,2.54,9.07l-8.49,45.27v0c-0.55,2.93-2.84,6.12-5.45,7.57l-37.33,20.79 C68.47,109.25,66.76,109.66,65,109.66z M30.42,13.14c-2.13,0-4.93,1.24-6.36,2.83L13.54,27.66c-1.45,1.62-2.28,4.55-1.88,6.69 l8.5,45.27c0.4,2.12,2.18,4.6,4.06,5.64l37.33,20.79c1.88,1.05,5.03,1.05,6.91,0l37.33-20.79c1.88-1.05,3.67-3.52,4.06-5.64v0 l8.49-45.27c0.4-2.13-0.42-5.07-1.88-6.69l-10.53-11.69c-1.43-1.59-4.22-2.83-6.35-2.83H30.42z"></path> </g> <path class="st1" d="M111.22,79.88c-0.47,2.52-2.52,5.36-4.76,6.6l-37.33,20.79c-1.15,0.64-2.61,0.99-4.14,0.99 c-1.52,0-2.99-0.35-4.13-0.99L23.54,86.48c-2.24-1.24-4.28-4.09-4.75-6.6l-0.93-4.96l-6.22-33.14l-1.34-7.17 c-0.48-2.56,0.47-5.94,2.21-7.88l10.52-11.69c1.69-1.88,4.87-3.29,7.39-3.29h69.16c2.53,0,5.7,1.42,7.39,3.29l10.53,11.69 c1.74,1.94,2.69,5.32,2.21,7.88l-1.35,7.16L111.22,79.88z"></path> <g> <path class="st2" d="M21.46,79.38c0.33,1.74,1.86,3.87,3.41,4.73l37.33,20.79c1.54,0.86,4.08,0.86,5.62,0l37.33-20.79 c1.55-0.86,3.08-2.99,3.41-4.73l1.35-7.18H20.11L21.46,79.38z"></path> <path class="st0" d="M117.04,34.1c0.33-1.74-0.38-4.24-1.56-5.56l-10.53-11.69c-1.18-1.32-3.6-2.39-5.37-2.39H30.42 c-1.77,0-4.19,1.08-5.37,2.39L14.52,28.55c-1.18,1.32-1.89,3.82-1.56,5.56l2.83,15.09h98.41L117.04,34.1z"></path> </g> <path class="st1" d="M128.36,72.68H1.64V48.71h126.73V72.68z"></path> <rect x="1.64" y="72.68" class="st0" width="126.73" height="1.21"></rect> <rect x="1.64" y="47.5" class="st0" width="126.73" height="1.22"></rect> <g> <path class="st0" d="M27.26,53.81h3.02v5.23h2.65v-5.23h3.02v13.82h-3.02v-5.21h-2.65v5.21h-3.02V53.81z"></path> <path class="st0" d="M36.95,53.81h3.02v13.82h-3.02V53.81z"></path> <path class="st0" d="M42.67,67.63c-1.02,0-1.76-1.01-1.76-2.41v-9c0-1.4,0.73-2.41,1.76-2.41h6.5l-0.86,3.4h-4.38v7.03h2.5V62.1 h-1.47l0.69-2.73h3.35v8.25H42.67z"></path> <path class="st0" d="M49.96,53.81h3.02v5.23h2.65v-5.23h3.02v13.82h-3.02v-5.21h-2.65v5.21h-3.02V53.81z"></path> <path class="st0" d="M65.7,63.19v4.44h-3.02V53.81h6.63c1.02,0,1.76,1.01,1.76,2.41v4.56c0,1.4-0.73,2.41-1.76,2.41H65.7z M68.06,60.09V57.2H65.7v2.88H68.06z"></path> <path class="st0" d="M78.72,53.81c1.02,0,1.76,1.01,1.76,2.41v9c0,1.4-0.73,2.41-1.76,2.41h-5.18c-1.02,0-1.76-1.01-1.76-2.41 v-9c0-1.4,0.73-2.41,1.76-2.41H78.72z M77.46,64.23V57.2h-2.65v7.03H77.46z"></path> <path class="st0" d="M81.41,53.81h3.02v13.82h-3.02V53.81z"></path> <path class="st0" d="M94.13,67.63h-3.02V57.2h-2.65v10.43h-3.02V53.81h6.94c1.02,0,1.76,1.01,1.76,2.41V67.63z"></path> <path class="st0" d="M97.4,57.2h-3.12l0.86-3.4h7.97v3.4h-2.69v10.43H97.4V57.2z"></path> </g> </g> <g> <polyline class="st3" points="65,93.44 66.2,97.04 70.16,97 66.94,99.33 68.08,102.95 65,100.75 61.9,102.95 63.04,99.33 59.99,97.07 63.79,97.04 65,93.44 "></polyline> <g> <g> <path class="st1" d="M31.14,76.76h2.2L36,80.12h0.01v-3.36h1.42v4.63h-2.2l-2.67-3.36h-0.01v3.36h-1.42V76.76z"></path> <path class="st1" d="M43.39,76.76h1.85l2.54,4.63H46.2l-0.44-0.82h-2.88l-0.42,0.82h-1.59L43.39,76.76z M43.41,79.57h1.82 l-0.92-1.74L43.41,79.57z"></path> <path class="st1" d="M50.42,76.76h5.41v1.15h-2v3.48h-1.42v-3.48h-2V76.76z"></path> <path class="st1" d="M59.46,76.76h1.42v4.63h-1.42V76.76z"></path> <path class="st1" d="M64.76,78.38c0-1.36,0.76-1.67,2.04-1.67h2.28c1.28,0,2.04,0.32,2.04,1.67v1.38 c0,1.36-0.76,1.67-2.04,1.67H66.8c-1.28,0-2.04-0.32-2.04-1.67V78.38z M66.22,79.32c0,0.67,0.14,0.93,0.81,0.93h1.82 c0.67,0,0.81-0.26,0.81-0.93v-0.5c0-0.58-0.14-0.93-0.89-0.93h-1.66c-0.75,0-0.89,0.35-0.89,0.93V79.32z"></path> <path class="st1" d="M74.91,76.76h2.2l2.67,3.36h0.01v-3.36h1.42v4.63h-2.2l-2.67-3.36h-0.01v3.36h-1.42V76.76z"></path> <path class="st1" d="M87.17,76.76h1.85l2.54,4.63h-1.58l-0.44-0.82h-2.88l-0.42,0.82h-1.59L87.17,76.76z M87.19,79.57h1.82 l-0.92-1.74L87.19,79.57z"></path> <path class="st1" d="M95,76.76h1.42v3.44h3.19v1.19H95V76.76z"></path> </g> </g> <g> <g> <path class="st0" d="M48.49,84.64h0.6l1.65,2.37l1.65-2.37h0.6v2.83h-0.38v-2.48H52.6l-1.72,2.48H50.6l-1.72-2.48h-0.01v2.48 h-0.38V84.64z"></path> <path class="st0" d="M53.07,87.54h-0.53v-2.33l-1.62,2.33h-0.35l-1.62-2.33v2.33h-0.53v-2.98h0.71l1.61,2.31l1.61-2.31h0.71 V87.54z M52.68,87.39h0.23v-2.68h-0.48l-1.69,2.43l-1.69-2.43h-0.48v2.68h0.23v-2.48h0.11l0.03,0.03l1.7,2.45h0.2l1.72-2.48 h0.11l0.01,0.08V87.39z"></path> </g> <g> <path class="st0" d="M54.84,84.95h-1.43v-0.31h3.24v0.31h-1.43v2.52h-0.38V84.95z"></path> <path class="st0" d="M55.3,87.54h-0.53v-2.52h-1.43v-0.46h3.39v0.46H55.3V87.54z M54.92,87.39h0.23v-2.52h1.43v-0.16h-3.09 v0.16h1.43V87.39z"></path> </g> <g> <path class="st0" d="M57.01,86.98h0.44v0.48h-0.44V86.98z"></path> <path class="st0" d="M57.53,87.54h-0.59v-0.63h0.59V87.54z M57.09,87.39h0.29v-0.33h-0.29V87.39z"></path> </g> <g> <path class="st0" d="M60.41,84.64h0.6l1.65,2.37l1.65-2.37h0.6v2.83h-0.38v-2.48h-0.01l-1.72,2.48h-0.27l-1.72-2.48h-0.01v2.48 h-0.38V84.64z"></path> <path class="st0" d="M64.99,87.54h-0.53v-2.33l-1.62,2.33h-0.35l-1.62-2.33v2.33h-0.53v-2.98h0.71l1.61,2.31l1.61-2.31h0.71 V87.54z M64.6,87.39h0.23v-2.68h-0.48l-1.69,2.43l-1.69-2.43h-0.48v2.68h0.23v-2.48h0.11l0.03,0.03l1.7,2.45h0.2l1.72-2.48 h0.11l0.01,0.08V87.39z"></path> </g> <g> <path class="st0" d="M65.57,85.67c0-0.71,0.24-1.06,1.01-1.06h1.63c0.77,0,1.01,0.34,1.01,1.06v0.77 c0,0.71-0.24,1.06-1.01,1.06h-1.63c-0.77,0-1.01-0.34-1.01-1.06V85.67z M68.83,85.52c0-0.49-0.3-0.6-0.66-0.6h-1.55 c-0.37,0-0.66,0.11-0.66,0.6v1.06c0,0.49,0.3,0.6,0.66,0.6h1.55c0.37,0,0.66-0.11,0.66-0.6V85.52z"></path> <path class="st0" d="M68.21,87.57h-1.63c-0.77,0-1.08-0.33-1.08-1.13v-0.77c0-0.81,0.31-1.13,1.08-1.13h1.63 c0.77,0,1.08,0.33,1.08,1.13v0.77C69.29,87.24,68.98,87.57,68.21,87.57z M66.58,84.68c-0.68,0-0.93,0.27-0.93,0.98v0.77 c0,0.72,0.25,0.98,0.93,0.98h1.63c0.68,0,0.93-0.27,0.93-0.98v-0.77c0-0.72-0.25-0.98-0.93-0.98H66.58z M68.17,87.26h-1.55 c-0.18,0-0.74,0-0.74-0.68v-1.06c0-0.68,0.56-0.68,0.74-0.68h1.55c0.18,0,0.74,0,0.74,0.68v1.06 C68.91,87.26,68.35,87.26,68.17,87.26z M66.62,85c-0.42,0-0.59,0.15-0.59,0.53v1.06c0,0.37,0.17,0.53,0.59,0.53h1.55 c0.42,0,0.59-0.15,0.59-0.53v-1.06c0-0.37-0.17-0.53-0.59-0.53H66.62z"></path> </g> <g> <path class="st0" d="M69.87,84.64h2.26c0.82,0,0.95,0.27,0.95,0.8v0.23c0,0.4-0.23,0.51-0.52,0.54v0.01 c0.39,0.07,0.48,0.27,0.48,0.53v0.72h-0.36v-0.62c0-0.44-0.21-0.5-0.56-0.5h-1.87v1.12h-0.38V84.64z M72.09,86.04 c0.43,0,0.61-0.11,0.61-0.41v-0.26c0-0.32-0.14-0.42-0.7-0.42h-1.74v1.09H72.09z"></path> <path class="st0" d="M73.12,87.54h-0.51v-0.7c0-0.38-0.16-0.42-0.49-0.42h-1.79v1.12h-0.53v-2.98h2.34 c0.86,0,1.02,0.31,1.02,0.88v0.23c0,0.33-0.15,0.48-0.32,0.55c0.19,0.1,0.29,0.27,0.29,0.52V87.54z M72.76,87.39h0.21v-0.65 c0-0.23-0.07-0.39-0.42-0.46l-0.06-0.01v-0.13l0.07-0.01C72.82,86.1,73,86.02,73,85.67v-0.23c0-0.51-0.12-0.73-0.87-0.73h-2.19 v2.68h0.23v-1.12h1.94c0.34,0,0.64,0.04,0.64,0.57V87.39z M72.09,86.11h-1.91v-1.24H72c0.51,0,0.77,0.08,0.77,0.49v0.26 C72.77,86.06,72.41,86.11,72.09,86.11z M70.33,85.96h1.76c0.44,0,0.53-0.12,0.53-0.33v-0.26c0-0.24-0.06-0.34-0.62-0.34h-1.67 V85.96z"></path> </g> <g> <path class="st0" d="M73.73,84.64h2.26c0.82,0,0.95,0.27,0.95,0.8v0.23c0,0.4-0.23,0.51-0.52,0.54v0.01 c0.39,0.07,0.48,0.27,0.48,0.53v0.72h-0.36v-0.62c0-0.44-0.21-0.5-0.56-0.5h-1.87v1.12h-0.38V84.64z M75.95,86.04 c0.43,0,0.61-0.11,0.61-0.41v-0.26c0-0.32-0.14-0.42-0.7-0.42h-1.74v1.09H75.95z"></path> <path class="st0" d="M76.98,87.54h-0.51v-0.7c0-0.38-0.16-0.42-0.49-0.42h-1.79v1.12h-0.53v-2.98h2.34 c0.86,0,1.02,0.31,1.02,0.88v0.23c0,0.33-0.15,0.48-0.32,0.55c0.19,0.1,0.29,0.27,0.29,0.52V87.54z M76.62,87.39h0.21v-0.65 c0-0.23-0.07-0.39-0.42-0.46l-0.06-0.01v-0.13l0.07-0.01c0.27-0.03,0.45-0.11,0.45-0.46v-0.23c0-0.51-0.12-0.73-0.87-0.73H73.8 v2.68h0.23v-1.12h1.94c0.34,0,0.64,0.04,0.64,0.57V87.39z M75.95,86.11h-1.91v-1.24h1.82c0.51,0,0.77,0.08,0.77,0.49v0.26 C76.63,86.06,76.26,86.11,75.95,86.11z M74.19,85.96h1.76c0.44,0,0.53-0.12,0.53-0.33v-0.26c0-0.24-0.06-0.34-0.62-0.34h-1.67 V85.96z"></path> </g> <g> <path class="st0" d="M77.62,84.64h0.38v2.83h-0.38V84.64z"></path> <path class="st0" d="M78.08,87.54h-0.53v-2.98h0.53V87.54z M77.7,87.39h0.23v-2.68H77.7V87.39z"></path> </g> <g> <path class="st0" d="M78.7,86.58h0.36v0.2c0,0.28,0.15,0.41,0.62,0.41h1.19c0.55,0,0.72-0.12,0.72-0.52 c0-0.36-0.14-0.45-0.62-0.45h-0.73c-1.17,0-1.55-0.07-1.55-0.82c0-0.64,0.38-0.79,1.17-0.79h0.82c0.95,0,1.19,0.24,1.19,0.75 v0.1h-0.36c-0.01-0.45-0.05-0.53-1.06-0.53h-0.41c-0.74,0-1,0.04-1,0.5c0,0.34,0.11,0.45,0.7,0.45h1.13 c0.75,0,1.06,0.21,1.06,0.7v0.18c0,0.7-0.57,0.75-1.14,0.75h-1.06c-0.56,0-1.05-0.1-1.05-0.71V86.58z"></path> <path class="st0" d="M80.81,87.57h-1.06c-0.56,0-1.13-0.09-1.13-0.79V86.5h0.51v0.27c0,0.18,0.04,0.33,0.55,0.33h1.19 c0.55,0,0.64-0.11,0.64-0.45c0-0.29-0.07-0.37-0.54-0.37h-0.73c-1.1,0-1.63-0.04-1.63-0.9c0-0.72,0.46-0.86,1.25-0.86h0.82 c0.92,0,1.26,0.22,1.26,0.82v0.17h-0.51l0-0.07C81.44,85.06,81.44,85,80.46,85h-0.41c-0.79,0-0.92,0.06-0.92,0.43 c0,0.26,0.03,0.37,0.63,0.37h1.13c0.78,0,1.13,0.24,1.13,0.77v0.18C82.02,87.57,81.27,87.57,80.81,87.57z M78.77,86.65v0.13 c0,0.53,0.39,0.64,0.98,0.64h1.06c0.69,0,1.06-0.11,1.06-0.67v-0.18c0-0.32-0.12-0.62-0.98-0.62h-1.13 c-0.6,0-0.78-0.12-0.78-0.52c0-0.55,0.37-0.58,1.08-0.58h0.41c0.94,0,1.11,0.07,1.13,0.53h0.21v-0.02 c0-0.44-0.18-0.67-1.11-0.67h-0.82c-0.83,0-1.1,0.17-1.1,0.71c0,0.67,0.3,0.75,1.48,0.75h0.73c0.46,0,0.69,0.08,0.69,0.52 c0,0.5-0.28,0.6-0.79,0.6h-1.19c-0.49,0-0.7-0.15-0.7-0.49v-0.12H78.77z"></path> </g> <g> <path class="st0" d="M44.34,88.81h2.33c0.52,0,0.81,0.11,0.81,0.77c0,0.63-0.05,0.95-0.88,0.95h-1.87v1.11h-0.38V88.81z M47.09,89.54c0-0.34-0.18-0.42-0.52-0.42h-1.86v1.09h1.89c0.3,0,0.48-0.11,0.48-0.4V89.54z"></path> <path class="st0" d="M44.8,91.72h-0.53v-2.98h2.4c0.56,0,0.88,0.14,0.88,0.84c0,0.63-0.05,1.02-0.96,1.02h-1.8V91.72z M44.41,91.57h0.23v-1.11h1.95c0.78,0,0.81-0.27,0.81-0.87c0-0.59-0.23-0.69-0.73-0.69h-2.25V91.57z M46.61,90.29h-1.96v-1.24 h1.93c0.29,0,0.59,0.06,0.59,0.49v0.27C47.17,90.13,46.98,90.29,46.61,90.29z M44.8,90.14h1.81c0.29,0,0.41-0.1,0.41-0.33 v-0.27c0-0.26-0.11-0.34-0.44-0.34H44.8V90.14z"></path> </g> <g> <path class="st0" d="M48.01,88.81h2.78v0.31h-2.39v0.9h2.3v0.31h-2.3v0.99h2.41v0.31h-2.79V88.81z"></path> <path class="st0" d="M50.88,91.72h-2.94v-2.98h2.93v0.46h-2.39v0.75h2.3v0.46h-2.3v0.84h2.41V91.72z M48.08,91.57h2.64V91.4 h-2.41v-1.14h2.3V90.1h-2.3v-1.05h2.39v-0.16h-2.63V91.57z"></path> </g> <g> <path class="st0" d="M51.36,88.81h0.57l2.59,2.48v-2.48h0.38v2.83h-0.57l-2.59-2.48v2.48h-0.38V88.81z"></path> <path class="st0" d="M54.98,91.72h-0.68l-0.02-0.02l-2.46-2.36v2.38h-0.53v-2.98h0.68l0.02,0.02l2.46,2.36v-2.38h0.53V91.72z M54.37,91.57h0.46v-2.68H54.6v2.58l-2.7-2.58h-0.46v2.68h0.23v-2.58L54.37,91.57z"></path> </g> <g> <path class="st0" d="M55.61,88.81h0.57l2.59,2.48v-2.48h0.38v2.83h-0.57L56,89.16v2.48h-0.38V88.81z"></path> <path class="st0" d="M59.23,91.72h-0.68l-0.02-0.02l-2.46-2.36v2.38h-0.53v-2.98h0.68l0.02,0.02l2.46,2.36v-2.38h0.53V91.72z M58.62,91.57h0.46v-2.68h-0.23v2.58l-2.7-2.58h-0.46v2.68h0.23v-2.58L58.62,91.57z"></path> </g> <g> <path class="st0" d="M59.82,90.75h0.36v0.2c0,0.28,0.15,0.41,0.62,0.41h1.19c0.55,0,0.72-0.12,0.72-0.52 c0-0.36-0.14-0.45-0.62-0.45h-0.73c-1.17,0-1.55-0.07-1.55-0.82c0-0.64,0.38-0.79,1.17-0.79h0.82c0.95,0,1.19,0.24,1.19,0.75 v0.1h-0.36c-0.01-0.45-0.05-0.53-1.06-0.53h-0.41c-0.74,0-1,0.04-1,0.5c0,0.34,0.11,0.45,0.7,0.45h1.13 c0.75,0,1.06,0.21,1.06,0.7v0.18c0,0.7-0.57,0.75-1.14,0.75h-1.06c-0.56,0-1.05-0.1-1.05-0.71V90.75z"></path> <path class="st0" d="M61.93,91.75h-1.06c-0.56,0-1.13-0.09-1.13-0.79v-0.28h0.51v0.27c0,0.18,0.04,0.33,0.55,0.33h1.19 c0.55,0,0.64-0.11,0.64-0.45c0-0.29-0.07-0.37-0.54-0.37h-0.73c-1.1,0-1.63-0.04-1.63-0.9c0-0.72,0.46-0.86,1.25-0.86h0.82 c0.92,0,1.26,0.22,1.26,0.82v0.17h-0.51l0-0.07c-0.01-0.39-0.01-0.46-0.98-0.46h-0.41c-0.79,0-0.92,0.06-0.92,0.43 c0,0.26,0.03,0.37,0.63,0.37h1.13c0.78,0,1.13,0.24,1.13,0.77v0.18C63.14,91.75,62.38,91.75,61.93,91.75z M59.89,90.83v0.13 c0,0.53,0.39,0.64,0.98,0.64h1.06c0.69,0,1.06-0.11,1.06-0.67v-0.18c0-0.32-0.12-0.62-0.98-0.62h-1.13 c-0.6,0-0.78-0.12-0.78-0.52c0-0.55,0.37-0.58,1.08-0.58h0.41c0.94,0,1.11,0.07,1.13,0.53h0.21v-0.02 c0-0.44-0.18-0.67-1.11-0.67h-0.82c-0.83,0-1.1,0.17-1.1,0.71c0,0.67,0.3,0.75,1.48,0.75h0.73c0.46,0,0.69,0.08,0.69,0.52 c0,0.5-0.28,0.6-0.79,0.6H60.8c-0.49,0-0.7-0.15-0.7-0.49v-0.12H59.89z"></path> </g> <g> <path class="st0" d="M65.06,90.45l-1.62-1.63h0.52l1.3,1.31l1.3-1.31h0.52l-1.62,1.63v1.2h-0.38V90.45z"></path> <path class="st0" d="M65.52,91.72h-0.53v-1.24l-1.73-1.74h0.73l0.02,0.02l1.24,1.26l1.27-1.28h0.73l-1.73,1.74V91.72z M65.14,91.57h0.23v-1.15l0.02-0.02l1.5-1.5h-0.3l-1.33,1.34l-1.33-1.34h-0.3l1.52,1.53V91.57z"></path> </g> <g> <path class="st0" d="M67.52,88.81h0.38v2.52h2.2v0.31h-2.58V88.81z"></path> <path class="st0" d="M70.17,91.72h-2.73v-2.98h0.53v2.52h2.2V91.72z M67.59,91.57h2.43V91.4h-2.2v-2.52h-0.23V91.57z"></path> </g> <g> <path class="st0" d="M69.78,88.81h0.43l1.37,2.48l1.37-2.48h0.43l-1.57,2.83h-0.47L69.78,88.81z"></path> <path class="st0" d="M71.86,91.72H71.3l-0.02-0.04l-1.63-2.94h0.6l1.33,2.4l1.33-2.4h0.6L71.86,91.72z M71.39,91.57h0.38 l1.48-2.68H73l-1.42,2.56l-1.42-2.56h-0.26L71.39,91.57z"></path> </g> <g> <path class="st0" d="M74.85,88.81h0.48L77,91.64h-0.43l-0.35-0.6h-2.27l-0.35,0.6h-0.43L74.85,88.81z M75.09,89.13l-0.95,1.61 h1.9L75.09,89.13z"></path> <path class="st0" d="M77.14,91.72h-0.61l-0.35-0.6H74l-0.35,0.6h-0.61l1.77-2.98h0.56l0.02,0.04L77.14,91.72z M76.61,91.57 h0.26l-1.59-2.68h-0.39l-1.59,2.68h0.26l0.35-0.6h2.35L76.61,91.57z M76.17,90.81h-2.16l1.08-1.83L76.17,90.81z M74.27,90.66 h1.63l-0.82-1.38L74.27,90.66z"></path> </g> <g> <path class="st0" d="M77.42,88.81h0.57l2.59,2.48v-2.48h0.38v2.83h-0.57l-2.59-2.48v2.48h-0.38V88.81z"></path> <path class="st0" d="M81.04,91.72h-0.68l-0.02-0.02l-2.46-2.36v2.38h-0.53v-2.98h0.68l0.02,0.02l2.46,2.36v-2.38h0.53V91.72z M80.42,91.57h0.46v-2.68h-0.23v2.58l-2.7-2.58h-0.46v2.68h0.23v-2.58L80.42,91.57z"></path> </g> <g> <path class="st0" d="M81.7,88.81h0.38v2.83H81.7V88.81z"></path> <path class="st0" d="M82.16,91.72h-0.53v-2.98h0.53V91.72z M81.78,91.57h0.23v-2.68h-0.23V91.57z"></path> </g> <g> <path class="st0" d="M84.21,88.81h0.48l1.68,2.83h-0.43l-0.35-0.6h-2.27l-0.35,0.6h-0.43L84.21,88.81z M84.45,89.13l-0.95,1.61 h1.9L84.45,89.13z"></path> <path class="st0" d="M86.5,91.72h-0.61l-0.35-0.6h-2.18l-0.35,0.6H82.4l1.77-2.98h0.56l0.02,0.04L86.5,91.72z M85.98,91.57 h0.26l-1.59-2.68h-0.39l-1.59,2.68h0.26l0.35-0.6h2.35L85.98,91.57z M85.53,90.81h-2.16l1.08-1.83L85.53,90.81z M83.63,90.66 h1.63l-0.82-1.38L83.63,90.66z"></path> </g> </g> </g> </g> <g> <g> <g> <g> <g> <g id="GEICO_00000070826469946254238110000008331018541810096031_"> <path class="st1" d="M29.15,24.25c0-3.55,2-4.38,5.32-4.38h5.57c4.22,0,4.8,1.51,4.8,3.87v0.38h-3.63 c0-1.21-0.69-1.35-1.88-1.35H35.3c-1.88,0-2.36,0.44-2.36,2.52v1.49c0,2.08,0.48,2.52,2.36,2.52h3.95 c0.97,0,1.94-0.14,1.94-1.31v-0.34h-4.6v-2.5h8.31v3.45c0,3.47-1.79,3.63-5.97,3.63h-4.46c-3.33,0-5.32-0.85-5.32-4.38V24.25 z"></path> <polygon class="st1" points="45.83,20.01 59.06,20.01 59.06,22.81 49.54,22.81 49.54,24.75 58.56,24.75 58.56,27.25 49.54,27.25 49.54,29.19 59.26,29.19 59.26,32.09 45.83,32.09 "></polygon> <rect x="60.39" y="20.01" class="st1" width="3.71" height="12.08"></rect> <path class="st1" d="M65.21,24.25c0-3.53,1.98-4.38,5.32-4.38h4.36c5.28,0,5.97,1.13,5.93,4.56h-3.71v-0.34 c0-0.87-0.63-1.11-1.73-1.11h-4.03c-1.96,0-2.32,0.93-2.32,2.42v1.31c0,1.75,0.36,2.42,2.12,2.42h3.95 c1.67,0,2.18-0.16,2.18-1.67h3.71v1.13c0,2.04-0.73,3.63-4.46,3.63h-5.97c-3.35,0-5.32-0.83-5.32-4.38L65.21,24.25 L65.21,24.25z"></path> <path class="st1" d="M81.63,24.25c0-3.53,2-4.38,5.32-4.38h5.95c3.35,0,5.32,0.83,5.32,4.38v3.61c0,3.53-2,4.38-5.32,4.38 h-5.95c-3.35,0-5.32-0.83-5.32-4.38V24.25z M85.44,26.71c0,1.75,0.36,2.42,2.12,2.42h4.74c1.75,0,2.12-0.67,2.12-2.42V25.4 c0-1.49-0.36-2.42-2.32-2.42h-4.34c-1.96,0-2.32,0.93-2.32,2.42V26.71z"></path> </g> <path class="st1" d="M98.47,30.78c0-0.67,0.54-1.19,1.19-1.19c0.67,0,1.19,0.54,1.19,1.19c0,0.67-0.52,1.19-1.19,1.19 C98.99,31.99,98.47,31.45,98.47,30.78z M100.71,30.78c0-0.58-0.46-1.05-1.05-1.05s-1.05,0.46-1.05,1.05s0.46,1.05,1.05,1.05 C100.24,31.85,100.71,31.39,100.71,30.78z M100.26,31.47h-0.2l-0.38-0.63h-0.3v0.63h-0.16v-1.33h0.58c0.12,0,0.22,0,0.32,0.06 s0.14,0.18,0.14,0.28c0,0.26-0.18,0.36-0.42,0.36L100.26,31.47z M99.64,30.72c0.18,0,0.48,0.04,0.48-0.24 c0-0.2-0.18-0.22-0.34-0.22H99.4v0.46H99.64z"></path> </g> <g> <rect x="29.54" y="35.66" class="st1" width="68.98" height="0.4"></rect> </g> <g> <path class="st1" d="M41.51,43.27c0.04,0.09,0.07,0.18,0.11,0.26c0.04-0.09,0.07-0.18,0.11-0.27 c0.04-0.09,0.08-0.17,0.12-0.25l1.63-3.04c0.02-0.04,0.04-0.07,0.06-0.09c0.02-0.02,0.05-0.04,0.07-0.05 c0.03-0.01,0.06-0.02,0.09-0.02c0.03,0,0.07,0,0.12,0h0.77v5.5h-0.9v-3.55c0-0.07,0-0.14,0.01-0.22 c0-0.08,0.01-0.16,0.02-0.24l-1.66,3.12c-0.04,0.07-0.09,0.13-0.15,0.17c-0.06,0.04-0.13,0.06-0.21,0.06h-0.14 c-0.08,0-0.15-0.02-0.21-0.06c-0.06-0.04-0.11-0.09-0.15-0.17l-1.68-3.13c0.01,0.08,0.02,0.17,0.02,0.25 c0,0.08,0.01,0.15,0.01,0.22v3.55h-0.9v-5.5h0.77c0.05,0,0.08,0,0.12,0c0.03,0,0.06,0.01,0.09,0.02 c0.03,0.01,0.05,0.03,0.07,0.05c0.02,0.02,0.04,0.05,0.06,0.09l1.64,3.05C41.43,43.1,41.47,43.18,41.51,43.27z"></path> <path class="st1" d="M50.97,42.55c0,0.4-0.07,0.78-0.2,1.12c-0.13,0.34-0.32,0.64-0.57,0.89c-0.24,0.25-0.54,0.45-0.88,0.59 c-0.34,0.14-0.72,0.21-1.14,0.21s-0.8-0.07-1.14-0.21c-0.34-0.14-0.64-0.34-0.88-0.59c-0.24-0.25-0.43-0.55-0.57-0.89 c-0.13-0.34-0.2-0.72-0.2-1.12s0.07-0.78,0.2-1.12c0.13-0.34,0.32-0.64,0.57-0.89c0.24-0.25,0.54-0.45,0.88-0.59 c0.34-0.14,0.72-0.21,1.14-0.21s0.79,0.07,1.14,0.21c0.34,0.14,0.63,0.34,0.88,0.59c0.24,0.25,0.43,0.55,0.57,0.89 C50.91,41.77,50.97,42.15,50.97,42.55z M49.92,42.55c0-0.3-0.04-0.57-0.12-0.81c-0.08-0.24-0.19-0.44-0.34-0.61 c-0.15-0.17-0.33-0.3-0.55-0.38c-0.21-0.09-0.46-0.13-0.72-0.13s-0.51,0.04-0.73,0.13c-0.22,0.09-0.4,0.22-0.55,0.38 c-0.15,0.17-0.27,0.37-0.35,0.61c-0.08,0.24-0.12,0.51-0.12,0.81c0,0.3,0.04,0.57,0.12,0.81c0.08,0.24,0.2,0.44,0.35,0.61 c0.15,0.17,0.33,0.29,0.55,0.38s0.46,0.13,0.73,0.13s0.51-0.04,0.72-0.13c0.21-0.09,0.4-0.22,0.55-0.38 c0.15-0.17,0.26-0.37,0.34-0.61C49.88,43.12,49.92,42.85,49.92,42.55z"></path> <path class="st1" d="M55.36,39.8v0.84H53.7v4.66h-1.02v-4.66h-1.66V39.8H55.36z"></path> <path class="st1" d="M60.98,42.55c0,0.4-0.07,0.78-0.2,1.12c-0.13,0.34-0.32,0.64-0.57,0.89c-0.24,0.25-0.54,0.45-0.88,0.59 c-0.34,0.14-0.72,0.21-1.14,0.21s-0.8-0.07-1.14-0.21c-0.34-0.14-0.64-0.34-0.88-0.59c-0.24-0.25-0.43-0.55-0.57-0.89 c-0.13-0.34-0.2-0.72-0.2-1.12s0.07-0.78,0.2-1.12c0.13-0.34,0.32-0.64,0.57-0.89c0.24-0.25,0.54-0.45,0.88-0.59 c0.34-0.14,0.72-0.21,1.14-0.21s0.79,0.07,1.14,0.21c0.34,0.14,0.63,0.34,0.88,0.59c0.24,0.25,0.43,0.55,0.57,0.89 C60.91,41.77,60.98,42.15,60.98,42.55z M59.93,42.55c0-0.3-0.04-0.57-0.12-0.81c-0.08-0.24-0.19-0.44-0.34-0.61 c-0.15-0.17-0.33-0.3-0.55-0.38c-0.21-0.09-0.46-0.13-0.72-0.13s-0.51,0.04-0.73,0.13c-0.22,0.09-0.4,0.22-0.55,0.38 c-0.15,0.17-0.27,0.37-0.35,0.61c-0.08,0.24-0.12,0.51-0.12,0.81c0,0.3,0.04,0.57,0.12,0.81c0.08,0.24,0.2,0.44,0.35,0.61 c0.15,0.17,0.33,0.29,0.55,0.38s0.46,0.13,0.73,0.13s0.51-0.04,0.72-0.13c0.21-0.09,0.4-0.22,0.55-0.38 c0.15-0.17,0.26-0.37,0.34-0.61C59.89,43.12,59.93,42.85,59.93,42.55z"></path> <path class="st1" d="M62.84,43.15v2.15h-1.02v-5.5h1.68c0.38,0,0.7,0.04,0.96,0.12c0.27,0.08,0.49,0.19,0.66,0.32 c0.17,0.14,0.3,0.31,0.38,0.5c0.08,0.19,0.12,0.41,0.12,0.64c0,0.18-0.03,0.36-0.08,0.52c-0.05,0.16-0.13,0.31-0.24,0.45 c-0.1,0.13-0.23,0.25-0.38,0.35c-0.15,0.1-0.32,0.18-0.51,0.24c0.13,0.07,0.24,0.18,0.33,0.32l1.38,2.03h-0.92 c-0.09,0-0.16-0.02-0.23-0.05c-0.06-0.04-0.11-0.09-0.16-0.15l-1.16-1.76c-0.04-0.07-0.09-0.11-0.14-0.14 s-0.13-0.04-0.23-0.04H62.84z M62.84,42.41h0.64c0.19,0,0.36-0.02,0.5-0.07c0.14-0.05,0.26-0.11,0.35-0.2 c0.09-0.08,0.16-0.19,0.21-0.3c0.05-0.12,0.07-0.24,0.07-0.38c0-0.28-0.09-0.49-0.28-0.64c-0.18-0.15-0.46-0.22-0.84-0.22 h-0.65V42.41z"></path> <path class="st1" d="M70.51,44c0.06,0,0.1,0.02,0.14,0.06l0.4,0.44c-0.22,0.28-0.5,0.49-0.82,0.63 c-0.33,0.15-0.72,0.22-1.17,0.22c-0.41,0-0.77-0.07-1.1-0.21c-0.33-0.14-0.6-0.33-0.83-0.58c-0.23-0.25-0.41-0.54-0.53-0.89 c-0.12-0.34-0.18-0.72-0.18-1.13c0-0.41,0.07-0.79,0.21-1.13c0.14-0.34,0.33-0.64,0.58-0.89c0.25-0.25,0.55-0.44,0.89-0.58 c0.35-0.14,0.73-0.21,1.15-0.21c0.41,0,0.76,0.07,1.07,0.2s0.57,0.3,0.78,0.52l-0.34,0.48c-0.02,0.03-0.05,0.06-0.08,0.08 c-0.03,0.02-0.08,0.03-0.13,0.03c-0.06,0-0.12-0.02-0.18-0.07c-0.06-0.05-0.14-0.09-0.23-0.15c-0.09-0.05-0.21-0.1-0.36-0.15 c-0.14-0.05-0.32-0.07-0.55-0.07c-0.26,0-0.5,0.04-0.71,0.13c-0.22,0.09-0.4,0.22-0.56,0.39c-0.16,0.17-0.28,0.37-0.36,0.61 c-0.09,0.24-0.13,0.51-0.13,0.81c0,0.31,0.04,0.58,0.13,0.82c0.09,0.24,0.21,0.44,0.36,0.61c0.15,0.16,0.33,0.29,0.53,0.38 c0.2,0.09,0.42,0.13,0.65,0.13c0.14,0,0.27-0.01,0.38-0.02c0.11-0.02,0.22-0.04,0.31-0.07c0.1-0.03,0.18-0.08,0.27-0.13 c0.08-0.05,0.17-0.12,0.25-0.19c0.03-0.02,0.05-0.04,0.08-0.06C70.45,44.01,70.48,44,70.51,44z"></path> <path class="st1" d="M74.43,43.16v2.14h-1.02v-2.14l-2-3.36h0.9c0.09,0,0.16,0.02,0.21,0.06c0.05,0.04,0.1,0.1,0.13,0.16 l1.01,1.84c0.06,0.11,0.11,0.21,0.15,0.31c0.04,0.1,0.08,0.19,0.12,0.29c0.03-0.1,0.07-0.19,0.11-0.29 c0.04-0.1,0.09-0.2,0.15-0.31l1-1.84c0.03-0.06,0.07-0.11,0.13-0.16c0.06-0.05,0.13-0.07,0.21-0.07h0.9L74.43,43.16z"></path> <path class="st1" d="M80.59,44c0.06,0,0.1,0.02,0.14,0.06l0.4,0.44c-0.22,0.28-0.5,0.49-0.82,0.63 c-0.33,0.15-0.72,0.22-1.17,0.22c-0.41,0-0.77-0.07-1.1-0.21c-0.33-0.14-0.6-0.33-0.83-0.58c-0.23-0.25-0.41-0.54-0.53-0.89 c-0.12-0.34-0.18-0.72-0.18-1.13c0-0.41,0.07-0.79,0.21-1.13c0.14-0.34,0.33-0.64,0.58-0.89c0.25-0.25,0.55-0.44,0.89-0.58 c0.35-0.14,0.73-0.21,1.15-0.21c0.41,0,0.76,0.07,1.07,0.2c0.31,0.13,0.57,0.3,0.78,0.52l-0.34,0.48 c-0.02,0.03-0.05,0.06-0.08,0.08c-0.03,0.02-0.08,0.03-0.13,0.03c-0.06,0-0.12-0.02-0.18-0.07c-0.06-0.05-0.14-0.09-0.23-0.15 c-0.09-0.05-0.21-0.1-0.36-0.15c-0.14-0.05-0.32-0.07-0.55-0.07c-0.26,0-0.5,0.04-0.71,0.13c-0.22,0.09-0.4,0.22-0.56,0.39 c-0.16,0.17-0.28,0.37-0.36,0.61c-0.09,0.24-0.13,0.51-0.13,0.81c0,0.31,0.04,0.58,0.13,0.82c0.09,0.24,0.21,0.44,0.36,0.61 c0.15,0.16,0.33,0.29,0.53,0.38c0.2,0.09,0.42,0.13,0.65,0.13c0.14,0,0.27-0.01,0.38-0.02c0.11-0.02,0.22-0.04,0.31-0.07 c0.09-0.03,0.18-0.08,0.27-0.13c0.08-0.05,0.17-0.12,0.25-0.19c0.03-0.02,0.05-0.04,0.08-0.06C80.52,44.01,80.55,44,80.59,44z "></path> <path class="st1" d="M82.93,44.45h2.2v0.84h-3.22v-5.5h1.02V44.45z"></path> <path class="st1" d="M89.46,39.8v0.81h-2.44v1.52h1.92v0.79h-1.92v1.55h2.44v0.82h-3.47v-5.5H89.46z"></path> </g> </g> </g> </g> </g> </g> </svg> 