<?xml version="1.0" encoding="UTF-8"?> <svg xmlns="http://www.w3.org/2000/svg" id="Layer_1" viewBox="0 0 130 120"><defs><style>.cls-1{fill:#002f65;}.cls-2{fill:#002554;}.cls-3,.cls-4{fill:#fff;}.cls-5{fill:#e31837;}.cls-4{fill-rule:evenodd;}</style></defs><path class="cls-2" d="M65,109.48c-1.72,0-3.4-.41-4.73-1.14l-37.33-20.79c-2.56-1.43-4.82-4.56-5.36-7.44l-.35-1.84L.42,73.6v-26.1H11.47l-2.38-12.67c-.55-2.94,.5-6.69,2.5-8.92l10.52-11.69c1.93-2.14,5.42-3.7,8.3-3.7H99.58c2.88,0,6.37,1.56,8.3,3.7l10.53,11.69c2,2.23,3.06,5.98,2.5,8.92l-2.37,12.67h11.05v26.1l-16.82,4.67-.35,1.84c-.54,2.89-2.79,6.01-5.36,7.44l-37.32,20.79c-1.33,.74-3,1.14-4.73,1.14"></path><polygon class="cls-2" points="111.4 72.68 128.36 72.68 111.4 77.38 111.4 72.68"></polygon><polygon class="cls-2" points="18.6 72.68 1.64 72.68 18.6 77.38 18.6 72.68"></polygon><path class="cls-3" d="M111.22,79.88c-.47,2.52-2.52,5.36-4.76,6.6l-37.33,20.79c-1.15,.64-2.61,.99-4.14,.99s-2.99-.35-4.13-.99l-37.33-20.79c-2.24-1.24-4.28-4.09-4.76-6.6l-.93-4.96-6.22-33.15-1.35-7.16c-.48-2.56,.47-5.95,2.21-7.88l10.53-11.69c1.69-1.88,4.87-3.29,7.39-3.29H99.58c2.53,0,5.7,1.42,7.39,3.29l10.53,11.69c1.74,1.94,2.69,5.32,2.21,7.88l-1.34,7.16-7.15,38.11Z"></path><path class="cls-2" d="M65,109.66c-1.76,0-3.47-.41-4.81-1.17l-37.33-20.79c-2.6-1.45-4.9-4.63-5.45-7.57L8.91,34.86c-.56-2.99,.51-6.81,2.55-9.07l10.52-11.69c1.96-2.18,5.5-3.76,8.43-3.76H99.58c2.93,0,6.47,1.58,8.43,3.76l10.53,11.69c2.04,2.27,3.11,6.08,2.54,9.07l-8.49,45.27h0c-.55,2.93-2.84,6.12-5.45,7.57l-37.33,20.79c-1.35,.75-3.06,1.17-4.82,1.17M30.42,13.14c-2.14,0-4.93,1.24-6.35,2.83l-10.53,11.69c-1.45,1.62-2.28,4.55-1.88,6.68l8.49,45.28c.4,2.12,2.18,4.6,4.06,5.64l37.33,20.79c1.88,1.05,5.03,1.05,6.91,0l37.33-20.79c1.88-1.05,3.67-3.52,4.06-5.64h0s8.49-45.27,8.49-45.27c.4-2.14-.42-5.07-1.87-6.69l-10.53-11.69c-1.43-1.59-4.22-2.83-6.36-2.83H30.42Z"></path><path class="cls-3" d="M111.22,79.88c-.47,2.52-2.52,5.36-4.76,6.6l-37.33,20.79c-1.15,.64-2.61,.99-4.14,.99s-2.99-.35-4.13-.99l-37.33-20.79c-2.24-1.24-4.28-4.09-4.76-6.6l-.93-4.96-6.22-33.15-1.35-7.16c-.48-2.56,.47-5.95,2.21-7.88l10.53-11.69c1.69-1.88,4.87-3.29,7.39-3.29H99.58c2.53,0,5.7,1.42,7.39,3.29l10.53,11.69c1.74,1.94,2.69,5.32,2.21,7.88l-1.34,7.16-7.15,38.11Z"></path><path class="cls-5" d="M21.46,79.38c.33,1.74,1.86,3.87,3.4,4.73l37.33,20.79c1.54,.86,4.08,.86,5.62,0l37.33-20.79c1.55-.86,3.08-2.99,3.4-4.73l1.35-7.18H20.11l1.35,7.18Z"></path><path class="cls-2" d="M117.04,34.1c.33-1.74-.38-4.24-1.56-5.56l-10.53-11.69c-1.18-1.32-3.6-2.39-5.37-2.39H30.42c-1.77,0-4.19,1.07-5.37,2.39l-10.53,11.69c-1.18,1.32-1.89,3.82-1.56,5.56l2.83,15.09H114.21l2.83-15.09Z"></path><rect class="cls-3" x="1.64" y="48.71" width="126.72" height="23.96"></rect><rect class="cls-2" x="1.64" y="72.67" width="126.72" height="1.22"></rect><rect class="cls-2" x="1.64" y="47.5" width="126.72" height="1.21"></rect><rect class="cls-2" x="31.85" y="53.81" width="3.02" height="13.82"></rect><path class="cls-2" d="M44.41,59.85c0,1.17-.62,2.01-1.47,2.01h-.13l2.22,5.77h-3.11l-2.69-7.46h2.16v-2.96h-2.49v10.43h-3.02v-13.82h6.78c1.02,0,1.76,1.01,1.76,2.41v3.63Z"></path><path class="cls-2" d="M52.25,53.81c1.02,0,1.76,1.01,1.76,2.41v9c0,1.4-.74,2.41-1.76,2.41h-5.18c-1.02,0-1.76-1.01-1.76-2.41v-9c0-1.4,.74-2.41,1.76-2.41h5.18Zm-1.27,3.4h-2.65v7.03h2.65v-7.03Z"></path><path class="cls-2" d="M63.63,67.63h-3.02v-10.42h-2.65v10.42h-3.02v-13.82h6.94c1.02,0,1.76,1.01,1.76,2.41v11.41Z"></path><path class="cls-2" d="M78.32,67.63h-3.02v-10.42h-2.35v10.42h-3.02v-10.42h-2.35v10.42h-3.02v-13.82h12c1.02,0,1.76,1.01,1.76,2.41v11.41Z"></path><polygon class="cls-2" points="81.36 53.81 86.45 53.81 89.18 67.63 83.31 67.63 83.31 64.63 85.28 64.63 84.13 57.8 83.56 57.8 81.76 67.63 78.61 67.63 81.36 53.81"></polygon><path class="cls-2" d="M98.23,67.63h-3.02v-10.42h-2.65v10.42h-3.02v-13.82h6.93c1.02,0,1.76,1.01,1.76,2.41v11.41Z"></path><path class="cls-3" d="M26.61,42.27v-.7l6.65-7.81c1-1.17,1.8-2.23,2.4-3.18,.59-.95,.89-1.91,.89-2.88,0-.66-.11-1.26-.33-1.79-.22-.53-.52-.98-.9-1.36s-.85-.66-1.38-.86c-.53-.2-1.1-.3-1.72-.3-1.04,0-1.96,.27-2.75,.82-.79,.55-1.35,1.36-1.67,2.44l-.57-.19c.34-1.15,.96-2.03,1.86-2.65,.9-.62,1.94-.93,3.13-.93,.72,0,1.38,.12,1.99,.35,.6,.23,1.12,.56,1.55,.98,.43,.42,.77,.91,1.01,1.48,.24,.57,.36,1.17,.36,1.82,0,.59-.08,1.15-.23,1.67-.15,.52-.39,1.04-.7,1.57-.32,.53-.7,1.08-1.16,1.67-.46,.58-.99,1.22-1.58,1.92l-6.26,7.34h10.1v.59h-10.69Z"></path><path class="cls-3" d="M37.55,42.52h-11.19v-1.04l6.71-7.88c.99-1.15,1.79-2.21,2.38-3.15,.56-.91,.85-1.83,.85-2.75,0-.63-.1-1.2-.31-1.7-.2-.49-.49-.92-.85-1.27-.36-.35-.79-.62-1.29-.81-.5-.19-1.05-.28-1.63-.28-.99,0-1.86,.26-2.61,.78-.74,.51-1.27,1.29-1.58,2.3l-.07,.25-1.04-.35,.07-.23c.36-1.2,1.02-2.14,1.96-2.79,.94-.64,2.04-.97,3.27-.97,.75,0,1.44,.12,2.07,.37,.63,.24,1.18,.59,1.64,1.03,.45,.44,.81,.97,1.07,1.56,.25,.59,.38,1.24,.38,1.91,0,.61-.08,1.2-.24,1.74-.16,.54-.4,1.09-.73,1.63-.32,.54-.72,1.11-1.18,1.69-.46,.59-1,1.24-1.59,1.93l-5.91,6.93h9.8v1.09Zm-10.69-.5h10.19v-.09h-10.19v.09Zm0-.36v.03l6.41-7.52c.59-.69,1.11-1.33,1.57-1.91,.45-.57,.83-1.12,1.14-1.64,.3-.51,.53-1.02,.68-1.51,.15-.49,.22-1.03,.22-1.6,0-.61-.12-1.19-.34-1.72-.23-.53-.55-1-.96-1.4-.41-.4-.9-.71-1.47-.93-.57-.22-1.21-.33-1.9-.33-1.13,0-2.14,.3-2.99,.88-.79,.54-1.35,1.31-1.69,2.29l.09,.03c.35-1.01,.92-1.79,1.69-2.32,.83-.58,1.81-.87,2.9-.87,.64,0,1.25,.11,1.8,.31,.56,.21,1.06,.52,1.47,.92,.41,.4,.73,.89,.96,1.44,.23,.56,.34,1.19,.34,1.89,0,1.01-.31,2.02-.93,3.01-.6,.96-1.41,2.04-2.42,3.21l-6.59,7.74Z"></path><path class="cls-3" d="M55.07,42.59c-1.22,0-2.22-.31-2.99-.93-.77-.62-1.37-1.4-1.8-2.36-.43-.95-.73-2.01-.89-3.18-.16-1.17-.24-2.3-.24-3.39s.08-2.22,.24-3.39c.16-1.17,.46-2.22,.89-3.18,.43-.95,1.03-1.74,1.8-2.36,.77-.62,1.77-.93,2.99-.93s2.22,.31,2.99,.93c.77,.62,1.37,1.4,1.8,2.36,.43,.95,.73,2.01,.89,3.18,.16,1.17,.24,2.3,.24,3.39s-.08,2.23-.24,3.39c-.16,1.17-.46,2.23-.89,3.18-.43,.95-1.03,1.74-1.8,2.36-.77,.62-1.77,.93-2.99,.93m0-19.17c-.81,0-1.5,.17-2.09,.5-.58,.33-1.07,.76-1.47,1.29-.39,.53-.71,1.13-.94,1.8-.23,.67-.41,1.36-.54,2.05-.13,.69-.21,1.36-.24,2.01-.04,.65-.05,1.2-.05,1.67s.02,1.05,.05,1.68c.03,.64,.12,1.3,.24,1.99,.12,.69,.31,1.37,.54,2.05,.23,.67,.55,1.28,.94,1.8,.4,.53,.88,.96,1.47,1.29,.58,.33,1.28,.5,2.09,.5s1.5-.17,2.09-.5c.58-.33,1.07-.76,1.47-1.29,.39-.53,.71-1.13,.94-1.8s.41-1.36,.54-2.05c.12-.69,.21-1.36,.24-1.99,.03-.64,.05-1.2,.05-1.68s-.02-1.02-.05-1.67c-.04-.65-.12-1.31-.24-2.01-.13-.69-.31-1.37-.54-2.05-.23-.67-.55-1.27-.94-1.8-.4-.53-.88-.96-1.47-1.29-.58-.33-1.28-.5-2.09-.5"></path><path class="cls-3" d="M55.07,42.84c-1.27,0-2.33-.33-3.15-.98-.8-.64-1.43-1.47-1.88-2.45-.44-.97-.74-2.06-.91-3.25-.16-1.18-.24-2.33-.24-3.43s.08-2.25,.24-3.43c.17-1.19,.47-2.28,.91-3.25,.44-.98,1.08-1.81,1.88-2.45,.81-.65,1.87-.98,3.15-.98s2.33,.33,3.14,.98c.8,.64,1.43,1.47,1.88,2.45,.44,.97,.75,2.06,.91,3.25,.16,1.17,.24,2.32,.24,3.43s-.08,2.26-.24,3.43c-.16,1.19-.47,2.28-.91,3.25-.44,.98-1.08,1.8-1.88,2.45-.81,.65-1.87,.98-3.14,.98m0-19.71c-1.16,0-2.11,.29-2.83,.87-.74,.59-1.32,1.35-1.73,2.26-.42,.92-.71,1.97-.87,3.11-.16,1.15-.24,2.28-.24,3.36s.08,2.21,.24,3.36c.16,1.14,.45,2.18,.87,3.11,.41,.91,1,1.67,1.73,2.26,.72,.58,1.67,.87,2.83,.87s2.11-.29,2.83-.87c.74-.59,1.32-1.35,1.73-2.26,.42-.92,.71-1.97,.87-3.11,.16-1.15,.24-2.28,.24-3.36s-.08-2.21-.24-3.36c-.16-1.14-.45-2.18-.87-3.11-.41-.91-1-1.67-1.73-2.26-.72-.58-1.68-.87-2.83-.87m0,19.17c-.85,0-1.59-.18-2.21-.53-.61-.35-1.13-.81-1.54-1.36-.41-.55-.74-1.18-.98-1.87-.24-.68-.42-1.39-.55-2.08-.13-.7-.21-1.38-.25-2.02-.04-.63-.05-1.2-.05-1.7s.02-1.04,.05-1.68c.04-.65,.12-1.34,.25-2.04,.13-.7,.31-1.4,.55-2.08,.24-.69,.57-1.32,.98-1.87,.41-.55,.93-1.01,1.54-1.36,.62-.35,1.36-.53,2.21-.53s1.59,.18,2.21,.53c.61,.35,1.13,.81,1.54,1.36,.41,.55,.74,1.18,.98,1.87,.24,.68,.42,1.38,.55,2.08,.13,.7,.21,1.39,.25,2.04,.04,.67,.05,1.22,.05,1.68s-.02,1.04-.05,1.7c-.04,.64-.12,1.32-.25,2.02-.13,.7-.31,1.4-.55,2.08-.24,.69-.57,1.32-.98,1.87-.41,.56-.93,1.01-1.54,1.36-.62,.35-1.36,.53-2.21,.53m0-18.63c-.76,0-1.42,.16-1.96,.47-.55,.31-1.02,.73-1.39,1.22-.38,.51-.68,1.09-.91,1.74-.23,.66-.41,1.33-.53,2.01-.12,.68-.2,1.35-.24,1.97-.04,.63-.05,1.19-.05,1.65s.02,1.04,.05,1.67c.03,.62,.11,1.28,.24,1.96,.12,.67,.3,1.35,.53,2.01,.22,.65,.53,1.23,.91,1.74,.37,.5,.84,.91,1.39,1.22,.54,.31,1.2,.47,1.96,.47s1.42-.16,1.96-.47c.55-.31,1.02-.73,1.39-1.22,.38-.51,.68-1.09,.91-1.74,.23-.66,.41-1.33,.53-2.01,.12-.68,.2-1.34,.24-1.96,.04-.65,.05-1.19,.05-1.67s-.02-1-.05-1.65c-.03-.63-.11-1.29-.24-1.97-.12-.68-.3-1.35-.53-2.01-.22-.64-.53-1.23-.91-1.74-.37-.5-.84-.91-1.39-1.22-.54-.31-1.2-.47-1.96-.47"></path><path class="cls-3" d="M70.76,42.27v-.7l6.65-7.81c1.01-1.17,1.8-2.23,2.4-3.18,.59-.95,.89-1.91,.89-2.88,0-.66-.11-1.26-.33-1.79-.21-.53-.52-.98-.9-1.36-.39-.38-.85-.66-1.38-.86-.53-.2-1.1-.3-1.71-.3-1.04,0-1.96,.27-2.75,.82-.79,.55-1.35,1.36-1.67,2.44l-.57-.19c.34-1.15,.96-2.03,1.86-2.65,.9-.62,1.94-.93,3.13-.93,.72,0,1.38,.12,1.99,.35,.6,.23,1.12,.56,1.55,.98,.43,.42,.77,.91,1.01,1.48,.24,.57,.36,1.17,.36,1.82,0,.59-.08,1.15-.23,1.67-.15,.52-.39,1.04-.7,1.57-.31,.53-.7,1.08-1.16,1.67-.46,.58-.99,1.22-1.58,1.92l-6.26,7.34h10.1v.59h-10.69Z"></path><path class="cls-3" d="M81.7,42.52h-11.19v-1.04l6.71-7.88c.99-1.15,1.79-2.21,2.38-3.15,.56-.91,.85-1.83,.85-2.75,0-.63-.1-1.2-.31-1.7-.2-.49-.49-.92-.85-1.27-.36-.35-.79-.62-1.29-.81-.5-.19-1.05-.28-1.63-.28-.99,0-1.87,.26-2.61,.78-.74,.51-1.27,1.29-1.58,2.3l-.07,.25-1.04-.35,.07-.23c.36-1.2,1.02-2.14,1.96-2.79,.94-.64,2.04-.97,3.27-.97,.75,0,1.44,.12,2.07,.37,.63,.24,1.18,.59,1.64,1.03,.45,.44,.81,.97,1.07,1.56,.25,.59,.38,1.24,.38,1.91,0,.61-.08,1.2-.24,1.74-.16,.54-.4,1.09-.73,1.63-.32,.54-.72,1.11-1.18,1.69-.46,.59-1,1.24-1.59,1.93l-5.91,6.93h9.8v1.09Zm-10.69-.5h10.19v-.09h-10.19v.09Zm0-.36v.03l6.41-7.52c.59-.69,1.12-1.33,1.57-1.91,.45-.57,.83-1.12,1.14-1.64,.3-.51,.53-1.02,.68-1.51,.14-.49,.22-1.03,.22-1.6,0-.61-.11-1.19-.34-1.72-.23-.53-.55-1-.96-1.4-.41-.4-.9-.71-1.47-.93-.57-.22-1.21-.33-1.89-.33-1.13,0-2.14,.3-2.99,.88-.79,.54-1.35,1.31-1.69,2.29l.09,.03c.35-1.01,.92-1.79,1.69-2.32,.83-.58,1.81-.87,2.9-.87,.64,0,1.24,.11,1.8,.31,.56,.21,1.06,.52,1.47,.92,.41,.4,.73,.89,.96,1.44,.23,.56,.34,1.19,.34,1.89,0,1.01-.31,2.02-.93,3.01-.6,.96-1.41,2.04-2.42,3.21l-6.59,7.74Z"></path><path class="cls-3" d="M102.61,37.26c0,.7-.11,1.37-.32,2.01-.21,.64-.54,1.2-.98,1.7-.44,.49-1.01,.89-1.7,1.18-.69,.3-1.51,.44-2.46,.44-1.22,0-2.3-.28-3.24-.83-.94-.56-1.65-1.29-2.11-2.21l.57-.24c.39,.83,1.02,1.48,1.89,1.97,.86,.48,1.83,.75,2.91,.78,.79,.02,1.49-.1,2.1-.35,.61-.25,1.12-.6,1.53-1.04,.41-.44,.72-.96,.93-1.55,.21-.59,.31-1.22,.31-1.88,0-.83-.18-1.54-.53-2.13-.35-.59-.8-1.08-1.34-1.47-.54-.39-1.14-.67-1.79-.85-.65-.18-1.26-.27-1.84-.27h-.6v-.54h.59c.57,0,1.15-.09,1.71-.26,.56-.17,1.08-.43,1.53-.79,.46-.36,.83-.82,1.12-1.37,.29-.56,.43-1.23,.43-2.02,0-.63-.11-1.2-.32-1.71-.22-.51-.51-.95-.89-1.31-.38-.36-.82-.64-1.33-.84-.51-.2-1.06-.3-1.65-.3-.79,0-1.54,.17-2.26,.51-.72,.34-1.28,.83-1.7,1.46l-.49-.32c.47-.66,1.08-1.19,1.85-1.57,.76-.39,1.63-.58,2.6-.58,.68,0,1.31,.11,1.9,.32,.58,.21,1.08,.52,1.51,.93,.42,.4,.76,.89,1.01,1.47s.38,1.22,.38,1.94c0,.54-.08,1.06-.23,1.57-.15,.51-.39,.97-.72,1.39-.33,.41-.75,.77-1.26,1.08-.51,.31-1.12,.51-1.83,.62v.05c.81,.13,1.51,.35,2.11,.67,.6,.32,1.09,.71,1.48,1.16,.39,.45,.68,.95,.87,1.49,.19,.55,.28,1.11,.28,1.68"></path><path class="cls-3" d="M97.15,42.84c-1.26,0-2.39-.29-3.37-.87-.98-.58-1.72-1.36-2.21-2.31l-.12-.24,1.03-.44,.1,.22c.37,.77,.97,1.4,1.78,1.86,.82,.46,1.76,.71,2.79,.75,.74,.02,1.42-.09,2-.33,.57-.24,1.06-.56,1.45-.98,.39-.41,.68-.9,.88-1.46,.2-.56,.29-1.17,.29-1.8,0-.78-.17-1.45-.49-2-.33-.56-.76-1.03-1.27-1.39-.51-.37-1.09-.64-1.71-.81-.63-.17-1.22-.26-1.77-.26h-.85v-1.04h.84c.55,0,1.1-.08,1.64-.25,.53-.16,1.02-.41,1.45-.75,.43-.33,.78-.77,1.05-1.29,.27-.52,.4-1.16,.4-1.9,0-.59-.1-1.13-.3-1.61-.2-.48-.48-.89-.83-1.22-.35-.33-.77-.6-1.25-.78-1.12-.43-2.53-.36-3.72,.21-.67,.32-1.21,.78-1.59,1.37l-.14,.21-.91-.61,.15-.21c.49-.69,1.14-1.25,1.94-1.65,.8-.4,1.71-.61,2.71-.61,.71,0,1.38,.11,1.98,.34,.61,.23,1.15,.56,1.59,.98,.44,.42,.8,.95,1.07,1.55,.26,.61,.4,1.29,.4,2.04,0,.56-.08,1.11-.24,1.65-.16,.54-.42,1.04-.76,1.47-.34,.44-.79,.82-1.33,1.14-.29,.17-.6,.31-.94,.42,.44,.13,.85,.29,1.22,.49,.62,.34,1.14,.74,1.55,1.21,.41,.47,.71,1,.91,1.58,.2,.57,.3,1.17,.3,1.76,0,.72-.11,1.43-.34,2.09-.22,.67-.57,1.26-1.03,1.78-.46,.52-1.06,.94-1.78,1.25-.72,.31-1.58,.46-2.56,.46m-5.01-3.17c.44,.76,1.08,1.39,1.89,1.87,.9,.53,1.95,.8,3.12,.8,.91,0,1.71-.14,2.37-.42,.65-.28,1.19-.66,1.61-1.12,.42-.47,.73-1.01,.93-1.61,.21-.61,.31-1.25,.31-1.93,0-.54-.09-1.08-.27-1.6-.18-.51-.45-.99-.82-1.41-.37-.42-.84-.79-1.4-1.1-.06-.03-.12-.06-.18-.09,.21,.11,.42,.24,.62,.38,.57,.4,1.04,.92,1.41,1.54,.37,.63,.56,1.39,.56,2.26,0,.69-.11,1.35-.32,1.97-.22,.62-.55,1.17-.98,1.64-.44,.46-.98,.83-1.62,1.1-.64,.26-1.39,.38-2.2,.37-1.11-.04-2.13-.31-3.02-.81-.83-.47-1.46-1.09-1.88-1.86l-.1,.04Zm4.04-7.4h.35c.35,0,.72,.03,1.09,.1v-.23c-.36,.07-.73,.1-1.1,.1h-.34v.04Zm.94-9.13c.62,0,1.21,.11,1.74,.31,.54,.21,1.02,.51,1.42,.89,.4,.38,.72,.85,.95,1.39,.23,.54,.34,1.15,.34,1.81,0,.82-.15,1.54-.46,2.13-.3,.59-.7,1.08-1.18,1.46-.03,.02-.06,.05-.09,.07,.37-.25,.68-.53,.93-.85,.3-.39,.53-.82,.68-1.3,.15-.49,.22-.99,.22-1.5,0-.68-.12-1.3-.36-1.84-.24-.54-.56-1.01-.95-1.39-.39-.38-.87-.67-1.42-.88-.55-.2-1.16-.31-1.81-.31-.93,0-1.76,.19-2.48,.55-.64,.32-1.18,.76-1.6,1.29l.06,.04c.42-.57,.98-1.01,1.65-1.34,.75-.36,1.55-.54,2.37-.54"></path><polygon class="cls-4" points="65 93.44 66.2 97.04 70.16 97 66.94 99.33 68.08 102.95 65 100.75 61.9 102.95 63.04 99.33 59.98 97.07 63.79 97.04 65 93.44"></polygon><polygon class="cls-3" points="31.14 76.76 33.34 76.76 36 80.12 36.01 80.12 36.01 76.76 37.43 76.76 37.43 81.38 35.24 81.38 32.57 78.02 32.56 78.02 32.56 81.38 31.14 81.38 31.14 76.76"></polygon><path class="cls-3" d="M43.39,76.76h1.85l2.54,4.63h-1.58l-.44-.82h-2.88l-.42,.82h-1.59l2.51-4.63Zm.03,2.81h1.81l-.92-1.74-.89,1.74Z"></path><polygon class="cls-3" points="50.42 76.76 55.83 76.76 55.83 77.91 53.83 77.91 53.83 81.38 52.41 81.38 52.41 77.91 50.42 77.91 50.42 76.76"></polygon><rect class="cls-3" x="59.47" y="76.76" width="1.42" height="4.63"></rect><path class="cls-3" d="M64.76,78.38c0-1.36,.76-1.67,2.04-1.67h2.28c1.28,0,2.04,.32,2.04,1.67v1.38c0,1.36-.76,1.67-2.04,1.67h-2.28c-1.28,0-2.04-.32-2.04-1.67v-1.38Zm1.46,.94c0,.67,.14,.93,.81,.93h1.82c.67,0,.81-.26,.81-.93v-.5c0-.58-.14-.93-.89-.93h-1.66c-.75,0-.89,.35-.89,.93v.5Z"></path><polygon class="cls-3" points="74.91 76.76 77.11 76.76 79.78 80.12 79.79 80.12 79.79 76.76 81.21 76.76 81.21 81.38 79.01 81.38 76.35 78.02 76.33 78.02 76.33 81.38 74.91 81.38 74.91 76.76"></polygon><path class="cls-3" d="M87.17,76.76h1.85l2.54,4.63h-1.58l-.44-.82h-2.88l-.42,.82h-1.59l2.51-4.63Zm.03,2.81h1.81l-.92-1.74-.89,1.74Z"></path><polygon class="cls-3" points="95.01 76.76 96.42 76.76 96.42 80.19 99.61 80.19 99.61 81.38 95.01 81.38 95.01 76.76"></polygon><path class="cls-2" d="M40.31,85.67c0-.71,.24-1.06,1.01-1.06h1.47c.69,0,.89,.33,.89,.7v.24h-.34v-.13c0-.48-.3-.5-.65-.5h-1.33c-.37,0-.66,.11-.66,.6v1.06c0,.49,.3,.6,.66,.6h1.34c.51,0,.66-.11,.66-.49v-.17h.36v.19c0,.51-.16,.79-.96,.79h-1.44c-.77,0-1.01-.34-1.01-1.06v-.77Z"></path><path class="cls-1" d="M42.76,87.57h-1.44c-.77,0-1.08-.33-1.08-1.13v-.77c0-.81,.31-1.13,1.08-1.13h1.46c.8,0,.96,.42,.96,.78v.32h-.49v-.2c0-.39-.18-.43-.57-.43h-1.33c-.42,0-.59,.15-.59,.53v1.06c0,.37,.17,.53,.59,.53h1.34c.5,0,.59-.1,.59-.42v-.25h.51v.27c0,.53-.17,.87-1.03,.87m-1.44-2.89c-.68,0-.93,.27-.93,.98v.77c0,.72,.25,.98,.93,.98h1.44c.75,0,.88-.24,.88-.71v-.12h-.21v.1c0,.48-.25,.57-.74,.57h-1.34c-.18,0-.74,0-.74-.68v-1.06c0-.68,.56-.68,.74-.68h1.33c.31,0,.72,0,.72,.58v.05h.18v-.17c0-.27-.08-.63-.81-.63h-1.46Z"></path><path class="cls-2" d="M44.32,84.64h2.26c.82,0,.94,.27,.94,.8v.23c0,.4-.23,.51-.52,.53h0c.39,.08,.48,.28,.48,.54v.72h-.36v-.62c0-.44-.22-.5-.56-.5h-1.87v1.12h-.38v-2.83Zm2.22,1.4c.43,0,.6-.11,.6-.41v-.26c0-.32-.14-.42-.7-.42h-1.74v1.09h1.84Z"></path><path class="cls-1" d="M47.57,87.54h-.51v-.7c0-.38-.16-.42-.49-.42h-1.79v1.12h-.53v-2.98h2.34c.86,0,1.02,.31,1.02,.88v.23c0,.33-.15,.48-.32,.55,.19,.1,.29,.27,.29,.52v.8Zm-.36-.15h.21v-.65c0-.23-.07-.39-.42-.46h-.06v-.14h.07c.27-.04,.45-.13,.45-.48v-.23c0-.51-.12-.73-.87-.73h-2.19v2.68h.23v-1.12h1.94c.34,0,.64,.04,.64,.57v.55Zm-.67-1.28h-1.91v-1.24h1.82c.51,0,.77,.08,.77,.49v.26c0,.43-.36,.49-.68,.49m-1.76-.15h1.76c.44,0,.53-.12,.53-.33v-.26c0-.24-.06-.34-.62-.34h-1.67v.94Z"></path><path class="cls-2" d="M49.56,84.64h.48l1.68,2.83h-.43l-.35-.6h-2.27l-.35,.6h-.43l1.68-2.83Zm.24,.31l-.95,1.61h1.9l-.95-1.61Z"></path><path class="cls-1" d="M51.85,87.54h-.61l-.35-.6h-2.18l-.35,.6h-.61l1.77-2.98h.56l.02,.04,1.75,2.94Zm-.52-.15h.26l-1.59-2.68h-.39l-1.59,2.68h.26l.35-.6h2.35l.35,.6Zm-.45-.76h-2.16l1.08-1.83,1.08,1.83Zm-1.9-.15h1.63l-.82-1.38-.82,1.38Z"></path><polygon class="cls-2" points="51.52 84.64 51.89 84.64 52.88 87.11 53.85 84.64 54.34 84.64 55.3 87.12 56.3 84.64 56.67 84.64 55.55 87.47 55.06 87.47 54.1 84.98 53.13 87.47 52.64 87.47 51.52 84.64"></polygon><path class="cls-1" d="M55.6,87.54h-.59l-.91-2.35-.91,2.35h-.6l-.02-.05-1.17-2.93h.54l.02,.05,.92,2.3,.92-2.34h.6l.91,2.35,.95-2.35h.54l-1.19,2.98Zm-.49-.15h.39l1.06-2.68h-.21l-1.05,2.61-1.01-2.61h-.39l-1.02,2.6-1.04-2.6h-.21l1.07,2.68h.39l1.01-2.62,1.01,2.62Z"></path><polygon class="cls-2" points="57.08 84.64 59.77 84.64 59.77 84.95 57.46 84.95 57.46 85.85 59.68 85.85 59.68 86.17 57.46 86.17 57.46 87.47 57.08 87.47 57.08 84.64"></polygon><path class="cls-1" d="M57.54,87.54h-.53v-2.98h2.85v.46h-2.31v.75h2.22v.46h-2.22v1.3Zm-.38-.15h.23v-1.3h2.22v-.16h-2.22v-1.05h2.31v-.16h-2.54v2.68Z"></path><path class="cls-2" d="M60.28,85.67c0-.72,.24-1.06,1.01-1.06h1.63c.77,0,1.01,.34,1.01,1.06v.77c0,.72-.24,1.06-1.01,1.06h-1.63c-.77,0-1.01-.34-1.01-1.06v-.77Zm3.26-.15c0-.49-.3-.6-.66-.6h-1.55c-.37,0-.66,.11-.66,.6v1.06c0,.49,.3,.6,.66,.6h1.55c.37,0,.66-.11,.66-.6v-1.06Z"></path><path class="cls-1" d="M62.92,87.57h-1.63c-.77,0-1.08-.33-1.08-1.13v-.77c0-.81,.31-1.13,1.08-1.13h1.63c.77,0,1.08,.33,1.08,1.13v.77c0,.81-.31,1.13-1.08,1.13m-1.63-2.89c-.68,0-.93,.27-.93,.98v.77c0,.72,.25,.98,.93,.98h1.63c.68,0,.93-.27,.93-.98v-.77c0-.72-.25-.98-.93-.98h-1.63Zm1.59,2.58h-1.55c-.18,0-.74,0-.74-.68v-1.06c0-.68,.56-.68,.74-.68h1.55c.18,0,.74,0,.74,.68v1.06c0,.68-.56,.68-.74,.68m-1.55-2.27c-.42,0-.59,.15-.59,.53v1.06c0,.37,.17,.53,.59,.53h1.55c.42,0,.59-.15,.59-.53v-1.06c0-.37-.17-.53-.59-.53h-1.55Z"></path><path class="cls-2" d="M64.58,84.64h2.26c.82,0,.94,.27,.94,.8v.23c0,.4-.23,.51-.52,.53h0c.39,.08,.48,.28,.48,.54v.72h-.36v-.62c0-.44-.21-.5-.56-.5h-1.87v1.12h-.38v-2.83Zm2.22,1.4c.43,0,.6-.11,.6-.41v-.26c0-.32-.14-.42-.7-.42h-1.74v1.09h1.84Z"></path><path class="cls-1" d="M67.83,87.54h-.51v-.7c0-.38-.16-.42-.49-.42h-1.79v1.12h-.53v-2.98h2.34c.86,0,1.02,.31,1.02,.88v.23c0,.33-.15,.48-.32,.55,.19,.1,.29,.27,.29,.52v.8Zm-.36-.15h.21v-.65c0-.23-.07-.39-.42-.46h-.06v-.14h.07c.27-.04,.45-.13,.45-.48v-.23c0-.51-.12-.73-.87-.73h-2.19v2.68h.23v-1.12h1.94c.34,0,.64,.04,.64,.57v.55Zm-.67-1.28h-1.91v-1.24h1.82c.51,0,.77,.08,.77,.49v.26c0,.43-.36,.49-.68,.49m-1.76-.15h1.76c.44,0,.53-.12,.53-.33v-.26c0-.24-.06-.34-.62-.34h-1.67v.94Z"></path><path class="cls-2" d="M68.44,84.64h2.28c.95,0,1.21,.3,1.21,1.41,0,1.04-.26,1.41-1.22,1.41h-2.27v-2.83Zm3.11,1.28c0-.82-.25-.96-.72-.96h-2v2.2h1.94c.46,0,.79-.1,.79-.95v-.29Z"></path><path class="cls-1" d="M70.72,87.54h-2.35v-2.98h2.36c.99,0,1.28,.33,1.28,1.49s-.33,1.49-1.29,1.49m-2.2-.15h2.2c.89,0,1.14-.3,1.14-1.34s-.22-1.34-1.13-1.34h-2.21v2.68Zm2.25-.16h-2.02v-2.35h2.08c.51,0,.8,.17,.8,1.04v.29c0,.86-.32,1.02-.86,1.02m-1.87-.15h1.87c.42,0,.71-.06,.71-.87v-.29c0-.83-.27-.89-.65-.89h-1.93v2.05Z"></path><path class="cls-2" d="M72.54,86.58h.36v.2c0,.28,.15,.41,.62,.41h1.19c.56,0,.72-.12,.72-.52,0-.36-.14-.44-.62-.44h-.73c-1.17,0-1.55-.07-1.55-.82,0-.64,.38-.79,1.17-.79h.82c.95,0,1.19,.24,1.19,.75v.1h-.36c0-.45-.05-.53-1.06-.53h-.41c-.74,0-1,.04-1,.5,0,.34,.11,.45,.7,.45h1.13c.75,0,1.06,.22,1.06,.69v.18c0,.69-.57,.75-1.14,.75h-1.06c-.56,0-1.05-.1-1.05-.72v-.21Z"></path><path class="cls-1" d="M74.66,87.57h-1.06c-.56,0-1.13-.09-1.13-.79v-.28h.51v.27c0,.18,.04,.34,.55,.34h1.19c.55,0,.64-.11,.64-.45,0-.29-.07-.37-.54-.37h-.73c-1.1,0-1.63-.04-1.63-.9,0-.72,.46-.86,1.25-.86h.82c.92,0,1.26,.22,1.26,.82v.17h-.51v-.07c0-.39-.01-.46-.99-.46h-.41c-.8,0-.93,.06-.93,.43,0,.26,.03,.37,.63,.37h1.13c.78,0,1.13,.24,1.13,.77v.18c0,.82-.76,.82-1.21,.82m-2.04-.92v.13c0,.53,.39,.64,.98,.64h1.06c.69,0,1.06-.11,1.06-.67v-.18c0-.32-.12-.62-.98-.62h-1.13c-.6,0-.78-.12-.78-.52,0-.55,.37-.58,1.08-.58h.41c.94,0,1.11,.07,1.13,.53h.21v-.02c0-.44-.18-.67-1.11-.67h-.82c-.83,0-1.1,.17-1.1,.71,0,.67,.3,.74,1.48,.74h.73c.46,0,.69,.08,.69,.52,0,.5-.28,.6-.79,.6h-1.19c-.49,0-.7-.15-.7-.49v-.12h-.21Z"></path><polygon class="cls-2" points="76.18 84.64 76.61 84.64 77.98 87.12 79.35 84.64 79.78 84.64 78.22 87.47 77.75 87.47 76.18 84.64"></polygon><path class="cls-1" d="M78.26,87.54h-.56l-.02-.04-1.63-2.94h.6l1.33,2.4,1.33-2.4h.6l-1.65,2.98Zm-.47-.15h.38l1.48-2.68h-.26l-1.42,2.56-1.42-2.56h-.26l1.48,2.68Z"></path><rect class="cls-2" x="80.26" y="84.64" width=".38" height="2.83"></rect><path class="cls-1" d="M80.71,87.54h-.53v-2.98h.53v2.98Zm-.38-.15h.23v-2.68h-.23v2.68Z"></path><polygon class="cls-2" points="81.4 84.64 81.78 84.64 81.78 87.15 83.98 87.15 83.98 87.47 81.4 87.47 81.4 84.64"></polygon><path class="cls-1" d="M84.05,87.54h-2.73v-2.98h.53v2.52h2.19v.46Zm-2.58-.15h2.43v-.16h-2.2v-2.52h-.23v2.68Z"></path><polygon class="cls-2" points="84.39 84.64 84.78 84.64 84.78 87.15 86.97 87.15 86.97 87.47 84.39 87.47 84.39 84.64"></polygon><path class="cls-1" d="M87.05,87.54h-2.73v-2.98h.53v2.52h2.19v.46Zm-2.58-.15h2.43v-.16h-2.2v-2.52h-.23v2.68Z"></path><polygon class="cls-2" points="87.38 84.64 90.16 84.64 90.16 84.95 87.77 84.95 87.77 85.85 90.07 85.85 90.07 86.17 87.77 86.17 87.77 87.15 90.18 87.15 90.18 87.47 87.38 87.47 87.38 84.64"></polygon><path class="cls-1" d="M90.25,87.54h-2.94v-2.98h2.93v.46h-2.39v.75h2.3v.46h-2.3v.84h2.41v.46Zm-2.79-.15h2.64v-.16h-2.41v-1.14h2.3v-.16h-2.3v-1.05h2.4v-.16h-2.63v2.68Z"></path><rect class="cls-2" x="54.15" y="88.81" width=".38" height="2.83"></rect><path class="cls-1" d="M54.6,91.72h-.53v-2.98h.53v2.98Zm-.38-.15h.23v-2.68h-.23v2.68Z"></path><polygon class="cls-2" points="55.27 88.81 55.84 88.81 58.43 91.3 58.43 88.81 58.81 88.81 58.81 91.64 58.24 91.64 55.65 89.16 55.65 91.64 55.27 91.64 55.27 88.81"></polygon><path class="cls-1" d="M58.89,91.72h-.68l-.02-.02-2.46-2.36v2.38h-.53v-2.98h.68l.02,.02,2.46,2.36v-2.38h.53v2.98Zm-.61-.15h.46v-2.68h-.23v2.59l-2.69-2.59h-.47v2.68h.23v-2.58l2.7,2.58Z"></path><path class="cls-2" d="M59.52,88.81h2.28c.95,0,1.21,.3,1.21,1.41,0,1.04-.26,1.41-1.22,1.41h-2.27v-2.83Zm3.11,1.28c0-.82-.25-.96-.72-.96h-2v2.2h1.94c.47,0,.79-.1,.79-.95v-.29Z"></path><path class="cls-1" d="M61.79,91.72h-2.35v-2.98h2.36c.99,0,1.28,.33,1.28,1.49s-.33,1.49-1.29,1.49m-2.2-.15h2.2c.89,0,1.14-.3,1.14-1.34s-.22-1.34-1.13-1.34h-2.21v2.68Zm2.25-.16h-2.02v-2.35h2.08c.51,0,.8,.17,.8,1.04v.29c0,.86-.32,1.02-.86,1.02m-1.87-.15h1.87c.42,0,.71-.06,.71-.87v-.29c0-.83-.27-.89-.65-.89h-1.93v2.05Z"></path><rect class="cls-2" x="63.7" y="88.81" width=".38" height="2.83"></rect><path class="cls-1" d="M64.16,91.72h-.53v-2.98h.53v2.98Zm-.38-.15h.23v-2.68h-.23v2.68Z"></path><path class="cls-2" d="M66.21,88.81h.48l1.68,2.83h-.43l-.35-.6h-2.27l-.35,.6h-.43l1.68-2.83Zm.24,.31l-.95,1.61h1.9l-.95-1.61Z"></path><path class="cls-1" d="M68.5,91.72h-.61l-.35-.6h-2.18l-.35,.6h-.61l1.77-2.98h.56l.02,.04,1.75,2.94Zm-.52-.15h.26l-1.59-2.68h-.39l-1.59,2.68h.26l.35-.6h2.35l.35,.6Zm-.45-.76h-2.16l1.08-1.83,1.08,1.83Zm-1.9-.15h1.63l-.82-1.38-.82,1.38Z"></path><polygon class="cls-2" points="68.78 88.81 69.35 88.81 71.94 91.3 71.94 88.81 72.32 88.81 72.32 91.64 71.75 91.64 69.16 89.16 69.16 91.64 68.78 91.64 68.78 88.81"></polygon><path class="cls-1" d="M72.4,91.72h-.68l-.02-.02-2.46-2.36v2.38h-.53v-2.98h.68l.02,.02,2.46,2.36v-2.38h.53v2.98Zm-.61-.15h.46v-2.68h-.23v2.59l-2.69-2.59h-.46v2.68h.23v-2.58l2.7,2.58Z"></path><path class="cls-2" d="M74.42,88.81h.48l1.68,2.83h-.43l-.35-.6h-2.27l-.35,.6h-.43l1.68-2.83Zm.24,.31l-.95,1.61h1.9l-.95-1.61Z"></path><path class="cls-1" d="M76.7,91.72h-.61l-.35-.6h-2.18l-.35,.6h-.61l1.77-2.98h.56l.02,.04,1.75,2.94Zm-.52-.15h.26l-1.59-2.68h-.39l-1.59,2.68h.26l.35-.6h2.35l.35,.6Zm-.45-.76h-2.16l1.08-1.83,1.08,1.83Zm-1.9-.15h1.63l-.82-1.38-.82,1.38Z"></path></svg> 