<?xml version="1.0" encoding="UTF-8"?> <svg xmlns="http://www.w3.org/2000/svg" xmlns:xlink="http://www.w3.org/1999/xlink" version="1.1" id="Layer_1" x="0px" y="0px" viewBox="0 0 130 120" style="enable-background:new 0 0 130 120;" xml:space="preserve"> <style type="text/css"> .st0{fill:#002554;} .st1{fill:#FFFFFF;} .st2{fill:#E21D38;} .st3{fill-rule:evenodd;clip-rule:evenodd;fill:#FFFFFF;} .st4{fill:#B2292E;} .st5{fill:#F3BB0D;} </style> <g> <g> <g> <g> <g> <path class="st0" d="M65,109.5c-1.7,0-3.4-0.4-4.7-1.1L22.9,87.5c-2.6-1.4-4.8-4.6-5.4-7.4l-0.3-1.8L0.4,73.6V47.5h11L9.1,34.8 c-0.6-2.9,0.5-6.7,2.5-8.9l10.5-11.7c1.9-2.1,5.4-3.7,8.3-3.7h69.2c2.9,0,6.4,1.6,8.3,3.7l10.5,11.7c2,2.2,3.1,6,2.5,8.9 l-2.4,12.7h11v26.1l-16.8,4.7l-0.3,1.8c-0.5,2.9-2.8,6-5.4,7.4l-37.3,20.8C68.4,109.1,66.7,109.5,65,109.5z"></path> </g> <polygon class="st0" points="111.4,72.7 128.4,72.7 128.4,72.7 111.4,77.4 "></polygon> <polygon class="st0" points="18.6,72.7 1.6,72.7 1.6,72.7 18.6,77.4 "></polygon> <g> <path class="st1" d="M111.2,79.9c-0.5,2.5-2.5,5.4-4.8,6.6l-37.3,20.8c-1.1,0.6-2.6,1-4.1,1c-1.5,0-3-0.4-4.1-1L23.5,86.5 c-2.2-1.2-4.3-4.1-4.8-6.6l-0.9-5l-6.2-33.1l-1.3-7.2c-0.5-2.6,0.5-5.9,2.2-7.9L23,15c1.7-1.9,4.9-3.3,7.4-3.3h69.2 c2.5,0,5.7,1.4,7.4,3.3l10.5,11.7c1.7,1.9,2.7,5.3,2.2,7.9l-1.3,7.2L111.2,79.9z"></path> <path class="st0" d="M65,109.7c-1.8,0-3.5-0.4-4.8-1.2L22.9,87.7c-2.6-1.4-4.9-4.6-5.4-7.6L8.9,34.9c-0.6-3,0.5-6.8,2.5-9.1 L22,14.1c2-2.2,5.5-3.8,8.4-3.8h69.2c2.9,0,6.5,1.6,8.4,3.8l10.5,11.7c2,2.3,3.1,6.1,2.5,9.1l-8.5,45.3v0 c-0.5,2.9-2.8,6.1-5.4,7.6l-37.3,20.8C68.5,109.2,66.8,109.7,65,109.7z M30.4,13.1c-2.1,0-4.9,1.2-6.4,2.8L13.5,27.7 c-1.5,1.6-2.3,4.6-1.9,6.7l8.5,45.3c0.4,2.1,2.2,4.6,4.1,5.6l37.3,20.8c1.9,1,5,1,6.9,0l37.3-20.8c1.9-1,3.7-3.5,4.1-5.6v0 l8.5-45.3c0.4-2.1-0.4-5.1-1.9-6.7L105.9,16c-1.4-1.6-4.2-2.8-6.4-2.8H30.4z"></path> </g> <path class="st1" d="M111.2,79.9c-0.5,2.5-2.5,5.4-4.8,6.6l-37.3,20.8c-1.1,0.6-2.6,1-4.1,1c-1.5,0-3-0.4-4.1-1L23.5,86.5 c-2.2-1.2-4.3-4.1-4.8-6.6l-0.9-5l-6.2-33.1l-1.3-7.2c-0.5-2.6,0.5-5.9,2.2-7.9L23,15c1.7-1.9,4.9-3.3,7.4-3.3h69.2 c2.5,0,5.7,1.4,7.4,3.3l10.5,11.7c1.7,1.9,2.7,5.3,2.2,7.9l-1.3,7.2L111.2,79.9z"></path> <g> <path class="st2" d="M21.5,79.4c0.3,1.7,1.9,3.9,3.4,4.7l37.3,20.8c1.5,0.9,4.1,0.9,5.6,0l37.3-20.8c1.5-0.9,3.1-3,3.4-4.7 l1.3-7.2H20.1L21.5,79.4z"></path> <path class="st0" d="M117,34.1c0.3-1.7-0.4-4.2-1.6-5.6L105,16.9c-1.2-1.3-3.6-2.4-5.4-2.4H30.4c-1.8,0-4.2,1.1-5.4,2.4 L14.5,28.5c-1.2,1.3-1.9,3.8-1.6,5.6l2.8,15.1h98.4L117,34.1z"></path> </g> <path class="st1" d="M128.4,72.7H1.6v-24h126.7V72.7z"></path> <rect x="1.6" y="72.7" class="st0" width="126.7" height="1.2"></rect> <rect x="1.6" y="47.5" class="st0" width="126.7" height="1.2"></rect> <g> <path class="st0" d="M16.2,67.6l0.9-3.4h4.4v-2.1h-3.1c-1,0-1.8-1-1.8-2.4v-3.6c0-1.4,0.7-2.4,1.8-2.4h6.2l-0.9,3.4h-4.1v2.1h3 c1,0,1.8,1,1.8,2.4v3.6c0,1.4-0.7,2.4-1.8,2.4H16.2z"></path> <path class="st0" d="M28.4,63.2v4.4h-3V53.8H32c1,0,1.8,1,1.8,2.4v4.6c0,1.4-0.7,2.4-1.8,2.4H28.4z M30.8,60.1v-2.9h-2.4v2.9 H30.8z"></path> <path class="st0" d="M43.1,59.9c0,1.2-0.6,2-1.5,2h-0.1l2.2,5.8h-3.1l-2.7-7.5h2.2v-3h-2.5v10.4h-3V53.8h6.8c1,0,1.8,1,1.8,2.4 V59.9z"></path> <path class="st0" d="M44.1,53.8h3v13.8h-3V53.8z"></path> <path class="st0" d="M56.8,67.6h-3V57.2h-2.6v10.4h-3V53.8H55c1,0,1.8,1,1.8,2.4V67.6z"></path> <path class="st0" d="M59.4,67.6c-1,0-1.8-1-1.8-2.4v-9c0-1.4,0.7-2.4,1.8-2.4h6.5l-0.9,3.4h-4.4v7h2.5v-2.1h-1.5l0.7-2.7h3.4 v8.3H59.4z"></path> <path class="st0" d="M77.2,53.8l-0.9,3.4h-3.7v7h4.5l-0.9,3.4h-4.9c-1,0-1.8-1-1.8-2.4v-9c0-1.4,0.7-2.4,1.8-2.4H77.2z"></path> <path class="st0" d="M86.4,59.9c0,1.2-0.6,2-1.5,2h-0.1l2.2,5.8h-3.1l-2.7-7.5h2.2v-3h-2.5v10.4h-3V53.8h6.8c1,0,1.8,1,1.8,2.4 V59.9z"></path> <path class="st0" d="M87.6,53.8h7.7l-0.9,3.4h-3.8v2.1h3.8v2.6h-3.8v2.3h4.7l-0.9,3.4h-6.8V53.8z"></path> <path class="st0" d="M96.3,53.8h7.7l-0.9,3.4h-3.8v2.1h3.8v2.6h-3.8v2.3h4.7l-0.9,3.4h-6.8V53.8z"></path> <path class="st0" d="M107.8,67.6h-3V53.8h3V59h1.2l1.3-5.2h3.5l-1.6,5.2c-0.3,0.8-0.6,1.2-1.1,1.4c0.5,0.1,0.8,0.5,1.1,1.3 l1.7,5.9h-3.6l-1.4-5.2h-1.2V67.6z"></path> </g> </g> <path class="st1" d="M79.2,21.3l2.8,0l17.1,0l0,7.3l-5,5.2l5,6.8l0,2.3l-4.7,0l0-1.9L89,33.5l6.1-6.4V25l-11.9,0v17.9l-4,0 L79.2,21.3z M64.8,32.1l6.7,9.2v1.5h4.9v-1.7l-6.7-9.1l6.7-9.1v-1.7h-4.9v1.5L64.8,32.1z M52.1,23l6.7,9.1l-6.7,9.1v1.7H57l0-1.5 l6.7-9.2L57,22.8l0-1.5h-4.9V23z M34.9,35h10.3v-3.7l-10.3,0V25h10.5v1l3.9,0v-4.7H30.9l0,21.6h4V35z"></path> </g> <g> <g> <polyline class="st3" points="65,93.4 66.2,97 70.2,97 66.9,99.3 68.1,103 65,100.8 61.9,103 63,99.3 60,97.1 63.8,97 65,93.4 "></polyline> <g> <g> <path class="st1" d="M31.1,76.8h2.2l2.7,3.4h0v-3.4h1.4v4.6h-2.2L32.6,78h0v3.4h-1.4V76.8z"></path> <path class="st1" d="M43.4,76.8h1.8l2.5,4.6h-1.6l-0.4-0.8h-2.9l-0.4,0.8h-1.6L43.4,76.8z M43.4,79.6h1.8l-0.9-1.7L43.4,79.6z "></path> <path class="st1" d="M50.4,76.8h5.4v1.2h-2v3.5h-1.4v-3.5h-2V76.8z"></path> <path class="st1" d="M59.5,76.8h1.4v4.6h-1.4V76.8z"></path> <path class="st1" d="M64.8,78.4c0-1.4,0.8-1.7,2-1.7h2.3c1.3,0,2,0.3,2,1.7v1.4c0,1.4-0.8,1.7-2,1.7h-2.3c-1.3,0-2-0.3-2-1.7 V78.4z M66.2,79.3c0,0.7,0.1,0.9,0.8,0.9h1.8c0.7,0,0.8-0.3,0.8-0.9v-0.5c0-0.6-0.1-0.9-0.9-0.9h-1.7c-0.7,0-0.9,0.4-0.9,0.9 V79.3z"></path> <path class="st1" d="M74.9,76.8h2.2l2.7,3.4h0v-3.4h1.4v4.6H79L76.3,78h0v3.4h-1.4V76.8z"></path> <path class="st1" d="M87.2,76.8H89l2.5,4.6H90l-0.4-0.8h-2.9l-0.4,0.8h-1.6L87.2,76.8z M87.2,79.6H89l-0.9-1.7L87.2,79.6z"></path> <path class="st1" d="M95,76.8h1.4v3.4h3.2v1.2H95V76.8z"></path> </g> </g> <g> <g> <path class="st0" d="M52.4,84.6H53l1.7,2.4l1.7-2.4h0.6v2.8h-0.4V85h0l-1.7,2.5h-0.3L52.8,85h0v2.5h-0.4V84.6z"></path> <path class="st0" d="M57,87.5h-0.5v-2.3l-1.6,2.3h-0.4l-1.6-2.3v2.3h-0.5v-3h0.7l1.6,2.3l1.6-2.3H57V87.5z M56.6,87.4h0.2 v-2.7h-0.5l-1.7,2.4L53,84.7h-0.5v2.7h0.2v-2.5h0.1l0,0l1.7,2.5h0.2l1.7-2.5h0.1l0,0.1V87.4z"></path> </g> <g> <path class="st0" d="M57.7,84.6h0.4v2.8h-0.4V84.6z"></path> <path class="st0" d="M58.1,87.5h-0.5v-3h0.5V87.5z M57.8,87.4H58v-2.7h-0.2V87.4z"></path> </g> <g> <path class="st0" d="M58.8,84.6h0.4v2.5h2.2v0.3h-2.6V84.6z"></path> <path class="st0" d="M61.5,87.5h-2.7v-3h0.5v2.5h2.2V87.5z M58.9,87.4h2.4v-0.2h-2.2v-2.5h-0.2V87.4z"></path> </g> <g> <path class="st0" d="M61.8,84.6h0.4v2.5h2.2v0.3h-2.6V84.6z"></path> <path class="st0" d="M64.5,87.5h-2.7v-3h0.5v2.5h2.2V87.5z M61.9,87.4h2.4v-0.2h-2.2v-2.5h-0.2V87.4z"></path> </g> <g> <path class="st0" d="M64.1,84.6h0.4l1.4,2.5l1.4-2.5h0.4l-1.6,2.8h-0.5L64.1,84.6z"></path> <path class="st0" d="M66.2,87.5h-0.6l0,0L64,84.6h0.6l1.3,2.4l1.3-2.4h0.6L66.2,87.5z M65.7,87.4h0.4l1.5-2.7h-0.3l-1.4,2.6 l-1.4-2.6h-0.3L65.7,87.4z"></path> </g> <g> <path class="st0" d="M68.2,84.6h0.4v2.8h-0.4V84.6z"></path> <path class="st0" d="M68.6,87.5h-0.5v-3h0.5V87.5z M68.2,87.4h0.2v-2.7h-0.2V87.4z"></path> </g> <g> <path class="st0" d="M69.3,84.6h0.4v2.5h2.2v0.3h-2.6V84.6z"></path> <path class="st0" d="M72,87.5h-2.7v-3h0.5v2.5H72V87.5z M69.4,87.4h2.4v-0.2h-2.2v-2.5h-0.2V87.4z"></path> </g> <g> <path class="st0" d="M72.3,84.6h0.4v2.5h2.2v0.3h-2.6V84.6z"></path> <path class="st0" d="M75,87.5h-2.7v-3h0.5v2.5H75V87.5z M72.4,87.4h2.4v-0.2h-2.2v-2.5h-0.2V87.4z"></path> </g> <g> <path class="st0" d="M75.3,84.6h2.8V85h-2.4v0.9H78v0.3h-2.3v1h2.4v0.3h-2.8V84.6z"></path> <path class="st0" d="M78.2,87.5h-2.9v-3h2.9V85h-2.4v0.8h2.3v0.5h-2.3v0.8h2.4V87.5z M75.4,87.4H78v-0.2h-2.4v-1.1h2.3v-0.2 h-2.3v-1.1H78v-0.2h-2.6V87.4z"></path> </g> <g> <path class="st0" d="M48.9,88.8h0.6l1.7,2.4l1.7-2.4h0.6v2.8H53v-2.5h0l-1.7,2.5H51l-1.7-2.5h0v2.5h-0.4V88.8z"></path> <path class="st0" d="M53.5,91.7h-0.5v-2.3l-1.6,2.3H51l-1.6-2.3v2.3h-0.5v-3h0.7l1.6,2.3l1.6-2.3h0.7V91.7z M53.1,91.6h0.2 v-2.7h-0.5l-1.7,2.4l-1.7-2.4H49v2.7h0.2v-2.5h0.1l0,0l1.7,2.5h0.2l1.7-2.5h0.1l0,0.1V91.6z"></path> </g> <g> <path class="st0" d="M54.1,88.8h0.4v2.8h-0.4V88.8z"></path> <path class="st0" d="M54.6,91.7h-0.5v-3h0.5V91.7z M54.2,91.6h0.2v-2.7h-0.2V91.6z"></path> </g> <g> <path class="st0" d="M55.2,88.8h0.6l2.6,2.5v-2.5h0.4v2.8h-0.6l-2.6-2.5v2.5h-0.4V88.8z"></path> <path class="st0" d="M58.9,91.7h-0.7l0,0l-2.5-2.4v2.4h-0.5v-3h0.7l0,0l2.5,2.4v-2.4h0.5V91.7z M58.3,91.6h0.5v-2.7h-0.2v2.6 l-2.7-2.6h-0.5v2.7h0.2V89L58.3,91.6z"></path> </g> <g> <path class="st0" d="M59.5,88.8h0.6l2.6,2.5v-2.5H63v2.8h-0.6l-2.6-2.5v2.5h-0.4V88.8z"></path> <path class="st0" d="M63.1,91.7h-0.7l0,0L60,89.3v2.4h-0.5v-3h0.7l0,0l2.5,2.4v-2.4h0.5V91.7z M62.5,91.6H63v-2.7h-0.2v2.6 L60,88.9h-0.5v2.7h0.2V89L62.5,91.6z"></path> </g> <g> <path class="st0" d="M63.8,88.8h2.8v0.3h-2.4V90h2.3v0.3h-2.3v1h2.4v0.3h-2.8V88.8z"></path> <path class="st0" d="M66.6,91.7h-2.9v-3h2.9v0.5h-2.4V90h2.3v0.5h-2.3v0.8h2.4V91.7z M63.8,91.6h2.6v-0.2h-2.4v-1.1h2.3v-0.2 h-2.3v-1.1h2.4v-0.2h-2.6V91.6z"></path> </g> <g> <path class="st0" d="M67.1,90.8h0.4V91c0,0.3,0.1,0.4,0.6,0.4h1.2c0.6,0,0.7-0.1,0.7-0.5c0-0.4-0.1-0.4-0.6-0.4h-0.7 c-1.2,0-1.6-0.1-1.6-0.8c0-0.6,0.4-0.8,1.2-0.8h0.8c0.9,0,1.2,0.2,1.2,0.7v0.1h-0.4c0-0.4-0.1-0.5-1.1-0.5h-0.4 c-0.7,0-1,0-1,0.5c0,0.3,0.1,0.4,0.7,0.4h1.1c0.7,0,1.1,0.2,1.1,0.7v0.2c0,0.7-0.6,0.7-1.1,0.7h-1.1c-0.6,0-1.1-0.1-1.1-0.7 V90.8z"></path> <path class="st0" d="M69.2,91.7h-1.1c-0.6,0-1.1-0.1-1.1-0.8v-0.3h0.5V91c0,0.2,0,0.3,0.5,0.3h1.2c0.6,0,0.6-0.1,0.6-0.4 c0-0.3-0.1-0.4-0.5-0.4h-0.7c-1.1,0-1.6,0-1.6-0.9c0-0.7,0.5-0.9,1.2-0.9h0.8c0.9,0,1.3,0.2,1.3,0.8v0.2h-0.5l0-0.1 c0-0.4,0-0.5-1-0.5h-0.4c-0.8,0-0.9,0.1-0.9,0.4c0,0.3,0,0.4,0.6,0.4h1.1c0.8,0,1.1,0.2,1.1,0.8v0.2 C70.4,91.7,69.6,91.7,69.2,91.7z M67.2,90.8V91c0,0.5,0.4,0.6,1,0.6h1.1c0.7,0,1.1-0.1,1.1-0.7v-0.2c0-0.3-0.1-0.6-1-0.6h-1.1 c-0.6,0-0.8-0.1-0.8-0.5c0-0.6,0.4-0.6,1.1-0.6h0.4c0.9,0,1.1,0.1,1.1,0.5h0.2v0c0-0.4-0.2-0.7-1.1-0.7h-0.8 c-0.8,0-1.1,0.2-1.1,0.7c0,0.7,0.3,0.7,1.5,0.7h0.7c0.5,0,0.7,0.1,0.7,0.5c0,0.5-0.3,0.6-0.8,0.6h-1.2c-0.5,0-0.7-0.1-0.7-0.5 v-0.1H67.2z"></path> </g> <g> <path class="st0" d="M70.9,89.8c0-0.7,0.2-1.1,1-1.1h1.6c0.8,0,1,0.3,1,1.1v0.8c0,0.7-0.2,1.1-1,1.1h-1.6c-0.8,0-1-0.3-1-1.1 V89.8z M74.2,89.7c0-0.5-0.3-0.6-0.7-0.6H72c-0.4,0-0.7,0.1-0.7,0.6v1.1c0,0.5,0.3,0.6,0.7,0.6h1.6c0.4,0,0.7-0.1,0.7-0.6 V89.7z"></path> <path class="st0" d="M73.6,91.7h-1.6c-0.8,0-1.1-0.3-1.1-1.1v-0.8c0-0.8,0.3-1.1,1.1-1.1h1.6c0.8,0,1.1,0.3,1.1,1.1v0.8 C74.7,91.4,74.3,91.7,73.6,91.7z M71.9,88.9c-0.7,0-0.9,0.3-0.9,1v0.8c0,0.7,0.3,1,0.9,1h1.6c0.7,0,0.9-0.3,0.9-1v-0.8 c0-0.7-0.3-1-0.9-1H71.9z M73.5,91.4H72c-0.2,0-0.7,0-0.7-0.7v-1.1c0-0.7,0.6-0.7,0.7-0.7h1.6c0.2,0,0.7,0,0.7,0.7v1.1 C74.3,91.4,73.7,91.4,73.5,91.4z M72,89.2c-0.4,0-0.6,0.2-0.6,0.5v1.1c0,0.4,0.2,0.5,0.6,0.5h1.6c0.4,0,0.6-0.2,0.6-0.5v-1.1 c0-0.4-0.2-0.5-0.6-0.5H72z"></path> </g> <g> <path class="st0" d="M76.4,89.1H75v-0.3h3.2v0.3h-1.4v2.5h-0.4V89.1z"></path> <path class="st0" d="M76.8,91.7h-0.5v-2.5h-1.4v-0.5h3.4v0.5h-1.4V91.7z M76.5,91.6h0.2v-2.5h1.4v-0.2H75v0.2h1.4V91.6z"></path> </g> <g> <path class="st0" d="M79.6,88.8h0.5l1.7,2.8h-0.4L81,91h-2.3l-0.4,0.6H78L79.6,88.8z M79.9,89.1l-0.9,1.6h1.9L79.9,89.1z"></path> <path class="st0" d="M81.9,91.7h-0.6L81,91.1h-2.2l-0.4,0.6h-0.6l1.8-3h0.6l0,0L81.9,91.7z M81.4,91.6h0.3l-1.6-2.7h-0.4 l-1.6,2.7h0.3l0.4-0.6h2.4L81.4,91.6z M81,90.8h-2.2l1.1-1.8L81,90.8z M79.1,90.7h1.6l-0.8-1.4L79.1,90.7z"></path> </g> </g> </g> </g> </g> <g> <g> <g> <g> <g> <g> <g> <g> <g> <path class="st4" d="M129.5,100.3c-1.3,0-2.3-1.1-2.3-2.4c0,0,0,0,0-0.1l-33.7,0c0,0,0,0,0,0.1c0,1.3-1,2.4-2.3,2.4 c0,0,0,0-0.1,0v7.1c0,0,0,0,0.1,0c1.3,0,2.3,1,2.3,2.3l33.7,0c0-1.3,1.1-2.3,2.3-2.3c0,0,0,0,0.1,0L129.5,100.3 C129.6,100.3,129.5,100.3,129.5,100.3z"></path> <g> <path class="st1" d="M125.6,99.7h-0.1v-0.1h0.4v0.1H125.6l0.1,0.4h-0.1V99.7z"></path> <path class="st1" d="M125.9,99.6h0.1l0.1,0.2l0.1-0.2h0.1v0.4h-0.1v-0.3l-0.1,0.2h0l-0.1-0.2v0.3h-0.1V99.6z"></path> </g> <g> <path class="st1" d="M97.8,99.6c0.1,0,0.1,0,0.1,0.1v0.8c0,0.1,0,0.1-0.1,0.1h-1.5v1.3h1.4c0.1,0,0.1,0,0.1,0.1v0.8 c0,0.1,0,0.1-0.1,0.1h-1.4v2.1c0,0.1,0,0.1-0.1,0.1h-0.9c-0.1,0-0.1,0-0.1-0.1v-2.3c-0.1-0.1-0.2-0.3-0.4-0.3 c0,0,0,0,0,0s0,0,0,0c0.2-0.1,0.3-0.2,0.4-0.3v-2.4c0-0.1,0-0.1,0.1-0.1H97.8z"></path> <path class="st1" d="M98.4,99.7C98.4,99.6,98.4,99.6,98.4,99.7c0-0.1,0.1-0.1,0.1-0.1h1.7c0.4,0,0.7,0.1,0.9,0.3 c0.1,0.2,0.2,0.5,0.2,0.9c0,0,0,0.3,0,0.9v0.1c0,0.3-0.1,0.5-0.2,0.7c-0.1,0.2-0.3,0.3-0.5,0.4l1.1,2.2c0,0,0,0.1,0,0.1 c0,0,0,0.1-0.1,0.1h-0.9c0,0-0.1,0-0.1-0.1l-1.1-2.2h0l0,2.2c0,0.1,0,0.1-0.1,0.1h-0.9c-0.1,0-0.1,0-0.1-0.1L98.4,99.7z M100.3,100.8c0-0.1,0-0.1,0-0.2c0,0-0.1-0.1-0.2-0.1h-0.5v1.3h0.5c0.1,0,0.2,0,0.2-0.1c0,0,0.1-0.1,0.1-0.2V100.8z"></path> <path class="st1" d="M104.8,105.1c0,0.1,0,0.1-0.1,0.1h-2.5c-0.1,0-0.1,0-0.1-0.1v-2.3c-0.1-0.1-0.2-0.2-0.4-0.3 c0,0,0,0,0,0c0,0,0,0,0,0c0.2-0.1,0.3-0.2,0.4-0.3v-2.4c0-0.1,0-0.1,0.1-0.1h2.4c0.1,0,0.1,0,0.1,0.1v0.8 c0,0.1,0,0.1-0.1,0.1h-1.4v1.3h1.3c0.1,0,0.1,0,0.1,0.1v0.8c0,0.1,0,0.1-0.1,0.1h-1.3v1.2h1.5c0.1,0,0.1,0,0.1,0.1V105.1 z"></path> <path class="st1" d="M108,103.4c0,0,0,0.1,0,0.4c0,0.4-0.1,0.8-0.4,1.1c-0.3,0.3-0.6,0.4-1.1,0.4c-0.4,0-0.8-0.2-1-0.5 c-0.2-0.3-0.3-0.6-0.4-1.1c0,0,0-0.1,0-0.1c0,0,0,0,0.1,0l0.8,0c0.1,0,0.1,0,0.1,0.1c0,0.2,0.1,0.4,0.1,0.5 c0.1,0.1,0.2,0.1,0.3,0.1c0.3,0,0.4-0.1,0.4-0.4c0-0.1,0-0.2,0-0.2c0-0.1,0-0.1,0-0.2c0,0-0.1-0.1-0.1-0.1 c0,0-0.1-0.1-0.3-0.3c-0.2,0-0.3,0-0.5,0.1c0,0,0,0,0,0c0,0,0,0,0,0c0.1-0.2,0.1-0.4,0-0.6l0,0c-0.1-0.1-0.2-0.2-0.2-0.2 c0,0-0.1-0.1-0.2-0.2c-0.1-0.1-0.2-0.2-0.2-0.3c-0.1-0.1-0.1-0.3-0.1-0.4c0-0.1,0-0.2,0-0.5c0-0.4,0.1-0.8,0.4-1 c0.2-0.2,0.6-0.4,1.1-0.4c0.4,0,0.6,0.1,0.9,0.4c0.2,0.2,0.4,0.6,0.4,1c0,0,0,0,0,0c0,0.1,0,0.1-0.1,0.1h-0.8 c-0.1,0-0.1,0-0.1-0.1c0-0.2-0.1-0.3-0.1-0.3c-0.1,0-0.1-0.1-0.2-0.1c-0.2,0-0.3,0.2-0.3,0.4c0,0.2,0,0.3,0,0.4 c0,0.1,0.2,0.2,0.4,0.4h0c0,0,0,0,0,0c0.2,0,0.4,0,0.5-0.1c0,0,0,0,0,0c0,0,0,0,0,0c-0.1,0.2-0.1,0.4,0,0.6c0,0,0,0,0,0 v0c0.1,0.1,0.2,0.2,0.3,0.3c0,0,0,0,0,0l0,0c0.1,0.1,0.2,0.2,0.2,0.3c0.1,0.1,0.1,0.2,0.1,0.2S108,103.2,108,103.4z"></path> <path class="st1" d="M109.7,103.7c0,0.2,0,0.3,0.1,0.4c0,0.1,0.1,0.1,0.3,0.1c0.1,0,0.2,0,0.2-0.1 c0.1-0.1,0.1-0.2,0.1-0.4v-0.5c0-0.1,0-0.1,0.1-0.1h0.9c0.1,0,0.1,0,0.1,0.1v0.5c0,0.4-0.1,0.8-0.4,1.1 c-0.2,0.3-0.6,0.4-1,0.4c-0.4,0-0.8-0.1-1-0.4c-0.3-0.3-0.4-0.6-0.4-1.1v-0.9c-0.1-0.1-0.2-0.2-0.4-0.3c0,0,0,0,0,0 c0,0,0,0,0,0c0.2-0.1,0.3-0.2,0.4-0.3V101c0-0.4,0.1-0.8,0.4-1.1c0.3-0.3,0.6-0.4,1-0.4c0.4,0,0.8,0.1,1,0.4 c0.3,0.3,0.4,0.7,0.4,1.1v0.2c0,0.1,0,0.1-0.1,0.1h-0.9c-0.1,0-0.1,0-0.1-0.1v-0.3c0-0.2,0-0.3-0.1-0.4 c-0.1-0.1-0.1-0.1-0.2-0.1c-0.1,0-0.2,0-0.3,0.1c-0.1,0.1-0.1,0.2-0.1,0.4V103.7z"></path> <path class="st1" d="M115.3,103.4c-0.2-0.1-0.3-0.2-0.4-0.3c0,0,0,0,0,0l0,0l-0.6-3.5c0-0.1,0-0.1-0.1-0.1h0h0h0h-1.1h0 c-0.1,0-0.1,0-0.1,0.1l-0.6,3.5c0,0,0,0,0,0c-0.1,0.1-0.2,0.2-0.4,0.3c0,0,0,0,0,0c0,0,0,0,0,0c0.1,0,0.2,0.1,0.3,0.2 l-0.2,1.4c0,0,0,0.1,0,0.1c0,0,0,0,0.1,0h0h0.8h0c0.1,0,0.1,0,0.1-0.1l0.1-1.1h0.8l0.1,1.1c0,0.1,0,0.1,0.1,0.1h0h0h0 h0.8h0h0h0c0,0,0.1,0,0.1,0c0,0,0-0.1,0-0.1l-0.2-1.4l0,0C115.1,103.6,115.2,103.5,115.3,103.4 C115.3,103.5,115.3,103.5,115.3,103.4C115.3,103.5,115.3,103.4,115.3,103.4z M113.4,103l0.2-1.5l0.2,1.5H113.4z"></path> <path class="st1" d="M115.9,99.7c0-0.1,0-0.1,0.1-0.1h1.3c1,0,1.5,0.6,1.5,1.7v2.1c0,1.2-0.5,1.7-1.5,1.7H116 c-0.1,0-0.1,0-0.1-0.1V99.7z M117.7,101.2c0-0.3,0-0.4-0.1-0.5c-0.1-0.1-0.2-0.1-0.4-0.1h-0.2v3.7h0.2 c0.2,0,0.3,0,0.4-0.1c0.1-0.1,0.1-0.3,0.1-0.5V101.2z"></path> <path class="st1" d="M119.4,101c0-0.4,0.1-0.8,0.4-1.1c0.3-0.3,0.6-0.4,1-0.4c0.4,0,0.8,0.1,1,0.4 c0.3,0.3,0.4,0.6,0.4,1.1v2.7c0,0.4-0.1,0.8-0.4,1.1c-0.3,0.3-0.6,0.4-1,0.4c-0.4,0-0.8-0.1-1-0.4 c-0.3-0.3-0.4-0.6-0.4-1.1V101z M121.2,101c0-0.2,0-0.3-0.1-0.4c-0.1-0.1-0.1-0.1-0.3-0.1s-0.2,0-0.3,0.1 c-0.1,0.1-0.1,0.2-0.1,0.4v2.7c0,0.2,0,0.3,0.1,0.4c0,0.1,0.1,0.1,0.3,0.1s0.2,0,0.3-0.1c0.1-0.1,0.1-0.2,0.1-0.4V101z"></path> <path class="st1" d="M125.6,103.4c0,0,0,0.1,0,0.4c0,0.4-0.1,0.8-0.4,1.1c-0.3,0.3-0.6,0.4-1.1,0.4c-0.4,0-0.8-0.2-1-0.5 c-0.2-0.3-0.3-0.6-0.4-1.1c0,0,0-0.1,0-0.1c0,0,0,0,0.1,0l0.8,0c0.1,0,0.1,0,0.1,0.1c0,0.2,0.1,0.4,0.1,0.5 c0.1,0.1,0.2,0.1,0.3,0.1c0.3,0,0.4-0.1,0.4-0.4c0-0.1,0-0.2,0-0.2c0-0.1,0-0.1,0-0.2c0,0-0.1-0.1-0.1-0.1 c0,0-0.1-0.1-0.3-0.3c-0.2,0-0.3,0-0.5,0.1c0,0,0,0,0,0c0,0,0,0,0,0c0.1-0.2,0.1-0.4,0-0.6l0,0c-0.1-0.1-0.2-0.2-0.2-0.2 c0,0-0.1-0.1-0.2-0.2c-0.1-0.1-0.2-0.2-0.2-0.3c-0.1-0.1-0.1-0.3-0.1-0.4c0-0.1,0-0.2,0-0.5c0-0.4,0.1-0.8,0.4-1 c0.2-0.2,0.6-0.4,1.1-0.4c0.4,0,0.6,0.1,0.9,0.4c0.2,0.2,0.4,0.6,0.4,1c0,0,0,0,0,0c0,0.1,0,0.1-0.1,0.1h-0.8 c-0.1,0-0.1,0-0.1-0.1c0-0.2-0.1-0.3-0.1-0.3c-0.1,0-0.1-0.1-0.2-0.1c-0.2,0-0.3,0.2-0.3,0.4c0,0.2,0,0.3,0,0.4 c0,0.1,0.2,0.2,0.4,0.4h0c0,0,0,0,0,0c0.2,0,0.4,0,0.5-0.1c0,0,0,0,0,0c0,0,0,0,0,0c-0.1,0.2-0.1,0.4,0,0.6c0,0,0,0,0,0 v0c0.1,0.1,0.2,0.2,0.3,0.3c0,0,0,0,0,0l0,0c0.1,0.1,0.2,0.2,0.2,0.3c0.1,0.1,0.1,0.2,0.1,0.2S125.6,103.2,125.6,103.4z"></path> </g> <g> <g> <g> <g> <g> <g> <path class="st5" d="M110.8,106.7l0-0.9l0.9,0.9L110.8,106.7z M110.8,108.8l0.9-0.9h-0.9V108.8z M109.6,105.8 l-0.9,0.9h0.9L109.6,105.8z M111.4,107L111.4,107l-0.2,0.2l-0.1,0.1l-0.1,0.1l0.1,0.1l0.1,0.1l0.1,0.1l0.1,0.1 l0.1,0.1l0.2,0.2v-1.2L111.4,107L111.4,107z M110.2,106.4L110.2,106.4L110.2,106.4l0.1-0.1l0.1-0.1l0.1-0.1l0.1-0.1 l0.2-0.2h-1.2L110.2,106.4L110.2,106.4z M109,107.6L109,107.6l0.2-0.2l0.1-0.1l0.1-0.1l0.1,0.1l0.1,0.1l0.1,0.1 l0.1,0.1l0.1,0.1l0.2,0.2l0,0.1l0.1,0.1l0.1,0.1l0.1,0.1l0.1,0.1l0,0l0.1-0.1l0.1-0.1l0.1-0.1l0.1-0.1l0.2-0.2 l0.1-0.1l0.1-0.1l0.1-0.1l0.1-0.1l0.1-0.1l0,0l-0.1-0.1l-0.1-0.1l-0.1-0.1l-0.1-0.1l-0.2-0.2l-0.1-0.1l-0.1-0.1 l-0.1-0.1l-0.1-0.1l-0.1-0.1l-0.9,0.9l-0.1-0.1l-0.1-0.1l-0.1-0.1L109,107l-0.1-0.1l-0.2-0.2v1.2L109,107.6 L109,107.6z M110.6,108.5L110.6,108.5l-0.2-0.2l-0.1-0.1l-0.1-0.1l0,0l-0.1,0.1l-0.1,0.1l-0.1,0.1l-0.1,0.1 l-0.1,0.1l-0.2,0.2h1.2L110.6,108.5z M108.7,107.9l0.9,0.9l0-0.9H108.7z"></path> </g> </g> </g> </g> </g> </g> <g> <path class="st1" d="M99.3,106.6h0.4c0.3,0,0.4,0.1,0.4,0.4v0c0,0.2-0.2,0.4-0.4,0.4h-0.2v0.3h-0.2V106.6z M99.7,107.1 c0.1,0,0.2-0.1,0.2-0.2v0c0-0.1-0.1-0.2-0.2-0.2h-0.2v0.3H99.7z"></path> <path class="st1" d="M100.5,106.6h0.5c0.1,0,0.2,0,0.3,0.1c0.1,0.1,0.1,0.1,0.1,0.2v0c0,0.2-0.1,0.3-0.2,0.3l0.3,0.4 h-0.3l-0.2-0.3h-0.2v0.3h-0.2V106.6z M100.9,107.1c0.1,0,0.2-0.1,0.2-0.1v0c0-0.1-0.1-0.2-0.2-0.2h-0.2v0.3H100.9z"></path> <path class="st1" d="M101.7,106.6h0.8v0.2H102v0.2h0.5v0.2H102v0.2h0.6v0.2h-0.8V106.6z"></path> <path class="st1" d="M102.9,106.6h0.2l0.3,0.4l0.3-0.4h0.2v1.1h-0.2v-0.7l-0.3,0.5h0l-0.3-0.4v0.7h-0.2V106.6z"></path> <path class="st1" d="M104.4,106.6h0.2v1.1h-0.2V106.6z"></path> <path class="st1" d="M105,107.2v-0.6h0.2v0.6c0,0.2,0.1,0.3,0.2,0.3s0.2-0.1,0.2-0.3v-0.6h0.2v0.6c0,0.3-0.2,0.5-0.5,0.5 C105.2,107.6,105,107.5,105,107.2z"></path> <path class="st1" d="M106.4,106.6h0.2l0.3,0.4l0.3-0.4h0.2v1.1h-0.2v-0.7l-0.3,0.5h0l-0.3-0.4v0.7h-0.2V106.6z"></path> <path class="st1" d="M113.1,106.8h-0.3v-0.2h0.9v0.2h-0.3v0.8h-0.2V106.8z"></path> <path class="st1" d="M113.9,107.1L113.9,107.1c0-0.3,0.2-0.5,0.6-0.5c0.3,0,0.6,0.2,0.6,0.5v0c0,0.3-0.2,0.5-0.6,0.5 C114.1,107.6,113.9,107.4,113.9,107.1z M114.8,107.1L114.8,107.1c0-0.2-0.1-0.3-0.3-0.3c-0.2,0-0.3,0.1-0.3,0.3v0 c0,0.2,0.1,0.3,0.3,0.3C114.6,107.4,114.8,107.3,114.8,107.1z"></path> <path class="st1" d="M115.3,106.6h0.5c0.1,0,0.2,0,0.3,0.1c0.1,0.1,0.1,0.1,0.1,0.2v0c0,0.2-0.1,0.3-0.2,0.3l0.3,0.4H116 l-0.2-0.3h-0.2v0.3h-0.2V106.6z M115.8,107.1c0.1,0,0.2-0.1,0.2-0.1v0c0-0.1-0.1-0.2-0.2-0.2h-0.2v0.3H115.8z"></path> <path class="st1" d="M116.8,106.8h-0.3v-0.2h0.9v0.2H117v0.8h-0.2V106.8z"></path> <path class="st1" d="M117.6,106.6h0.2v1.1h-0.2V106.6z"></path> <path class="st1" d="M118.2,106.6h0.2v0.8h0.5v0.2h-0.8V106.6z"></path> <path class="st1" d="M119.2,106.6h0.2v0.8h0.5v0.2h-0.8V106.6z"></path> <path class="st1" d="M120.7,106.5h0.2l0.5,1.1h-0.2l-0.1-0.2h-0.4l-0.1,0.2h-0.2L120.7,106.5z M120.9,107.2l-0.1-0.3 l-0.1,0.3H120.9z"></path> <path class="st1" d="M121.5,107.5l0.1-0.2c0.1,0.1,0.2,0.1,0.3,0.1c0.1,0,0.2,0,0.2-0.1v0c0-0.1,0-0.1-0.2-0.1 c-0.2-0.1-0.3-0.1-0.3-0.3v0c0-0.2,0.2-0.3,0.4-0.3c0.2,0,0.3,0,0.4,0.1l-0.1,0.2c-0.1-0.1-0.2-0.1-0.3-0.1 c-0.1,0-0.1,0-0.1,0.1v0c0,0.1,0,0.1,0.2,0.1c0.2,0.1,0.3,0.1,0.3,0.3v0c0,0.2-0.2,0.3-0.4,0.3 C121.8,107.6,121.7,107.6,121.5,107.5z"></path> </g> </g> </g> </g> </g> </g> </g> </g> <g> <g> <path class="st0" d="M99.4,95.3h1.2c0.3,0,0.4,0.1,0.4,0.4c0,0.3,0,0.5-0.5,0.5h-1v0.6h-0.2V95.3z M100.8,95.7 c0-0.2-0.1-0.2-0.3-0.2h-0.9V96h1c0.2,0,0.2-0.1,0.2-0.2V95.7z"></path> <path class="st0" d="M99.7,96.8h-0.3v-1.6h1.2c0.3,0,0.5,0.1,0.5,0.4c0,0.3,0,0.5-0.5,0.5h-0.9V96.8z M99.5,96.7L99.5,96.7 l0.1-0.6h1c0.4,0,0.4-0.1,0.4-0.4c0-0.3-0.1-0.3-0.4-0.3h-1.1V96.7z M100.6,96.1h-1v-0.7h1c0.1,0,0.3,0,0.3,0.3v0.1 C100.9,95.9,100.8,96.1,100.6,96.1z M99.7,96h0.9c0.2,0,0.2-0.1,0.2-0.2v-0.1c0-0.1,0-0.2-0.2-0.2h-0.9V96z"></path> </g> <g> <path class="st0" d="M101.3,95.3h1.2c0.4,0,0.5,0.1,0.5,0.4v0.1c0,0.2-0.1,0.3-0.3,0.3v0c0.2,0,0.2,0.1,0.2,0.3v0.4h-0.2v-0.3 c0-0.2-0.1-0.3-0.3-0.3h-1v0.6h-0.2V95.3z M102.4,96c0.2,0,0.3-0.1,0.3-0.2v-0.1c0-0.2-0.1-0.2-0.4-0.2h-0.9V96H102.4z"></path> <path class="st0" d="M103,96.8h-0.3v-0.4c0-0.2-0.1-0.2-0.2-0.2h-0.9v0.6h-0.3v-1.6h1.2c0.5,0,0.5,0.2,0.5,0.5v0.1 c0,0.2-0.1,0.2-0.1,0.3c0.1,0.1,0.1,0.1,0.1,0.3V96.8z M102.8,96.7L102.8,96.7l0.1-0.3c0-0.1,0-0.2-0.2-0.2l0,0 c0.1,0,0.1,0.1,0.1,0.3V96.7z M101.3,96.7L101.3,96.7l0.1-0.6h1c0.1,0,0.1,0,0.2,0v-0.1l0,0c0.2,0,0.2-0.1,0.2-0.2v-0.1 c0-0.2,0-0.4-0.4-0.4h-1.1V96.7z M102.4,96.1h-1v-0.7h0.9c0.3,0,0.4,0,0.4,0.3v0.1C102.8,96.1,102.6,96.1,102.4,96.1z M101.5,96h0.9c0.2,0,0.3-0.1,0.3-0.2v-0.1c0-0.1,0-0.2-0.3-0.2h-0.8V96z"></path> </g> <g> <path class="st0" d="M103.3,95.3h1.4v0.2h-1.2v0.5h1.2v0.2h-1.2v0.5h1.2v0.2h-1.4V95.3z"></path> <path class="st0" d="M104.8,96.8h-1.5v-1.6h1.5v0.3h-1.2v0.4h1.2v0.3h-1.2v0.4h1.2V96.8z M103.3,96.7h1.3v-0.1L103.3,96.7 l0.1-0.7h1.2V96h-1.2v-0.6h1.2v-0.1h-1.3V96.7z"></path> </g> <g> <path class="st0" d="M105,96.3h0.2v0.1c0,0.1,0.1,0.2,0.3,0.2h0.6c0.3,0,0.4-0.1,0.4-0.3c0-0.2-0.1-0.2-0.3-0.2h-0.4 c-0.6,0-0.8,0-0.8-0.4c0-0.3,0.2-0.4,0.6-0.4h0.4c0.5,0,0.6,0.1,0.6,0.4v0.1h-0.2c0-0.2,0-0.3-0.5-0.3h-0.2 c-0.4,0-0.5,0-0.5,0.3c0,0.2,0.1,0.2,0.4,0.2h0.6c0.4,0,0.5,0.1,0.5,0.4v0.1c0,0.4-0.3,0.4-0.6,0.4h-0.5 c-0.3,0-0.5-0.1-0.5-0.4V96.3z"></path> <path class="st0" d="M106,96.8h-0.5c-0.2,0-0.6,0-0.6-0.4v-0.2h0.3v0.2c0,0.1,0,0.2,0.3,0.2h0.6c0.3,0,0.3-0.1,0.3-0.2 c0-0.1,0-0.2-0.3-0.2h-0.4c-0.6,0-0.8,0-0.8-0.5c0-0.4,0.2-0.5,0.7-0.5h0.4c0.5,0,0.7,0.1,0.7,0.4v0.1h-0.3l0-0.1 c0-0.2,0-0.2-0.5-0.2h-0.2c-0.4,0-0.5,0-0.5,0.2c0,0.1,0,0.2,0.3,0.2h0.6c0.3,0,0.6,0,0.6,0.4v0.1 C106.7,96.8,106.3,96.8,106,96.8z M105,96.4L105,96.4c0,0.3,0.1,0.4,0.5,0.4h0.5c0.3,0,0.5-0.1,0.5-0.3v-0.1 c0-0.2-0.1-0.3-0.5-0.3h-0.6c-0.3,0-0.4-0.1-0.4-0.3c0-0.3,0.2-0.3,0.6-0.3h0.2c0.5,0,0.6,0,0.6,0.3h0.1c0-0.2,0-0.3-0.6-0.3 h-0.4c-0.4,0-0.5,0.1-0.5,0.4c0,0.3,0.1,0.4,0.7,0.4h0.4c0.2,0,0.4,0,0.4,0.3c0,0.3-0.1,0.3-0.4,0.3h-0.6 C105.3,96.7,105.1,96.6,105,96.4L105,96.4L105,96.4z"></path> </g> <g> <path class="st0" d="M107,95.3h1.4v0.2h-1.2v0.5h1.2v0.2h-1.2v0.5h1.2v0.2H107V95.3z"></path> <path class="st0" d="M108.5,96.8h-1.5v-1.6h1.5v0.3h-1.2v0.4h1.2v0.3h-1.2v0.4h1.2V96.8z M107,96.7h1.3v-0.1L107,96.7l0.1-0.7 h1.2V96h-1.2v-0.6h1.2v-0.1H107V96.7z"></path> </g> <g> <path class="st0" d="M108.7,95.3h0.3l1.3,1.3v-1.3h0.2v1.4h-0.3l-1.3-1.3v1.3h-0.2V95.3z"></path> <path class="st0" d="M110.6,96.8h-0.4l0,0l-1.2-1.2v1.2h-0.3v-1.6h0.4l0,0l1.2,1.2v-1.2h0.3V96.8z M110.2,96.7h0.2v-1.3h-0.1 v1.3l-1.4-1.3h-0.2v1.3h0.1v-1.3L110.2,96.7z"></path> </g> <g> <path class="st0" d="M111.4,95.5h-0.7v-0.2h1.7v0.2h-0.7v1.3h-0.2V95.5z"></path> <path class="st0" d="M111.7,96.8h-0.3v-1.3h-0.7v-0.3h1.8v0.3h-0.7V96.8z M111.5,96.7L111.5,96.7l0.1-1.3h0.7v-0.1h-1.6v0.1 h0.7V96.7z"></path> </g> <g> <path class="st0" d="M112.6,95.3h1.4v0.2h-1.2v0.5h1.2v0.2h-1.2v0.5h1.2v0.2h-1.4V95.3z"></path> <path class="st0" d="M114.1,96.8h-1.5v-1.6h1.5v0.3h-1.2v0.4h1.2v0.3h-1.2v0.4h1.2V96.8z M112.7,96.7h1.3v-0.1L112.7,96.7 l0.1-0.7h1.2V96h-1.2v-0.6h1.2v-0.1h-1.3V96.7z"></path> </g> <g> <path class="st0" d="M114.3,95.3h1.2c0.5,0,0.6,0.2,0.6,0.7c0,0.5-0.1,0.7-0.6,0.7h-1.2V95.3z M115.9,96c0-0.4-0.1-0.5-0.4-0.5 h-1v1.1h1c0.2,0,0.4-0.1,0.4-0.5V96z"></path> <path class="st0" d="M115.5,96.8h-1.2v-1.6h1.2c0.5,0,0.7,0.2,0.7,0.8C116.2,96.6,116,96.8,115.5,96.8z M114.4,96.7h1.1 c0.4,0,0.6-0.2,0.6-0.7c0-0.5-0.1-0.7-0.6-0.7h-1.1V96.7z M115.5,96.7h-1v-1.2h1.1c0.3,0,0.4,0.1,0.4,0.5v0.1 C116,96.6,115.8,96.7,115.5,96.7z M114.6,96.5h0.9c0.2,0,0.4,0,0.4-0.4V96c0-0.4-0.1-0.4-0.3-0.4h-1V96.5z"></path> </g> <g> <path class="st0" d="M117.4,95.3h1.2c0.3,0,0.4,0.2,0.4,0.3v0.1c0,0.1-0.1,0.2-0.2,0.2v0c0.2,0,0.3,0.1,0.3,0.3v0.2 c0,0.2-0.2,0.3-0.4,0.3h-1.3V95.3z M118.8,95.6c0-0.1-0.1-0.2-0.2-0.2h-1v0.5h1c0.1,0,0.2,0,0.2-0.2V95.6z M118.9,96.3 c0-0.2-0.1-0.2-0.3-0.2h-1v0.5h1c0.2,0,0.2-0.1,0.2-0.2V96.3z"></path> <path class="st0" d="M118.7,96.8h-1.3v-1.6h1.3c0.4,0,0.4,0.2,0.4,0.4v0.1c0,0.1,0,0.2-0.1,0.2c0.1,0.1,0.2,0.2,0.2,0.3v0.2 C119.1,96.7,119,96.8,118.7,96.8z M117.5,96.7h1.2c0.2,0,0.4-0.1,0.4-0.3v-0.2c0-0.2-0.1-0.2-0.2-0.2l0,0V96c0,0-0.1,0-0.1,0 h-1.1v-0.6h1.1c0.1,0,0.3,0.1,0.3,0.2v0.1c0,0.1,0,0.1-0.1,0.2c0.1,0,0.2-0.1,0.2-0.2v-0.1c0-0.2-0.1-0.3-0.3-0.3h-1.2V96.7z M117.7,95.9h1c0.1,0,0.2-0.1,0.2-0.1v-0.1c0-0.1-0.1-0.1-0.2-0.1h-1V95.9z M118.6,96.7h-1.1V96h1.1c0.2,0,0.3,0,0.3,0.3v0.1 C118.9,96.6,118.8,96.7,118.6,96.7z M117.7,96.5h1c0.2,0,0.2-0.1,0.2-0.1v-0.1c0-0.1,0-0.2-0.2-0.2h-1V96.5z"></path> </g> <g> <path class="st0" d="M120.1,96.1l-0.8-0.8h0.3l0.7,0.7l0.7-0.7h0.3l-0.8,0.8v0.6h-0.2V96.1z"></path> <path class="st0" d="M120.4,96.8h-0.3v-0.6l-0.9-0.9h0.4l0.6,0.7l0.6-0.7h0.4l-0.9,0.9V96.8z M120.2,96.7L120.2,96.7l0.1-0.6 l0,0l0.7-0.7h-0.1l-0.7,0.7l-0.7-0.7h-0.1l0.8,0.8V96.7z"></path> </g> </g> </g> </g> </g> </svg> 