<?xml version="1.0" encoding="UTF-8"?> <svg xmlns="http://www.w3.org/2000/svg" xmlns:xlink="http://www.w3.org/1999/xlink" version="1.1" id="Layer_1" x="0px" y="0px" viewBox="0 0 130 120" style="enable-background:new 0 0 130 120;" xml:space="preserve"> <style type="text/css"> .st0{fill:#002554;} .st1{fill:#FFFFFF;} .st2{fill:#E31837;} .st3{fill:#231F20;} .st4{fill:#EC1C24;} .st5{fill-rule:evenodd;clip-rule:evenodd;fill:#FFFFFF;} .st6{fill:#A60E13;} .st7{fill:#FCB912;} .st8{fill:none;stroke:#FFC10E;stroke-width:6.510811e-02;stroke-miterlimit:3.8637;} .st9{fill:none;stroke:#231F20;stroke-width:3.663267e-02;stroke-miterlimit:3.8637;} .st10{fill-rule:evenodd;clip-rule:evenodd;fill:#231F20;} </style> <g> <g> <g> <g> <g> <g> <g> <path class="st0" d="M65,109.5c-1.7,0-3.4-0.4-4.7-1.1L22.9,87.5c-2.6-1.4-4.8-4.6-5.4-7.4l-0.3-1.8L0.4,73.6V47.5h11 L9.1,34.8c-0.6-2.9,0.5-6.7,2.5-8.9l10.5-11.7c1.9-2.1,5.4-3.7,8.3-3.7h69.2c2.9,0,6.4,1.6,8.3,3.7l10.5,11.7 c2,2.2,3.1,6,2.5,8.9l-2.4,12.7h11v26.1l-16.8,4.7l-0.3,1.8c-0.5,2.9-2.8,6-5.4,7.4l-37.3,20.8 C68.4,109.1,66.7,109.5,65,109.5z"></path> </g> <polygon class="st0" points="111.4,72.7 128.4,72.7 128.4,72.7 111.4,77.4 "></polygon> <polygon class="st0" points="18.6,72.7 1.6,72.7 1.6,72.7 18.6,77.4 "></polygon> <g> <path class="st1" d="M111.2,79.9c-0.5,2.5-2.5,5.4-4.8,6.6l-37.3,20.8c-1.1,0.6-2.6,1-4.1,1c-1.5,0-3-0.3-4.1-1L23.5,86.5 c-2.2-1.2-4.3-4.1-4.8-6.6l-0.9-5l-6.2-33.1l-1.3-7.2c-0.5-2.6,0.5-5.9,2.2-7.9L23,15c1.7-1.9,4.9-3.3,7.4-3.3h69.2 c2.5,0,5.7,1.4,7.4,3.3l10.5,11.7c1.7,1.9,2.7,5.3,2.2,7.9l-1.3,7.2L111.2,79.9z"></path> <path class="st0" d="M65,109.7c-1.8,0-3.5-0.4-4.8-1.2L22.9,87.7c-2.6-1.4-4.9-4.6-5.4-7.6L8.9,34.9c-0.6-3,0.5-6.8,2.5-9.1 L22,14.1c2-2.2,5.5-3.8,8.4-3.8h69.2c2.9,0,6.5,1.6,8.4,3.8l10.5,11.7c2,2.3,3.1,6.1,2.5,9.1l-8.5,45.3 c-0.6,2.9-2.8,6.1-5.5,7.6l-37.3,20.8C68.5,109.2,66.8,109.7,65,109.7z M30.4,13.1c-2.1,0-4.9,1.2-6.4,2.8L13.5,27.7 c-1.5,1.6-2.3,4.6-1.9,6.7l8.5,45.3c0.4,2.1,2.2,4.6,4.1,5.6l37.3,20.8c1.9,1,5,1,6.9,0l37.3-20.8c1.9-1,3.7-3.5,4.1-5.6 l8.5-45.3c0.4-2.1-0.4-5.1-1.9-6.7L105.9,16c-1.4-1.6-4.2-2.8-6.4-2.8H30.4z"></path> </g> <path class="st1" d="M111.2,79.9c-0.5,2.5-2.5,5.4-4.8,6.6l-37.3,20.8c-1.1,0.6-2.6,1-4.1,1c-1.5,0-3-0.3-4.1-1L23.5,86.5 c-2.2-1.2-4.3-4.1-4.8-6.6l-0.9-5l-6.2-33.1l-1.3-7.2c-0.5-2.6,0.5-5.9,2.2-7.9L23,15c1.7-1.9,4.9-3.3,7.4-3.3h69.2 c2.5,0,5.7,1.4,7.4,3.3l10.5,11.7c1.7,1.9,2.7,5.3,2.2,7.9l-1.3,7.2L111.2,79.9z"></path> <g> <path class="st2" d="M21.5,79.4c0.3,1.7,1.9,3.9,3.4,4.7l37.3,20.8c1.5,0.9,4.1,0.9,5.6,0l37.3-20.8c1.5-0.9,3.1-3,3.4-4.7 l1.3-7.2H20.1L21.5,79.4z"></path> <path class="st0" d="M117,34.1c0.3-1.7-0.4-4.2-1.6-5.6L105,16.9c-1.2-1.3-3.6-2.4-5.4-2.4H30.4c-1.8,0-4.2,1.1-5.4,2.4 L14.5,28.5c-1.2,1.3-1.9,3.8-1.6,5.6l2.8,15.1h98.4L117,34.1z"></path> </g> <path class="st1" d="M128.4,72.7H1.6v-24h126.7V72.7z"></path> <rect x="1.6" y="72.7" class="st0" width="126.7" height="1.2"></rect> <rect x="1.6" y="47.5" class="st0" width="126.7" height="1.2"></rect> <g> <path class="st0" d="M21,53.8h3v10.4h2.3V53.8h3v10.4h2.3V53.8h3v13.8h-12c-1,0-1.8-1-1.8-2.4V53.8z"></path> <path class="st0" d="M37.8,53.8h5.1l2.7,13.8h-5.9v-3h2l-1.2-6.8H40l-1.8,9.8h-3.2L37.8,53.8z"></path> <path class="st0" d="M45.5,67.6l0.9-3.4h4.4v-2.1h-3.1c-1,0-1.8-1-1.8-2.4v-3.6c0-1.4,0.7-2.4,1.8-2.4h6.2l-0.9,3.4H49v2.1 H52c1,0,1.8,1,1.8,2.4v3.6c0,1.4-0.7,2.4-1.8,2.4H45.5z"></path> <path class="st0" d="M54.7,53.8h3V59h2.6v-5.2h3v13.8h-3v-5.2h-2.6v5.2h-3V53.8z"></path> <path class="st0" d="M71.3,53.8c1,0,1.8,1,1.8,2.4v9c0,1.4-0.7,2.4-1.8,2.4h-5.2c-1,0-1.8-1-1.8-2.4v-9 c0-1.4,0.7-2.4,1.8-2.4H71.3z M70,64.2v-7h-2.6v7H70z"></path> <path class="st0" d="M73.9,53.8h3v10.4h2.5V53.8h3v13.8h-7.1c-0.8,0-1.5-0.8-1.5-2V53.8z"></path> <path class="st0" d="M85.1,67.6c-1,0-1.8-1-1.8-2.4v-9c0-1.4,0.7-2.4,1.8-2.4h6.5l-0.9,3.4h-4.4v7h2.5v-2.1h-1.5l0.7-2.7h3.4 v8.3H85.1z"></path> <path class="st0" d="M94.5,53.8h5.1l2.7,13.8h-5.9v-3h2l-1.2-6.8h-0.6l-1.8,9.8h-3.2L94.5,53.8z"></path> <path class="st0" d="M102.7,53.8h3v10.4h3.9l-0.9,3.4h-6V53.8z"></path> </g> <g> <g> <path class="st1" d="M111.9,26.3H98.8l-0.1,0.5c-0.3-0.1-0.6-0.2-0.9-0.3c-0.8-0.2-2.1-0.2-4.1-0.2h-4.1l-0.5,1.7 c-0.4-0.7-1.1-1.2-1.9-1.5c-0.8-0.3-1.7-0.5-2.7-0.5c-1.1,0-2,0.2-2.9,0.5c-0.9,0.3-1.7,0.8-2.4,1.5 c-0.2,0.2-0.3,0.3-0.5,0.5c-0.1-0.2-0.2-0.4-0.4-0.6c-0.4-0.6-1.1-1-2-1.3c-0.7-0.2-1.7-0.3-2.9-0.3h-5.3L67.7,28 c-0.4-0.6-0.9-1-1.7-1.4c-0.9-0.4-2-0.6-3.2-0.6c-1.1,0-2.2,0.2-3.1,0.5c-0.3,0.1-0.7,0.3-1,0.5l0.2-0.7H20.4l-4.3,16.8 l-0.1,0.6l15.7,0l0.3-1.2c0.4,0.4,0.8,0.8,1.4,1c0.6,0.3,1.3,0.4,2.1,0.4c0.8,0,1.6-0.1,2.3-0.4c0.4-0.1,0.7-0.3,1-0.5 l-0.2,0.7h7.3l0.3-1.1c0.3,0.4,0.8,0.7,1.3,0.9c0.6,0.3,1.3,0.4,2.1,0.4c0.8,0,1.6-0.1,2.3-0.4c0.7-0.3,1.4-0.7,1.9-1.2 c0.2-0.2,0.4-0.4,0.6-0.7c0.3,0.6,0.9,1.1,1.6,1.5c0.9,0.5,2,0.8,3.4,0.8c1.2,0,2.3-0.2,3.3-0.6c0.5-0.2,0.9-0.4,1.3-0.6 l-0.2,0.9h7.3l1.5-5.7c1,0,1.9-0.2,2.6-0.4c0.3-0.1,0.5-0.2,0.7-0.3c-0.2,0.8-0.3,1.5-0.4,1.9c-0.1,0.9,0,1.8,0.5,2.6 c0.4,0.8,1.1,1.4,2.1,1.8c0.8,0.3,1.7,0.5,2.7,0.5c1.1,0,2-0.2,2.9-0.5c0.7-0.2,1.3-0.6,1.8-1l-0.3,1.2l22.1,0l0.8-2.7 c0.1-0.2,0.1-0.4,0.2-0.6c0.1-0.4,0.1-0.7,0.1-0.9c0-0.1,0-0.2,0-0.4c0.1-0.2,0.2-0.3,0.3-0.6c0.1-0.2,0.2-0.5,0.3-0.8 c0.1-0.2,0.1-0.4,0.1-0.6L111.9,26.3z"></path> <path class="st3" d="M111.4,26.7H99.1l-0.2,0.7c-0.3-0.2-0.7-0.4-1.2-0.5c-0.7-0.2-2-0.2-4.1-0.2h-3.8L89.3,29 c-0.1-0.2-0.1-0.3-0.2-0.5c-0.4-0.7-1.1-1.3-1.9-1.7c-0.7-0.3-1.6-0.5-2.6-0.5c-1,0-2,0.2-2.8,0.5c-0.9,0.3-1.7,0.8-2.3,1.4 c-0.3,0.3-0.6,0.7-0.9,1c-0.1-0.4-0.2-0.8-0.5-1.2c-0.4-0.5-1-0.9-1.8-1.1c-0.7-0.2-1.6-0.3-2.8-0.3h-5l-0.6,2.5 c0-0.1,0-0.1,0-0.2c-0.2-0.8-0.8-1.5-1.8-2c-0.8-0.4-1.9-0.6-3.1-0.6c-1.1,0-2.1,0.2-3,0.5c-0.6,0.2-1.2,0.5-1.6,0.9 l0.3-1.1H20.7l-4.3,16.6l0,0.1l15,0l0.4-1.7c0,0.1,0.1,0.2,0.1,0.2c0.3,0.6,0.9,1.1,1.5,1.3c0.6,0.2,1.3,0.4,2,0.4 c0.8,0,1.5-0.1,2.1-0.4c0.6-0.2,1.2-0.6,1.7-1L39,43.4h6.6l0.4-1.6c0,0,0,0.1,0,0.1c0.3,0.6,0.9,1.1,1.5,1.3 c0.6,0.2,1.3,0.4,2,0.4c0.8,0,1.5-0.1,2.1-0.4c0.7-0.2,1.3-0.6,1.8-1.1c0.4-0.4,0.7-0.8,0.9-1.2c0.2,0.8,0.8,1.5,1.7,2 c0.9,0.5,1.9,0.7,3.2,0.7c1.1,0,2.2-0.2,3.2-0.6c0.8-0.3,1.5-0.7,2-1.2l-0.4,1.5h6.6l1.5-5.7h0.1c1,0,1.9-0.1,2.7-0.4 c0.5-0.2,1-0.5,1.4-0.8c-0.3,1.3-0.5,2.1-0.6,2.7c-0.1,0.8,0,1.6,0.4,2.4c0.4,0.7,1.1,1.3,1.9,1.7c0.7,0.3,1.6,0.5,2.6,0.5 c1,0,2-0.2,2.8-0.5c0.9-0.3,1.7-0.8,2.3-1.4c0.1-0.1,0.2-0.2,0.2-0.2l-0.5,1.8l21.4,0l0.7-2.5c0.1-0.2,0.1-0.4,0.2-0.6 c0.1-0.3,0.1-0.6,0.1-0.8c0-0.2,0-0.3,0-0.4c0.1-0.2,0.3-0.4,0.4-0.6c0.1-0.2,0.2-0.5,0.3-0.7c0.1-0.3,0.1-0.5,0.1-0.7h0 L111.4,26.7z"></path> <g> <polygon class="st1" points="28.5,27.3 27,31.6 27.5,27.3 21.2,27.3 17.2,42.7 21.9,42.7 22.7,39.6 22.4,42.7 25.8,42.7 27,39.6 26.2,42.7 30.9,42.7 34.8,27.3 "></polygon> <path class="st1" d="M65.4,35.2c-0.3-0.7-1.2-1.5-2.7-2.5h3.8l0.3-1c0.3-1.3,0.4-2.1,0.3-2.7c-0.2-0.6-0.7-1.2-1.5-1.5 c-0.7-0.3-1.7-0.5-2.8-0.5c-1,0-2,0.2-2.8,0.5c-0.8,0.3-1.5,0.8-2,1.3c-0.5,0.6-0.9,1.4-1.2,2.6c-0.2,0.8-0.3,1.5-0.2,2.1 c0.1,0.6,0.3,1.1,0.7,1.4c0.3,0.3,0.9,0.8,1.7,1.4c0,0,0.1,0.1,0.1,0.1h-3.5l-0.3,1.4c-0.3,1.2-0.4,2-0.3,2.7 c0.1,0.8,0.6,1.4,1.4,1.8c0.7,0.4,1.7,0.6,2.9,0.6c1.1,0,2-0.2,2.9-0.5c0.9-0.4,1.6-0.8,2-1.4c0.4-0.5,0.8-1.3,1.1-2.5 C65.8,37.1,65.8,36,65.4,35.2z M60.3,38.7c-0.1,0.4-0.2,0.5-0.3,0.6c-0.1,0.1-0.2,0.1-0.3,0.1c-0.1,0-0.1,0-0.2,0 c0-0.1,0-0.3,0.1-0.5l0.4-1.7c0.2,0.2,0.3,0.3,0.3,0.3C60.5,37.6,60.6,37.8,60.3,38.7z M62.3,31L62,32.3 c-0.2-0.2-0.2-0.3-0.2-0.3c0,0-0.1-0.2,0.1-0.8c0.1-0.3,0.2-0.5,0.3-0.6c0.1-0.1,0.1-0.1,0.2-0.1c0,0,0.1,0,0.1,0 C62.4,30.7,62.4,30.8,62.3,31z"></path> <path class="st1" d="M77.6,32c0.2-0.9,0.4-1.6,0.4-2.1c0-0.5-0.1-1-0.4-1.4c-0.3-0.4-0.8-0.7-1.5-0.9 c-0.6-0.2-1.5-0.3-2.6-0.3h-4.5l-4,15.4h5.2l1.5-5.7h0.7c0.9,0,1.8-0.1,2.4-0.4c0.7-0.3,1.3-0.6,1.6-1.1 c0.4-0.5,0.7-1.2,0.9-2.2L77.6,32z M73.2,31.4l-0.3,1.1c-0.2,0.6-0.3,0.9-0.3,0.9c-0.1,0-0.2,0.1-0.3,0.1l0.6-2.5 c0,0,0.2-0.1,0.3,0C73.3,31,73.2,31.2,73.2,31.4z"></path> <path class="st1" d="M87.5,36.4l0.6-2.4c0.4-1.5,0.6-2.5,0.7-3.1c0.1-0.7,0-1.4-0.4-2c-0.3-0.6-0.9-1.1-1.6-1.4 c-0.7-0.3-1.5-0.4-2.4-0.4c-0.9,0-1.8,0.1-2.6,0.4c-0.8,0.3-1.5,0.7-2.1,1.3c-0.6,0.5-1,1.2-1.2,1.8 c-0.2,0.6-0.5,1.6-0.9,3.1l-0.6,2.4c-0.4,1.5-0.6,2.5-0.7,3.1c-0.1,0.7,0,1.4,0.4,2c0.3,0.6,0.9,1.1,1.6,1.4 c0.7,0.3,1.5,0.4,2.4,0.4c0.9,0,1.8-0.1,2.6-0.4c0.8-0.3,1.5-0.7,2.1-1.3c0.6-0.5,1-1.2,1.2-1.8 C86.8,38.9,87.1,37.8,87.5,36.4z M83.6,31.4L81.9,38c-0.3,1.1-0.4,1.3-0.4,1.4c0,0-0.1,0.1-0.2,0.1c-0.1,0-0.1-0.2-0.1-0.2 c0-0.2,0.1-0.5,0.2-1l1.7-6.6c0.2-0.8,0.3-1,0.4-1.1c0,0,0.2-0.1,0.2,0C83.9,30.7,83.7,31,83.6,31.4z"></path> <path class="st1" d="M55.6,34c0.1-0.5,0-1-0.3-1.5c-0.3-0.5-0.7-0.8-1.2-1.1c-0.1-0.1-0.2-0.1-0.4-0.1h2.8l1-4H35.2l-1,4 h2.6c-0.2,0-0.3,0.1-0.4,0.1c-0.6,0.2-1.1,0.5-1.5,0.9c-0.4,0.4-0.7,0.9-0.9,1.4c-0.2,0.5-0.4,1.2-0.7,2.2l-0.5,1.7 c-0.3,1.1-0.4,1.8-0.5,2.3c-0.1,0.5,0,1,0.3,1.5c0.3,0.5,0.7,0.8,1.2,1.1c0.5,0.2,1.1,0.3,1.8,0.3c0.7,0,1.3-0.1,1.9-0.3 c0.6-0.2,1.1-0.5,1.5-0.9c0.4-0.4,0.7-0.9,0.9-1.4c0.2-0.5,0.4-1.2,0.7-2.2l0.5-1.8c0.3-1.1,0.4-1.8,0.5-2.3 c0.1-0.5,0-1-0.3-1.5C41,32,40.5,31.7,40,31.4c-0.1-0.1-0.2-0.1-0.4-0.1h3.2l-2.9,11.4h5.2L48,31.3h2.9 c-0.2,0-0.3,0.1-0.4,0.1c-0.6,0.2-1.1,0.5-1.5,0.9c-0.4,0.4-0.7,0.9-0.9,1.4c-0.2,0.5-0.4,1.2-0.7,2.2l-0.5,1.7 c-0.3,1.1-0.4,1.8-0.5,2.3c-0.1,0.5,0,1,0.3,1.5c0.3,0.5,0.7,0.8,1.2,1.1c0.5,0.2,1.1,0.3,1.8,0.3c0.7,0,1.3-0.1,1.9-0.3 c0.6-0.2,1.1-0.5,1.5-0.9c0.4-0.4,0.7-0.9,0.9-1.4c0.2-0.5,0.4-1.2,0.7-2.2l0.5-1.8C55.4,35.2,55.5,34.4,55.6,34z M37.7,34.4l-1.2,4.8c-0.2,0.8-0.3,1.1-0.4,1.2c0,0.1-0.2,0.1-0.2,0c0-0.1,0-0.3,0.2-0.9l1.2-4.8c0.1-0.4,0.2-0.8,0.4-0.8 C37.8,33.8,37.9,33.9,37.7,34.4z M51.8,34.4l-1.2,4.8c-0.2,0.8-0.3,1.1-0.4,1.2c0,0.1-0.2,0.1-0.2,0c0-0.1,0-0.3,0.2-0.9 l1.2-4.8c0.1-0.4,0.2-0.8,0.4-0.8C51.9,33.8,52,33.9,51.8,34.4z"></path> <path class="st1" d="M109.5,31.3l1.1-3.9h-11l-0.3,1.3c-0.4-0.6-0.9-1-1.6-1.1c-0.7-0.1-2-0.2-3.9-0.2h-3.3l-4,15.4h5 l1.7-6.4c0.2,0,0.3,0,0.5,0.1c0,0.2-0.1,0.4-0.2,0.9l-1.4,5.4h4.7l1.1-4.2c0.4-1.6,0.5-2,0.5-2.3c0-0.4-0.1-0.7-0.4-1.1 c-0.1-0.1-0.1-0.2-0.2-0.3c0.3-0.1,0.5-0.3,0.7-0.4c0.5-0.5,0.9-1.3,1.2-2.5c0.1-0.2,0.1-0.4,0.1-0.6h1.5L98,42.7h5.2 l2.9-11.4L109.5,31.3z M94.6,31.3l-0.2,0.8c-0.1,0.4-0.2,0.7-0.3,0.8c-0.1,0.1-0.2,0.1-0.3,0.1l0.5-2.1c0,0,0.3,0,0.3,0.1 C94.7,31,94.7,31.1,94.6,31.3z"></path> <path class="st1" d="M107.5,31.7c-0.2,0-0.4,0-0.5,0.1c-0.2,0.1-0.3,0.2-0.4,0.4c-0.1,0.2-0.2,0.3-0.3,0.6 c0,0.2-0.1,0.3-0.1,0.5c0,0.1,0,0.1,0,0.2c-0.1,0.2-0.3,0.4-0.3,0.7c0,0.1-0.1,0.2-0.1,0.3l-0.5,1.9l0.2,0 c-0.1,0.1-0.2,0.2-0.2,0.4c-0.1,0.2-0.2,0.4-0.3,0.7c-0.1,0.3-0.1,0.6-0.1,0.8c0,0.2,0.1,0.4,0.2,0.5 c-0.2,0.1-0.3,0.3-0.4,0.5c-0.1,0.2-0.3,0.5-0.3,0.8c-0.1,0.3-0.1,0.6-0.1,0.8c0,0.2,0.1,0.5,0.3,0.7 c0.1,0.1,0.3,0.2,0.6,0.2l0.3,0l-0.3,1.1h1.3l0.5-1.7l-0.1,0c0,0,0-0.1,0.1-0.1c0.1-0.2,0.2-0.5,0.3-0.8 c0.1-0.3,0.1-0.5,0.1-0.7c0-0.2,0-0.4-0.1-0.6c0,0,0,0,0,0c0.1-0.1,0.2-0.1,0.2-0.2c0.1-0.1,0.2-0.3,0.3-0.5 c0.1-0.2,0.2-0.4,0.2-0.6c0.1-0.2,0.1-0.4,0.1-0.6c0-0.2,0-0.4-0.1-0.6c0,0,0,0,0,0l0.3,0l0.5-1.8h0l0.7-2.7L107.5,31.7z"></path> </g> <polygon class="st4" points="29,28.1 26.2,34.7 26.7,28.1 21.8,28.1 18.2,42 21.4,42 23.9,32.8 23.2,42 25.4,42 29.3,32.8 27.1,42 30.3,42 33.9,28.1 "></polygon> <path class="st4" d="M66.3,29.3c-0.1-0.4-0.5-0.8-1.1-1.1c-0.6-0.3-1.5-0.5-2.5-0.5c-0.9,0-1.8,0.1-2.5,0.4 c-0.7,0.3-1.3,0.7-1.7,1.1c-0.4,0.5-0.8,1.3-1,2.3c-0.2,0.7-0.2,1.3-0.2,1.8c0.1,0.5,0.2,0.8,0.5,1.1 c0.2,0.3,0.8,0.7,1.6,1.3c0.9,0.6,1.4,1.1,1.6,1.3c0.2,0.3,0.2,0.9,0,1.8c-0.1,0.4-0.3,0.7-0.5,0.9 c-0.2,0.2-0.5,0.3-0.8,0.3c0,0-0.7,0-0.9-0.3c-0.1-0.1-0.1-0.4,0.1-1.1l0.4-1.5h-3.2L56,38c-0.3,1-0.4,1.9-0.3,2.4 c0.1,0.5,0.4,1,1,1.3c0.6,0.4,1.5,0.5,2.5,0.5c1,0,1.9-0.2,2.7-0.5c0.8-0.3,1.4-0.7,1.7-1.2c0.4-0.5,0.7-1.2,0.9-2.2 c0.3-1.3,0.4-2.3,0.1-2.9c-0.3-0.6-1.2-1.4-2.7-2.3c-0.6-0.4-0.9-0.7-1-1C61,32,61,31.6,61.1,31.1c0.1-0.4,0.3-0.7,0.4-0.9 c0.2-0.2,0.5-0.3,0.7-0.3c0,0,0.7,0,0.8,0.3c0.1,0.1,0.1,0.3-0.1,1.1L62.8,32H66l0.1-0.4C66.4,30.5,66.5,29.7,66.3,29.3z"></path> <path class="st4" d="M75.7,35c0.3-0.4,0.6-1,0.8-1.9l0.3-1.2c0.2-0.9,0.3-1.5,0.3-1.9c0-0.4-0.1-0.7-0.3-1 c-0.2-0.3-0.6-0.5-1.1-0.6c-0.5-0.2-1.3-0.2-2.4-0.2h-3.9L65.9,42h3.7l1.5-5.7h1.2c0.9,0,1.6-0.1,2.2-0.3 C75,35.7,75.4,35.4,75.7,35z M73.9,31.5l-0.3,1.2c-0.1,0.6-0.3,0.9-0.5,1.1c-0.2,0.2-0.5,0.3-0.9,0.3c-0.1,0-0.4,0-0.5,0 l-0.2,0l1-3.9h0.1c0.3,0,1.1,0,1.3,0.3C74,30.6,74,31,73.9,31.5z"></path> <path class="st4" d="M86.6,28.1c-0.6-0.2-1.3-0.4-2.1-0.4c-0.9,0-1.6,0.1-2.3,0.4c-0.7,0.3-1.3,0.6-1.8,1.1 c-0.5,0.5-0.9,1-1.1,1.6c-0.2,0.6-0.5,1.6-0.9,3l-0.6,2.4c-0.4,1.5-0.6,2.5-0.7,3.1c-0.1,0.5,0,1.1,0.3,1.5 c0.3,0.5,0.7,0.8,1.2,1c0.6,0.2,1.3,0.4,2.1,0.4c0.9,0,1.6-0.1,2.3-0.4c0.7-0.3,1.3-0.6,1.8-1.1c0.5-0.5,0.9-1,1.1-1.6 c0.2-0.6,0.5-1.6,0.9-3l0.6-2.4c0.4-1.5,0.6-2.5,0.7-3.1c0.1-0.5,0-1.1-0.3-1.5C87.6,28.7,87.1,28.4,86.6,28.1z M84.4,31.6 l-1.7,6.5c-0.2,0.9-0.4,1.4-0.5,1.6c-0.2,0.3-0.6,0.5-0.9,0.5c-0.3,0-0.8-0.2-0.8-0.5c0,0,0-0.5,0.3-1.6l1.7-6.7 c0.3-1,0.4-1.3,0.6-1.4c0.2-0.2,0.5-0.5,0.9-0.4c0.4,0,0.7,0.4,0.7,0.6C84.6,30.4,84.6,30.7,84.4,31.6z"></path> <path class="st4" d="M39.7,32.1c-0.4-0.2-0.9-0.3-1.5-0.3c-0.6,0-1.2,0.1-1.7,0.3c-0.5,0.2-0.9,0.4-1.3,0.8 c-0.4,0.3-0.6,0.7-0.8,1.1c-0.2,0.4-0.4,1.1-0.6,2.2l-0.5,1.8c-0.3,1-0.4,1.8-0.5,2.2c0,0.4,0,0.7,0.2,1.1 c0.2,0.3,0.5,0.6,0.9,0.7c0.4,0.2,0.9,0.3,1.5,0.3c0.6,0,1.2-0.1,1.7-0.3c0.5-0.2,0.9-0.4,1.3-0.8c0.4-0.3,0.6-0.7,0.8-1.1 c0.2-0.4,0.4-1.1,0.6-2.2l0.5-1.7c0.3-1,0.4-1.8,0.5-2.2c0-0.4,0-0.7-0.2-1.1C40.4,32.5,40.1,32.3,39.7,32.1z M38.4,34.6 l-1.2,4.7c-0.2,0.6-0.3,1-0.4,1.2c-0.1,0.2-0.6,0.4-1,0.4c-0.4,0-0.6-0.4-0.6-0.5c0,0,0-0.3,0.2-1.2l1.2-4.8 c0.2-0.7,0.3-1,0.4-1.1c0.1-0.1,0.4-0.4,0.7-0.4c0.5,0,0.7,0.4,0.7,0.5C38.5,33.6,38.5,33.9,38.4,34.6z"></path> <path class="st4" d="M98.7,29.2c-0.3-0.5-0.7-0.8-1.3-0.9c-0.6-0.1-1.9-0.2-3.8-0.2H91L87.4,42h3.5l1.7-6.4h0.1 c0.2,0,1.4,0,1.6,0.4c0.1,0.2,0.1,0.5-0.2,1.5L92.8,42H96l0.9-3.6c0.4-1.4,0.4-1.9,0.4-2.1c0-0.2-0.1-0.5-0.3-0.8 c-0.2-0.3-0.6-0.5-1.3-0.7l-1-0.2l1-0.1c0.9-0.1,1.5-0.3,1.9-0.6c0.4-0.4,0.7-1.1,1-2.2C99,30.6,99,29.7,98.7,29.2z M95.3,31.5l-0.2,0.8c-0.2,0.7-0.4,1.1-0.6,1.2c-0.3,0.2-0.9,0.2-1.3,0.2H93l0.9-3.5H94c0.2,0,1,0,1.3,0.3 C95.4,30.6,95.5,31,95.3,31.5z"></path> <polygon class="st4" points="109,30.6 109.7,28.1 100.2,28.1 99.5,30.6 101.9,30.6 99,42 102.7,42 105.6,30.6 "></polygon> <polygon class="st4" points="56,30.6 56.6,28.1 35.7,28.1 35.1,30.6 43.8,30.6 40.8,42.2 44.5,42.2 47.5,30.6 "></polygon> <g> <g> <path class="st3" d="M105.9,41.4l0.5,0l-0.2,0.8l-0.5,0L105.9,41.4z"></path> <path class="st3" d="M105.8,38.9l-0.3,1l-0.2,0c-0.1,0-0.1,0-0.2,0c0,0-0.1,0.1-0.1,0.1c0,0.1,0,0.1,0,0.1 c0,0,0.1,0,0.2,0l0.9,0c0.1,0,0.1,0,0.2,0c0,0,0.1-0.1,0.1-0.1c0-0.1,0-0.1,0-0.1c0,0-0.1,0-0.2,0l-0.2,0l0.3-0.9 c0.2,0,0.3,0,0.3,0c0.1,0,0.1,0.1,0.2,0.2c0.1,0.1,0.1,0.2,0.1,0.4c0,0.2,0,0.3-0.1,0.6c-0.1,0.3-0.2,0.5-0.3,0.7 c-0.1,0.2-0.2,0.3-0.3,0.4c-0.1,0.1-0.3,0.1-0.5,0.1l-0.5,0c-0.2,0-0.3,0-0.3-0.1c-0.1-0.1-0.1-0.2-0.1-0.4 c0-0.2,0-0.4,0.1-0.7c0.1-0.3,0.2-0.5,0.3-0.7c0.1-0.2,0.2-0.3,0.4-0.4C105.5,38.9,105.7,38.9,105.8,38.9z"></path> <path class="st3" d="M106.5,36.2l0.5,0c0.2,0,0.3,0,0.4,0c0.1,0,0.1,0.1,0.2,0.2c0,0.1,0.1,0.2,0,0.4c0,0.2,0,0.3-0.1,0.5 c-0.1,0.2-0.1,0.4-0.2,0.6c-0.1,0.2-0.2,0.3-0.2,0.4c-0.1,0.1-0.2,0.2-0.3,0.2c-0.1,0-0.2,0.1-0.4,0.1l-0.5,0 c-0.2,0-0.3,0-0.4-0.1c-0.1-0.1-0.1-0.2-0.1-0.4c0-0.2,0-0.4,0.1-0.7c0.1-0.2,0.1-0.4,0.2-0.6c0.1-0.2,0.2-0.3,0.3-0.4 c0.1-0.1,0.2-0.2,0.2-0.2C106.3,36.2,106.4,36.2,106.5,36.2z M106.1,37.2c-0.1,0-0.2,0-0.2,0c0,0-0.1,0.1-0.1,0.1 c0,0.1,0,0.1,0,0.1c0,0,0.1,0,0.2,0l0.9,0c0.1,0,0.2,0,0.2,0c0,0,0.1-0.1,0.1-0.1c0-0.1,0-0.1,0-0.1c0,0-0.1,0-0.2,0 L106.1,37.2z"></path> <path class="st3" d="M106.2,34.8l0.2,0c-0.1-0.1-0.1-0.2-0.1-0.3c0-0.1,0-0.2,0.1-0.4c0.1-0.3,0.2-0.5,0.4-0.7 c0-0.1-0.1-0.2-0.1-0.3c0-0.1,0-0.2,0-0.4c0-0.2,0.1-0.3,0.2-0.4c0.1-0.1,0.2-0.2,0.2-0.2c0.1,0,0.2-0.1,0.4-0.1l1.4,0 l-0.3,1l-1.3,0c-0.2,0-0.3,0-0.3,0c0,0-0.1,0.1-0.1,0.1c0,0.1,0,0.1,0,0.1c0,0,0.1,0,0.3,0l1.3,0l-0.3,1l-1.2,0 c-0.2,0-0.3,0-0.3,0c0,0-0.1,0.1-0.1,0.1c0,0,0,0.1,0,0.1c0,0,0,0,0.1,0.1c0,0,0.1,0,0.2,0l1.3,0l-0.3,1l-1.9,0 L106.2,34.8z"></path> </g> </g> <path class="st4" d="M53.8,32.1c-0.4-0.2-0.9-0.3-1.5-0.3c-0.6,0-1.2,0.1-1.7,0.3c-0.5,0.2-0.9,0.4-1.3,0.8 c-0.3,0.3-0.6,0.7-0.8,1.1c-0.2,0.4-0.4,1.1-0.6,2.2l-0.5,1.8c-0.3,1-0.4,1.8-0.5,2.2c0,0.4,0,0.7,0.2,1.1 c0.2,0.3,0.5,0.6,0.9,0.7c0.4,0.2,0.9,0.3,1.5,0.3c0.6,0,1.2-0.1,1.7-0.3c0.5-0.2,0.9-0.4,1.3-0.8c0.3-0.3,0.6-0.7,0.8-1.1 c0.2-0.4,0.4-1.1,0.6-2.2l0.5-1.7c0.3-1,0.4-1.8,0.5-2.2c0-0.4,0-0.7-0.2-1.1C54.5,32.5,54.2,32.3,53.8,32.1z M52.5,34.6 l-1.2,4.7c-0.2,0.6-0.3,1-0.4,1.2c-0.1,0.2-0.6,0.4-1,0.4c-0.4,0-0.6-0.4-0.6-0.5c0,0,0-0.3,0.2-1.2l1.2-4.8 c0.2-0.7,0.3-1,0.4-1.1c0.1-0.1,0.4-0.4,0.7-0.4c0.5,0,0.7,0.4,0.7,0.5C52.6,33.6,52.7,33.9,52.5,34.6z"></path> <g> <path class="st1" d="M108.9,41.9h-0.3v-0.1h0.8v0.1h-0.3v0.9h-0.2V41.9z"></path> <path class="st1" d="M110.4,42l-0.3,0.8H110l-0.3-0.8v0.8h-0.2v-1h0.2l0.3,0.7l0.3-0.7h0.2v1h-0.2V42z"></path> </g> </g> </g> </g> </g> <g> <polyline class="st5" points="65,93.4 66.2,97 70.2,97 66.9,99.3 68.1,103 65,100.8 61.9,103 63,99.3 60,97.1 63.8,97 65,93.4 "></polyline> <g> <g> <path class="st1" d="M31.1,76.8h2.2l2.7,3.4h0v-3.4h1.4v4.6h-2.2L32.6,78h0v3.4h-1.4V76.8z"></path> <path class="st1" d="M43.4,76.8h1.8l2.5,4.6h-1.6l-0.4-0.8h-2.9l-0.4,0.8h-1.6L43.4,76.8z M43.4,79.6h1.8l-0.9-1.7L43.4,79.6 z"></path> <path class="st1" d="M50.4,76.8h5.4v1.2h-2v3.5h-1.4v-3.5h-2V76.8z"></path> <path class="st1" d="M59.5,76.8h1.4v4.6h-1.4V76.8z"></path> <path class="st1" d="M64.8,78.4c0-1.4,0.8-1.7,2-1.7h2.3c1.3,0,2,0.3,2,1.7v1.4c0,1.4-0.8,1.7-2,1.7h-2.3c-1.3,0-2-0.3-2-1.7 V78.4z M66.2,79.3c0,0.7,0.1,0.9,0.8,0.9h1.8c0.7,0,0.8-0.3,0.8-0.9v-0.5c0-0.6-0.1-0.9-0.9-0.9h-1.7c-0.7,0-0.9,0.4-0.9,0.9 V79.3z"></path> <path class="st1" d="M74.9,76.8h2.2l2.7,3.4h0v-3.4h1.4v4.6H79L76.3,78h0v3.4h-1.4V76.8z"></path> <path class="st1" d="M87.2,76.8H89l2.5,4.6H90l-0.4-0.8h-2.9l-0.4,0.8h-1.6L87.2,76.8z M87.2,79.6H89l-0.9-1.7L87.2,79.6z"></path> <path class="st1" d="M95,76.8h1.4v3.4h3.2v1.2H95V76.8z"></path> </g> </g> <g> <g> <path class="st0" d="M47,84.6h0.4l1,2.5l1-2.5h0.5l1,2.5l1-2.5h0.4l-1.1,2.8h-0.5l-1-2.5l-1,2.5h-0.5L47,84.6z"></path> <path class="st0" d="M51.1,87.5h-0.6l-0.9-2.4l-0.9,2.4h-0.6l0,0l-1.2-2.9h0.5l0.9,2.3l0.9-2.3h0.6l0.9,2.4l0.9-2.4h0.5 l0,0.1L51.1,87.5z M50.6,87.4H51l1.1-2.7h-0.2l-1.1,2.6l-1-2.6h-0.4l-1,2.6l-1-2.6h-0.2l1.1,2.7h0.4l1-2.6L50.6,87.4z"></path> </g> <g> <path class="st0" d="M53.8,84.6h0.5l1.7,2.8h-0.4l-0.4-0.6h-2.3l-0.4,0.6h-0.4L53.8,84.6z M54.1,85l-0.9,1.6H55L54.1,85z"></path> <path class="st0" d="M56.1,87.5h-0.6l-0.4-0.6H53l-0.4,0.6H52l1.8-3h0.6L56.1,87.5z M55.6,87.4h0.3l-1.6-2.7h-0.4l-1.6,2.7 h0.3l0.4-0.6h2.4L55.6,87.4z M55.1,86.6H53l1.1-1.8L55.1,86.6z M53.2,86.5h1.6l-0.8-1.4L53.2,86.5z"></path> </g> <g> <path class="st0" d="M56.3,86.6h0.4v0.2c0,0.3,0.1,0.4,0.6,0.4h1.2c0.6,0,0.7-0.1,0.7-0.5c0-0.4-0.1-0.4-0.6-0.4h-0.7 c-1.2,0-1.6-0.1-1.6-0.8c0-0.6,0.4-0.8,1.2-0.8h0.8c0.9,0,1.2,0.2,1.2,0.7v0.1h-0.4c0-0.4-0.1-0.5-1.1-0.5h-0.4 c-0.7,0-1,0-1,0.5c0,0.3,0.1,0.4,0.7,0.4h1.1c0.7,0,1.1,0.2,1.1,0.7v0.2c0,0.7-0.6,0.7-1.1,0.7h-1.1c-0.6,0-1.1-0.1-1.1-0.7 V86.6z"></path> <path class="st0" d="M58.4,87.6h-1.1c-0.6,0-1.1-0.1-1.1-0.8v-0.3h0.5v0.3c0,0.2,0,0.3,0.5,0.3h1.2c0.6,0,0.6-0.1,0.6-0.4 c0-0.3-0.1-0.4-0.5-0.4h-0.7c-1.1,0-1.6,0-1.6-0.9c0-0.7,0.5-0.9,1.2-0.9h0.8c0.9,0,1.3,0.2,1.3,0.8v0.2h-0.5l0-0.1 c0-0.4,0-0.5-1-0.5h-0.4c-0.8,0-0.9,0.1-0.9,0.4c0,0.3,0,0.4,0.6,0.4h1.1c0.8,0,1.1,0.2,1.1,0.8v0.2 C59.7,87.6,58.9,87.6,58.4,87.6z M56.4,86.7v0.1c0,0.5,0.4,0.6,1,0.6h1.1c0.7,0,1.1-0.1,1.1-0.7v-0.2c0-0.3-0.1-0.6-1-0.6 h-1.1c-0.6,0-0.8-0.1-0.8-0.5c0-0.6,0.4-0.6,1.1-0.6h0.4c0.9,0,1.1,0.1,1.1,0.5h0.2v0c0-0.4-0.2-0.7-1.1-0.7h-0.8 c-0.8,0-1.1,0.2-1.1,0.7c0,0.7,0.3,0.7,1.5,0.7h0.7c0.5,0,0.7,0.1,0.7,0.5c0,0.5-0.3,0.6-0.8,0.6h-1.2 c-0.5,0-0.7-0.1-0.7-0.5v-0.1H56.4z"></path> </g> <g> <path class="st0" d="M60.3,84.6h0.4v1.2h2.6v-1.2h0.4v2.8h-0.4v-1.3h-2.6v1.3h-0.4V84.6z"></path> <path class="st0" d="M63.7,87.5h-0.5v-1.3h-2.4v1.3h-0.5v-3h0.5v1.2h2.4v-1.2h0.5V87.5z M63.3,87.4h0.2v-2.7h-0.2v1.2h-2.7 v-1.2h-0.2v2.7h0.2v-1.3h2.7V87.4z"></path> </g> <g> <path class="st0" d="M64.3,85.7c0-0.7,0.2-1.1,1-1.1h1.6c0.8,0,1,0.3,1,1.1v0.8c0,0.7-0.2,1.1-1,1.1h-1.6c-0.8,0-1-0.3-1-1.1 V85.7z M67.5,85.5c0-0.5-0.3-0.6-0.7-0.6h-1.6c-0.4,0-0.7,0.1-0.7,0.6v1.1c0,0.5,0.3,0.6,0.7,0.6h1.6c0.4,0,0.7-0.1,0.7-0.6 V85.5z"></path> <path class="st0" d="M66.9,87.6h-1.6c-0.8,0-1.1-0.3-1.1-1.1v-0.8c0-0.8,0.3-1.1,1.1-1.1h1.6c0.8,0,1.1,0.3,1.1,1.1v0.8 C68,87.2,67.7,87.6,66.9,87.6z M65.3,84.7c-0.7,0-0.9,0.3-0.9,1v0.8c0,0.7,0.3,1,0.9,1h1.6c0.7,0,0.9-0.3,0.9-1v-0.8 c0-0.7-0.3-1-0.9-1H65.3z M66.9,87.3h-1.6c-0.2,0-0.7,0-0.7-0.7v-1.1c0-0.7,0.6-0.7,0.7-0.7h1.6c0.2,0,0.7,0,0.7,0.7v1.1 C67.6,87.3,67,87.3,66.9,87.3z M65.3,85c-0.4,0-0.6,0.2-0.6,0.5v1.1c0,0.4,0.2,0.5,0.6,0.5h1.6c0.4,0,0.6-0.2,0.6-0.5v-1.1 c0-0.4-0.2-0.5-0.6-0.5H65.3z"></path> </g> <g> <path class="st0" d="M68.6,84.6H69v2.1c0,0.3,0.1,0.4,0.6,0.4h1.3c0.5,0,0.6-0.2,0.6-0.4v-2.1h0.4v2.1c0,0.6-0.3,0.7-1,0.7 h-1.3c-0.7,0-1-0.2-1-0.7V84.6z"></path> <path class="st0" d="M70.9,87.6h-1.3c-0.7,0-1.1-0.1-1.1-0.8v-2.2H69v2.2c0,0.2,0,0.4,0.5,0.4h1.3c0.5,0,0.5-0.1,0.5-0.4 v-2.2H72v2.2C72,87.4,71.6,87.6,70.9,87.6z M68.7,84.7v2c0,0.5,0.2,0.7,0.9,0.7h1.3c0.7,0,0.9-0.2,0.9-0.7v-2h-0.2v2 c0,0.4-0.2,0.5-0.7,0.5h-1.3c-0.5,0-0.7-0.1-0.7-0.5v-2H68.7z"></path> </g> <g> <path class="st0" d="M76.1,86.5c0,0.8-0.2,1-1,1h-1.6c-0.8,0-1-0.3-1-1.1v-0.8c0-0.7,0.2-1.1,1-1.1H75c0.5,0,1.1,0.1,1.1,0.8 v0.1h-0.4c0-0.5-0.2-0.6-1.1-0.6h-1c-0.4,0-0.7,0.1-0.7,0.6v1.1c0,0.5,0.3,0.6,0.7,0.6h1.5c0.4,0,0.6-0.1,0.6-0.5v-0.3h-1.4 v-0.3h1.8V86.5z"></path> <path class="st0" d="M75.2,87.6h-1.6c-0.8,0-1.1-0.3-1.1-1.1v-0.8c0-0.8,0.3-1.1,1.1-1.1H75c0.7,0,1.1,0.3,1.1,0.9v0.2h-0.5 v-0.1c0-0.4-0.1-0.5-1-0.5h-1c-0.4,0-0.6,0.2-0.6,0.5v1.1c0,0.4,0.2,0.5,0.6,0.5h1.5c0.4,0,0.5-0.1,0.5-0.4v-0.2h-1.4V86h2 v0.5C76.2,87.3,75.9,87.6,75.2,87.6z M73.6,84.7c-0.7,0-0.9,0.3-0.9,1v0.8c0,0.7,0.3,1,0.9,1h1.6c0.7,0,0.9-0.2,0.9-1v-0.3 h-1.7v0.2h1.4v0.4c0,0.4-0.2,0.6-0.7,0.6h-1.5c-0.2,0-0.7,0-0.7-0.7v-1.1c0-0.7,0.6-0.7,0.7-0.7h1c0.9,0,1.2,0,1.2,0.6H76v0 c0-0.5-0.3-0.7-1-0.7H73.6z"></path> </g> <g> <path class="st0" d="M78.2,84.6h0.5l1.7,2.8h-0.4l-0.4-0.6h-2.3l-0.4,0.6h-0.4L78.2,84.6z M78.4,85l-0.9,1.6h1.9L78.4,85z"></path> <path class="st0" d="M80.5,87.5h-0.6l-0.4-0.6h-2.2L77,87.5h-0.6l1.8-3h0.6l0,0L80.5,87.5z M79.9,87.4h0.3l-1.6-2.7h-0.4 l-1.6,2.7h0.3l0.4-0.6h2.4L79.9,87.4z M79.5,86.6h-2.2l1.1-1.8L79.5,86.6z M77.6,86.5h1.6l-0.8-1.4L77.6,86.5z"></path> </g> <g> <path class="st0" d="M80.8,84.6h0.4v2.5h2.2v0.3h-2.6V84.6z"></path> <path class="st0" d="M83.4,87.5h-2.7v-3h0.5v2.5h2.2V87.5z M80.8,87.4h2.4v-0.2h-2.2v-2.5h-0.2V87.4z"></path> </g> <g> <path class="st0" d="M46,88.8h0.4l1,2.5l1-2.5h0.5l1,2.5l1-2.5h0.4l-1.1,2.8h-0.5l-1-2.5l-1,2.5h-0.5L46,88.8z"></path> <path class="st0" d="M50.1,91.7h-0.6l-0.9-2.4l-0.9,2.4h-0.6l0,0l-1.2-2.9h0.5l0.9,2.3l0.9-2.3h0.6l0.9,2.4l0.9-2.4h0.5 l0,0.1L50.1,91.7z M49.6,91.6H50l1.1-2.7h-0.2l-1.1,2.6l-1-2.6h-0.4l-1,2.6l-1-2.6h-0.2l1.1,2.7h0.4l1-2.6L49.6,91.6z"></path> </g> <g> <path class="st0" d="M52.8,88.8h0.5l1.7,2.8h-0.4L54.2,91h-2.3l-0.4,0.6h-0.4L52.8,88.8z M53,89.1l-0.9,1.6H54L53,89.1z"></path> <path class="st0" d="M55.1,91.7h-0.6l-0.4-0.6H52l-0.4,0.6H51l1.8-3h0.6L55.1,91.7z M54.6,91.6h0.3l-1.6-2.7h-0.4l-1.6,2.7 h0.3l0.4-0.6h2.4L54.6,91.6z M54.1,90.8H52L53,89L54.1,90.8z M52.2,90.7h1.6L53,89.3L52.2,90.7z"></path> </g> <g> <path class="st0" d="M55.3,90.8h0.4v0.2c0,0.3,0.1,0.4,0.6,0.4h1.2c0.6,0,0.7-0.1,0.7-0.5c0-0.4-0.1-0.4-0.6-0.4h-0.7 c-1.2,0-1.6-0.1-1.6-0.8c0-0.6,0.4-0.8,1.2-0.8h0.8c0.9,0,1.2,0.2,1.2,0.7v0.1h-0.4c0-0.4-0.1-0.5-1.1-0.5h-0.4 c-0.7,0-1,0-1,0.5c0,0.3,0.1,0.4,0.7,0.4h1.1c0.7,0,1.1,0.2,1.1,0.7v0.2c0,0.7-0.6,0.7-1.1,0.7h-1.1c-0.6,0-1.1-0.1-1.1-0.7 V90.8z"></path> <path class="st0" d="M57.4,91.7h-1.1c-0.6,0-1.1-0.1-1.1-0.8v-0.3h0.5v0.3c0,0.2,0,0.3,0.5,0.3h1.2c0.6,0,0.6-0.1,0.6-0.4 c0-0.3-0.1-0.4-0.5-0.4h-0.7c-1.1,0-1.6,0-1.6-0.9c0-0.7,0.5-0.9,1.2-0.9h0.8c0.9,0,1.3,0.2,1.3,0.8v0.2h-0.5l0-0.1 c0-0.4,0-0.5-1-0.5h-0.4c-0.8,0-0.9,0.1-0.9,0.4c0,0.3,0,0.4,0.6,0.4h1.1c0.8,0,1.1,0.2,1.1,0.8v0.2 C58.7,91.7,57.9,91.7,57.4,91.7z M55.4,90.8V91c0,0.5,0.4,0.6,1,0.6h1.1c0.7,0,1.1-0.1,1.1-0.7v-0.2c0-0.3-0.1-0.6-1-0.6 h-1.1c-0.6,0-0.8-0.1-0.8-0.5c0-0.6,0.4-0.6,1.1-0.6h0.4c0.9,0,1.1,0.1,1.1,0.5h0.2v0c0-0.4-0.2-0.7-1.1-0.7h-0.8 c-0.8,0-1.1,0.2-1.1,0.7c0,0.7,0.3,0.7,1.5,0.7h0.7c0.5,0,0.7,0.1,0.7,0.5c0,0.5-0.3,0.6-0.8,0.6h-1.2 c-0.5,0-0.7-0.1-0.7-0.5v-0.1H55.4z"></path> </g> <g> <path class="st0" d="M59.3,88.8h0.4V90h2.6v-1.2h0.4v2.8h-0.4v-1.3h-2.6v1.3h-0.4V88.8z"></path> <path class="st0" d="M62.7,91.7h-0.5v-1.3h-2.4v1.3h-0.5v-3h0.5V90h2.4v-1.2h0.5V91.7z M62.3,91.6h0.2v-2.7h-0.2v1.2h-2.7 v-1.2h-0.2v2.7h0.2v-1.3h2.7V91.6z"></path> </g> <g> <path class="st0" d="M63.3,88.8h0.4v2.8h-0.4V88.8z"></path> <path class="st0" d="M63.8,91.7h-0.5v-3h0.5V91.7z M63.4,91.6h0.2v-2.7h-0.2V91.6z"></path> </g> <g> <path class="st0" d="M64.5,88.8H65l2.6,2.5v-2.5H68v2.8h-0.6l-2.6-2.5v2.5h-0.4V88.8z"></path> <path class="st0" d="M68.1,91.7h-0.7l0,0l-2.5-2.4v2.4h-0.5v-3h0.7l0,0l2.5,2.4v-2.4h0.5V91.7z M67.5,91.6h0.5v-2.7h-0.2v2.6 L65,88.9h-0.5v2.7h0.2V89L67.5,91.6z"></path> </g> <g> <path class="st0" d="M72.2,90.6c0,0.8-0.2,1-1,1h-1.6c-0.8,0-1-0.3-1-1.1v-0.8c0-0.7,0.2-1.1,1-1.1h1.4 c0.5,0,1.1,0.1,1.1,0.8v0.1h-0.4c0-0.5-0.2-0.6-1.1-0.6h-1c-0.4,0-0.7,0.1-0.7,0.6v1.1c0,0.5,0.3,0.6,0.7,0.6h1.5 c0.4,0,0.6-0.1,0.6-0.5v-0.3h-1.4v-0.3h1.8V90.6z"></path> <path class="st0" d="M71.3,91.7h-1.6c-0.8,0-1.1-0.3-1.1-1.1v-0.8c0-0.8,0.3-1.1,1.1-1.1h1.4c0.7,0,1.1,0.3,1.1,0.9v0.2h-0.5 v-0.1c0-0.4-0.1-0.5-1-0.5h-1c-0.4,0-0.6,0.2-0.6,0.5v1.1c0,0.4,0.2,0.5,0.6,0.5h1.5c0.4,0,0.5-0.1,0.5-0.4v-0.2h-1.4v-0.5h2 v0.5C72.3,91.4,72,91.7,71.3,91.7z M69.7,88.9c-0.7,0-0.9,0.3-0.9,1v0.8c0,0.7,0.3,1,0.9,1h1.6c0.7,0,0.9-0.2,0.9-1v-0.3 h-1.7v0.2h1.4v0.4c0,0.4-0.2,0.6-0.7,0.6h-1.5c-0.2,0-0.7,0-0.7-0.7v-1.1c0-0.7,0.6-0.7,0.7-0.7h1c0.9,0,1.2,0,1.2,0.6h0.2v0 c0-0.5-0.3-0.7-1-0.7H69.7z"></path> </g> <g> <path class="st0" d="M74,89.1h-1.4v-0.3h3.2v0.3h-1.4v2.5H74V89.1z"></path> <path class="st0" d="M74.5,91.7h-0.5v-2.5h-1.4v-0.5h3.4v0.5h-1.4V91.7z M74.1,91.6h0.2v-2.5h1.4v-0.2h-3.1v0.2h1.4V91.6z"></path> </g> <g> <path class="st0" d="M76.2,89.8c0-0.7,0.2-1.1,1-1.1h1.6c0.8,0,1,0.3,1,1.1v0.8c0,0.7-0.2,1.1-1,1.1h-1.6c-0.8,0-1-0.3-1-1.1 V89.8z M79.5,89.7c0-0.5-0.3-0.6-0.7-0.6h-1.6c-0.4,0-0.7,0.1-0.7,0.6v1.1c0,0.5,0.3,0.6,0.7,0.6h1.6c0.4,0,0.7-0.1,0.7-0.6 V89.7z"></path> <path class="st0" d="M78.8,91.7h-1.6c-0.8,0-1.1-0.3-1.1-1.1v-0.8c0-0.8,0.3-1.1,1.1-1.1h1.6c0.8,0,1.1,0.3,1.1,1.1v0.8 C79.9,91.4,79.6,91.7,78.8,91.7z M77.2,88.9c-0.7,0-0.9,0.3-0.9,1v0.8c0,0.7,0.3,1,0.9,1h1.6c0.7,0,0.9-0.3,0.9-1v-0.8 c0-0.7-0.3-1-0.9-1H77.2z M78.8,91.4h-1.6c-0.2,0-0.7,0-0.7-0.7v-1.1c0-0.7,0.6-0.7,0.7-0.7h1.6c0.2,0,0.7,0,0.7,0.7v1.1 C79.5,91.4,79,91.4,78.8,91.4z M77.2,89.2c-0.4,0-0.6,0.2-0.6,0.5v1.1c0,0.4,0.2,0.5,0.6,0.5h1.6c0.4,0,0.6-0.2,0.6-0.5v-1.1 c0-0.4-0.2-0.5-0.6-0.5H77.2z"></path> </g> <g> <path class="st0" d="M80.5,88.8h0.6l2.6,2.5v-2.5H84v2.8h-0.6l-2.6-2.5v2.5h-0.4V88.8z"></path> <path class="st0" d="M84.1,91.7h-0.7l0,0L81,89.3v2.4h-0.5v-3h0.7l0,0l2.5,2.4v-2.4h0.5V91.7z M83.5,91.6H84v-2.7h-0.2v2.6 L81,88.9h-0.5v2.7h0.2V89L83.5,91.6z"></path> </g> </g> </g> </g> </g> </g> <g> <g> <g> <path class="st0" d="M98.6,97.7h1.2c0.3,0,0.4,0.1,0.4,0.4c0,0.3,0,0.5-0.5,0.5h-1v0.6h-0.2V97.7z M100,98.1 c0-0.2-0.1-0.2-0.3-0.2h-0.9v0.6h1c0.2,0,0.2-0.1,0.2-0.2V98.1z"></path> <path class="st0" d="M98.8,99.2h-0.3v-1.6h1.2c0.3,0,0.5,0.1,0.5,0.4c0,0.3,0,0.5-0.5,0.5h-0.9V99.2z M98.6,99.1L98.6,99.1 l0.1-0.6h1c0.4,0,0.4-0.1,0.4-0.4c0-0.3-0.1-0.3-0.4-0.3h-1.1V99.1z M99.7,98.5h-1v-0.7h1c0.1,0,0.3,0,0.3,0.3v0.1 C100,98.3,100,98.5,99.7,98.5z M98.8,98.4h0.9c0.2,0,0.2-0.1,0.2-0.2v-0.1c0-0.1,0-0.2-0.2-0.2h-0.9V98.4z"></path> </g> <g> <path class="st0" d="M100.4,97.7h1.2c0.4,0,0.5,0.1,0.5,0.4v0.1c0,0.2-0.1,0.3-0.3,0.3v0c0.2,0,0.2,0.1,0.2,0.3v0.4h-0.2v-0.3 c0-0.2-0.1-0.3-0.3-0.3h-1v0.6h-0.2V97.7z M101.6,98.4c0.2,0,0.3-0.1,0.3-0.2v-0.1c0-0.2-0.1-0.2-0.4-0.2h-0.9v0.6H101.6z"></path> <path class="st0" d="M102.1,99.2h-0.3v-0.4c0-0.2-0.1-0.2-0.2-0.2h-0.9v0.6h-0.3v-1.6h1.2c0.5,0,0.5,0.2,0.5,0.5v0.1 c0,0.2-0.1,0.2-0.1,0.3c0.1,0.1,0.1,0.1,0.1,0.3V99.2z M101.9,99.1L101.9,99.1l0.1-0.3c0-0.1,0-0.2-0.2-0.2l0,0 c0.1,0,0.1,0.1,0.1,0.3V99.1z M100.5,99.1L100.5,99.1l0.1-0.6h1c0.1,0,0.1,0,0.2,0v-0.1l0,0c0.2,0,0.2-0.1,0.2-0.2v-0.1 c0-0.2,0-0.4-0.4-0.4h-1.1V99.1z M101.6,98.5h-1v-0.7h0.9c0.3,0,0.4,0,0.4,0.3v0.1C101.9,98.4,101.8,98.5,101.6,98.5z M100.7,98.4h0.9c0.2,0,0.3-0.1,0.3-0.2v-0.1c0-0.1,0-0.2-0.3-0.2h-0.8V98.4z"></path> </g> <g> <path class="st0" d="M102.4,97.7h1.4v0.2h-1.2v0.5h1.2v0.2h-1.2V99h1.2v0.2h-1.4V97.7z"></path> <path class="st0" d="M103.9,99.2h-1.5v-1.6h1.5v0.3h-1.2v0.4h1.2v0.3h-1.2v0.4h1.2V99.2z M102.5,99.1h1.3V99L102.5,99.1l0.1-0.7 h1.2v-0.1h-1.2v-0.6h1.2v-0.1h-1.3V99.1z"></path> </g> <g> <path class="st0" d="M104.1,98.7h0.2v0.1c0,0.1,0.1,0.2,0.3,0.2h0.6c0.3,0,0.4-0.1,0.4-0.3c0-0.2-0.1-0.2-0.3-0.2h-0.4 c-0.6,0-0.8,0-0.8-0.4c0-0.3,0.2-0.4,0.6-0.4h0.4c0.5,0,0.6,0.1,0.6,0.4v0.1h-0.2c0-0.2,0-0.3-0.5-0.3h-0.2 c-0.4,0-0.5,0-0.5,0.3c0,0.2,0.1,0.2,0.4,0.2h0.6c0.4,0,0.5,0.1,0.5,0.4v0.1c0,0.4-0.3,0.4-0.6,0.4h-0.5c-0.3,0-0.5-0.1-0.5-0.4 V98.7z"></path> <path class="st0" d="M105.2,99.2h-0.5c-0.2,0-0.6,0-0.6-0.4v-0.2h0.3v0.2c0,0.1,0,0.2,0.3,0.2h0.6c0.3,0,0.3-0.1,0.3-0.2 c0-0.1,0-0.2-0.3-0.2h-0.4c-0.6,0-0.8,0-0.8-0.5c0-0.4,0.2-0.5,0.7-0.5h0.4c0.5,0,0.7,0.1,0.7,0.4v0.1h-0.3l0-0.1 c0-0.2,0-0.2-0.5-0.2h-0.2c-0.4,0-0.5,0-0.5,0.2c0,0.1,0,0.2,0.3,0.2h0.6c0.3,0,0.6,0,0.6,0.4v0.1 C105.8,99.2,105.4,99.2,105.2,99.2z M104.2,98.7L104.2,98.7c0,0.3,0.1,0.4,0.5,0.4h0.5c0.3,0,0.5-0.1,0.5-0.3v-0.1 c0-0.2-0.1-0.3-0.5-0.3h-0.6c-0.3,0-0.4-0.1-0.4-0.3c0-0.3,0.2-0.3,0.6-0.3h0.2c0.5,0,0.6,0,0.6,0.3h0.1c0-0.2,0-0.3-0.6-0.3 h-0.4c-0.4,0-0.5,0.1-0.5,0.4c0,0.3,0.1,0.4,0.7,0.4h0.4c0.2,0,0.4,0,0.4,0.3c0,0.3-0.1,0.3-0.4,0.3h-0.6 C104.4,99.1,104.3,99,104.2,98.7L104.2,98.7L104.2,98.7z"></path> </g> <g> <path class="st0" d="M106.1,97.7h1.4v0.2h-1.2v0.5h1.2v0.2h-1.2V99h1.2v0.2h-1.4V97.7z"></path> <path class="st0" d="M107.6,99.2h-1.5v-1.6h1.5v0.3h-1.2v0.4h1.2v0.3h-1.2v0.4h1.2V99.2z M106.2,99.1h1.3V99L106.2,99.1l0.1-0.7 h1.2v-0.1h-1.2v-0.6h1.2v-0.1h-1.3V99.1z"></path> </g> <g> <path class="st0" d="M107.9,97.7h0.3l1.3,1.3v-1.3h0.2v1.4h-0.3l-1.3-1.3v1.3h-0.2V97.7z"></path> <path class="st0" d="M109.7,99.2h-0.4l0,0l-1.2-1.2v1.2h-0.3v-1.6h0.4l0,0l1.2,1.2v-1.2h0.3V99.2z M109.4,99.1h0.2v-1.3h-0.1 v1.3l-1.4-1.3h-0.2v1.3h0.1v-1.3L109.4,99.1z"></path> </g> <g> <path class="st0" d="M110.6,97.9h-0.7v-0.2h1.7v0.2h-0.7v1.3h-0.2V97.9z"></path> <path class="st0" d="M110.9,99.2h-0.3v-1.3h-0.7v-0.3h1.8v0.3h-0.7V99.2z M110.7,99.1L110.7,99.1l0.1-1.3h0.7v-0.1h-1.6v0.1h0.7 V99.1z"></path> </g> <g> <path class="st0" d="M111.8,97.7h1.4v0.2H112v0.5h1.2v0.2H112V99h1.2v0.2h-1.4V97.7z"></path> <path class="st0" d="M113.2,99.2h-1.5v-1.6h1.5v0.3H112v0.4h1.2v0.3H112v0.4h1.2V99.2z M111.8,99.1h1.3V99L111.8,99.1l0.1-0.7 h1.2v-0.1h-1.2v-0.6h1.2v-0.1h-1.3V99.1z"></path> </g> <g> <path class="st0" d="M113.5,97.7h1.2c0.5,0,0.6,0.2,0.6,0.7c0,0.5-0.1,0.7-0.6,0.7h-1.2V97.7z M115.1,98.4 c0-0.4-0.1-0.5-0.4-0.5h-1V99h1c0.2,0,0.4-0.1,0.4-0.5V98.4z"></path> <path class="st0" d="M114.6,99.2h-1.2v-1.6h1.2c0.5,0,0.7,0.2,0.7,0.8C115.3,99,115.1,99.2,114.6,99.2z M113.5,99.1h1.1 c0.4,0,0.6-0.2,0.6-0.7c0-0.5-0.1-0.7-0.6-0.7h-1.1V99.1z M114.7,99h-1v-1.2h1.1c0.3,0,0.4,0.1,0.4,0.5v0.1 C115.1,98.9,114.9,99,114.7,99z M113.7,98.9h0.9c0.2,0,0.4,0,0.4-0.4v-0.1c0-0.4-0.1-0.4-0.3-0.4h-1V98.9z"></path> </g> <g> <path class="st0" d="M116.6,97.7h1.2c0.3,0,0.4,0.2,0.4,0.3v0.1c0,0.1-0.1,0.2-0.2,0.2v0c0.2,0,0.3,0.1,0.3,0.3v0.2 c0,0.2-0.2,0.3-0.4,0.3h-1.3V97.7z M118,98c0-0.1-0.1-0.2-0.2-0.2h-1v0.5h1c0.1,0,0.2,0,0.2-0.2V98z M118.1,98.7 c0-0.2-0.1-0.2-0.3-0.2h-1V99h1c0.2,0,0.2-0.1,0.2-0.2V98.7z"></path> <path class="st0" d="M117.8,99.2h-1.3v-1.6h1.3c0.4,0,0.4,0.2,0.4,0.4v0.1c0,0.1,0,0.2-0.1,0.2c0.1,0.1,0.2,0.2,0.2,0.3v0.2 C118.3,99.1,118.1,99.2,117.8,99.2z M116.6,99.1h1.2c0.2,0,0.4-0.1,0.4-0.3v-0.2c0-0.2-0.1-0.2-0.2-0.2l0,0v-0.1 c0,0-0.1,0-0.1,0h-1.1v-0.6h1.1c0.1,0,0.3,0.1,0.3,0.2v0.1c0,0.1,0,0.1-0.1,0.2c0.1,0,0.2-0.1,0.2-0.2V98c0-0.2-0.1-0.3-0.3-0.3 h-1.2V99.1z M116.8,98.3h1c0.1,0,0.2-0.1,0.2-0.1V98c0-0.1-0.1-0.1-0.2-0.1h-1V98.3z M117.8,99h-1.1v-0.6h1.1 c0.2,0,0.3,0,0.3,0.3v0.1C118.1,99,118,99,117.8,99z M116.8,98.9h1c0.2,0,0.2-0.1,0.2-0.1v-0.1c0-0.1,0-0.2-0.2-0.2h-1V98.9z"></path> </g> <g> <path class="st0" d="M119.3,98.5l-0.8-0.8h0.3l0.7,0.7l0.7-0.7h0.3l-0.8,0.8v0.6h-0.2V98.5z"></path> <path class="st0" d="M119.5,99.2h-0.3v-0.6l-0.9-0.9h0.4l0.6,0.7l0.6-0.7h0.4l-0.9,0.9V99.2z M119.3,99.1L119.3,99.1l0.1-0.6 l0,0l0.7-0.7h-0.1l-0.7,0.7l-0.7-0.7h-0.1l0.8,0.8V99.1z"></path> </g> </g> <g> <rect x="88.2" y="100.6" class="st6" width="27.6" height="9"></rect> <g> <polygon class="st7" points="114.4,106.2 115.5,105.3 116.6,106.2 114.4,106.2 "></polygon> <polygon class="st8" points="114.4,106.2 115.5,105.3 116.6,106.2 114.4,106.2 "></polygon> <path class="st7" d="M115.6,100.6h14v9h-14v-1.9c1.5,0,2.7-1.2,2.7-2.7c0-1.5-1.1-2.6-2.7-2.7V100.6L115.6,100.6z"></path> <path class="st3" d="M121.1,106.1h-0.6l-0.5-0.9h-0.2v0.6h0.3v0.4h-1.1v-0.4h0.3v-1.4h-0.3v-0.4h1.3c0.4,0,0.6,0.3,0.6,0.6 c0,0.2-0.1,0.4-0.4,0.5l0.3,0.6h0.3V106.1L121.1,106.1z M119.9,104.9c0.2,0,0.3-0.1,0.3-0.2c0-0.1-0.1-0.2-0.3-0.2h-0.3v0.5 H119.9L119.9,104.9z"></path> <path class="st3" d="M122.7,105.8c-0.2,0.2-0.4,0.4-0.7,0.4c-0.5,0-0.8-0.3-0.8-0.7c0-0.5,0.3-0.8,0.8-0.8 c0.4,0,0.8,0.3,0.8,0.9h-1.1c0,0.2,0.1,0.4,0.4,0.4c0.1,0,0.2,0,0.3-0.2L122.7,105.8L122.7,105.8z M122.2,105.3 c0-0.2-0.1-0.3-0.3-0.3c-0.2,0-0.3,0.1-0.3,0.3H122.2L122.2,105.3z"></path> <path class="st3" d="M122.9,104.7h0.7v0.1c0.2-0.1,0.3-0.2,0.4-0.2c0.2,0,0.4,0.1,0.4,0.5v0.6h0.2v0.3H124v-0.9 c0-0.1,0-0.2-0.1-0.2c-0.1,0-0.2,0-0.3,0.1v0.7h0.2v0.3h-0.9v-0.3h0.2V105h-0.2V104.7L122.9,104.7z"></path> <path class="st3" d="M124.8,104.7h0.2v-0.2l0.5-0.3v0.6h0.3v0.3h-0.3v0.6c0,0.1,0,0.2,0.1,0.2c0,0,0.1,0,0.1,0v0.3 c-0.1,0-0.2,0.1-0.3,0.1c-0.2,0-0.4-0.1-0.4-0.3V105h-0.2V104.7L124.8,104.7z"></path> <path class="st3" d="M127.6,106.1h-0.7V106c-0.1,0.1-0.3,0.1-0.4,0.1c-0.3,0-0.5-0.2-0.5-0.5c0-0.3,0.2-0.5,0.6-0.5 c0.1,0,0.2,0,0.3,0.1v-0.1c0-0.2-0.1-0.3-0.3-0.3c-0.1,0-0.2,0-0.3,0.1l-0.4-0.1c0.1-0.2,0.3-0.3,0.7-0.3c0.5,0,0.7,0.2,0.7,0.6 v0.6h0.2V106.1L127.6,106.1z M126.6,105.5c-0.1,0-0.2,0.1-0.2,0.2c0,0.1,0.1,0.2,0.2,0.2c0.1,0,0.2,0,0.3-0.2v-0.1 C126.7,105.5,126.7,105.5,126.6,105.5L126.6,105.5z"></path> <polygon class="st3" points="127.7,105.8 127.9,105.8 127.9,104.4 127.7,104.4 127.7,104.1 128.4,104.1 128.4,105.8 128.6,105.8 128.6,106.1 127.7,106.1 127.7,105.8 "></polygon> <polygon class="st3" points="119.2,101.7 119,101.7 119,101.6 119.5,101.6 119.5,101.7 119.3,101.7 119.3,103.6 119.2,103.6 119.2,101.7 "></polygon> <polygon class="st3" points="123.5,101.6 123.6,101.6 123.6,102.6 123.9,102.6 123.9,101.6 124,101.6 124,103.6 123.9,103.6 123.9,102.6 123.6,102.6 123.6,103.6 123.5,103.6 123.5,101.6 "></polygon> <polygon class="st3" points="128,101.6 128.4,101.6 128.4,101.7 128.1,101.7 128.1,102.6 128.4,102.6 128.4,102.6 128.1,102.6 128.1,103.6 128.4,103.6 128.4,103.6 128,103.6 128,101.6 "></polygon> <path class="st3" d="M119.2,108.5c0,0.1,0,0.1,0.1,0.1c0.1,0,0.1,0,0.1-0.1v-0.3c0-0.1,0-0.2-0.1-0.3l-0.2-0.4 c0-0.1-0.1-0.2-0.1-0.3v-0.3c0-0.1,0.1-0.2,0.2-0.2c0.2,0,0.2,0.1,0.2,0.2v0.4h-0.1v-0.4c0-0.1,0-0.1-0.1-0.1 c-0.1,0-0.1,0.1-0.1,0.1v0.3c0,0.1,0,0.1,0,0.2l0.2,0.4c0,0.1,0.1,0.2,0.1,0.3v0.4c0,0.1-0.1,0.2-0.2,0.2 c-0.2,0-0.2-0.1-0.2-0.2v-0.4h0.1V108.5L119.2,108.5z"></path> <polygon class="st3" points="121.5,106.8 121.3,106.8 121.3,106.7 121.8,106.7 121.8,106.8 121.6,106.8 121.6,108.7 121.5,108.7 121.5,106.8 "></polygon> <path class="st3" d="M124,108.5c0,0.1-0.1,0.2-0.2,0.2c-0.2,0-0.2-0.1-0.2-0.2v-1.6c0-0.1,0.1-0.2,0.2-0.2 c0.2,0,0.2,0.1,0.2,0.2V108.5L124,108.5z M123.9,106.9c0-0.1-0.1-0.1-0.1-0.1s-0.1,0-0.1,0.1v1.6c0,0.1,0.1,0.1,0.1,0.1 s0.1,0,0.1-0.1V106.9L123.9,106.9z"></path> <path class="st3" d="M125.8,106.7h0.3c0.1,0,0.2,0.1,0.2,0.2v0.6c0,0.1,0,0.2-0.2,0.2v0c0.1,0,0.2,0.1,0.2,0.2v0.9h-0.1v-0.9 c0-0.1,0-0.1-0.2-0.1h-0.1v1h-0.1V106.7L125.8,106.7z M126.1,107.6c0.1,0,0.1,0,0.1-0.1v-0.6c0-0.1,0-0.1-0.1-0.1h-0.1v0.9 H126.1L126.1,107.6z"></path> <polygon class="st3" points="128,106.7 128.4,106.7 128.4,106.8 128.1,106.8 128.1,107.6 128.4,107.6 128.4,107.7 128.1,107.7 128.1,108.6 128.4,108.6 128.4,108.7 128,108.7 128,106.7 "></polygon> <path class="st3" d="M112.7,105.1c0-1.6,1.3-2.8,2.8-2.8c1.6,0,2.8,1.3,2.8,2.8c0,1.6-1.3,2.8-2.8,2.8 C113.9,107.9,112.7,106.7,112.7,105.1L112.7,105.1z"></path> <path class="st9" d="M112.7,105.1c0-1.6,1.3-2.8,2.8-2.8c1.6,0,2.8,1.3,2.8,2.8c0,1.6-1.3,2.8-2.8,2.8 C113.9,107.9,112.7,106.7,112.7,105.1L112.7,105.1z"></path> <path class="st10" d="M128.7,108.5C128.7,108.5,128.6,108.6,128.7,108.5c-0.1,0.2-0.1,0.2,0,0.2 C128.8,108.7,128.8,108.7,128.7,108.5C128.8,108.6,128.8,108.5,128.7,108.5L128.7,108.5z M128.7,108.5 C128.8,108.5,128.8,108.6,128.7,108.5c0.1,0.1,0,0.2,0,0.2C128.7,108.7,128.6,108.7,128.7,108.5 C128.6,108.6,128.7,108.5,128.7,108.5L128.7,108.5z M128.7,108.6L128.7,108.6C128.7,108.6,128.7,108.6,128.7,108.6 C128.7,108.7,128.7,108.7,128.7,108.6L128.7,108.6C128.7,108.7,128.7,108.7,128.7,108.6C128.7,108.6,128.7,108.6,128.7,108.6 L128.7,108.6C128.7,108.6,128.7,108.6,128.7,108.6C128.7,108.6,128.7,108.6,128.7,108.6L128.7,108.6L128.7,108.6L128.7,108.6 L128.7,108.6L128.7,108.6z M128.7,108.6L128.7,108.6C128.7,108.6,128.7,108.6,128.7,108.6C128.7,108.6,128.7,108.6,128.7,108.6 L128.7,108.6L128.7,108.6L128.7,108.6z"></path> <g> <path class="st1" d="M114.7,105.9c0.1-0.1,0.1-0.2,0.1-0.2v-0.3h-0.5v0.4c0,0.1-0.1,0.1-0.1,0.1c-0.1,0-0.1-0.1-0.1-0.1v-1.2 c0-0.1,0-0.1,0.1-0.1c0.1,0,0.1,0.1,0.1,0.1v0.4h0.5v-0.5l0,0c0-0.3-0.2-0.5-0.6-0.5l0,0c-0.4,0-0.6,0.2-0.6,0.5v1.3 c0,0.3,0.2,0.4,0.5,0.4h0.1L114.7,105.9z"></path> <polygon class="st1" points="116.5,105.9 116.5,104.5 116.2,104.5 116.2,104.1 117.3,104.1 117.3,104.5 117,104.5 117,106.2 116.9,106.2 "></polygon> <polygon class="st7" points="116.7,106.2 115.6,105.3 114.4,106.2 "></polygon> <path class="st1" d="M115.9,104.1h-0.6l-0.4,1.6l0.7-0.6l0.7,0.6L115.9,104.1z M115.5,105.1l0.1-0.6l0.1,0.6H115.5z"></path> </g> </g> <line class="st1" x1="101" y1="104.3" x2="100.9" y2="104.5"></line> <g> <polygon class="st1" points="97.9,104.4 98.1,104 96,104 95.9,104.4 96.4,104.4 96,105.5 97.1,105.5 97.4,104.4 "></polygon> </g> <g> <polygon class="st1" points="95.7,104 93.8,104 93.2,105.5 95.2,105.5 95.3,105.1 94.4,105.1 94.5,104.9 95.3,104.9 95.4,104.6 94.6,104.6 94.7,104.4 95.6,104.4 "></polygon> </g> <g> <polygon class="st1" points="100.3,104 98.3,104 97.8,105.5 99.8,105.5 99.9,105.1 99,105.1 99.1,104.9 99.9,104.9 100,104.6 99.2,104.6 99.2,104.4 100.1,104.4 "></polygon> </g> <path class="st1" d="M102.9,105h0.9c0,0,0,0.1,0.2,0.2c0.2,0,0.3,0,0.3-0.1c0-0.1,0-0.2-0.3-0.2c-0.3,0-0.6-0.1-0.7-0.2 c-0.1-0.1-0.1-0.2,0-0.3c0.1-0.2,0.3-0.3,0.7-0.4c0.3,0,1-0.1,1.2,0c0.2,0.1,0.3,0.1,0.3,0.2c0,0.1,0.1,0.1,0,0.2h-0.8 c0,0,0-0.1-0.1-0.1c-0.1,0-0.1,0-0.2,0c-0.1,0-0.1,0-0.2,0.1c0,0.1,0,0.1,0.1,0.1c0.1,0,0.5,0.1,0.7,0.1c0.2,0.1,0.3,0.1,0.3,0.3 c0,0.2-0.2,0.4-0.5,0.5c-0.3,0.1-0.8,0.1-1,0.1c-0.2,0-0.6-0.1-0.7-0.1C103,105.3,102.9,105.2,102.9,105z"></path> <polygon class="st1" points="109.8,104 108.6,104 108.1,105.5 108.9,105.5 109.2,104.7 109.5,105.5 110.8,105.5 111.3,104 110.4,104 110.1,104.8 "></polygon> <path class="st1" d="M93.2,103.8c-0.1-0.1-0.3-0.1-0.3-0.1h-2.1l-1,2.8h1l0.4-0.9c0,0,1.2,0,1.4-0.1c0.3-0.1,0.4-0.2,0.5-0.4 c0.2-0.2,0.2-0.4,0.3-0.7C93.3,104,93.3,103.9,93.2,103.8z M92.2,104.7c-0.1,0.1-0.2,0.1-0.2,0.1h-0.6l0.2-0.5c0,0,0.5,0,0.5,0 c0.1,0,0.1,0,0.1,0.1C92.3,104.5,92.2,104.7,92.2,104.7z"></path> <path class="st1" d="M108.1,104.4c0-0.2-0.2-0.3-0.6-0.4c-0.4,0-0.9,0-0.9,0s-0.5,0-0.8,0.3c-0.3,0.3-0.3,0.8-0.3,0.8 s0,0.3,0.4,0.4c0.5,0.1,0.9,0.1,1.3,0c0.3-0.1,0.5-0.2,0.6-0.4C108,104.8,108.1,104.5,108.1,104.4z M107.1,104.5 c0,0-0.2,0.5-0.2,0.6c-0.1,0.2-0.2,0.2-0.2,0.2c0,0,0,0-0.1,0c-0.2,0-0.1-0.2-0.1-0.2l0.2-0.6c0.1-0.2,0.2-0.1,0.3-0.1 C107.2,104.3,107.1,104.5,107.1,104.5z"></path> <path class="st1" d="M102.7,104.1c-0.1-0.1-0.3-0.1-0.3-0.1l-1.8,0l-0.5,1.4l1.1,0l0.2-0.6c0,0,0.1,0,0.1,0s0.1,0,0.1,0.1 c0,0.1,0,0.2,0,0.3c0,0.1,0,0.3,0,0.3h1c0,0-0.1,0-0.1-0.2c0-0.2,0.1-0.2,0.1-0.3c0-0.2-0.1-0.2-0.1-0.2c0.1,0,0.2-0.1,0.3-0.2 c0,0,0.1-0.1,0.1-0.2C102.9,104.2,102.8,104.2,102.7,104.1z M101.8,104.5C101.8,104.6,101.7,104.6,101.8,104.5l-0.3,0l0.1-0.2 c0,0,0.2,0,0.2,0c0,0,0,0,0,0C101.8,104.4,101.8,104.5,101.8,104.5z"></path> </g> </g> </g> </svg> 