<?xml version="1.0" encoding="UTF-8"?> <svg xmlns="http://www.w3.org/2000/svg" id="Layer_1" data-name="Layer 1" viewBox="0 0 130 120"><defs><style>.cls-1{fill:#002554;}.cls-2,.cls-4{fill:#fff;}.cls-3{fill:#e31837;}.cls-4{fill-rule:evenodd;}.cls-5{fill:#f79420;}</style></defs><path class="cls-1" d="M65,109.48a9.88,9.88,0,0,1-4.73-1.15L23,87.54a11.65,11.65,0,0,1-5.36-7.44l-.35-1.84L.42,73.6V47.5H11.47L9.09,34.83a11.27,11.27,0,0,1,2.51-8.92L22.12,14.22a12.2,12.2,0,0,1,8.3-3.7H99.58a12.2,12.2,0,0,1,8.3,3.7l10.53,11.69a11.26,11.26,0,0,1,2.49,8.92L118.53,47.5h11.05V73.6l-16.82,4.66-.35,1.84a11.65,11.65,0,0,1-5.36,7.44L69.73,108.33A9.85,9.85,0,0,1,65,109.48Z"></path><polygon class="cls-1" points="111.4 72.67 128.36 72.67 128.36 72.67 111.4 77.38 111.4 72.67"></polygon><polygon class="cls-1" points="18.6 72.67 1.64 72.67 1.64 72.67 18.6 77.38 18.6 72.67"></polygon><path class="cls-2" d="M111.22,79.88a10.51,10.51,0,0,1-4.76,6.6L69.14,107.27a9.13,9.13,0,0,1-8.27,0L23.54,86.48a10.55,10.55,0,0,1-4.76-6.6l-.93-5L11.63,41.77,10.29,34.6a10.1,10.1,0,0,1,2.21-7.87L23,15a11,11,0,0,1,7.4-3.29H99.58A11,11,0,0,1,107,15l10.53,11.7a10.11,10.11,0,0,1,2.21,7.88l-1.34,7.16Z"></path><path class="cls-1" d="M65,109.66a9.9,9.9,0,0,1-4.81-1.17L22.86,87.7a11.89,11.89,0,0,1-5.45-7.56L8.91,34.86a11.46,11.46,0,0,1,2.55-9.07L22,14.1a12.35,12.35,0,0,1,8.43-3.76H99.58A12.33,12.33,0,0,1,108,14.1l10.53,11.69a11.47,11.47,0,0,1,2.55,9.07l-8.5,45.28h0a11.89,11.89,0,0,1-5.45,7.56L69.82,108.49A10,10,0,0,1,65,109.66ZM30.42,13.14A9.6,9.6,0,0,0,24.06,16L13.54,27.66a8.74,8.74,0,0,0-1.88,6.69l8.5,45.27a9.09,9.09,0,0,0,4.06,5.64l37.33,20.79a8,8,0,0,0,6.91,0l37.32-20.79a9.12,9.12,0,0,0,4.06-5.64h0l8.5-45.27a8.7,8.7,0,0,0-1.88-6.69L105.94,16a9.6,9.6,0,0,0-6.36-2.83Z"></path><path class="cls-2" d="M111.22,79.88a10.51,10.51,0,0,1-4.76,6.6L69.14,107.27a9.13,9.13,0,0,1-8.27,0L23.54,86.48a10.55,10.55,0,0,1-4.76-6.6l-.93-5L11.63,41.77,10.29,34.6a10.1,10.1,0,0,1,2.21-7.87L23,15a11,11,0,0,1,7.4-3.29H99.58A11,11,0,0,1,107,15l10.53,11.7a10.11,10.11,0,0,1,2.21,7.88l-1.34,7.16Z"></path><path class="cls-3" d="M21.46,79.38a7.83,7.83,0,0,0,3.4,4.73L62.19,104.9a6.44,6.44,0,0,0,5.62,0l37.33-20.79a7.83,7.83,0,0,0,3.4-4.73l1.35-7.19H20.11Z"></path><path class="cls-1" d="M117,34.1a7.35,7.35,0,0,0-1.56-5.55L105,16.85a8.24,8.24,0,0,0-5.37-2.39H30.42a8.24,8.24,0,0,0-5.37,2.39L14.52,28.55A7.39,7.39,0,0,0,13,34.1L15.8,49.19h98.41Z"></path><path class="cls-2" d="M128.36,72.67H1.64v-24H128.36Z"></path><rect class="cls-1" x="1.64" y="72.67" width="126.72" height="1.22"></rect><rect class="cls-1" x="1.64" y="47.5" width="126.72" height="1.22"></rect><path class="cls-1" d="M24.93,53.81h3V59H30.6V53.81h3V67.63h-3V62.42H28v5.21h-3Z"></path><path class="cls-1" d="M36.73,53.81h5.09l2.74,13.82H38.69v-3h2L39.51,57.8h-.58l-1.8,9.83H34Z"></path><path class="cls-1" d="M53.61,67.63h-3V57.2H47.94V67.63h-3V53.81h6.93c1,0,1.76,1,1.76,2.41Z"></path><path class="cls-1" d="M56.22,67.63c-1,0-1.75-1-1.75-2.41v-9c0-1.4.73-2.41,1.75-2.41h6.51l-.86,3.39H57.49v7H60V62.1H58.53l.69-2.72h3.35v8.25Z"></path><path class="cls-1" d="M65.85,57.2H62.73l.86-3.39h8V57.2H68.87V67.63h-3Z"></path><path class="cls-1" d="M79.07,53.81c1,0,1.76,1,1.76,2.41v9c0,1.4-.74,2.41-1.76,2.41H73.89c-1,0-1.75-1-1.75-2.41v-9c0-1.4.73-2.41,1.75-2.41ZM77.81,64.23v-7H75.16v7Z"></path><path class="cls-1" d="M81.69,53.81h3V64.23h2.35V53.81h3V64.23h2.34V53.81h3V67.63h-12c-1,0-1.76-1-1.76-2.41Z"></path><path class="cls-1" d="M105.14,67.63h-3V57.2H99.47V67.63h-3V53.81h6.94c1,0,1.75,1,1.75,2.41Z"></path><polyline class="cls-4" points="65 93.44 66.2 97.03 70.16 97 66.94 99.33 68.08 102.95 65 100.75 61.9 102.95 63.04 99.33 59.98 97.06 63.79 97.03 65 93.44"></polyline><path class="cls-2" d="M26.55,81.38H25.28V76.59h2l.92,3h0l.87-3h2.08v4.79H29.93l.13-3.67h0L28.8,81.38H27.69l-1.23-3.67h0Z"></path><path class="cls-2" d="M32.19,79.66V78.31c0-1.48.92-1.76,2.22-1.76s2.22.28,2.22,1.76v1.35c0,1.48-.92,1.76-2.22,1.76S32.19,81.14,32.19,79.66Zm3.12-.14V78.44c0-.71-.24-.78-.9-.78s-.88.07-.9.78v1.08c0,.72.23.79.9.79S35.31,80.24,35.31,79.52Z"></path><path class="cls-2" d="M39.73,81.38H38.46V77.7H37.23V76.59H41V77.7h-1.3Z"></path><path class="cls-2" d="M41.62,79.66V78.31c0-1.48.92-1.76,2.22-1.76s2.22.28,2.22,1.76v1.35c0,1.48-.92,1.76-2.22,1.76S41.62,81.14,41.62,79.66Zm3.12-.14V78.44c0-.71-.24-.78-.9-.78s-.88.07-.9.78v1.08c0,.72.23.79.9.79S44.74,80.24,44.74,79.52Z"></path><path class="cls-2" d="M51.1,79.57v.14a1.57,1.57,0,0,1-.44,1.36,2.24,2.24,0,0,1-1.53.35c-1.3,0-2.25-.06-2.25-1.81V78.37c0-1.59.85-1.82,2.25-1.82s1.93.14,2,1.57v.19H49.77v-.19c0-.43-.34-.46-.78-.46-.73,0-.8.23-.8.91v.75c0,.72,0,1,.8,1,.53,0,.79,0,.79-.6v-.14Z"></path><path class="cls-2" d="M52.06,76.59h2.46c1.11,0,1.65.26,1.65,1.45,0,.8,0,1.27-.9,1.48v0a.8.8,0,0,1,.86.85v1H54.85v-.67c0-.36-.14-.6-.52-.6h-1v1.27H52.06ZM54.33,79c.55,0,.53-.2.53-.75s-.11-.55-.53-.55h-1V79Z"></path><path class="cls-2" d="M57,79.66V78.31c0-1.48.92-1.76,2.22-1.76s2.22.28,2.22,1.76v1.35c0,1.48-.92,1.76-2.22,1.76S57,81.14,57,79.66Zm3.12-.14V78.44c0-.71-.23-.78-.9-.78s-.88.07-.9.78v1.08c0,.72.23.79.9.79S60.15,80.24,60.15,79.52Z"></path><path class="cls-2" d="M64.64,78.47c1.42.1,1.77.28,1.77,1.38,0,.79,0,1.57-2.08,1.57-1.22,0-2,0-2-1.6h1.23c0,.5.18.55.8.55s.8,0,.8-.44-.07-.41-.67-.44l-.28,0c-1.18-.09-1.87-.08-1.87-1.45s.77-1.47,2-1.47c1,0,2,0,2,1.34v.2H65.05c0-.49-.21-.49-.72-.49-.69,0-.75.14-.75.41s.19.39.53.42Z"></path><path class="cls-2" d="M69.6,78.47c1.42.1,1.77.28,1.77,1.38,0,.79,0,1.57-2.07,1.57-1.23,0-2,0-2-1.6h1.23c0,.5.18.55.81.55s.79,0,.79-.44-.07-.41-.67-.44l-.28,0c-1.18-.09-1.87-.08-1.87-1.45s.77-1.47,2-1.47c1,0,1.94,0,1.94,1.34v.2H70c0-.49-.2-.49-.71-.49-.69,0-.75.14-.75.41s.18.39.52.42Z"></path><path class="cls-2" d="M79.12,79.57v.14a1.57,1.57,0,0,1-.44,1.36,2.24,2.24,0,0,1-1.53.35c-1.3,0-2.25-.06-2.25-1.81V78.37c0-1.59.85-1.82,2.25-1.82s1.94.14,2,1.57v.19H77.79v-.19c0-.43-.34-.46-.78-.46-.72,0-.8.23-.8.91v.75c0,.72,0,1,.8,1,.53,0,.79,0,.79-.6v-.14Z"></path><path class="cls-2" d="M81.36,80.27h2v1.11H80.08V76.59h1.28Z"></path><path class="cls-2" d="M85.33,80.56l-.24.82H83.76l1.44-4.79h1.94l1.46,4.79H87.3l-.25-.82Zm.87-3h0l-.58,2.08h1.19Z"></path><path class="cls-2" d="M91.48,78.47c1.42.1,1.77.28,1.77,1.38,0,.79,0,1.57-2.07,1.57-1.22,0-2,0-2-1.6h1.23c0,.5.18.55.81.55s.8,0,.8-.44-.07-.41-.68-.44l-.28,0c-1.18-.09-1.87-.08-1.87-1.45s.77-1.47,2-1.47c1,0,1.94,0,1.94,1.34v.2H91.89c0-.49-.2-.49-.71-.49-.69,0-.75.14-.75.41s.18.39.52.42Z"></path><path class="cls-2" d="M96.45,78.47c1.42.1,1.77.28,1.77,1.38,0,.79,0,1.57-2.08,1.57-1.22,0-2,0-2-1.6h1.22c0,.5.18.55.81.55s.8,0,.8-.44-.07-.41-.67-.44l-.28,0c-1.19-.09-1.88-.08-1.88-1.45s.78-1.47,2-1.47c1,0,1.94,0,1.94,1.34v.2H96.85c0-.49-.2-.49-.71-.49-.69,0-.75.14-.75.41s.19.39.53.42Z"></path><path class="cls-2" d="M100.51,81.38H99.23V76.59h1.28Z"></path><path class="cls-2" d="M105.73,79.57v.14a1.57,1.57,0,0,1-.44,1.36,2.23,2.23,0,0,1-1.52.35c-1.31,0-2.26-.06-2.26-1.81V78.37c0-1.59.85-1.82,2.26-1.82s1.93.14,2,1.57v.19h-1.31v-.19c0-.43-.35-.46-.78-.46-.73,0-.8.23-.8.91v.75c0,.72,0,1,.8,1,.53,0,.78,0,.78-.6v-.14Z"></path><path class="cls-1" d="M45.47,86.58h.36v.19c0,.28.15.42.63.42h1.19c.55,0,.72-.12.72-.53s-.15-.44-.62-.44H47c-1.17,0-1.55-.07-1.55-.82s.38-.79,1.17-.79h.83c1,0,1.18.24,1.18.74v.1h-.36c0-.45,0-.53-1-.53h-.41c-.74,0-1,0-1,.5s.11.45.7.45h1.14c.74,0,1,.22,1,.7v.18c0,.7-.57.75-1.13.75H46.53c-.56,0-1.06-.1-1.06-.72Z"></path><path class="cls-1" d="M47.59,87.57H46.53c-.56,0-1.13-.09-1.13-.79V86.5h.51v.27c0,.18,0,.34.55.34h1.19c.55,0,.64-.11.64-.45s-.07-.37-.54-.37H47c-1.1,0-1.62,0-1.62-.89s.45-.87,1.24-.87h.83c.92,0,1.26.22,1.26.82v.18h-.51v-.08c0-.39,0-.46-1-.46h-.41c-.79,0-.92.06-.92.43s0,.38.62.38h1.14c.78,0,1.13.24,1.13.77v.18C48.8,87.57,48,87.57,47.59,87.57Zm-2-.92v.13c0,.53.39.64,1,.64h1.06c.69,0,1.06-.1,1.06-.67v-.18c0-.32-.12-.62-1-.62H46.53c-.6,0-.78-.12-.78-.53s.37-.58,1.08-.58h.41c.94,0,1.11.07,1.13.54h.21v0c0-.43-.18-.67-1.11-.67h-.83c-.83,0-1.09.18-1.09.72s.29.74,1.47.74h.73c.46,0,.69.08.69.52s-.28.6-.79.6H46.46c-.49,0-.7-.15-.7-.49v-.12Z"></path><path class="cls-1" d="M50.77,84.64h.47l1.68,2.83h-.43l-.35-.6H49.87l-.35.6h-.43ZM51,85l-.94,1.61H52Z"></path><path class="cls-1" d="M53.05,87.54h-.6l-.36-.6H49.92l-.36.6H49l1.76-3h.57l0,0Zm-.52-.15h.26L51.2,84.71h-.39l-1.59,2.68h.26l.35-.6h2.35Zm-.44-.76H49.92L51,84.8Zm-1.9-.15h1.63L51,85.1Z"></path><path class="cls-1" d="M53.29,85.67c0-.72.24-1.06,1-1.06h1.47c.69,0,.89.32.89.7v.24h-.34v-.13c0-.48-.3-.5-.65-.5H54.33c-.36,0-.66.11-.66.6v1.06c0,.5.3.61.66.61h1.34c.52,0,.67-.11.67-.5v-.17h.36v.19c0,.51-.17.79-1,.79H54.29c-.76,0-1-.35-1-1.06Z"></path><path class="cls-1" d="M55.74,87.57H54.29c-.77,0-1.08-.33-1.08-1.13v-.77c0-.81.31-1.14,1.08-1.14h1.47c.79,0,1,.43,1,.78v.32h-.49v-.21c0-.38-.18-.43-.57-.43H54.33c-.41,0-.59.16-.59.53v1.06c0,.38.18.53.59.53h1.34c.51,0,.59-.1.59-.42v-.25h.51v.27C56.77,87.24,56.6,87.57,55.74,87.57Zm-1.45-2.89c-.68,0-.93.27-.93,1v.77c0,.72.25,1,.93,1h1.45c.75,0,.88-.24.88-.71v-.12h-.21v.1c0,.48-.25.57-.74.57H54.33a.64.64,0,0,1-.74-.68V85.52a.64.64,0,0,1,.74-.68h1.33c.31,0,.72,0,.72.58v.06h.19v-.17c0-.27-.08-.63-.81-.63Z"></path><path class="cls-1" d="M57.29,84.64h2.27c.81,0,.94.27.94.8v.23c0,.4-.23.51-.52.53h0c.39.07.49.28.49.53v.73h-.36v-.62c0-.45-.22-.5-.57-.5H57.68v1.12h-.39ZM59.51,86c.43,0,.61-.12.61-.41v-.26c0-.32-.14-.42-.7-.42H57.68V86Z"></path><path class="cls-1" d="M60.54,87.54H60v-.69c0-.38-.15-.43-.49-.43H57.75v1.12h-.53v-3h2.34c.85,0,1,.31,1,.88v.23a.52.52,0,0,1-.33.55.52.52,0,0,1,.29.52Zm-.36-.15h.21v-.65c0-.23-.07-.39-.42-.45l-.06,0v-.13H60c.28,0,.46-.11.46-.46v-.23c0-.51-.13-.73-.87-.73H57.37v2.68h.23V86.27h1.94c.34,0,.64,0,.64.58Zm-.67-1.28H57.6V84.88h1.82c.51,0,.77.07.77.49v.26C60.19,86.06,59.83,86.11,59.51,86.11ZM57.75,86h1.76c.45,0,.53-.12.53-.33v-.26c0-.24-.06-.34-.62-.34H57.75Z"></path><path class="cls-1" d="M62.54,84.64H63l1.68,2.83h-.44l-.35-.6H61.65l-.36.6h-.43Zm.24.31-1,1.61h1.9Z"></path><path class="cls-1" d="M64.83,87.54h-.61l-.35-.6H61.69l-.35.6h-.61l1.77-3h.56l0,0Zm-.52-.15h.25L63,84.71h-.39L61,87.39h.26l.35-.6H64Zm-.45-.76H61.7l1.08-1.83ZM62,86.48H63.6l-.82-1.38Z"></path><path class="cls-1" d="M65.11,84.64h.6L67.36,87,69,84.64h.6v2.83h-.38V85h0L67.5,87.47h-.28L65.5,85h0v2.49h-.38Z"></path><path class="cls-1" d="M69.69,87.54h-.54V85.21l-1.61,2.33h-.36l-1.61-2.33v2.33H65v-3h.71l1.61,2.32L69,84.56h.72Zm-.39-.15h.24V84.71h-.49l-1.69,2.43-1.69-2.43h-.48v2.68h.23V84.91h.11l0,0,1.7,2.45h.2l1.72-2.48h.11v2.48Z"></path><path class="cls-1" d="M70.34,84.64h2.78V85h-2.4v.9H73v.32H70.72v1h2.41v.32H70.34Z"></path><path class="cls-1" d="M73.21,87.54H70.27v-3h2.92V85H70.8v.75h2.3v.46H70.8v.84h2.41Zm-2.79-.15h2.64v-.16H70.65V86.09H73v-.16h-2.3V84.88H73v-.17H70.42Z"></path><path class="cls-1" d="M73.7,84.64h.57l2.59,2.48V84.64h.38v2.83h-.57L74.08,85v2.49H73.7Z"></path><path class="cls-1" d="M77.32,87.54h-.68l0,0-2.46-2.36v2.38h-.54v-3h.68l0,0L76.78,87V84.56h.54Zm-.62-.15h.47V84.71h-.24V87.3l-2.69-2.59h-.47v2.68H74V84.81Z"></path><path class="cls-1" d="M79.09,85H77.66v-.31H80.9V85H79.47v2.52h-.38Z"></path><path class="cls-1" d="M79.55,87.54H79V85H77.59v-.47H81V85H79.55Zm-.38-.15h.23V84.88h1.43v-.17H77.74v.17h1.43Z"></path><path class="cls-1" d="M81.27,85.67c0-.72.25-1.06,1-1.06h1.63c.77,0,1,.34,1,1.06v.77c0,.71-.24,1.06-1,1.06H82.28c-.76,0-1-.35-1-1.06Zm3.27-.15c0-.49-.3-.6-.67-.6H82.32c-.37,0-.66.11-.66.6v1.06c0,.5.29.61.66.61h1.55c.37,0,.67-.11.67-.61Z"></path><path class="cls-1" d="M83.91,87.57H82.28c-.77,0-1.08-.33-1.08-1.13v-.77c0-.81.31-1.14,1.08-1.14h1.63c.77,0,1.08.33,1.08,1.14v.77C85,87.24,84.68,87.57,83.91,87.57Zm-1.63-2.89c-.68,0-.93.27-.93,1v.77c0,.72.25,1,.93,1h1.63c.68,0,.93-.26.93-1v-.77c0-.72-.25-1-.93-1Zm1.59,2.58H82.32a.64.64,0,0,1-.74-.68V85.52a.64.64,0,0,1,.74-.68h1.55a.64.64,0,0,1,.74.68v1.06A.64.64,0,0,1,83.87,87.26ZM82.32,85c-.42,0-.59.16-.59.53v1.06c0,.38.17.53.59.53h1.55c.42,0,.59-.15.59-.53V85.52c0-.37-.17-.53-.59-.53Z"></path><path class="cls-1" d="M49.09,89.84c0-.71.24-1.06,1-1.06h1.46c.7,0,.89.33.89.7v.25h-.34V89.6c0-.48-.29-.51-.65-.51H50.14c-.37,0-.67.11-.67.61v1.06c0,.49.3.6.67.6h1.34c.51,0,.66-.11.66-.49v-.18h.36v.19c0,.52-.17.79-1,.79H50.1c-.77,0-1-.34-1-1.06Z"></path><path class="cls-1" d="M51.54,91.75H50.1c-.77,0-1.09-.33-1.09-1.14v-.77c0-.8.32-1.13,1.09-1.13h1.46c.8,0,1,.42,1,.77v.32H52v-.2c0-.39-.19-.43-.58-.43H50.14c-.42,0-.59.15-.59.53v1.06c0,.37.17.52.59.52h1.34c.5,0,.58-.1.58-.41v-.25h.51v.26C52.57,91.42,52.4,91.75,51.54,91.75ZM50.1,88.86c-.68,0-.94.26-.94,1v.77c0,.72.26,1,.94,1h1.44c.75,0,.88-.24.88-.72v-.11h-.21v.1c0,.48-.24.57-.73.57H50.14a.63.63,0,0,1-.74-.68V89.7a.63.63,0,0,1,.74-.68h1.32c.31,0,.73,0,.73.58v.05h.18v-.17c0-.26-.08-.62-.81-.62Z"></path><path class="cls-1" d="M54.48,88.81H55l1.68,2.83h-.43l-.36-.6H53.59l-.35.6H52.8Zm.24.32-.95,1.6h1.9Z"></path><path class="cls-1" d="M56.77,91.72h-.61l-.35-.6H53.63l-.35.6h-.61l1.77-3H55l0,0Zm-.52-.15h.26l-1.59-2.68h-.39l-1.59,2.68h.25l.36-.6H55.9Zm-.45-.76H53.64L54.72,89Zm-1.9-.15h1.64l-.82-1.39Z"></path><path class="cls-1" d="M57.08,88.81h.38v2.52h2.2v.31H57.08Z"></path><path class="cls-1" d="M59.73,91.72H57v-3h.54v2.51h2.19Zm-2.58-.15h2.43V91.4h-2.2V88.89h-.23Z"></path><path class="cls-1" d="M60.08,88.81h.38v2.83h-.38Z"></path><path class="cls-1" d="M60.54,91.72H60v-3h.54Zm-.38-.15h.23V88.89h-.23Z"></path><path class="cls-1" d="M61.23,88.81h2.69v.32H61.61V90h2.22v.31H61.61v1.3h-.38Z"></path><path class="cls-1" d="M61.68,91.72h-.53v-3H64v.46H61.68V90h2.23v.47H61.68Zm-.38-.15h.23v-1.3h2.23V90.1H61.53v-1h2.32v-.16H61.3Z"></path><path class="cls-1" d="M64.43,89.84c0-.71.24-1.06,1-1.06h1.63c.76,0,1,.35,1,1.06v.77c0,.72-.25,1.06-1,1.06H65.44c-.77,0-1-.34-1-1.06Zm3.26-.14c0-.5-.29-.61-.66-.61H65.48c-.37,0-.67.11-.67.61v1.06c0,.49.3.6.67.6H67c.37,0,.66-.11.66-.6Z"></path><path class="cls-1" d="M67.07,91.75H65.44c-.77,0-1.08-.33-1.08-1.14v-.77c0-.8.31-1.13,1.08-1.13h1.63c.77,0,1.08.33,1.08,1.13v.77C68.15,91.42,67.84,91.75,67.07,91.75Zm-1.63-2.89c-.68,0-.93.26-.93,1v.77c0,.72.25,1,.93,1h1.63c.68,0,.93-.27.93-1v-.77c0-.72-.25-1-.93-1ZM67,91.44H65.48a.64.64,0,0,1-.74-.68V89.7a.64.64,0,0,1,.74-.68H67a.64.64,0,0,1,.74.68v1.06A.64.64,0,0,1,67,91.44Zm-1.55-2.27c-.42,0-.59.15-.59.53v1.06c0,.37.17.52.59.52H67c.42,0,.59-.15.59-.52V89.7c0-.38-.17-.53-.59-.53Z"></path><path class="cls-1" d="M68.73,88.81H71c.82,0,1,.27,1,.8v.23c0,.4-.23.51-.52.54h0c.39.07.48.27.48.53v.72h-.36V91c0-.44-.21-.5-.56-.5H69.12v1.12h-.39ZM71,90.21c.43,0,.61-.11.61-.41v-.26c0-.31-.14-.41-.7-.41H69.12v1.08Z"></path><path class="cls-1" d="M72,91.72h-.51V91c0-.38-.16-.42-.49-.42H69.19v1.12h-.53v-3H71c.86,0,1,.31,1,.87v.23a.52.52,0,0,1-.32.56.52.52,0,0,1,.29.52Zm-.36-.15h.21v-.65c0-.23-.07-.4-.42-.46h-.07v-.13l.07,0c.27,0,.45-.11.45-.46v-.23c0-.51-.12-.72-.87-.72H68.81v2.68H69V90.45H71c.34,0,.64,0,.64.57ZM71,90.29H69V89.05h1.82c.51,0,.77.08.77.49v.26C71.63,90.23,71.27,90.29,71,90.29Zm-1.76-.15H71c.44,0,.53-.13.53-.34v-.26c0-.23-.06-.34-.62-.34H69.19Z"></path><path class="cls-1" d="M72.59,88.81h.57l2.59,2.49V88.81h.38v2.83h-.57L73,89.16v2.48h-.38Z"></path><path class="cls-1" d="M76.21,91.72h-.68l0,0-2.46-2.37v2.39h-.53v-3h.67l0,0,2.47,2.36V88.74h.53Zm-.62-.15h.47V88.89h-.23v2.58l-2.7-2.58h-.46v2.68h.23V89Z"></path><path class="cls-1" d="M76.88,88.81h.38v2.83h-.38Z"></path><path class="cls-1" d="M77.33,91.72H76.8v-3h.53ZM77,91.57h.23V88.89H77Z"></path><path class="cls-1" d="M79.39,88.81h.47l1.68,2.83h-.43l-.35-.6H78.49l-.35.6h-.43Zm.23.32-1,1.6h1.9Z"></path><path class="cls-1" d="M81.67,91.72h-.6l-.36-.6H78.53l-.35.6h-.61l1.77-3h.57l0,0Zm-.52-.15h.26l-1.59-2.68h-.39l-1.59,2.68h.26l.35-.6H80.8Zm-.44-.76H78.54L79.62,89Zm-1.9-.15h1.63l-.82-1.39Z"></path><path class="cls-5" d="M43.68,30.41H47a.14.14,0,0,1,.13.07.22.22,0,0,1,0,.16l-.17.34h1.72l.36-.77a1,1,0,0,0,.1-.43.74.74,0,0,0-.09-.36.62.62,0,0,0-.25-.26.8.8,0,0,0-.39-.09h-4a1.23,1.23,0,0,0-.67.21,1.34,1.34,0,0,0-.47.56l-1.86,4a.92.92,0,0,0-.09.38.66.66,0,0,0,.07.32.63.63,0,0,0,.23.23.78.78,0,0,0,.35.08H46a1.2,1.2,0,0,0,.67-.21,1.24,1.24,0,0,0,.48-.56l.54-1.14H46l-.21.42a.23.23,0,0,1-.23.15h-2a.14.14,0,0,1-.13-.07.18.18,0,0,1,0-.16l1.19-2.55-.88-.28Zm12.51-.2a.89.89,0,0,0,.11-.43.73.73,0,0,0-.08-.36.72.72,0,0,0-.26-.26.82.82,0,0,0-.4-.09h-4a1.2,1.2,0,0,0-.67.21,1.29,1.29,0,0,0-.48.56l-2.33,5h1.73l.76-1.62h2.48l-.76,1.62H54l2.15-4.6Zm-2,.2a.14.14,0,0,1,.13.07.22.22,0,0,1,0,.16l-.57,1.2H51.22l.54-1.15-.88-.28Zm3.65,2.78h2.1l.29,1.62h1.72l-.29-1.62H62a1.11,1.11,0,0,0,.66-.22,1.22,1.22,0,0,0,.48-.55l1-2.21a1,1,0,0,0,.1-.43.86.86,0,0,0-.08-.36.65.65,0,0,0-.26-.26.8.8,0,0,0-.39-.09H58l-2.69,5.74H57l.76-1.62ZM59,30.69l-.88-.28h4a.11.11,0,0,1,.12.07.18.18,0,0,1,0,.16l-.49,1.05a.25.25,0,0,1-.23.15h-3.1L59,30.69Zm6.91-1.38a1.48,1.48,0,0,0-.53.61l-.62,1.33a1.08,1.08,0,0,0-.11.48.87.87,0,0,0,.09.4.69.69,0,0,0,.28.28.83.83,0,0,0,.43.1h2.66a.13.13,0,0,1,.12.07.15.15,0,0,1,0,.16l-.21.45.89.28H65.64c-.07,0-.11,0-.13-.07a.15.15,0,0,1,0-.16l.07-.15H63.86l-.21.46a1.06,1.06,0,0,0-.12.47.78.78,0,0,0,.1.41.7.7,0,0,0,.27.27.79.79,0,0,0,.43.11h3.75a1.27,1.27,0,0,0,.73-.24,1.45,1.45,0,0,0,.53-.6L70,32.53a1,1,0,0,0,.12-.45.75.75,0,0,0-.34-.68.78.78,0,0,0-.39-.12H66.67a.14.14,0,0,1-.13-.07.15.15,0,0,1,0-.16l.16-.35-.87-.28h3.26a.14.14,0,0,1,.13.07.22.22,0,0,1,0,.16l-.08.15h1.72l.23-.46a1.28,1.28,0,0,0,.11-.48.71.71,0,0,0-.1-.39.75.75,0,0,0-.28-.28.86.86,0,0,0-.43-.11H66.6a1.3,1.3,0,0,0-.73.24Zm12.43.9a1,1,0,0,0,.11-.43.74.74,0,0,0-.09-.36.72.72,0,0,0-.26-.26.8.8,0,0,0-.39-.09H73.5a1.23,1.23,0,0,0-.67.21,1.34,1.34,0,0,0-.47.56l-1.8,3.82a1.17,1.17,0,0,0-.1.43.72.72,0,0,0,.09.37.69.69,0,0,0,.25.26.82.82,0,0,0,.4.09h4.16A1.2,1.2,0,0,0,76,34.6a1.24,1.24,0,0,0,.48-.56l1.79-3.83Zm-5.5.2h3.46a.14.14,0,0,1,.13.07.18.18,0,0,1,0,.16l-1.19,2.55.88.28H72.61a.14.14,0,0,1-.13-.07.18.18,0,0,1,0-.16l1.19-2.55-.88-.28Zm8.47-.14L81,34.81h3l2.68-5.74H84.89l-2.12,4.54.31-4.54h-3l-2.69,5.74h1.72l2-4.26-.89-.28Zm8.77.14h3.27a.13.13,0,0,1,.13.07.15.15,0,0,1,0,.16l-.17.34H95l.36-.77a1,1,0,0,0,.1-.43.74.74,0,0,0-.09-.36.69.69,0,0,0-.25-.26.84.84,0,0,0-.4-.09h-4a1.17,1.17,0,0,0-.66.21,1.44,1.44,0,0,0-.48.56l-1.85,4a.8.8,0,0,0-.1.38.66.66,0,0,0,.08.32.57.57,0,0,0,.23.23.74.74,0,0,0,.34.08h4.08a1.23,1.23,0,0,0,.67-.21,1.37,1.37,0,0,0,.48-.56l.53-1.14H92.34l-.2.42a.23.23,0,0,1-.23.15h-2a.14.14,0,0,1-.13-.07.18.18,0,0,1,0-.16l1.19-2.55L90,30.41Zm7.21,0h1l.63-1.34H97.17l-2.69,5.74H96.2l1.92-4.12-.87-.28Zm1.86,4.4H101L103,30.69l-.88-.28H105l.63-1.34H99.77l-.63,1.34h2l-2.06,4.4Zm7.9-2-.92,2H108l1-2.3,3.75-3.44h-2l-2.19,2.11-.49-2.11h-1.82l.9,3.44.88.29Z"></path><path class="cls-5" d="M39,34.26l1.46-2.59a1.28,1.28,0,0,1-.69.13H36.54c-.28,0-.33.16-.63.71l-1.09,1.92h3.6c.47,0,.42,0,.57-.17"></path><path class="cls-5" d="M35,41.28l1.47-2.6a1.32,1.32,0,0,1-.7.13H32.55c-.28,0-.33.17-.64.71l-1.09,1.93h3.61c.46,0,.42,0,.56-.17"></path><path class="cls-2" d="M21.92,30.57,23.38,28H19.86c-.73,0-.71,0-1.15.7l-1.46,2.58h3.52c.69,0,.74,0,1.15-.71"></path><path class="cls-2" d="M37.81,28c-.72,0-.53-.11-1,.69l-1,1.84c-.47.82-.42.7-1.15.7h-2.7c-.82,0-.66-.1-1.18.72L29.3,34.5h3.51c.71,0,.67,0,.89-.36C33.78,34,35,32,35,32c.41-.69.33-.66.68-.68l3.5,0c.83,0,.66.09,1.19-.72L41.81,28v0l-4,0"></path><path class="cls-2" d="M28.47,28c-.72,0-.52-.11-1,.69l-1,1.84c-.46.82-.42.7-1.15.7H22.6c-.82,0-.67-.1-1.19.72L20,34.52h3.51c.7,0,.67,0,.88-.36.08-.11,1.31-2.16,1.31-2.16.42-.69.34-.66.68-.68l3.5,0c.84,0,.66.09,1.19-.73L32.48,28v0l-4,0"></path><path class="cls-2" d="M33.79,35c-.73,0-.53-.1-1,.69l-1,1.85c-.46.82-.42.7-1.15.7H27.91c-.82,0-.67-.1-1.18.72l-1.45,2.53h3.51c.71,0,.67,0,.89-.36L31,38.93c.42-.69.34-.66.69-.68l3.5,0c.83,0,.65.09,1.19-.73L37.79,35h-4"></path><path class="cls-2" d="M38.65,40.06h1l1.21-2.55-.51-.17H41l-.11,2.72h1L44,37.34l-1.23,2.72h1l1.59-3.4H43.49l-1.61,2.1.19-2.1H40.23l-1.58,3.4ZM49.5,37.34a.62.62,0,0,0,.06-.26.38.38,0,0,0-.21-.36.41.41,0,0,0-.23-.06H46.66a.68.68,0,0,0-.4.13.75.75,0,0,0-.28.33l-1.06,2.26a.61.61,0,0,0-.06.25.48.48,0,0,0,0,.22.36.36,0,0,0,.15.15.44.44,0,0,0,.23.06h2.47a.65.65,0,0,0,.39-.13.72.72,0,0,0,.29-.33l1.06-2.26Zm-3.26.11h2a.08.08,0,0,1,.07,0,.09.09,0,0,1,0,.1l-.7,1.51.51.17h-2a.08.08,0,0,1-.07,0,.09.09,0,0,1,0-.1l.7-1.51-.52-.17Zm3.58,2.61H51l1.15-2.44-.53-.17h1.74l.37-.79H50.22l-.38.79H51l-1.22,2.61Zm7.74-2.72a.5.5,0,0,0,.06-.26.36.36,0,0,0,0-.21.36.36,0,0,0-.15-.15.44.44,0,0,0-.23-.06H54.72a.65.65,0,0,0-.39.13.69.69,0,0,0-.28.33L53,39.38a.59.59,0,0,0,0,.25.38.38,0,0,0,0,.22.36.36,0,0,0,.15.15.41.41,0,0,0,.23.06h2.46a.68.68,0,0,0,.4-.13.69.69,0,0,0,.28-.33l1.06-2.26Zm-3.25.11h2a.1.1,0,0,1,.08,0,.17.17,0,0,1,0,.1l-.71,1.51.52.17h-2a.1.1,0,0,1-.08,0,.17.17,0,0,1,0-.1l.71-1.51-.52-.17Zm4.2,1.65h1.24l.18,1h1l-.18-1H61a.65.65,0,0,0,.39-.13.69.69,0,0,0,.28-.33l.62-1.3a.6.6,0,0,0,0-.26.36.36,0,0,0,0-.21.36.36,0,0,0-.15-.15.41.41,0,0,0-.23-.06H58.63L57,40.06h1l.45-1Zm.69-1.48-.52-.17h2.39a.08.08,0,0,1,.07,0,.17.17,0,0,1,0,.1l-.29.62a.15.15,0,0,1-.14.09H58.88l.32-.68Zm4.08-.82a1,1,0,0,0-.31.36l-.36.79a.6.6,0,0,0,0,.52.46.46,0,0,0,.17.17.49.49,0,0,0,.25.06h1.57a.08.08,0,0,1,.08,0,.17.17,0,0,1,0,.1l-.13.26.53.17H63.15a.09.09,0,0,1-.08,0,.09.09,0,0,1,0-.1l0-.09h-1l-.13.27a.61.61,0,0,0-.07.28.48.48,0,0,0,.06.24.35.35,0,0,0,.16.16.44.44,0,0,0,.26.07h2.21a.76.76,0,0,0,.43-.14.91.91,0,0,0,.32-.36l.39-.85a.54.54,0,0,0,.07-.27.36.36,0,0,0,0-.23.46.46,0,0,0-.14-.17.48.48,0,0,0-.24-.07H63.76a.08.08,0,0,1-.08,0,.14.14,0,0,1,0-.09l.09-.21-.51-.17h1.93a.08.08,0,0,1,.07,0,.09.09,0,0,1,0,.1l0,.09h1l.13-.28a.57.57,0,0,0,.07-.27.48.48,0,0,0-.06-.24.44.44,0,0,0-.17-.16.43.43,0,0,0-.25-.07H63.72a.82.82,0,0,0-.44.14Zm2.59,3.26h1.07l.45-1h2.48a.65.65,0,0,0,.39-.13.72.72,0,0,0,.29-.33l.65-1.38a.63.63,0,0,0,0-.22.42.42,0,0,0,0-.2.33.33,0,0,0-.13-.13.46.46,0,0,0-.2-.05H67.46l-1.59,3.4Zm1.69-2.61H70a.08.08,0,0,1,.07,0,.09.09,0,0,1,0,.1l-.29.62a.15.15,0,0,1-.13.09H67.76l.32-.68-.52-.17Zm7.86-.11a.62.62,0,0,0,.06-.26.46.46,0,0,0,0-.21.54.54,0,0,0-.15-.15.46.46,0,0,0-.23-.06H72.58a.63.63,0,0,0-.39.13.72.72,0,0,0-.29.33l-1.06,2.26a.61.61,0,0,0-.06.25.48.48,0,0,0,0,.22A.54.54,0,0,0,71,40a.48.48,0,0,0,.24.06h2.46a.68.68,0,0,0,.4-.13.75.75,0,0,0,.28-.33l1.06-2.26Zm-3.26.11h2a.08.08,0,0,1,.07,0,.09.09,0,0,1,0,.1l-.7,1.51.52.17h-2a.08.08,0,0,1-.07,0,.09.09,0,0,1,0-.1l.7-1.51-.52-.17Zm4.21,1.65h1.24l.17,1h1l-.17-1h.22a.67.67,0,0,0,.39-.13.75.75,0,0,0,.28-.33l.61-1.3a.62.62,0,0,0,.06-.26.46.46,0,0,0,0-.21.36.36,0,0,0-.15-.15.44.44,0,0,0-.23-.06H76.49l-1.59,3.4h1l.45-1Zm.68-1.48-.51-.17h2.38a.1.1,0,0,1,.08,0,.12.12,0,0,1,0,.1l-.29.62a.14.14,0,0,1-.13.09H76.74l.31-.68Zm3.41,2.44h1.13l1.14-2.44-.52-.17h1.73l.37-.79H80.85l-.37.79h1.2l-1.22,2.61ZM85,36.8a.88.88,0,0,0-.31.36l-.37.79a.61.61,0,0,0-.07.28.48.48,0,0,0,.06.24.43.43,0,0,0,.16.17.51.51,0,0,0,.25.06h1.58a.07.07,0,0,1,.07,0,.09.09,0,0,1,0,.1l-.12.26.52.17H84.82a.1.1,0,0,1-.08,0,.17.17,0,0,1,0-.1l.05-.09h-1l-.13.27a.74.74,0,0,0-.06.28.47.47,0,0,0,0,.24.41.41,0,0,0,.16.16.46.46,0,0,0,.26.07h2.22a.81.81,0,0,0,.43-.14,1,1,0,0,0,.31-.36l.4-.85a.68.68,0,0,0,.07-.27.56.56,0,0,0,0-.23.61.61,0,0,0-.15-.17A.45.45,0,0,0,87,38H85.43a.08.08,0,0,1-.08,0,.1.1,0,0,1,0-.09l.09-.21-.52-.17h1.93a.1.1,0,0,1,.08,0,.17.17,0,0,1,0,.1l0,.09h1L88,37.4a.57.57,0,0,0,.07-.27.48.48,0,0,0-.06-.24.44.44,0,0,0-.17-.16.41.41,0,0,0-.25-.07H85.39a.78.78,0,0,0-.43.14Z"></path></svg> 