<?xml version="1.0" encoding="UTF-8"?> <svg xmlns="http://www.w3.org/2000/svg" xmlns:xlink="http://www.w3.org/1999/xlink" version="1.1" id="Layer_1" x="0px" y="0px" viewBox="0 0 130 120" style="enable-background:new 0 0 130 120;" xml:space="preserve"> <style type="text/css"> .st0{fill:#002554;} .st1{fill:#FFFFFF;} .st2{fill:#E31837;} .st3{fill-rule:evenodd;clip-rule:evenodd;fill:#FFFFFF;} .st4{fill:#020017;} .st5{fill:#FFD300;} .st6{fill:#C03038;} .st7{fill:#231F20;} .st8{fill:#FF0000;} </style> <g> <g> <g> <g> <g> <path class="st0" d="M65,109.48c-1.72,0-3.41-0.41-4.73-1.14L22.95,87.54c-2.56-1.43-4.82-4.56-5.36-7.44l-0.35-1.84L0.42,73.6 V47.5h11.05L9.09,34.83c-0.55-2.94,0.5-6.69,2.5-8.91l10.52-11.7c1.93-2.14,5.42-3.7,8.3-3.7h69.16c2.88,0,6.37,1.55,8.3,3.7 l10.53,11.7c2,2.23,3.05,5.98,2.5,8.92l-2.38,12.67h11.05v26.1l-16.82,4.66l-0.35,1.84c-0.54,2.88-2.79,6.01-5.36,7.44 l-37.32,20.79C68.4,109.07,66.73,109.48,65,109.48z"></path> </g> <polygon class="st0" points="111.4,72.68 128.36,72.68 128.36,72.68 111.4,77.38 "></polygon> <polygon class="st0" points="18.6,72.68 1.64,72.68 1.64,72.68 18.6,77.38 "></polygon> <g> <path class="st1" d="M111.22,79.88c-0.47,2.52-2.52,5.36-4.75,6.6l-37.33,20.79c-1.15,0.64-2.61,0.99-4.14,0.99 c-1.52,0-2.99-0.35-4.13-0.99L23.54,86.48c-2.24-1.24-4.28-4.09-4.75-6.6l-0.93-4.96l-6.22-33.14l-1.34-7.17 c-0.48-2.56,0.47-5.94,2.21-7.88l10.52-11.69c1.69-1.88,4.87-3.29,7.4-3.29h69.16c2.53,0,5.7,1.42,7.4,3.29l10.53,11.69 c1.74,1.94,2.69,5.32,2.21,7.88l-1.34,7.16L111.22,79.88z"></path> <path class="st0" d="M65,109.66c-1.76,0-3.47-0.41-4.82-1.17L22.86,87.7c-2.61-1.45-4.9-4.63-5.45-7.57l-8.5-45.27 c-0.56-2.99,0.51-6.81,2.55-9.07L21.98,14.1c1.96-2.18,5.51-3.76,8.43-3.76h69.16c2.93,0,6.47,1.58,8.43,3.76l10.53,11.69 c2.04,2.27,3.11,6.08,2.54,9.07l-8.49,45.27c-0.55,2.93-2.84,6.12-5.45,7.57l-37.33,20.79C68.47,109.25,66.76,109.66,65,109.66 z M30.42,13.14c-2.13,0-4.93,1.24-6.36,2.83L13.54,27.66c-1.45,1.62-2.28,4.55-1.88,6.69l8.5,45.27 c0.4,2.12,2.18,4.6,4.06,5.64l37.33,20.79c1.88,1.05,5.03,1.05,6.91,0l37.33-20.79c1.88-1.05,3.67-3.52,4.06-5.64v0l8.49-45.27 c0.4-2.13-0.42-5.07-1.88-6.69l-10.53-11.69c-1.43-1.59-4.22-2.83-6.36-2.83H30.42z"></path> </g> <path class="st1" d="M111.22,79.88c-0.47,2.52-2.52,5.36-4.75,6.6l-37.33,20.79c-1.15,0.64-2.61,0.99-4.14,0.99 c-1.52,0-2.99-0.35-4.13-0.99L23.54,86.48c-2.24-1.24-4.28-4.09-4.75-6.6l-0.93-4.96l-6.22-33.14l-1.34-7.17 c-0.48-2.56,0.47-5.94,2.21-7.88l10.52-11.69c1.69-1.88,4.87-3.29,7.4-3.29h69.16c2.53,0,5.7,1.42,7.4,3.29l10.53,11.69 c1.74,1.94,2.69,5.32,2.21,7.88l-1.34,7.16L111.22,79.88z"></path> <g> <path class="st2" d="M21.46,79.38c0.33,1.74,1.86,3.87,3.41,4.73l37.33,20.79c1.54,0.86,4.08,0.86,5.62,0l37.33-20.79 c1.55-0.86,3.08-2.99,3.41-4.73l1.35-7.18H20.11L21.46,79.38z"></path> <path class="st0" d="M117.04,34.1c0.33-1.74-0.38-4.24-1.56-5.56l-10.53-11.69c-1.18-1.32-3.6-2.39-5.37-2.39H30.42 c-1.77,0-4.19,1.08-5.37,2.39L14.52,28.55c-1.18,1.32-1.89,3.82-1.56,5.56l2.83,15.09h98.41L117.04,34.1z"></path> </g> <path class="st1" d="M128.36,72.68H1.64V48.71h126.72V72.68z"></path> <rect x="1.64" y="72.68" class="st0" width="126.72" height="1.21"></rect> <rect x="1.64" y="47.5" class="st0" width="126.72" height="1.22"></rect> <g> <path class="st0" d="M46.19,59.85c0,1.16-0.62,2.01-1.47,2.01h-0.13l2.22,5.77H43.7l-2.69-7.46h2.16V57.2h-2.49v10.43h-3.02 V53.81h6.78c1.02,0,1.76,1.01,1.76,2.41V59.85z"></path> <path class="st0" d="M47.38,53.81h7.68l-0.86,3.4h-3.8v2.13h3.8v2.61h-3.8v2.29h4.66l-0.86,3.4h-6.82V53.81z"></path> <path class="st0" d="M55.86,67.63V53.81h6.65c1.02,0,1.76,1.01,1.76,2.41v9c0,1.4-0.73,2.41-1.76,2.41H55.86z M61.24,64.23 V57.2h-2.36v7.03H61.24z"></path> <path class="st0" d="M71.84,53.81c1.02,0,1.76,1.01,1.76,2.41v2.8c0,0.49-0.1,0.89-0.3,1.17c-0.19,0.26-0.39,0.4-0.6,0.41 c0.22,0.02,0.42,0.14,0.6,0.34c0.2,0.22,0.3,0.55,0.3,1.01v3.28c0,1.4-0.73,2.41-1.76,2.41h-6.65V53.81H71.84z M70.58,59.57 v-2.57h-2.36v2.57H70.58z M70.58,64.43v-2.57h-2.36v2.57H70.58z"></path> <path class="st0" d="M74.46,53.81h3.02v10.43h2.5V53.81h3.02v13.82h-7.08c-0.85,0-1.47-0.85-1.47-2.01V53.81z"></path> <path class="st0" d="M84.01,67.63V53.81h6.65c1.02,0,1.76,1.01,1.76,2.41v9c0,1.4-0.73,2.41-1.76,2.41H84.01z M89.4,64.23V57.2 h-2.36v7.03H89.4z"></path> </g> </g> <g> <polyline class="st3" points="65,93.44 66.2,97.04 70.16,97 66.94,99.33 68.08,102.95 65,100.75 61.9,102.95 63.04,99.33 59.99,97.07 63.79,97.04 65,93.44 "></polyline> <g> <g> <path class="st1" d="M31.14,76.76h2.2L36,80.12h0.01v-3.36h1.42v4.63h-2.2l-2.67-3.36h-0.01v3.36h-1.42V76.76z"></path> <path class="st1" d="M43.39,76.76h1.85l2.54,4.63H46.2l-0.44-0.82h-2.88l-0.42,0.82h-1.59L43.39,76.76z M43.41,79.57h1.82 l-0.92-1.74L43.41,79.57z"></path> <path class="st1" d="M50.42,76.76h5.41v1.15h-2v3.48h-1.42v-3.48h-2V76.76z"></path> <path class="st1" d="M59.47,76.76h1.42v4.63h-1.42V76.76z"></path> <path class="st1" d="M64.76,78.38c0-1.36,0.76-1.67,2.04-1.67h2.28c1.28,0,2.04,0.32,2.04,1.67v1.38 c0,1.36-0.76,1.67-2.04,1.67H66.8c-1.28,0-2.04-0.32-2.04-1.67V78.38z M66.22,79.32c0,0.67,0.14,0.93,0.81,0.93h1.82 c0.67,0,0.81-0.26,0.81-0.93v-0.5c0-0.58-0.14-0.93-0.89-0.93h-1.66c-0.75,0-0.89,0.35-0.89,0.93V79.32z"></path> <path class="st1" d="M74.91,76.76h2.2l2.67,3.36h0.01v-3.36h1.42v4.63h-2.2l-2.67-3.36h-0.01v3.36h-1.42V76.76z"></path> <path class="st1" d="M87.17,76.76h1.85l2.54,4.63h-1.58l-0.44-0.82h-2.88l-0.42,0.82h-1.59L87.17,76.76z M87.19,79.57h1.82 l-0.92-1.74L87.19,79.57z"></path> <path class="st1" d="M95,76.76h1.42v3.44h3.19v1.19H95V76.76z"></path> </g> </g> <g> <g> <path class="st0" d="M49.33,84.64h2.41c0.59,0,0.75,0.3,0.75,0.63v0.24c0,0.2-0.11,0.41-0.46,0.45v0.02 c0.3,0.02,0.57,0.13,0.57,0.56v0.34c0,0.39-0.35,0.6-0.82,0.6h-2.45V84.64z M52.11,85.25c0-0.26-0.29-0.3-0.4-0.3h-2v0.9h1.98 c0.21,0,0.42-0.07,0.42-0.35V85.25z M52.22,86.57c0-0.35-0.2-0.41-0.54-0.41h-1.96v0.99h2.02c0.36,0,0.48-0.13,0.48-0.38 V86.57z"></path> <path class="st0" d="M51.79,87.54h-2.53v-2.98h2.49c0.72,0,0.83,0.44,0.83,0.7v0.24c0,0.2-0.09,0.35-0.25,0.44 c0.24,0.09,0.36,0.28,0.36,0.58v0.34C52.68,87.28,52.33,87.54,51.79,87.54z M49.41,87.39h2.38c0.36,0,0.75-0.14,0.75-0.53 v-0.34c0-0.32-0.15-0.47-0.5-0.48l-0.07,0V85.9l0.07-0.02c0.34-0.03,0.39-0.25,0.39-0.37v-0.24c0-0.37-0.23-0.55-0.67-0.55 h-2.34V87.39z M51.74,87.23h-2.1v-1.14h2.04c0.31,0,0.62,0.04,0.62,0.48v0.2C52.3,87.08,52.12,87.23,51.74,87.23z M49.79,87.08h1.95c0.34,0,0.41-0.12,0.41-0.3v-0.2c0-0.26-0.1-0.33-0.47-0.33h-1.89V87.08z M51.69,85.93h-2.05v-1.05h2.07 c0.22,0,0.48,0.1,0.48,0.37v0.26C52.19,85.78,52.01,85.93,51.69,85.93z M49.79,85.78h1.9c0.31,0,0.35-0.16,0.35-0.27v-0.26 c0-0.21-0.27-0.22-0.33-0.22h-1.92V85.78z"></path> </g> <g> <path class="st0" d="M53.29,84.64h0.38v2.11c0,0.27,0.09,0.43,0.61,0.43h1.33c0.52,0,0.61-0.16,0.61-0.43v-2.11h0.38v2.12 c0,0.57-0.29,0.74-1.01,0.74h-1.3c-0.72,0-1.01-0.17-1.01-0.74V84.64z"></path> <path class="st0" d="M55.6,87.57h-1.3c-0.67,0-1.08-0.14-1.08-0.82v-2.19h0.53v2.19c0,0.21,0.04,0.36,0.54,0.36h1.33 c0.5,0,0.54-0.15,0.54-0.36v-2.19h0.53v2.19C56.69,87.44,56.27,87.57,55.6,87.57z M53.37,84.71v2.04 c0,0.5,0.23,0.67,0.93,0.67h1.3c0.71,0,0.93-0.16,0.93-0.67v-2.04H56.3v2.04c0,0.37-0.19,0.51-0.69,0.51h-1.33 c-0.5,0-0.69-0.14-0.69-0.51v-2.04H53.37z"></path> </g> <g> <path class="st0" d="M57.29,85.67c0-0.71,0.24-1.06,1.01-1.06h1.46c0.7,0,0.89,0.32,0.89,0.7v0.24h-0.34v-0.13 c0-0.48-0.3-0.5-0.65-0.5h-1.33c-0.37,0-0.66,0.11-0.66,0.6v1.06c0,0.49,0.3,0.6,0.66,0.6h1.34c0.52,0,0.66-0.11,0.66-0.49 v-0.18h0.36v0.19c0,0.51-0.16,0.79-0.96,0.79H58.3c-0.77,0-1.01-0.34-1.01-1.06V85.67z"></path> <path class="st0" d="M59.74,87.57H58.3c-0.77,0-1.08-0.33-1.08-1.13v-0.77c0-0.81,0.31-1.13,1.08-1.13h1.46 c0.79,0,0.96,0.42,0.96,0.78v0.32h-0.49v-0.2c0-0.39-0.18-0.43-0.57-0.43h-1.33c-0.42,0-0.59,0.15-0.59,0.53v1.06 c0,0.37,0.17,0.53,0.59,0.53h1.34c0.5,0,0.59-0.1,0.59-0.42v-0.25h0.51v0.27C60.78,87.24,60.6,87.57,59.74,87.57z M58.3,84.68 c-0.68,0-0.93,0.27-0.93,0.98v0.77c0,0.72,0.25,0.98,0.93,0.98h1.45c0.75,0,0.88-0.24,0.88-0.71v-0.12h-0.21v0.1 c0,0.48-0.25,0.57-0.74,0.57h-1.34c-0.18,0-0.74,0-0.74-0.68v-1.06c0-0.68,0.56-0.68,0.74-0.68h1.33c0.31,0,0.72,0,0.72,0.58 v0.05h0.19v-0.17c0-0.27-0.08-0.63-0.81-0.63H58.3z"></path> </g> <g> <path class="st0" d="M61.32,84.64h0.38v1.21h2.55v-1.21h0.38v2.83h-0.38v-1.3H61.7v1.3h-0.38V84.64z"></path> <path class="st0" d="M64.72,87.54h-0.53v-1.3h-2.4v1.3h-0.53v-2.98h0.53v1.21h2.4v-1.21h0.53V87.54z M64.33,87.39h0.23v-2.68 h-0.23v1.21h-2.71v-1.21H61.4v2.68h0.23v-1.3h2.71V87.39z"></path> </g> <g> <path class="st0" d="M66.76,84.64h0.48l1.68,2.83h-0.43l-0.35-0.6h-2.27l-0.35,0.6h-0.43L66.76,84.64z M67,84.95l-0.95,1.61 h1.9L67,84.95z"></path> <path class="st0" d="M69.05,87.54h-0.61l-0.35-0.6h-2.18l-0.35,0.6h-0.61l1.77-2.98h0.56l0.02,0.04L69.05,87.54z M68.52,87.39 h0.26l-1.59-2.68H66.8l-1.59,2.68h0.26l0.35-0.6h2.35L68.52,87.39z M68.08,86.63h-2.16L67,84.8L68.08,86.63z M66.18,86.48 h1.63L67,85.1L66.18,86.48z"></path> </g> <g> <path class="st0" d="M69.33,84.64h0.57l2.59,2.48v-2.48h0.38v2.83H72.3l-2.59-2.48v2.48h-0.38V84.64z"></path> <path class="st0" d="M72.95,87.54h-0.68l-0.02-0.02l-2.46-2.36v2.38h-0.53v-2.98h0.68l0.02,0.02l2.46,2.36v-2.38h0.53V87.54z M72.33,87.39h0.46v-2.68h-0.23v2.58l-2.7-2.58H69.4v2.68h0.23v-2.58L72.33,87.39z"></path> </g> <g> <path class="st0" d="M74.97,84.64h0.48l1.68,2.83h-0.43l-0.35-0.6h-2.27l-0.35,0.6h-0.43L74.97,84.64z M75.2,84.95l-0.95,1.61 h1.9L75.2,84.95z"></path> <path class="st0" d="M77.25,87.54h-0.61l-0.35-0.6h-2.18l-0.35,0.6h-0.61l1.77-2.98h0.56l0.02,0.04L77.25,87.54z M76.73,87.39 h0.26l-1.59-2.68h-0.39l-1.59,2.68h0.26l0.35-0.6h2.35L76.73,87.39z M76.29,86.63h-2.16l1.08-1.83L76.29,86.63z M74.39,86.48 h1.63L75.2,85.1L74.39,86.48z"></path> </g> <g> <path class="st0" d="M77.54,84.64h0.57l2.59,2.48v-2.48h0.38v2.83h-0.57l-2.59-2.48v2.48h-0.38V84.64z"></path> <path class="st0" d="M81.15,87.54h-0.68l-0.02-0.02l-2.46-2.36v2.38h-0.53v-2.98h0.68l0.02,0.02l2.46,2.36v-2.38h0.53V87.54z M80.54,87.39H81v-2.68h-0.23v2.58l-2.7-2.58h-0.46v2.68h0.23v-2.58L80.54,87.39z"></path> </g> <g> <path class="st0" d="M51.59,88.81h0.6l1.65,2.37l1.65-2.37h0.6v2.83h-0.38v-2.48H55.7l-1.72,2.48h-0.27l-1.72-2.48h-0.01v2.48 h-0.38V88.81z"></path> <path class="st0" d="M56.17,91.72h-0.53v-2.33l-1.62,2.33h-0.35l-1.62-2.33v2.33h-0.53v-2.98h0.71l1.61,2.31l1.61-2.31h0.71 V91.72z M55.79,91.57h0.23v-2.68h-0.48l-1.69,2.43l-1.69-2.43h-0.48v2.68h0.23v-2.48h0.11l0.03,0.03l1.7,2.45h0.2l1.72-2.48 h0.11l0.01,0.08V91.57z"></path> </g> <g> <path class="st0" d="M56.84,88.81h0.38v2.83h-0.38V88.81z"></path> <path class="st0" d="M57.3,91.72h-0.53v-2.98h0.53V91.72z M56.91,91.57h0.23v-2.68h-0.23V91.57z"></path> </g> <g> <path class="st0" d="M57.91,89.84c0-0.71,0.24-1.06,1.01-1.06h1.46c0.7,0,0.89,0.32,0.89,0.7v0.24h-0.34V89.6 c0-0.48-0.3-0.5-0.65-0.5h-1.33c-0.37,0-0.66,0.11-0.66,0.6v1.06c0,0.49,0.3,0.6,0.66,0.6h1.34c0.52,0,0.66-0.11,0.66-0.49 v-0.18h0.36v0.19c0,0.51-0.16,0.79-0.96,0.79h-1.45c-0.77,0-1.01-0.34-1.01-1.06V89.84z"></path> <path class="st0" d="M60.36,91.75h-1.45c-0.77,0-1.08-0.33-1.08-1.13v-0.77c0-0.81,0.31-1.13,1.08-1.13h1.46 c0.79,0,0.96,0.42,0.96,0.78v0.32h-0.49v-0.2c0-0.39-0.18-0.43-0.57-0.43h-1.33c-0.42,0-0.59,0.15-0.59,0.53v1.06 c0,0.37,0.17,0.53,0.59,0.53h1.34c0.5,0,0.59-0.1,0.59-0.42v-0.25h0.51v0.27C61.39,91.42,61.22,91.75,60.36,91.75z M58.92,88.86c-0.68,0-0.93,0.27-0.93,0.98v0.77c0,0.72,0.25,0.98,0.93,0.98h1.45c0.75,0,0.88-0.24,0.88-0.71v-0.12h-0.21v0.1 c0,0.48-0.25,0.57-0.74,0.57h-1.34c-0.18,0-0.74,0-0.74-0.68V89.7c0-0.68,0.56-0.68,0.74-0.68h1.33c0.31,0,0.72,0,0.72,0.58 v0.05h0.19v-0.17c0-0.27-0.08-0.63-0.81-0.63H58.92z"></path> </g> <g> <path class="st0" d="M61.94,88.81h0.38v1.21h2.55v-1.21h0.38v2.83h-0.38v-1.3h-2.55v1.3h-0.38V88.81z"></path> <path class="st0" d="M65.34,91.72H64.8v-1.3h-2.4v1.3h-0.53v-2.98h0.53v1.21h2.4v-1.21h0.53V91.72z M64.95,91.57h0.23v-2.68 h-0.23v1.21h-2.71v-1.21h-0.23v2.68h0.23v-1.3h2.71V91.57z"></path> </g> <g> <path class="st0" d="M66.03,88.81h0.38v2.83h-0.38V88.81z"></path> <path class="st0" d="M66.48,91.72h-0.53v-2.98h0.53V91.72z M66.1,91.57h0.23v-2.68H66.1V91.57z"></path> </g> <g> <path class="st0" d="M70.64,90.63c0,0.77-0.25,1.04-0.96,1.04H68.1c-0.77,0-1.01-0.34-1.01-1.06v-0.77 c0-0.71,0.24-1.06,1.01-1.06h1.45c0.51,0,1.05,0.12,1.05,0.78v0.1h-0.36c0-0.53-0.16-0.57-1.11-0.57h-0.99 c-0.37,0-0.66,0.11-0.66,0.6v1.06c0,0.49,0.3,0.6,0.66,0.6h1.5c0.38,0,0.62-0.13,0.62-0.52v-0.29h-1.45v-0.31h1.83V90.63z"></path> <path class="st0" d="M69.68,91.75H68.1c-0.77,0-1.08-0.33-1.08-1.13v-0.77c0-0.81,0.31-1.13,1.08-1.13h1.45 c0.75,0,1.13,0.29,1.13,0.85v0.18h-0.51v-0.08c0-0.44-0.06-0.49-1.03-0.49h-0.99c-0.42,0-0.59,0.15-0.59,0.53v1.06 c0,0.37,0.17,0.53,0.59,0.53h1.5c0.38,0,0.54-0.13,0.54-0.45v-0.21h-1.45v-0.46h1.98v0.47 C70.71,91.44,70.43,91.75,69.68,91.75z M68.1,88.86c-0.68,0-0.93,0.27-0.93,0.98v0.77c0,0.72,0.25,0.98,0.93,0.98h1.58 c0.67,0,0.88-0.23,0.88-0.97v-0.32h-1.68v0.16h1.45v0.36c0,0.4-0.23,0.6-0.69,0.6h-1.5c-0.18,0-0.74,0-0.74-0.68V89.7 c0-0.68,0.56-0.68,0.74-0.68h0.99c0.88,0,1.16,0.03,1.18,0.57h0.21v-0.03c0-0.48-0.31-0.7-0.98-0.7H68.1z"></path> </g> <g> <path class="st0" d="M72.68,88.81h0.48l1.68,2.83h-0.43l-0.35-0.6h-2.27l-0.35,0.6H71L72.68,88.81z M72.92,89.13l-0.95,1.61 h1.9L72.92,89.13z"></path> <path class="st0" d="M74.97,91.72h-0.61l-0.35-0.6h-2.18l-0.35,0.6h-0.61l1.77-2.98h0.56l0.02,0.04L74.97,91.72z M74.45,91.57 h0.26l-1.59-2.68h-0.39l-1.59,2.68h0.26l0.35-0.6h2.35L74.45,91.57z M74,90.81h-2.16l1.08-1.83L74,90.81z M72.1,90.66h1.63 l-0.82-1.38L72.1,90.66z"></path> </g> <g> <path class="st0" d="M75.25,88.81h0.57l2.59,2.48v-2.48h0.38v2.83h-0.57l-2.59-2.48v2.48h-0.38V88.81z"></path> <path class="st0" d="M78.87,91.72H78.2l-0.02-0.02l-2.46-2.36v2.38h-0.53v-2.98h0.68l0.02,0.02l2.46,2.36v-2.38h0.53V91.72z M78.26,91.57h0.46v-2.68h-0.23v2.58l-2.7-2.58h-0.46v2.68h0.23v-2.58L78.26,91.57z"></path> </g> </g> </g> </g> <g> <path class="st4" d="M65,43.79c21.85,0,39.56-5.35,39.56-11.96c0-6.61-17.71-11.96-39.56-11.96c-21.85,0-39.56,5.36-39.56,11.96 C25.44,38.44,43.15,43.79,65,43.79z"></path> <path class="st5" d="M64.93,43.13c20.67,0,37.43-5.06,37.43-11.3c0-6.24-16.76-11.3-37.43-11.3c-20.67,0-37.43,5.06-37.43,11.3 C27.49,38.07,44.25,43.13,64.93,43.13z"></path> <path class="st6" d="M64.93,41.99c17.91,0,32.42-4.55,32.42-10.16c0-5.61-14.52-10.16-32.42-10.16 c-17.91,0-32.43,4.55-32.43,10.16C32.5,37.44,47.02,41.99,64.93,41.99z"></path> <path class="st5" d="M41.95,24.49c-6.2,1.94-9.61,4.55-9.61,7.34c0,2.8,3.41,5.4,9.61,7.34c6.14,1.92,14.3,2.98,22.98,2.98 c8.68,0,16.84-1.06,22.98-2.98c6.2-1.94,9.61-4.55,9.61-7.34c0-2.79-3.41-5.4-9.61-7.34c-6.14-1.92-14.3-2.98-22.98-2.98 C56.25,21.5,48.09,22.56,41.95,24.49z M32.67,31.83c0-5.51,14.47-9.99,32.26-9.99c17.79,0,32.26,4.48,32.26,9.99 c0,5.51-14.47,9.99-32.26,9.99C47.14,41.82,32.67,37.34,32.67,31.83z"></path> <polygon class="st4" points="28.19,36.71 35.81,26.4 55.78,26.4 53.17,30.33 42.86,30.33 41.81,31.76 50.94,31.76 49.84,33.61 40.71,33.61 38.49,36.71 "></polygon> <path class="st4" d="M55.78,25.68H35.44l-8.69,11.75h12.11c0,0,1.87-2.61,2.22-3.1c0.68,0,9.16,0,9.16,0s1.93-3.24,1.95-3.27 c0.17,0,1.36,0,1.36,0l3.56-5.38H55.78z M54.43,27.13c-0.67,1.01-1.4,2.11-1.65,2.48c-0.72,0-10.28,0-10.28,0l-2.12,2.87 c0,0,7.4,0,9.28,0c-0.12,0.19-0.16,0.27-0.24,0.4c-0.75,0-9.09,0-9.09,0s-1.87,2.61-2.22,3.1c-0.59,0-6.46,0-8.5,0 c1.3-1.76,6.19-8.37,6.55-8.86C36.83,27.13,52.13,27.13,54.43,27.13z"></path> <polygon class="st4" points="42.46,36.71 45.15,34.35 49.66,34.35 65.33,23.99 71.02,23.99 69.52,28.87 77.25,23.99 82.4,23.99 78.57,33.17 83.69,26.4 102.05,26.4 99.73,30.33 90.06,30.33 89.08,31.73 98.03,31.73 96.73,33.6 87.88,33.6 85.62,36.71 69.09,36.71 69.95,33.27 64.69,36.71 56.74,36.71 57.49,32.84 51.48,36.71 "></polygon> <path class="st4" d="M82.4,23.26h-5.36c0,0-4.21,2.66-6.25,3.95c0.44-1.43,1.22-3.95,1.22-3.95h-6.89 c0,0-15.32,10.13-15.67,10.36c-0.39,0-4.56,0-4.56,0l-4.33,3.81h11.15c0,0,3.11-2,4.77-3.07c-0.21,1.08-0.59,3.07-0.59,3.07h9.04 c0,0,2.35-1.54,3.9-2.54c-0.2,0.82-0.64,2.54-0.64,2.54h17.83c0,0,1.9-2.62,2.25-3.11c0.68,0,8.87,0,8.87,0s2.2-3.16,2.27-3.26 c0.03,0,0.76,0,0.76,0l3.17-5.38H83.33c0,0-1.16,1.53-1.9,2.51c0.8-1.92,2.06-4.93,2.06-4.93H82.4z M81.32,24.71 c-0.66,1.59-3.42,8.18-3.42,8.18l1.24,0.72c0,0,4.51-5.95,4.91-6.48c0.64,0,14.58,0,16.73,0c-0.59,1-1.22,2.07-1.47,2.48 c-0.76,0-9.64,0-9.64,0l-1.99,2.84c0,0,6.98,0,8.96,0c-0.14,0.2-0.21,0.31-0.3,0.43c-0.69,0-8.85,0-8.85,0s-1.9,2.63-2.25,3.11 c-0.66,0-13.62,0-15.24,0c0.24-0.98,1.08-4.33,1.08-4.33s-6.29,4.11-6.62,4.33c-0.36,0-5.51,0-6.85,0 c0.2-1.04,0.91-4.67,0.91-4.67s-6.92,4.45-7.26,4.67c-0.32,0-4.58,0-6.89,0c0.52-0.45,0.89-0.78,1.04-0.92c0.48,0,4.45,0,4.45,0 s15.32-10.13,15.67-10.36c0.33,0,3.21,0,4.5,0c-0.38,1.22-1.79,5.82-1.79,5.82s8.86-5.61,9.2-5.82 C77.76,24.71,80.03,24.71,81.32,24.71z"></path> <polygon class="st5" points="28.19,36.5 35.81,26.19 55.78,26.19 53.17,30.12 42.86,30.12 41.81,31.55 50.94,31.55 49.84,33.39 40.71,33.39 38.49,36.5 "></polygon> <polygon class="st5" points="42.46,36.5 45.15,34.14 49.66,34.14 65.33,23.78 71.02,23.78 69.52,28.66 77.25,23.78 82.4,23.78 78.57,32.96 83.69,26.19 102.05,26.19 99.73,30.12 90.06,30.12 89.08,31.52 98.03,31.52 96.73,33.39 87.88,33.39 85.62,36.5 69.09,36.5 69.95,33.06 64.69,36.5 56.74,36.5 57.49,32.63 51.48,36.5 "></polygon> <path class="st7" d="M90.3,35.47c0.54,0,0.97,0.07,1.26,0.19c0.28,0.12,0.37,0.27,0.24,0.46c-0.11,0.17-0.42,0.32-0.87,0.44 c-0.47,0.12-1,0.18-1.51,0.18c-0.51,0-0.96-0.07-1.25-0.19c-0.28-0.12-0.37-0.28-0.26-0.45c0.11-0.17,0.44-0.33,0.9-0.45 C89.27,35.53,89.78,35.47,90.3,35.47z M90.38,35.35c-0.84,0-1.66,0.13-2.23,0.37c-0.32,0.13-0.51,0.26-0.61,0.4 c-0.13,0.2-0.03,0.39,0.31,0.53c0.35,0.15,0.88,0.23,1.5,0.23c0.6,0,1.25-0.08,1.8-0.22c0.54-0.14,0.91-0.33,1.05-0.54 c0.14-0.2,0.03-0.39-0.3-0.54C91.55,35.43,91.02,35.35,90.38,35.35z M89.2,35.67l-0.57,0.85h0.63l0.24-0.35h0.31l0.26,0.35h0.7 l-0.32-0.38c0.37-0.03,0.64-0.11,0.72-0.22c0.11-0.16-0.2-0.25-0.94-0.25H89.2z M89.74,35.8h0.28c0.38,0,0.54,0.04,0.48,0.12 c-0.06,0.08-0.25,0.12-0.61,0.12h-0.31L89.74,35.8z"></path> <g> <path class="st4" d="M54.11,39.81v0.13c0,0.11,0.08,0.2,0.39,0.2c0.23,0,0.33-0.09,0.33-0.18c0-0.16-0.29-0.21-0.55-0.29 c-0.3-0.08-0.56-0.15-0.75-0.24c-0.18-0.1-0.29-0.21-0.29-0.37c0-0.35,0.48-0.52,1.24-0.52c0.86,0,1.3,0.25,1.25,0.6l-0.91-0.01 c-0.01-0.11,0-0.26-0.32-0.27c-0.2-0.01-0.32,0.04-0.34,0.12c-0.03,0.11,0.1,0.17,0.3,0.23c0.37,0.11,0.69,0.17,0.92,0.26 c0.23,0.09,0.36,0.22,0.36,0.44c0,0.36-0.45,0.55-1.27,0.55c-0.9,0-1.28-0.23-1.28-0.47v-0.2L54.11,39.81z"></path> <path class="st4" d="M58.81,39.86c0,0.42-0.33,0.63-1.33,0.63c-1,0-1.35-0.22-1.35-0.64V39.1c0-0.35,0.48-0.55,1.35-0.55 c0.86,0,1.33,0.2,1.33,0.55L58.81,39.86z M57.83,39.13c0-0.11-0.02-0.25-0.35-0.25c-0.32,0-0.36,0.14-0.36,0.25v0.76 c0,0.11,0.04,0.27,0.36,0.27c0.32,0,0.34-0.16,0.34-0.26L57.83,39.13z"></path> <path class="st4" d="M59.49,40.45v-0.42l0.95,0v0.42L59.49,40.45z"></path> <path class="st4" d="M64.2,39.26v-0.12c0-0.16-0.13-0.24-0.31-0.24c-0.31,0-0.38,0.07-0.38,0.19l-0.01,0.91 c0,0.1,0.1,0.17,0.35,0.17c0.33,0,0.36-0.15,0.36-0.27v-0.16l0.99,0v0.23c0,0.32-0.42,0.54-1.43,0.54 c-0.91,0-1.26-0.22-1.26-0.59v-0.76c0-0.4,0.42-0.59,1.32-0.58c0.84,0,1.35,0.16,1.35,0.54v0.15L64.2,39.26z"></path> <path class="st4" d="M65.47,40.46l0.92-1.84l1.19,0l0.91,1.85l-1,0l-0.14-0.36l-0.78,0l-0.12,0.36L65.47,40.46z M66.99,38.96 h-0.01l-0.29,0.82l0.57,0L66.99,38.96z"></path> <path class="st4" d="M68.75,40.48l0-1.84l0.99,0l0,1.47l1.21,0v0.37L68.75,40.48z"></path> <path class="st4" d="M71.32,40.48l0-1.84h0.98v1.85L71.32,40.48z"></path> <path class="st4" d="M72.86,40.49l0-1.85l2.32,0.01l0,0.37l-1.34-0.01v0.33l1.23,0v0.37l-1.23,0v0.78L72.86,40.49z"></path> <path class="st4" d="M75.85,40.5v-0.42l0.95,0l0,0.42L75.85,40.5z"></path> </g> </g> </g> <g> <g> <path class="st8" d="M111.83,107.02l0,0.02v1.69v0.03l-5.06-2.09c-0.19-0.08-0.73-0.32-1.04-0.32c-0.31,0-0.82,0-0.82,0v3.32 h0.86v-2.48l5.14,2.17c0.18,0.08,0.66,0.29,1.01,0.29c0.21,0,0.81,0,0.81,0v-3.3l-0.22-0.01 C112.05,106.33,111.83,106.56,111.83,107.02z"></path> <rect x="78.12" y="106.35" class="st8" width="0.88" height="3.31"></rect> <path class="st8" d="M86.53,107.02l0,0.02v1.69v0.03l-5.06-2.09c-0.19-0.08-0.73-0.32-1.04-0.32c-0.31,0-0.82,0-0.82,0v3.32h0.86 v-2.48l5.14,2.17c0.18,0.08,0.66,0.29,1.01,0.29c0.21,0,0.81,0,0.81,0v-3.3l-0.22-0.01C86.75,106.33,86.53,106.56,86.53,107.02z"></path> <path class="st8" d="M97.33,108.59v-0.22l6.96,0v-0.82l-6.96,0l0-0.13c0.03-0.1,0.09-0.18,0.17-0.25l6.79,0l0-0.81l-7.17,0 c-0.45,0-0.68,0.23-0.68,0.7l0,1.8c0,0.54,0.22,0.81,0.68,0.8l7.17,0v-0.91l-6.84,0L97.33,108.59z"></path> <path class="st8" d="M120.38,107.54l-6.19,0l0-0.13c0.03-0.09,0.09-0.18,0.17-0.25l6.79,0v-0.81l-7.17,0 c-0.45,0-0.68,0.23-0.68,0.69l0,0.92c0,0.26,0.2,0.39,0.61,0.39l6.36,0c-0.03,0.21-0.07,0.34-0.13,0.38l-6.84,0l0,0.91l7.17,0 c0.45,0,0.68-0.27,0.68-0.81l0-0.65C121.15,107.76,120.89,107.54,120.38,107.54z"></path> <path class="st8" d="M129.58,109.65l0-0.91l-6.84,0l-0.13-0.16l0-0.22l6.96,0v-0.82l-6.96,0l0-0.13c0.03-0.1,0.09-0.18,0.17-0.25 l6.79,0v-0.81l-7.17,0c-0.45,0-0.68,0.23-0.68,0.69l0,1.8c0,0.54,0.22,0.8,0.68,0.8L129.58,109.65z"></path> <polygon class="st8" points="95.86,107.17 95.86,106.36 88.02,106.36 88.02,107.17 91.47,107.17 91.47,109.66 92.36,109.66 92.36,107.17 "></polygon> </g> <g> <g> <g> <g> <g> <path class="st0" d="M92.95,103.02h1.19c0.26,0,0.41,0.06,0.41,0.39c0,0.32-0.03,0.48-0.45,0.48h-0.96v0.57h-0.2V103.02z M94.36,103.4c0-0.17-0.09-0.21-0.26-0.21h-0.95v0.56h0.97c0.16,0,0.25-0.06,0.25-0.21V103.4z"></path> <path class="st0" d="M93.2,104.52h-0.3v-1.55h1.24c0.29,0,0.47,0.07,0.47,0.45c0,0.33-0.03,0.54-0.5,0.54H93.2V104.52z M93.01,104.42h0.09v-0.57h1.01c0.38,0,0.4-0.12,0.4-0.43c0-0.29-0.11-0.34-0.36-0.34h-1.14V104.42z M94.12,103.79H93.1 v-0.66h1c0.15,0,0.32,0.03,0.32,0.27v0.14C94.42,103.65,94.36,103.79,94.12,103.79z M93.2,103.69h0.91 c0.17,0,0.2-0.07,0.2-0.15v-0.14c0-0.12-0.05-0.16-0.21-0.16h-0.9V103.69z"></path> </g> <g> <path class="st0" d="M94.82,103.02h1.16c0.42,0,0.48,0.14,0.48,0.41v0.12c0,0.2-0.12,0.26-0.27,0.27v0 c0.2,0.04,0.25,0.14,0.25,0.27v0.37h-0.18v-0.32c0-0.23-0.11-0.25-0.29-0.25h-0.96v0.57h-0.2V103.02z M95.96,103.74 c0.22,0,0.31-0.06,0.31-0.21v-0.13c0-0.16-0.07-0.21-0.36-0.21h-0.89v0.56H95.96z"></path> <path class="st0" d="M96.5,104.52h-0.29v-0.37c0-0.18-0.07-0.2-0.24-0.2h-0.9v0.57h-0.3v-1.55h1.21 c0.45,0,0.54,0.16,0.54,0.46v0.12c0,0.16-0.07,0.24-0.15,0.28c0.09,0.05,0.13,0.14,0.13,0.27V104.52z M96.31,104.42h0.08 v-0.32c0-0.11-0.03-0.19-0.21-0.22l-0.01,0c0.08,0.04,0.14,0.11,0.14,0.27V104.42z M94.87,104.42h0.09v-0.57h1.01 c0.06,0,0.12,0,0.17,0.02v-0.08l0.05-0.01c0.16-0.02,0.22-0.08,0.22-0.22v-0.12c0-0.24-0.04-0.36-0.43-0.36h-1.11V104.42z M95.96,103.79h-0.99v-0.66h0.94c0.27,0,0.41,0.04,0.41,0.27v0.13C96.32,103.76,96.12,103.79,95.96,103.79z M95.07,103.69 h0.89c0.24,0,0.26-0.07,0.26-0.16v-0.13c0-0.11-0.01-0.16-0.31-0.16h-0.84V103.69z"></path> </g> <g> <path class="st0" d="M96.81,103.02h1.42v0.16H97v0.46h1.18v0.16H97v0.51h1.23v0.16h-1.43V103.02z"></path> <path class="st0" d="M98.29,104.52h-1.53v-1.55h1.52v0.26h-1.23v0.36h1.18v0.26h-1.18v0.4h1.23V104.52z M96.86,104.42h1.33 v-0.06h-1.23v-0.61h1.18v-0.06h-1.18v-0.56h1.23v-0.06h-1.32V104.42z"></path> </g> <g> <path class="st0" d="M98.5,104.01h0.18v0.1c0,0.14,0.08,0.21,0.32,0.21h0.61c0.28,0,0.37-0.06,0.37-0.27 c0-0.18-0.07-0.23-0.32-0.23h-0.37c-0.6,0-0.79-0.04-0.79-0.42c0-0.33,0.2-0.4,0.6-0.4h0.42c0.49,0,0.61,0.12,0.61,0.38v0.05 h-0.18c0-0.23-0.03-0.27-0.54-0.27h-0.21c-0.38,0-0.51,0.02-0.51,0.26c0,0.17,0.05,0.23,0.36,0.23h0.58 c0.38,0,0.54,0.11,0.54,0.36v0.09c0,0.36-0.29,0.38-0.58,0.38h-0.54c-0.29,0-0.54-0.05-0.54-0.37V104.01z"></path> <path class="st0" d="M99.58,104.54h-0.54c-0.18,0-0.59,0-0.59-0.42v-0.16h0.29v0.15c0,0.09,0.02,0.16,0.27,0.16h0.61 c0.29,0,0.32-0.06,0.32-0.22c0-0.13-0.02-0.18-0.26-0.18h-0.37c-0.55,0-0.84-0.02-0.84-0.47c0-0.38,0.25-0.46,0.65-0.46h0.42 c0.48,0,0.66,0.12,0.66,0.43v0.1h-0.29l0-0.05c0-0.19,0-0.22-0.49-0.22h-0.21c-0.4,0-0.46,0.03-0.46,0.21 c0,0.12,0,0.18,0.31,0.18h0.58c0.25,0,0.59,0.04,0.59,0.41v0.09C100.21,104.54,99.82,104.54,99.58,104.54z M98.55,104.06 v0.05c0,0.23,0.14,0.31,0.49,0.31h0.54c0.34,0,0.53-0.05,0.53-0.33v-0.09c0-0.16-0.06-0.3-0.49-0.3h-0.58 c-0.31,0-0.41-0.07-0.41-0.28c0-0.29,0.2-0.31,0.56-0.31h0.21c0.48,0,0.58,0.04,0.59,0.27h0.08c0-0.19-0.04-0.33-0.56-0.33 H99.1c-0.42,0-0.55,0.08-0.55,0.35c0,0.32,0.1,0.37,0.74,0.37h0.37c0.24,0,0.37,0.04,0.37,0.28c0,0.27-0.15,0.32-0.42,0.32 H99c-0.18,0-0.37-0.03-0.37-0.26v-0.05H98.55z"></path> </g> <g> <path class="st0" d="M100.51,103.02h1.42v0.16h-1.23v0.46h1.18v0.16h-1.18v0.51h1.23v0.16h-1.43V103.02z"></path> <path class="st0" d="M101.99,104.52h-1.53v-1.55h1.52v0.26h-1.23v0.36h1.18v0.26h-1.18v0.4h1.23V104.52z M100.56,104.42h1.33 v-0.06h-1.23v-0.61h1.18v-0.06h-1.18v-0.56h1.23v-0.06h-1.32V104.42z"></path> </g> <g> <path class="st0" d="M102.22,103.02h0.29l1.33,1.27v-1.27h0.2v1.45h-0.29l-1.33-1.27v1.27h-0.2V103.02z"></path> <path class="st0" d="M104.09,104.52h-0.36l-0.02-0.01l-1.24-1.19v1.2h-0.3v-1.55h0.36l0.02,0.01l1.24,1.19v-1.2h0.3V104.52z M103.76,104.42h0.22v-1.34h-0.09v1.34l-1.4-1.34h-0.22v1.34h0.09v-1.34L103.76,104.42z"></path> </g> <g> <path class="st0" d="M104.98,103.18h-0.73v-0.16h1.66v0.16h-0.73v1.29h-0.2V103.18z"></path> <path class="st0" d="M105.23,104.52h-0.3v-1.29h-0.73v-0.26h1.76v0.26h-0.73V104.52z M105.03,104.42h0.09v-1.29h0.73v-0.06 h-1.56v0.06h0.73V104.42z"></path> </g> <g> <path class="st0" d="M106.14,103.02h1.42v0.16h-1.23v0.46h1.18v0.16h-1.18v0.51h1.23v0.16h-1.43V103.02z"></path> <path class="st0" d="M107.62,104.52h-1.53v-1.55h1.52v0.26h-1.23v0.36h1.18v0.26h-1.18v0.4h1.23V104.52z M106.19,104.42h1.33 v-0.06h-1.23v-0.61h1.18v-0.06h-1.18v-0.56h1.23v-0.06h-1.32V104.42z"></path> </g> <g> <path class="st0" d="M107.85,103.02h1.17c0.49,0,0.62,0.15,0.62,0.72c0,0.53-0.13,0.72-0.62,0.72h-1.16V103.02z M109.44,103.68c0-0.42-0.13-0.49-0.37-0.49h-1.03v1.13h0.99c0.24,0,0.4-0.05,0.4-0.49V103.68z"></path> <path class="st0" d="M109.02,104.52h-1.22v-1.55h1.22c0.52,0,0.67,0.17,0.67,0.78C109.69,104.32,109.52,104.52,109.02,104.52 z M107.9,104.42h1.11c0.44,0,0.57-0.15,0.57-0.67c0-0.54-0.11-0.67-0.57-0.67h-1.12V104.42z M109.04,104.36H108v-1.23h1.08 c0.26,0,0.42,0.09,0.42,0.55v0.15C109.5,104.27,109.32,104.36,109.04,104.36z M108.1,104.26h0.94c0.21,0,0.35-0.03,0.35-0.43 v-0.15c0-0.41-0.13-0.44-0.32-0.44h-0.97V104.26z"></path> </g> <g> <path class="st0" d="M110.95,103.02h1.24c0.3,0,0.38,0.16,0.38,0.32v0.12c0,0.1-0.06,0.21-0.23,0.23v0.01 c0.15,0.01,0.29,0.07,0.29,0.29v0.17c0,0.2-0.18,0.31-0.42,0.31h-1.26V103.02z M112.37,103.33c0-0.13-0.15-0.15-0.21-0.15 h-1.02v0.46h1.01c0.11,0,0.22-0.03,0.22-0.18V103.33z M112.43,104.01c0-0.18-0.1-0.21-0.28-0.21h-1.01v0.51h1.04 c0.18,0,0.25-0.07,0.25-0.19V104.01z"></path> <path class="st0" d="M112.21,104.52h-1.31v-1.55h1.29c0.38,0,0.44,0.23,0.44,0.37v0.12c0,0.1-0.04,0.17-0.11,0.22 c0.11,0.05,0.17,0.15,0.17,0.3v0.17C112.68,104.38,112.49,104.52,112.21,104.52z M111,104.42h1.2c0.18,0,0.37-0.07,0.37-0.26 v-0.17c0-0.16-0.07-0.23-0.24-0.23l-0.05,0v-0.08c-0.04,0.01-0.08,0.02-0.13,0.02h-1.06v-0.56h1.07 c0.13,0,0.26,0.06,0.26,0.2v0.13c0,0.08-0.03,0.14-0.08,0.18c0.14-0.02,0.17-0.11,0.17-0.17v-0.12 c0-0.18-0.11-0.27-0.33-0.27H111V104.42z M111.2,103.59h0.96c0.15,0,0.16-0.07,0.16-0.13v-0.13c0-0.1-0.13-0.1-0.15-0.1 h-0.97V103.59z M112.18,104.36h-1.09v-0.61h1.06c0.16,0,0.33,0.02,0.33,0.26v0.1C112.48,104.28,112.38,104.36,112.18,104.36z M111.2,104.26h0.98c0.18,0,0.2-0.07,0.2-0.14v-0.1c0-0.13-0.04-0.16-0.23-0.16h-0.95V104.26z"></path> </g> <g> <path class="st0" d="M113.65,103.86l-0.83-0.84h0.26l0.66,0.67l0.66-0.67h0.26l-0.83,0.84v0.61h-0.2V103.86z"></path> <path class="st0" d="M113.9,104.52h-0.3v-0.64l-0.9-0.91h0.41l0.64,0.65l0.64-0.65h0.41l-0.9,0.91V104.52z M113.7,104.42 h0.09v-0.58l0.02-0.02l0.74-0.75h-0.12l-0.68,0.69l-0.69-0.69h-0.12l0.76,0.76V104.42z"></path> </g> </g> </g> </g> </g> </g> </g> </svg> 