<?xml version="1.0" encoding="UTF-8"?> <svg xmlns="http://www.w3.org/2000/svg" xmlns:xlink="http://www.w3.org/1999/xlink" version="1.1" id="Layer_1" x="0px" y="0px" viewBox="0 0 130 120" style="enable-background:new 0 0 130 120;" xml:space="preserve"> <style type="text/css"> .st0{fill:#002554;} .st1{fill:#FFFFFF;} .st2{fill:#E31837;} .st3{fill-rule:evenodd;clip-rule:evenodd;fill:#FFFFFF;} .st4{fill:#000008;} </style> <g> <g> <g> <g> <g> <g> <path class="st0" d="M65,109.5c-1.7,0-3.4-0.4-4.7-1.1L22.9,87.5c-2.6-1.4-4.8-4.6-5.4-7.4l-0.3-1.8L0.4,73.6V47.5h11 L9.1,34.8c-0.6-2.9,0.5-6.7,2.5-8.9l10.5-11.7c1.9-2.1,5.4-3.7,8.3-3.7h69.2c2.9,0,6.4,1.6,8.3,3.7l10.5,11.7 c2,2.2,3.1,6,2.5,8.9l-2.4,12.7h11v26.1l-16.8,4.7l-0.3,1.8c-0.5,2.9-2.8,6-5.4,7.4l-37.3,20.8 C68.4,109.1,66.7,109.5,65,109.5z"></path> </g> <polygon class="st0" points="111.4,72.7 128.4,72.7 128.4,72.7 111.4,77.4 "></polygon> <polygon class="st0" points="18.6,72.7 1.6,72.7 1.6,72.7 18.6,77.4 "></polygon> <g> <path class="st1" d="M111.2,79.9c-0.5,2.5-2.5,5.4-4.8,6.6l-37.3,20.8c-1.1,0.6-2.6,1-4.1,1c-1.5,0-3-0.3-4.1-1L23.5,86.5 c-2.2-1.2-4.3-4.1-4.8-6.6l-0.9-5l-6.2-33.1l-1.3-7.2c-0.5-2.6,0.5-5.9,2.2-7.9L23,15c1.7-1.9,4.9-3.3,7.4-3.3h69.2 c2.5,0,5.7,1.4,7.4,3.3l10.5,11.7c1.7,1.9,2.7,5.3,2.2,7.9l-1.3,7.2L111.2,79.9z"></path> <path class="st0" d="M65,109.7c-1.8,0-3.5-0.4-4.8-1.2L22.9,87.7c-2.6-1.4-4.9-4.6-5.4-7.6L8.9,34.9c-0.6-3,0.5-6.8,2.5-9.1 L22,14.1c2-2.2,5.5-3.8,8.4-3.8h69.2c2.9,0,6.5,1.6,8.4,3.8l10.5,11.7c2,2.3,3.1,6.1,2.5,9.1l-8.5,45.3 c-0.6,2.9-2.8,6.1-5.5,7.6l-37.3,20.8C68.5,109.2,66.8,109.7,65,109.7z M30.4,13.1c-2.1,0-4.9,1.2-6.4,2.8L13.5,27.7 c-1.5,1.6-2.3,4.6-1.9,6.7l8.5,45.3c0.4,2.1,2.2,4.6,4.1,5.6l37.3,20.8c1.9,1,5,1,6.9,0l37.3-20.8c1.9-1,3.7-3.5,4.1-5.6 l8.5-45.3c0.4-2.1-0.4-5.1-1.9-6.7L105.9,16c-1.4-1.6-4.2-2.8-6.4-2.8H30.4z"></path> </g> <path class="st1" d="M111.2,79.9c-0.5,2.5-2.5,5.4-4.8,6.6l-37.3,20.8c-1.1,0.6-2.6,1-4.1,1c-1.5,0-3-0.3-4.1-1L23.5,86.5 c-2.2-1.2-4.3-4.1-4.8-6.6l-0.9-5l-6.2-33.1l-1.3-7.2c-0.5-2.6,0.5-5.9,2.2-7.9L23,15c1.7-1.9,4.9-3.3,7.4-3.3h69.2 c2.5,0,5.7,1.4,7.4,3.3l10.5,11.7c1.7,1.9,2.7,5.3,2.2,7.9l-1.3,7.2L111.2,79.9z"></path> <g> <path class="st2" d="M21.5,79.4c0.3,1.7,1.9,3.9,3.4,4.7l37.3,20.8c1.5,0.9,4.1,0.9,5.6,0l37.3-20.8c1.5-0.9,3.1-3,3.4-4.7 l1.3-7.2H20.1L21.5,79.4z"></path> <path class="st0" d="M117,34.1c0.3-1.7-0.4-4.2-1.6-5.6L105,16.9c-1.2-1.3-3.6-2.4-5.4-2.4H30.4c-1.8,0-4.2,1.1-5.4,2.4 L14.5,28.5c-1.2,1.3-1.9,3.8-1.6,5.6l2.8,15.1h98.4L117,34.1z"></path> </g> <path class="st1" d="M128.4,72.7H1.6v-24h126.7V72.7z"></path> <rect x="1.6" y="72.7" class="st0" width="126.7" height="1.2"></rect> <rect x="1.6" y="47.5" class="st0" width="126.7" height="1.2"></rect> <g> <path class="st0" d="M23.7,67.6l0.9-3.4H29v-2.1h-3.1c-1,0-1.8-1-1.8-2.4v-3.6c0-1.4,0.7-2.4,1.8-2.4h6.2l-0.9,3.4h-4.1v2.1h3 c1,0,1.8,1,1.8,2.4v3.6c0,1.4-0.7,2.4-1.8,2.4H23.7z"></path> <path class="st0" d="M39.8,53.8c1,0,1.8,1,1.8,2.4v9c0,1.4-0.7,2.4-1.8,2.4h-5.2c-1,0-1.8-1-1.8-2.4v-9c0-1.4,0.7-2.4,1.8-2.4 H39.8z M38.5,64.2v-7h-2.6v7H38.5z"></path> <path class="st0" d="M42.4,53.8h3v10.4h2.5V53.8h3v13.8h-7.1c-0.8,0-1.5-0.8-1.5-2V53.8z"></path> <path class="st0" d="M54.3,57.2h-3.1l0.9-3.4h8v3.4h-2.7v10.4h-3V57.2z"></path> <path class="st0" d="M60.7,53.8h3V59h2.6v-5.2h3v13.8h-3v-5.2h-2.6v5.2h-3V53.8z"></path> <path class="st0" d="M70.3,53.8h3v10.4h2.3V53.8h3v10.4H81V53.8h3v13.8H72c-1,0-1.8-1-1.8-2.4V53.8z"></path> <path class="st0" d="M85.1,53.8h3v13.8h-3V53.8z"></path> <path class="st0" d="M96.5,53.8l-0.9,3.4H92v7h4.5l-0.9,3.4h-4.9c-1,0-1.8-1-1.8-2.4v-9c0-1.4,0.7-2.4,1.8-2.4H96.5z"></path> <path class="st0" d="M100.2,67.6h-3V53.8h3V59h1.2l1.3-5.2h3.5l-1.6,5.2c-0.3,0.8-0.6,1.2-1.1,1.4c0.5,0.1,0.8,0.5,1.1,1.3 l1.7,5.9h-3.6l-1.4-5.2h-1.2V67.6z"></path> </g> </g> </g> </g> <g> <polyline class="st3" points="65,93.4 66.2,97 70.2,97 66.9,99.3 68.1,103 65,100.8 61.9,103 63,99.3 60,97.1 63.8,97 65,93.4 "></polyline> <g> <g> <path class="st1" d="M31.1,76.8h2.2l2.7,3.4h0v-3.4h1.4v4.6h-2.2L32.6,78h0v3.4h-1.4V76.8z"></path> <path class="st1" d="M43.4,76.8h1.8l2.5,4.6h-1.6l-0.4-0.8h-2.9l-0.4,0.8h-1.6L43.4,76.8z M43.4,79.6h1.8l-0.9-1.7L43.4,79.6z"></path> <path class="st1" d="M50.4,76.8h5.4v1.2h-2v3.5h-1.4v-3.5h-2V76.8z"></path> <path class="st1" d="M59.5,76.8h1.4v4.6h-1.4V76.8z"></path> <path class="st1" d="M64.8,78.4c0-1.4,0.8-1.7,2-1.7h2.3c1.3,0,2,0.3,2,1.7v1.4c0,1.4-0.8,1.7-2,1.7h-2.3c-1.3,0-2-0.3-2-1.7 V78.4z M66.2,79.3c0,0.7,0.1,0.9,0.8,0.9h1.8c0.7,0,0.8-0.3,0.8-0.9v-0.5c0-0.6-0.1-0.9-0.9-0.9h-1.7c-0.7,0-0.9,0.4-0.9,0.9 V79.3z"></path> <path class="st1" d="M74.9,76.8h2.2l2.7,3.4h0v-3.4h1.4v4.6H79L76.3,78h0v3.4h-1.4V76.8z"></path> <path class="st1" d="M87.2,76.8H89l2.5,4.6H90l-0.4-0.8h-2.9l-0.4,0.8h-1.6L87.2,76.8z M87.2,79.6H89l-0.9-1.7L87.2,79.6z"></path> <path class="st1" d="M95,76.8h1.4v3.4h3.2v1.2H95V76.8z"></path> </g> </g> <g> <g> <path class="st0" d="M48.6,85.7H49v0.2c0,0.3,0.1,0.4,0.6,0.4h1.2c0.6,0,0.7-0.1,0.7-0.5c0-0.4-0.1-0.4-0.6-0.4h-0.7 c-1.2,0-1.6-0.1-1.6-0.8c0-0.6,0.4-0.8,1.2-0.8h0.8c0.9,0,1.2,0.2,1.2,0.7v0.1h-0.4c0-0.4-0.1-0.5-1.1-0.5h-0.4 c-0.7,0-1,0-1,0.5c0,0.3,0.1,0.4,0.7,0.4h1.1c0.7,0,1.1,0.2,1.1,0.7v0.2c0,0.7-0.6,0.7-1.1,0.7h-1.1c-0.6,0-1.1-0.1-1.1-0.7 V85.7z"></path> <path class="st0" d="M50.7,86.7h-1.1c-0.6,0-1.1-0.1-1.1-0.8v-0.3H49v0.3c0,0.2,0,0.3,0.5,0.3h1.2c0.6,0,0.6-0.1,0.6-0.4 c0-0.3-0.1-0.4-0.5-0.4h-0.7c-1.1,0-1.6,0-1.6-0.9c0-0.7,0.5-0.9,1.2-0.9h0.8c0.9,0,1.3,0.2,1.3,0.8v0.2h-0.5l0-0.1 c0-0.4,0-0.5-1-0.5h-0.4c-0.8,0-0.9,0.1-0.9,0.4c0,0.3,0,0.4,0.6,0.4h1.1c0.8,0,1.1,0.2,1.1,0.8v0.2 C51.9,86.7,51.2,86.7,50.7,86.7z M48.7,85.8v0.1c0,0.5,0.4,0.6,1,0.6h1.1c0.7,0,1.1-0.1,1.1-0.7v-0.2c0-0.3-0.1-0.6-1-0.6h-1.1 c-0.6,0-0.8-0.1-0.8-0.5c0-0.6,0.4-0.6,1.1-0.6h0.4c0.9,0,1.1,0.1,1.1,0.5h0.2v0c0-0.4-0.2-0.7-1.1-0.7h-0.8 c-0.8,0-1.1,0.2-1.1,0.7c0,0.7,0.3,0.7,1.5,0.7h0.7c0.5,0,0.7,0.1,0.7,0.5c0,0.5-0.3,0.6-0.8,0.6h-1.2c-0.5,0-0.7-0.1-0.7-0.5 v-0.1H48.7z"></path> </g> <g> <path class="st0" d="M52.4,84.8c0-0.7,0.2-1.1,1-1.1h1.6c0.8,0,1,0.3,1,1.1v0.8c0,0.7-0.2,1.1-1,1.1h-1.6c-0.8,0-1-0.3-1-1.1 V84.8z M55.7,84.7c0-0.5-0.3-0.6-0.7-0.6h-1.6c-0.4,0-0.7,0.1-0.7,0.6v1.1c0,0.5,0.3,0.6,0.7,0.6H55c0.4,0,0.7-0.1,0.7-0.6 V84.7z"></path> <path class="st0" d="M55.1,86.7h-1.6c-0.8,0-1.1-0.3-1.1-1.1v-0.8c0-0.8,0.3-1.1,1.1-1.1h1.6c0.8,0,1.1,0.3,1.1,1.1v0.8 C56.2,86.4,55.9,86.7,55.1,86.7z M53.5,83.8c-0.7,0-0.9,0.3-0.9,1v0.8c0,0.7,0.3,1,0.9,1h1.6c0.7,0,0.9-0.3,0.9-1v-0.8 c0-0.7-0.3-1-0.9-1H53.5z M55,86.4h-1.6c-0.2,0-0.7,0-0.7-0.7v-1.1c0-0.7,0.6-0.7,0.7-0.7H55c0.2,0,0.7,0,0.7,0.7v1.1 C55.8,86.4,55.2,86.4,55,86.4z M53.5,84.1c-0.4,0-0.6,0.2-0.6,0.5v1.1c0,0.4,0.2,0.5,0.6,0.5H55c0.4,0,0.6-0.2,0.6-0.5v-1.1 c0-0.4-0.2-0.5-0.6-0.5H53.5z"></path> </g> <g> <path class="st0" d="M56.8,83.8h0.4v2.1c0,0.3,0.1,0.4,0.6,0.4h1.3c0.5,0,0.6-0.2,0.6-0.4v-2.1h0.4v2.1c0,0.6-0.3,0.7-1,0.7 h-1.3c-0.7,0-1-0.2-1-0.7V83.8z"></path> <path class="st0" d="M59.1,86.7h-1.3c-0.7,0-1.1-0.1-1.1-0.8v-2.2h0.5v2.2c0,0.2,0,0.4,0.5,0.4h1.3c0.5,0,0.5-0.1,0.5-0.4v-2.2 h0.5v2.2C60.2,86.6,59.8,86.7,59.1,86.7z M56.8,83.8v2c0,0.5,0.2,0.7,0.9,0.7h1.3c0.7,0,0.9-0.2,0.9-0.7v-2h-0.2v2 c0,0.4-0.2,0.5-0.7,0.5h-1.3c-0.5,0-0.7-0.1-0.7-0.5v-2H56.8z"></path> </g> <g> <path class="st0" d="M62,84.1h-1.4v-0.3h3.2v0.3h-1.4v2.5H62V84.1z"></path> <path class="st0" d="M62.4,86.7h-0.5v-2.5h-1.4v-0.5h3.4v0.5h-1.4V86.7z M62,86.5h0.2V84h1.4v-0.2h-3.1V84H62V86.5z"></path> </g> <g> <path class="st0" d="M64.2,83.8h0.4V85h2.6v-1.2h0.4v2.8h-0.4v-1.3h-2.6v1.3h-0.4V83.8z"></path> <path class="st0" d="M67.6,86.7h-0.5v-1.3h-2.4v1.3h-0.5v-3h0.5v1.2h2.4v-1.2h0.5V86.7z M67.2,86.5h0.2v-2.7h-0.2v1.2h-2.7 v-1.2h-0.2v2.7h0.2v-1.3h2.7V86.5z"></path> </g> <g> <path class="st0" d="M67.9,83.8h0.4l1,2.5l1-2.5h0.5l1,2.5l1-2.5h0.4L72,86.6h-0.5l-1-2.5l-1,2.5h-0.5L67.9,83.8z"></path> <path class="st0" d="M72,86.7h-0.6l-0.9-2.4l-0.9,2.4H69l0,0l-1.2-2.9h0.5l0,0l0.9,2.3l0.9-2.3h0.6l0.9,2.4l0.9-2.4h0.5 L72,86.7z M71.5,86.5h0.4l1.1-2.7h-0.2l-1.1,2.6l-1-2.6h-0.4l-1,2.6l-1-2.6h-0.2l1.1,2.7h0.4l1-2.6L71.5,86.5z"></path> </g> <g> <path class="st0" d="M73.5,83.8h0.4v2.8h-0.4V83.8z"></path> <path class="st0" d="M74,86.7h-0.5v-3H74V86.7z M73.6,86.5h0.2v-2.7h-0.2V86.5z"></path> </g> <g> <path class="st0" d="M74.6,84.8c0-0.7,0.2-1.1,1-1.1h1.5c0.7,0,0.9,0.3,0.9,0.7v0.2h-0.3v-0.1c0-0.5-0.3-0.5-0.6-0.5h-1.3 c-0.4,0-0.7,0.1-0.7,0.6v1.1c0,0.5,0.3,0.6,0.7,0.6H77c0.5,0,0.7-0.1,0.7-0.5v-0.2H78v0.2c0,0.5-0.2,0.8-1,0.8h-1.4 c-0.8,0-1-0.3-1-1.1V84.8z"></path> <path class="st0" d="M77,86.7h-1.4c-0.8,0-1.1-0.3-1.1-1.1v-0.8c0-0.8,0.3-1.1,1.1-1.1h1.5c0.8,0,1,0.4,1,0.8v0.3h-0.5v-0.2 c0-0.4-0.2-0.4-0.6-0.4h-1.3c-0.4,0-0.6,0.2-0.6,0.5v1.1c0,0.4,0.2,0.5,0.6,0.5H77c0.5,0,0.6-0.1,0.6-0.4v-0.3h0.5v0.3 C78.1,86.4,77.9,86.7,77,86.7z M75.6,83.8c-0.7,0-0.9,0.3-0.9,1v0.8c0,0.7,0.3,1,0.9,1H77c0.7,0,0.9-0.2,0.9-0.7v-0.1h-0.2v0.1 c0,0.5-0.2,0.6-0.7,0.6h-1.3c-0.2,0-0.7,0-0.7-0.7v-1.1c0-0.7,0.6-0.7,0.7-0.7H77c0.3,0,0.7,0,0.7,0.6v0.1h0.2v-0.2 c0-0.3-0.1-0.6-0.8-0.6H75.6z"></path> </g> <g> <path class="st0" d="M78.6,83.8H79V85h0.5l1.8-1.2h0.6l0,0l-2,1.4l2.2,1.5l0,0h-0.7l-1.9-1.3H79v1.3h-0.4V83.8z"></path> <path class="st0" d="M82.1,86.7h-0.7l0,0l-1.9-1.3h-0.4v1.3h-0.5v-3h0.5v1.2h0.4l1.8-1.2h0.7l0.1,0.1l-0.1,0.1L80,85.1l2.2,1.4 L82.1,86.7L82.1,86.7z M81.4,86.5h0.4l-2.1-1.4l1.9-1.3h-0.4L79.5,85h-0.6v-1.2h-0.2v2.7h0.2v-1.3h0.5l0,0L81.4,86.5z"></path> </g> <g> <path class="st0" d="M40.1,87.9h0.6l1.7,2.4l1.7-2.4h0.6v2.8h-0.4v-2.5h0l-1.7,2.5h-0.3l-1.7-2.5h0v2.5h-0.4V87.9z"></path> <path class="st0" d="M44.7,90.8h-0.5v-2.3l-1.6,2.3h-0.4l-1.6-2.3v2.3h-0.5v-3h0.7l1.6,2.3l1.6-2.3h0.7V90.8z M44.3,90.7h0.2 V88h-0.5l-1.7,2.4L40.7,88h-0.5v2.7h0.2v-2.5h0.1l0,0l1.7,2.5h0.2l1.7-2.5h0.1l0,0.1V90.7z"></path> </g> <g> <path class="st0" d="M46.7,87.9h0.5l1.7,2.8h-0.4l-0.4-0.6h-2.3l-0.4,0.6h-0.4L46.7,87.9z M47,88.3L46,89.9h1.9L47,88.3z"></path> <path class="st0" d="M49,90.8h-0.6l-0.4-0.6h-2.2l-0.4,0.6h-0.6l1.8-3h0.6l0,0L49,90.8z M48.5,90.7h0.3L47.2,88h-0.4l-1.6,2.7 h0.3l0.4-0.6h2.4L48.5,90.7z M48.1,89.9h-2.2l1.1-1.8L48.1,89.9z M46.2,89.8h1.6L47,88.4L46.2,89.8z"></path> </g> <g> <path class="st0" d="M49.3,89.9h0.4v0.2c0,0.3,0.1,0.4,0.6,0.4h1.2c0.6,0,0.7-0.1,0.7-0.5c0-0.4-0.1-0.4-0.6-0.4h-0.7 c-1.2,0-1.6-0.1-1.6-0.8c0-0.6,0.4-0.8,1.2-0.8h0.8c0.9,0,1.2,0.2,1.2,0.7v0.1h-0.4c0-0.4-0.1-0.5-1.1-0.5h-0.4 c-0.7,0-1,0-1,0.5c0,0.3,0.1,0.4,0.7,0.4h1.1c0.7,0,1.1,0.2,1.1,0.7v0.2c0,0.7-0.6,0.7-1.1,0.7h-1.1c-0.6,0-1.1-0.1-1.1-0.7 V89.9z"></path> <path class="st0" d="M51.4,90.9h-1.1c-0.6,0-1.1-0.1-1.1-0.8v-0.3h0.5v0.3c0,0.2,0,0.3,0.5,0.3h1.2c0.6,0,0.6-0.1,0.6-0.4 c0-0.3-0.1-0.4-0.5-0.4h-0.7c-1.1,0-1.6,0-1.6-0.9c0-0.7,0.5-0.9,1.2-0.9h0.8c0.9,0,1.3,0.2,1.3,0.8v0.2H52l0-0.1 c0-0.4,0-0.5-1-0.5h-0.4c-0.8,0-0.9,0.1-0.9,0.4c0,0.3,0,0.4,0.6,0.4h1.1c0.8,0,1.1,0.2,1.1,0.8v0.2 C52.6,90.9,51.8,90.9,51.4,90.9z M49.3,90v0.1c0,0.5,0.4,0.6,1,0.6h1.1c0.7,0,1.1-0.1,1.1-0.7v-0.2c0-0.3-0.1-0.6-1-0.6h-1.1 c-0.6,0-0.8-0.1-0.8-0.5c0-0.6,0.4-0.6,1.1-0.6H51c0.9,0,1.1,0.1,1.1,0.5h0.2v0c0-0.4-0.2-0.7-1.1-0.7h-0.8 c-0.8,0-1.1,0.2-1.1,0.7c0,0.7,0.3,0.7,1.5,0.7h0.7c0.5,0,0.7,0.1,0.7,0.5c0,0.5-0.3,0.6-0.8,0.6h-1.2c-0.5,0-0.7-0.1-0.7-0.5 V90H49.3z"></path> </g> <g> <path class="st0" d="M53.1,89.9h0.4v0.2c0,0.3,0.1,0.4,0.6,0.4h1.2c0.6,0,0.7-0.1,0.7-0.5c0-0.4-0.1-0.4-0.6-0.4h-0.7 c-1.2,0-1.6-0.1-1.6-0.8c0-0.6,0.4-0.8,1.2-0.8h0.8c0.9,0,1.2,0.2,1.2,0.7v0.1h-0.4c0-0.4-0.1-0.5-1.1-0.5h-0.4 c-0.7,0-1,0-1,0.5c0,0.3,0.1,0.4,0.7,0.4h1.1c0.7,0,1.1,0.2,1.1,0.7v0.2c0,0.7-0.6,0.7-1.1,0.7h-1.1c-0.6,0-1.1-0.1-1.1-0.7 V89.9z"></path> <path class="st0" d="M55.2,90.9h-1.1c-0.6,0-1.1-0.1-1.1-0.8v-0.3h0.5v0.3c0,0.2,0,0.3,0.5,0.3h1.2c0.6,0,0.6-0.1,0.6-0.4 c0-0.3-0.1-0.4-0.5-0.4h-0.7c-1.1,0-1.6,0-1.6-0.9c0-0.7,0.5-0.9,1.2-0.9h0.8c0.9,0,1.3,0.2,1.3,0.8v0.2h-0.5l0-0.1 c0-0.4,0-0.5-1-0.5h-0.4c-0.8,0-0.9,0.1-0.9,0.4c0,0.3,0,0.4,0.6,0.4h1.1c0.8,0,1.1,0.2,1.1,0.8v0.2 C56.5,90.9,55.7,90.9,55.2,90.9z M53.2,90v0.1c0,0.5,0.4,0.6,1,0.6h1.1c0.7,0,1.1-0.1,1.1-0.7v-0.2c0-0.3-0.1-0.6-1-0.6h-1.1 c-0.6,0-0.8-0.1-0.8-0.5c0-0.6,0.4-0.6,1.1-0.6h0.4c0.9,0,1.1,0.1,1.1,0.5h0.2v0c0-0.4-0.2-0.7-1.1-0.7h-0.8 c-0.8,0-1.1,0.2-1.1,0.7c0,0.7,0.3,0.7,1.5,0.7h0.7c0.5,0,0.7,0.1,0.7,0.5c0,0.5-0.3,0.6-0.8,0.6h-1.2c-0.5,0-0.7-0.1-0.7-0.5 V90H53.2z"></path> </g> <g> <path class="st0" d="M58.4,87.9h0.5l1.7,2.8h-0.4l-0.4-0.6h-2.3l-0.4,0.6h-0.4L58.4,87.9z M58.7,88.3l-0.9,1.6h1.9L58.7,88.3z"></path> <path class="st0" d="M60.7,90.8h-0.6l-0.4-0.6h-2.2l-0.4,0.6h-0.6l1.8-3h0.6l0,0L60.7,90.8z M60.2,90.7h0.3L58.9,88h-0.4 l-1.6,2.7h0.3l0.4-0.6h2.4L60.2,90.7z M59.7,89.9h-2.2l1.1-1.8L59.7,89.9z M57.8,89.8h1.6l-0.8-1.4L57.8,89.8z"></path> </g> <g> <path class="st0" d="M60.9,89c0-0.7,0.2-1.1,1-1.1h1.5c0.7,0,0.9,0.3,0.9,0.7v0.2H64v-0.1c0-0.5-0.3-0.5-0.6-0.5H62 c-0.4,0-0.7,0.1-0.7,0.6v1.1c0,0.5,0.3,0.6,0.7,0.6h1.3c0.5,0,0.7-0.1,0.7-0.5v-0.2h0.4V90c0,0.5-0.2,0.8-1,0.8h-1.4 c-0.8,0-1-0.3-1-1.1V89z"></path> <path class="st0" d="M63.4,90.9h-1.4c-0.8,0-1.1-0.3-1.1-1.1V89c0-0.8,0.3-1.1,1.1-1.1h1.5c0.8,0,1,0.4,1,0.8v0.3h-0.5v-0.2 c0-0.4-0.2-0.4-0.6-0.4H62c-0.4,0-0.6,0.2-0.6,0.5v1.1c0,0.4,0.2,0.5,0.6,0.5h1.3c0.5,0,0.6-0.1,0.6-0.4v-0.3h0.5V90 C64.4,90.5,64.3,90.9,63.4,90.9z M61.9,88c-0.7,0-0.9,0.3-0.9,1v0.8c0,0.7,0.3,1,0.9,1h1.4c0.7,0,0.9-0.2,0.9-0.7v-0.1h-0.2V90 c0,0.5-0.2,0.6-0.7,0.6H62c-0.2,0-0.7,0-0.7-0.7v-1.1c0-0.7,0.6-0.7,0.7-0.7h1.3c0.3,0,0.7,0,0.7,0.6v0.1h0.2v-0.2 c0-0.3-0.1-0.6-0.8-0.6H61.9z"></path> </g> <g> <path class="st0" d="M65,87.9h0.4v1.2h2.6v-1.2h0.4v2.8h-0.4v-1.3h-2.6v1.3H65V87.9z"></path> <path class="st0" d="M68.4,90.8h-0.5v-1.3h-2.4v1.3h-0.5v-3h0.5v1.2h2.4v-1.2h0.5V90.8z M68,90.7h0.2V88H68v1.2h-2.7V88H65v2.7 h0.2v-1.3H68V90.7z"></path> </g> <g> <path class="st0" d="M69,87.9h0.4v2.1c0,0.3,0.1,0.4,0.6,0.4h1.3c0.5,0,0.6-0.2,0.6-0.4v-2.1h0.4v2.1c0,0.6-0.3,0.7-1,0.7h-1.3 c-0.7,0-1-0.2-1-0.7V87.9z"></path> <path class="st0" d="M71.4,90.9h-1.3c-0.7,0-1.1-0.1-1.1-0.8v-2.2h0.5v2.2c0,0.2,0,0.4,0.5,0.4h1.3c0.5,0,0.5-0.1,0.5-0.4v-2.2 h0.5v2.2C72.4,90.7,72,90.9,71.4,90.9z M69.1,88v2c0,0.5,0.2,0.7,0.9,0.7h1.3c0.7,0,0.9-0.2,0.9-0.7v-2h-0.2v2 c0,0.4-0.2,0.5-0.7,0.5H70c-0.5,0-0.7-0.1-0.7-0.5v-2H69.1z"></path> </g> <g> <path class="st0" d="M73,89.9h0.4v0.2c0,0.3,0.1,0.4,0.6,0.4h1.2c0.6,0,0.7-0.1,0.7-0.5c0-0.4-0.1-0.4-0.6-0.4h-0.7 c-1.2,0-1.6-0.1-1.6-0.8c0-0.6,0.4-0.8,1.2-0.8H75c0.9,0,1.2,0.2,1.2,0.7v0.1h-0.4c0-0.4-0.1-0.5-1.1-0.5h-0.4 c-0.7,0-1,0-1,0.5c0,0.3,0.1,0.4,0.7,0.4h1.1c0.7,0,1.1,0.2,1.1,0.7v0.2c0,0.7-0.6,0.7-1.1,0.7h-1.1c-0.6,0-1.1-0.1-1.1-0.7 V89.9z"></path> <path class="st0" d="M75.2,90.9h-1.1c-0.6,0-1.1-0.1-1.1-0.8v-0.3h0.5v0.3c0,0.2,0,0.3,0.5,0.3h1.2c0.6,0,0.6-0.1,0.6-0.4 c0-0.3-0.1-0.4-0.5-0.4h-0.7c-1.1,0-1.6,0-1.6-0.9c0-0.7,0.5-0.9,1.2-0.9H75c0.9,0,1.3,0.2,1.3,0.8v0.2h-0.5l0-0.1 c0-0.4,0-0.5-1-0.5h-0.4c-0.8,0-0.9,0.1-0.9,0.4c0,0.3,0,0.4,0.6,0.4h1.1c0.8,0,1.1,0.2,1.1,0.8v0.2 C76.4,90.9,75.6,90.9,75.2,90.9z M73.1,90v0.1c0,0.5,0.4,0.6,1,0.6h1.1c0.7,0,1.1-0.1,1.1-0.7v-0.2c0-0.3-0.1-0.6-1-0.6h-1.1 c-0.6,0-0.8-0.1-0.8-0.5c0-0.6,0.4-0.6,1.1-0.6h0.4c0.9,0,1.1,0.1,1.1,0.5h0.2v0c0-0.4-0.2-0.7-1.1-0.7h-0.8 c-0.8,0-1.1,0.2-1.1,0.7c0,0.7,0.3,0.7,1.5,0.7h0.7c0.5,0,0.7,0.1,0.7,0.5c0,0.5-0.3,0.6-0.8,0.6H74c-0.5,0-0.7-0.1-0.7-0.5V90 H73.1z"></path> </g> <g> <path class="st0" d="M77,87.9h2.8v0.3h-2.4v0.9h2.3v0.3h-2.3v1h2.4v0.3H77V87.9z"></path> <path class="st0" d="M79.8,90.8h-2.9v-3h2.9v0.5h-2.4v0.8h2.3v0.5h-2.3v0.8h2.4V90.8z M77.1,90.7h2.6v-0.2h-2.4v-1.1h2.3v-0.2 h-2.3v-1.1h2.4V88h-2.6V90.7z"></path> </g> <g> <path class="st0" d="M81.5,88.3H80v-0.3h3.2v0.3h-1.4v2.5h-0.4V88.3z"></path> <path class="st0" d="M81.9,90.8h-0.5v-2.5H80v-0.5h3.4v0.5h-1.4V90.8z M81.6,90.7h0.2v-2.5h1.4V88h-3.1v0.2h1.4V90.7z"></path> </g> <g> <path class="st0" d="M84.9,88.3h-1.4v-0.3h3.2v0.3h-1.4v2.5h-0.4V88.3z"></path> <path class="st0" d="M85.3,90.8h-0.5v-2.5h-1.4v-0.5h3.4v0.5h-1.4V90.8z M84.9,90.7h0.2v-2.5h1.4V88h-3.1v0.2h1.4V90.7z"></path> </g> <g> <path class="st0" d="M87,89.9h0.4v0.2c0,0.3,0.1,0.4,0.6,0.4h1.2c0.6,0,0.7-0.1,0.7-0.5c0-0.4-0.1-0.4-0.6-0.4h-0.7 c-1.2,0-1.6-0.1-1.6-0.8c0-0.6,0.4-0.8,1.2-0.8H89c0.9,0,1.2,0.2,1.2,0.7v0.1h-0.4c0-0.4-0.1-0.5-1.1-0.5h-0.4 c-0.7,0-1,0-1,0.5c0,0.3,0.1,0.4,0.7,0.4h1.1c0.7,0,1.1,0.2,1.1,0.7v0.2c0,0.7-0.6,0.7-1.1,0.7h-1.1c-0.6,0-1.1-0.1-1.1-0.7 V89.9z"></path> <path class="st0" d="M89.2,90.9h-1.1c-0.6,0-1.1-0.1-1.1-0.8v-0.3h0.5v0.3c0,0.2,0,0.3,0.5,0.3h1.2c0.6,0,0.6-0.1,0.6-0.4 c0-0.3-0.1-0.4-0.5-0.4h-0.7c-1.1,0-1.6,0-1.6-0.9c0-0.7,0.5-0.9,1.2-0.9H89c0.9,0,1.3,0.2,1.3,0.8v0.2h-0.5l0-0.1 c0-0.4,0-0.5-1-0.5h-0.4c-0.8,0-0.9,0.1-0.9,0.4c0,0.3,0,0.4,0.6,0.4h1.1c0.8,0,1.1,0.2,1.1,0.8v0.2 C90.4,90.9,89.6,90.9,89.2,90.9z M87.1,90v0.1c0,0.5,0.4,0.6,1,0.6h1.1c0.7,0,1.1-0.1,1.1-0.7v-0.2c0-0.3-0.1-0.6-1-0.6h-1.1 c-0.6,0-0.8-0.1-0.8-0.5c0-0.6,0.4-0.6,1.1-0.6h0.4c0.9,0,1.1,0.1,1.1,0.5h0.2v0c0-0.4-0.2-0.7-1.1-0.7h-0.8 c-0.8,0-1.1,0.2-1.1,0.7c0,0.7,0.3,0.7,1.5,0.7h0.7c0.5,0,0.7,0.1,0.7,0.5c0,0.5-0.3,0.6-0.8,0.6H88c-0.5,0-0.7-0.1-0.7-0.5V90 H87.1z"></path> </g> </g> </g> </g> <g> <path class="st4" d="M32.1,40.6c-0.1,0-0.1,0-0.2,0l-0.4,0.1l-1,1.6h30.4l0.9-1.7L32.1,40.6z M60.6,41.7c-9.6,0-19.2,0-28.8,0 c0.1-0.1,0.2-0.3,0.3-0.4c0,0,0,0,0.1,0c0,0,0.1,0,0.1,0c2.4,0,4.8,0,7.2,0c4.4,0,8.8,0,13.2,0c2.7,0,5.4,0,8.1,0 c0.1,0,0.1,0,0.2,0C60.7,41.4,60.6,41.6,60.6,41.7z M43.4,25.5c0.4,0,0.8-0.2,1-0.6c0-0.1,0.1-0.2,0.1-0.3c0-0.3-0.1-0.5-0.3-0.5 c-0.1,0-0.1,0-0.2,0c-0.2,0-0.5,0-0.7,0c-0.2,0.5-0.3,0.9-0.5,1.4c0.1,0,0.1,0,0.1,0C43.1,25.5,43.2,25.5,43.4,25.5z M63.3,32.7 L63.3,32.7l-0.6,1.4h0.2c0.3,0,0.5-0.1,0.7-0.2c0.2-0.1,0.4-0.3,0.5-0.6C64.1,33,63.9,32.7,63.3,32.7z M97.3,30.2 c0.2,0,0.5-0.1,0.7-0.4l4.7-7.2l0.7-1.1h-1.9c-0.6,0-1.3,0-1.9,0c-0.6,0-0.8,0.4-0.8,0.5l-0.6,1.1c0,0-0.1,0-0.1,0l0.2-1.6l-1.4,0 c-0.5,0-1,0-1.5,0c-0.3,0-0.6,0.1-0.8,0.4c-0.2,0.4-0.5,0.8-0.7,1.2c0,0-0.1,0-0.1,0l0.3-1.6h-3.5l0,0l-9.9,0l0,0h-2 c-0.7,0-1.4,0-2,0c0,0,0,0,0,0c-0.3,0-0.6,0.1-0.8,0.4c-0.3,0.4-0.5,0.8-0.8,1.2c-0.1,0-0.2,0-0.4,0c0,0,0,0,0,0c0,0-0.1,0-0.1,0 l0.1-1.5l-0.6-0.1c0,0-1.9,0-2.9,0l0,0h-7.6l-0.2,0.6L63,21.9l-0.1-0.1c-0.5-0.3-1.1-0.5-1.6-0.5c-0.8-0.1-1.6-0.1-2.3,0 c-0.8,0.1-1.5,0.4-2.1,0.8c-0.5,0.3-0.9,0.8-1.2,1.2c-0.1,0.1-0.2,0.1-0.4,0.2l0.7-2h-6.7l-0.2,0.4c0,0-0.2,0.5-0.5,1.2h-0.5 c-0.2-0.7-0.6-1.2-1.3-1.5c-0.3-0.1-0.6-0.2-1-0.2l-5.1,0l0.3-0.9l0.1-0.6l-0.7-0.3c-0.6-0.2-1.2-0.4-1.9-0.4 c-0.8-0.1-1.6,0-2.4,0.1c-2,0.4-3.7,1.3-5.1,2.6c-0.2,0.1-0.3,0.3-0.4,0.4c-0.5,0.3-1.1,0.7-1.5,1.2c-0.8,0.8-1.4,1.6-1.8,2.5 c-0.3,0.8-0.4,1.5-0.4,2.2c0.1,1,0.5,1.8,1.2,2.5c0.6,0.6,1.4,1,2.4,1.2c0.1,0,0.2,0,0.3,0.1c0,0,0,0-0.1,0 c-1,0.6-1.7,1.5-2.1,2.5c-0.6,1.5-0.1,2.4,0.3,2.9c0.6,0.6,1.4,0.9,2.5,0.9c0.4,0,1-0.1,1.6-0.2l0.3-0.1l0.2-0.4 c0.2,0,0.4-0.1,0.7-0.1l0.3-0.1l0,0c0,0,0,0,0.1,0.1c0.5,0.5,1.3,0.8,2.3,0.8c1,0,2-0.3,2.8-0.9c0.3-0.1,0.6-0.2,0.8-0.4l-0.5,1.3 h3.5l0.2-0.6h0.3l0.1,0.6h3.1l0.1-0.4l0.3,0.1c1.5,0.5,3,0.3,4.2-0.4c0.1-0.1,0.2-0.1,0.3-0.2c0.3-0.1,0.6-0.2,0.8-0.4 c0.1-0.1,0.3-0.2,0.4-0.3L53,38.7h3.6l0.2-0.6h0.5l-0.2,0.6h3.6l0.2-0.5l0.1,0.5h3.8l-0.2-0.6h0.7c0,0,0.1,0,0.1,0.1 c0.5,0.3,1.2,0.5,2.1,0.5c0.8,0,1.5-0.1,2.1-0.4c0.3-0.1,0.6-0.3,0.8-0.5c0.1,0,0.2,0,0.3-0.1c0.4-0.2,0.7-0.3,0.9-0.5 c0.1,0.3,0.3,0.5,0.4,0.6c0.6,0.6,1.4,0.9,2.5,0.9c0.4,0,1-0.1,1.6-0.2l0.3-0.1l0.2-0.4c0.1,0,0.2,0,0.3-0.1l-0.3,0.7h3.6l0.2-0.6 H81l-0.2,0.6h3.6l0.2-0.6h0.9l0.2-0.5c0.1,0.1,0.1,0.1,0.1,0.2c0.5,0.5,1.3,0.8,2.3,0.8c1,0,2-0.3,2.8-0.9 c0.3-0.1,0.6-0.2,0.8-0.4l-0.5,1.3h3.5l0.2-0.6h0.3l0.1,0.6h3.1l0.2-0.6h0.9l2.8-7.3h-3.5l-0.2,0.6h-0.3l-0.1-0.6h-1.9l0.4-0.6 L97.3,30.2z M89.5,22.1c-0.2,0.7-0.5,1.3-0.7,1.9c-0.9,0-1.7,0-2.6,0c-0.1,0.3-0.2,0.5-0.3,0.8c0.8,0,1.5,0,2.3,0 c-0.2,0.6-0.5,1.3-0.7,1.9c-0.8,0-1.5,0-2.3,0c-0.1,0.3-0.2,0.6-0.3,0.9c0.9,0,1.7,0,2.6,0c-0.2,0.6-0.5,1.3-0.7,1.9 c-1.8,0-3.6,0-5.5,0c0.9-2.5,1.8-5,2.7-7.4C85.9,22.1,87.7,22.1,89.5,22.1z M88.4,31.8c-0.2,0.1-0.4,0.2-0.6,0.3c0,0,0,0,0,0 l0.1-0.3H88.4z M87.2,30.2l0,0.6h-1.5l0.2-0.6L87.2,30.2z M82.8,22.1c-0.9,2.5-1.8,5-2.7,7.4c-1,0-1.9,0-2.9,0 c0.9-2.5,1.8-5,2.7-7.4C80.9,22.1,81.8,22.1,82.8,22.1z M73.8,22.1c-0.1,1.3-0.1,2.6-0.2,3.9c0,0,0,0,0,0c0,0,0.1-0.1,0.1-0.1 c0.8-1.2,1.6-2.4,2.4-3.6c0.1-0.1,0.1-0.1,0.3-0.1c0.9,0,1.8,0,2.7,0c0.1,0,0.1,0,0.2,0c0,0.1-0.1,0.1-0.1,0.1 c-1.9,2.4-3.7,4.8-5.6,7.2c0,0.1-0.1,0.1-0.2,0.1c-0.8,0-1.6,0-2.3,0c0,0-0.1,0-0.1,0c-0.1-2.5-0.2-4.9-0.3-7.4 C70.9,22.1,73.6,22.1,73.8,22.1z M74.9,31.8C74.9,31.8,74.9,31.8,74.9,31.8c-0.3,0.1-0.6,0.3-0.9,0.4l0.5-1.4h-1.9l0.5-0.6 c0.1,0,0.2,0,0.3,0c0.4,0,0.6-0.3,0.7-0.3l1.8-2.3l-1.6,4.3H74.9z M64.7,24.4c-0.6,0-1.1,0-1.7,0c0.3-0.8,0.6-1.5,0.8-2.3 c2.1,0,4.2,0,6.3,0c-0.3,0.8-0.6,1.5-0.8,2.3c-0.6,0-1.1,0-1.7,0c-0.6,1.7-1.2,3.4-1.9,5.1c-1,0-1.9,0-2.9,0 C63.4,27.9,64.1,26.2,64.7,24.4z M68.4,30.8h-0.9l-0.2,0.6h-0.9l-0.1,0.2c-0.1-0.1-0.1-0.1-0.2-0.2c-0.4-0.3-0.9-0.4-1.6-0.5 l0.2-0.7h1.4l1.3-3.5h0.3l0.5-1.3L68.4,30.8z M55.5,27c0.4,0.4,0.9,0.6,1.4,0.7c0.3,0.1,0.6,0.1,0.9,0c0.2,0,0.3-0.1,0.5-0.2 c0,0,0,0,0.1,0c0.2-0.2,0.2-0.5-0.1-0.6c-0.2-0.1-0.4-0.1-0.6-0.1c-0.3-0.1-0.7-0.1-1-0.3c-0.1-0.1-0.3-0.1-0.4-0.2 c-0.3-0.2-0.5-0.5-0.6-0.9c0-0.4,0-0.7,0.2-1.1c0.3-0.7,0.8-1.3,1.4-1.7c0.5-0.4,1.2-0.6,1.8-0.7c0.7-0.1,1.4-0.1,2.2,0 c0.5,0.1,1,0.2,1.4,0.5c0,0,0,0,0,0c-0.4,0.6-0.9,1.3-1.3,1.9c0,0-0.1,0-0.1-0.1c-0.3-0.3-0.7-0.4-1.2-0.5c-0.3,0-0.6,0-0.8,0.1 c-0.1,0-0.2,0.1-0.3,0.1c-0.1,0-0.1,0.1-0.2,0.1c-0.2,0.2-0.1,0.3,0.1,0.4c0.2,0.1,0.4,0.1,0.7,0.2c0.3,0.1,0.7,0.1,1,0.2 c0.1,0,0.3,0.1,0.4,0.2c0.5,0.2,0.7,0.7,0.7,1.2c0,0.3-0.1,0.6-0.2,0.9c-0.3,0.8-0.8,1.3-1.5,1.8c-0.7,0.5-1.5,0.7-2.4,0.8 c-0.7,0.1-1.5,0.1-2.2-0.1c-0.5-0.1-1-0.3-1.4-0.7c0,0-0.1,0-0.1-0.1C54.3,28.3,54.9,27.7,55.5,27z M61.1,28.6l-0.8,2.2h-1.8 c0.4-0.3,0.7-0.6,0.9-1c0.2-0.1,0.5-0.2,0.7-0.4C60.5,29.2,60.8,29,61.1,28.6z M49.7,22.1c1.8,0,3.6,0,5.4,0 c-0.2,0.6-0.5,1.3-0.7,1.9c-0.9,0-1.7,0-2.6,0c-0.1,0.3-0.2,0.5-0.3,0.8c0.4,0,0.8,0,1.1,0c0.4,0,0.7,0,1.1,0 c-0.2,0.6-0.5,1.3-0.7,1.9c-0.8,0-1.5,0-2.3,0c-0.1,0.3-0.2,0.6-0.3,0.9c0.9,0,1.7,0,2.6,0c-0.2,0.6-0.5,1.3-0.7,1.9 c-1.8,0-3.6,0-5.4,0C47,29.4,49.5,22.6,49.7,22.1z M51.9,31.3c-0.2,0.1-0.4,0.2-0.6,0.4c0,0,0,0,0,0c-0.1,0-0.2,0.1-0.3,0.1l0.3-1 l0.3,0.2C51.6,31.1,51.7,31.2,51.9,31.3z M41.1,22.1c0.1,0,0.1,0,0.2,0c1.5,0,3,0,4.6,0c0.3,0,0.5,0,0.8,0.1 c0.7,0.3,1.1,0.9,0.9,1.6c-0.1,0.6-0.4,1.1-0.9,1.5c-0.4,0.4-1,0.7-1.6,0.9c0,0-0.1,0-0.2,0.1c0.3,1.1,0.6,2.1,0.9,3.2 c-1,0-2.1,0-3.1,0c-0.2-0.8-0.4-1.7-0.5-2.5c0,0,0,0,0,0c-0.3,0.8-0.6,1.7-0.9,2.5c-1,0-1.9,0-2.9,0 C39.3,27.1,40.2,24.6,41.1,22.1z M46,26.7c0,0.1-0.1,0.2-0.1,0.4l-0.1-0.2c0,0,0,0,0,0C45.9,26.7,45.9,26.7,46,26.7z M44.7,30.2 c-0.1,0.2-0.1,0.4-0.2,0.6l-0.2-0.6L44.7,30.2z M42.8,31.8L42.8,31.8C42.7,31.8,42.7,31.8,42.8,31.8L42.8,31.8z M40.1,30.8 C40.1,30.8,40.1,30.8,40.1,30.8L40.1,30.8L40.1,30.8z M30.5,28.9c-0.6-0.6-0.9-1.3-1-2.1c-0.1-0.7,0.1-1.3,0.3-1.9 c0.4-0.9,0.9-1.7,1.6-2.3c1.4-1.3,3-2.1,4.8-2.5c0.7-0.1,1.5-0.2,2.2-0.1c0.6,0,1.2,0.2,1.7,0.4c0.1,0,0.1,0,0.2,0.1 c-0.4,1-0.8,2.1-1.1,3.1c-0.1,0-0.1,0-0.1,0c-0.6-0.2-1.2-0.4-1.8-0.4c-1.1,0-2,0.4-2.7,1.1c-0.3,0.3-0.5,0.7-0.6,1.1 c-0.1,0.6,0.1,1.2,0.7,1.5c0.3,0.1,0.6,0.2,0.9,0.2c0.6,0,1.2-0.1,1.8-0.2c0.3-0.1,0.5-0.2,0.8-0.3c0,0,0,0.1,0,0.1 c-0.4,1-0.7,2-1.1,3c0,0.1-0.1,0.1-0.1,0.1c-0.6,0.2-1.3,0.3-2,0.4c-0.8,0.1-1.5,0-2.3-0.1C31.9,29.8,31.2,29.5,30.5,28.9z M37.7,25.9L37.7,25.9c-0.2,0.1-0.3,0.2-0.5,0.2c-0.6,0.2-1.1,0.2-1.6,0.2c-0.2,0-0.5-0.1-0.6-0.2c-0.3-0.2-0.5-0.4-0.4-0.8 c0,0,0,0,0,0c0.2-0.1,0.5-0.1,0.8-0.1c0.5,0,1.1,0.1,1.6,0.3L37.7,25.9z M37.3,31.8c-0.1,0.1-0.3,0.1-0.4,0.2l0.1-0.2H37.3z M33.6,33.3c-0.4,0.3-0.6,0.7-0.8,1.2c-0.1,0.2-0.1,0.5-0.1,0.7c0,0.2,0,0.4,0.1,0.5c0.1,0.1,0.2,0.2,0.3,0.3 c0.1,0.1,0.3,0.1,0.6,0.1c0.4,0,0.8-0.1,1.3-0.4l-0.8,1.6c-0.6,0.1-1,0.2-1.4,0.2c-0.9,0-1.6-0.2-2.1-0.7 c-0.5-0.5-0.6-1.3-0.2-2.3c0.3-0.9,1-1.7,1.8-2.2c0.9-0.6,1.9-0.8,3-0.8c0.4,0,0.7,0,1.1,0.1l-0.6,1.7c-0.2-0.2-0.5-0.4-0.9-0.4 C34.4,32.9,34,33,33.6,33.3z M34.4,34.6c0,0.1-0.1,0.2-0.1,0.2c-0.1,0.2-0.1,0.4-0.2,0.5c-0.4,0.2-0.8,0.1-0.9,0c0,0,0-0.1,0-0.2 c0-0.1,0-0.2,0.1-0.5c0.1-0.3,0.2-0.5,0.4-0.6c0,0,0,0,0,0c0.2,0,0.3,0.1,0.4,0.2L34.4,34.6z M40.7,36.7c-0.8,0.6-1.6,0.8-2.6,0.8 c-0.8,0-1.4-0.2-1.9-0.6c-0.5-0.5-0.6-1.4-0.2-2.4c0.4-1,1.1-1.8,2-2.4c0.7-0.4,1.5-0.6,2.3-0.6c1,0,1.6,0.3,2,0.8 c0.4,0.6,0.4,1.3,0,2.2C42,35.4,41.4,36.1,40.7,36.7z M45.9,37.5l-0.4-2.2c0-0.2-0.1-0.5-0.1-0.7c0-0.2,0-0.4,0-0.6 c-0.1,0.4-0.1,0.8-0.2,1.1c-0.1,0.3-0.2,0.6-0.3,0.8l-0.6,1.5h-2.2l2.3-6.1h2.1l0.3,2.1c0,0.1,0,0.3,0,0.4s0,0.4,0,0.6l0,0.5 c0.1-0.5,0.2-1,0.3-1.4c0.1-0.4,0.2-0.7,0.3-0.9l0.5-1.4h2.2L48,37.5H45.9z M54.2,33.1c-0.2-0.1-0.4-0.2-0.6-0.2 c-0.2,0-0.3,0-0.5,0.1c-0.1,0.1-0.2,0.1-0.3,0.2c-0.1,0.2,0,0.3,0.3,0.5l0.3,0.2c0.4,0.2,0.6,0.5,0.7,0.7c0.1,0.3,0.1,0.5,0,0.9 c-0.2,0.6-0.6,1-1.3,1.4c-0.6,0.4-1.3,0.6-2.1,0.6c-0.5,0-1.1-0.1-1.6-0.2l0.7-1.9c0.3,0.4,0.7,0.7,1.2,0.7c0.2,0,0.4,0,0.5-0.1 c0.1-0.1,0.2-0.2,0.3-0.3c0.1-0.2,0-0.3-0.2-0.5L51.3,35c-0.2-0.1-0.4-0.3-0.5-0.4c-0.1-0.1-0.2-0.3-0.3-0.4 c-0.1-0.1-0.1-0.3-0.1-0.4c0-0.1,0-0.3,0.1-0.5c0.1-0.3,0.3-0.6,0.6-0.9c0.1-0.1,0.3-0.3,0.5-0.4c0.2-0.1,0.3-0.2,0.5-0.3 c0.5-0.3,1.1-0.4,1.7-0.4c0.5,0,1,0.1,1.5,0.3l-0.7,1.8C54.5,33.4,54.4,33.2,54.2,33.1z M57.2,37.5H55l1.7-4.6h-1.2l0.5-1.5h4.8 l-0.5,1.5H59L57.2,37.5z M66.2,33.5c-0.3,0.7-0.9,1.2-1.9,1.5l0.7,2.5h-2.4l-0.3-2.2c0,0,0-0.1,0-0.1c0-0.1,0-0.1,0-0.2l-0.1,0.4 l-0.8,2.1h-2.2l2.3-6.1h2.3c1,0,1.7,0.1,2.1,0.4C66.3,32.3,66.4,32.8,66.2,33.5z M72.1,35.7c-0.1,0.4-0.3,0.6-0.6,0.9 c-0.2,0.2-0.6,0.4-1,0.6c-0.6,0.2-1.2,0.4-1.9,0.4c-0.8,0-1.4-0.1-1.8-0.4c-0.5-0.3-0.7-0.9-0.4-1.7l1.5-4h2.2l-1.5,3.9 c-0.1,0.3-0.1,0.4-0.1,0.6c0,0.1,0.2,0.2,0.4,0.2c0.2,0,0.4-0.1,0.5-0.2c0.1-0.1,0.2-0.3,0.3-0.6l1.5-3.9h2.2L72.1,35.7z M78.2,34.8L78.2,34.8L78.2,34.8L77.8,35l0.3-0.9h0.3L78.2,34.8z M77.8,32.9c-0.5,0-0.9,0.1-1.2,0.4c-0.4,0.3-0.6,0.7-0.8,1.2 c-0.1,0.2-0.1,0.5-0.1,0.7c0,0.2,0,0.4,0.1,0.5c0.1,0.1,0.2,0.2,0.3,0.3c0.1,0.1,0.3,0.1,0.6,0.1c0.4,0,0.8-0.1,1.3-0.4l-0.8,1.6 c-0.6,0.1-1,0.2-1.4,0.2c-0.9,0-1.6-0.2-2.1-0.7c-0.5-0.5-0.6-1.3-0.2-2.3c0.3-0.9,1-1.7,1.8-2.2c0.9-0.6,1.9-0.8,3-0.8 c0.4,0,0.7,0,1.1,0.1l-0.6,1.7C78.5,33,78.2,32.9,77.8,32.9z M77.8,35l-0.5,0.3c-0.5,0.2-0.9,0.2-1.1,0.1c0,0,0-0.1,0-0.2 c0-0.1,0-0.2,0.1-0.5c0.1-0.3,0.2-0.5,0.4-0.6c0,0,0,0,0,0c0.2,0,0.3,0.1,0.4,0.2L77.8,35z M81,37.5h-2.2l1.7-4.6h-1.2l0.5-1.5 h4.8L84,32.9h-1.3L81,37.5z M85.1,37.5h-2.2l2.3-6.1h2.2L85.1,37.5z M91.8,36.7c-0.8,0.6-1.6,0.8-2.6,0.8c-0.8,0-1.4-0.2-1.9-0.6 c-0.5-0.5-0.6-1.4-0.2-2.4c0.4-1,1.1-1.8,2-2.4c0.7-0.4,1.5-0.6,2.3-0.6c1,0,1.6,0.3,2,0.8c0.4,0.6,0.4,1.3,0,2.2 C93.2,35.4,92.6,36.1,91.8,36.7z M91.5,30.8l0.4-0.6l0.2,0L92,30.9C91.9,30.9,91.7,30.8,91.5,30.8C91.5,30.8,91.5,30.8,91.5,30.8z M97.8,31.5l0.3,2.1c0,0.1,0,0.3,0,0.4s0,0.4,0,0.6l0,0.5c0.1-0.5,0.2-1,0.3-1.4c0.1-0.4,0.2-0.7,0.3-0.9l0.5-1.4h2.2l-2.3,6.1H97 l-0.4-2.2c0-0.2-0.1-0.5-0.1-0.7c0-0.2,0-0.4,0-0.6c-0.1,0.4-0.1,0.8-0.2,1.1c-0.1,0.3-0.2,0.6-0.3,0.8l-0.6,1.5h-2.2l2.3-6.1 H97.8z M93.9,31.8L93.9,31.8L93.9,31.8C93.9,31.8,93.9,31.8,93.9,31.8z M94.7,29.6C94.6,29.6,94.6,29.6,94.7,29.6 c0-1.2,0.1-2.4,0.2-3.6c-0.1,0-0.1,0.1-0.1,0.1c-0.7,1.1-1.5,2.2-2.2,3.4c0,0,0,0,0,0.1c0,0.1-0.1,0.1-0.2,0.1c-0.7,0-1.5,0-2.2,0 c-0.1,0-0.3,0-0.4,0c0.2-2.5,0.4-5,0.6-7.4c0.9,0,1.9,0,2.8,0c-0.2,1.3-0.4,2.6-0.6,4c0,0,0,0,0,0c0,0,0.1-0.1,0.1-0.1 c0.8-1.2,1.6-2.5,2.4-3.7c0.1-0.1,0.1-0.1,0.3-0.1c0.7,0,1.4,0,2.1,0c0.1,0,0.1,0,0.2,0c-0.1,1.3-0.3,2.7-0.4,4c0,0,0,0,0,0 c0,0,0.1-0.1,0.1-0.1c0.7-1.2,1.4-2.5,2.1-3.7c0,0,0,0,0,0c0-0.1,0.1-0.1,0.2-0.1c0.8,0,1.7,0,2.5,0c0,0,0.1,0,0.2,0 c0,0.1-0.1,0.1-0.1,0.2c-1.3,2.1-2.7,4.1-4,6.2c-0.2,0.3-0.5,0.7-0.7,1c0,0.1-0.1,0.1-0.2,0.1C96.4,29.6,95.5,29.6,94.7,29.6z M71.1,41.7c-0.2-0.1-0.4-0.1-0.5-0.1h0c0,0,0,0,0,0l0.6-1.7l0.1-0.6l-0.5-0.2c-0.1,0-0.2-0.1-0.2-0.1c-0.5-0.2-0.9-0.2-1.4,0 c-0.2,0.1-0.5,0.2-0.7,0.3l0.1-0.3h-2l-0.4,1.1L65.6,39l-2.7,0l-1.5,4.5l3.2,0l0.4-1.1l0.5,1.1H67l0.2-0.6c0.2,0.3,0.6,0.5,1,0.6 c0.1,0,0.3,0,0.4,0c0.3,0,0.7-0.1,1.1-0.2c0,0,0,0,0.1,0c0.2,0.2,0.4,0.2,0.6,0.3c0.5,0,1.1-0.4,1.1-1c0-0.1,0-0.2,0-0.3l25.8,0 l1.5,0c0.3,0,0.5-0.1,0.6-0.3c0.1-0.1,0.1-0.2,0.2-0.3l0.7-1.1H71.7L71.1,41.7z M62.3,43c0.4-1.1,0.7-2.2,1.1-3.3 c0.2,0,0.4,0,0.7,0c-0.4,1.1-0.7,2.2-1.1,3.3C62.7,43,62.5,43,62.3,43z M66.5,43c-0.2,0-0.5,0-0.7,0c-0.3-0.7-0.6-1.5-1-2.2 c-0.1,0.4-0.3,0.8-0.4,1.1c-0.1,0.4-0.2,0.7-0.4,1.1c-0.2,0-0.4,0-0.7,0c0.4-1.1,0.7-2.2,1.1-3.3c0.1,0,0.2,0,0.3,0 c0.1,0,0.2,0,0.3,0c0.3,0.7,0.6,1.5,0.9,2.2c0,0,0,0,0,0c0.2-0.7,0.5-1.5,0.7-2.2c0.2,0,0.4,0,0.7,0C67.2,40.8,66.9,41.9,66.5,43z M69.7,42.1c-0.1,0.2-0.1,0.4-0.2,0.6c0,0,0,0.1-0.1,0.1c-0.4,0.2-0.8,0.2-1.2,0.1c-0.5-0.1-0.8-0.5-0.9-1c0-0.3,0.1-0.6,0.2-0.8 c0.3-0.7,0.9-1.3,1.6-1.5c0.4-0.1,0.7-0.1,1.1,0c0.1,0,0.2,0.1,0.3,0.1c-0.1,0.3-0.2,0.5-0.3,0.8c-0.1-0.2-0.3-0.3-0.5-0.3 c-0.3-0.1-0.5-0.1-0.8,0.1c-0.6,0.3-0.9,0.7-0.9,1.3c0,0.4,0.3,0.7,0.8,0.7c0.3,0,0.5-0.1,0.8-0.3C69.7,42.1,69.7,42.1,69.7,42.1 C69.8,42.1,69.8,42.1,69.7,42.1z M69.3,41.6c-0.2,0.1-0.3,0.2-0.5,0.2c-0.1,0-0.1,0-0.1,0c0-0.4,0.2-0.6,0.6-0.8 c0.1-0.1,0.2-0.1,0.3,0c0,0,0.1,0,0.2,0.1l0.2,0.2L69.3,41.6z M70.4,43c-0.2,0-0.3-0.2-0.3-0.4c0.1-0.2,0.3-0.4,0.5-0.4 c0.2,0,0.3,0.1,0.3,0.3C70.9,42.8,70.6,43,70.4,43z M72.1,41.3c9,0,18.1,0,27.2,0c-0.1,0.1-0.2,0.3-0.3,0.4c0,0-0.1,0-0.1,0 c-0.5,0-1,0-1.5,0c-2.1,0-4.2,0-6.4,0c-6.3,0-12.6,0-19,0c0,0-0.1,0-0.2,0C71.9,41.5,72,41.4,72.1,41.3z M39.8,32.9 c-0.3,0-0.5,0.1-0.8,0.4c-0.3,0.3-0.5,0.6-0.7,1.2c-0.2,0.5-0.3,0.9-0.2,1.2c0,0.3,0.2,0.4,0.4,0.4c0.3,0,0.5-0.1,0.8-0.4 c0.3-0.3,0.5-0.7,0.7-1.1C40.4,33.4,40.4,32.9,39.8,32.9z M91,32.9c-0.3,0-0.5,0.1-0.8,0.4c-0.3,0.3-0.5,0.6-0.7,1.2 c-0.2,0.5-0.3,0.9-0.2,1.2c0,0.3,0.2,0.4,0.4,0.4c0.3,0,0.5-0.1,0.8-0.4c0.3-0.3,0.5-0.7,0.7-1.1C91.6,33.4,91.5,32.9,91,32.9z"></path> <path class="st1" d="M58.2,27.5c-0.1,0.1-0.3,0.2-0.5,0.2c-0.3,0.1-0.6,0-0.9,0c-0.5-0.1-1-0.3-1.4-0.7c-0.6,0.6-1.1,1.2-1.7,1.8 c0,0,0.1,0.1,0.1,0.1c0.4,0.3,0.9,0.6,1.4,0.7c0.7,0.2,1.4,0.2,2.2,0.1c0.9-0.1,1.6-0.4,2.4-0.8c0.7-0.4,1.2-1,1.5-1.8 c0.1-0.3,0.2-0.6,0.2-0.9c0-0.5-0.3-0.9-0.7-1.2c-0.1-0.1-0.2-0.1-0.4-0.2c-0.3-0.1-0.7-0.1-1-0.2c-0.2,0-0.4-0.1-0.7-0.2 c-0.2-0.1-0.2-0.3-0.1-0.4c0-0.1,0.1-0.1,0.2-0.1c0.1-0.1,0.2-0.1,0.3-0.1c0.3-0.1,0.6-0.1,0.8-0.1c0.4,0,0.8,0.2,1.2,0.5 c0,0,0.1,0,0.1,0.1c0.4-0.6,0.9-1.3,1.3-1.9c0,0,0,0,0,0c-0.4-0.2-0.9-0.4-1.4-0.5c-0.7-0.1-1.4-0.1-2.2,0 c-0.7,0.1-1.3,0.3-1.8,0.7c-0.6,0.4-1.1,1-1.4,1.7c-0.1,0.3-0.2,0.7-0.2,1.1c0,0.4,0.2,0.7,0.6,0.9c0.1,0.1,0.2,0.1,0.4,0.2 c0.3,0.1,0.6,0.2,1,0.3c0.2,0,0.4,0.1,0.6,0.1C58.4,27,58.5,27.3,58.2,27.5C58.3,27.5,58.2,27.5,58.2,27.5z M65.7,29.6 c0.6-1.7,1.2-3.4,1.9-5.1c0.6,0,1.1,0,1.7,0c0.3-0.8,0.6-1.5,0.8-2.3c-2.1,0-4.2,0-6.3,0c-0.3,0.8-0.6,1.5-0.8,2.3 c0.6,0,1.1,0,1.7,0c-0.6,1.7-1.2,3.4-1.9,5.1C63.8,29.6,64.7,29.6,65.7,29.6z M53.1,33c0.1-0.1,0.3-0.1,0.5-0.1 c0.2,0,0.4,0.1,0.6,0.2c0.2,0.1,0.3,0.3,0.4,0.5l0.7-1.8c-0.5-0.2-1-0.3-1.5-0.3c-0.6,0-1.2,0.1-1.7,0.4c-0.2,0.1-0.4,0.2-0.5,0.3 c-0.2,0.1-0.3,0.2-0.5,0.4c-0.3,0.3-0.5,0.6-0.6,0.9c-0.1,0.2-0.1,0.3-0.1,0.5c0,0.1,0,0.3,0.1,0.4c0.1,0.1,0.1,0.3,0.3,0.4 c0.1,0.1,0.3,0.3,0.5,0.4l0.3,0.2c0.2,0.1,0.3,0.3,0.2,0.5c0,0.1-0.1,0.2-0.3,0.3c-0.1,0.1-0.3,0.1-0.5,0.1 c-0.5,0-0.9-0.2-1.2-0.7l-0.7,1.9c0.5,0.2,1.1,0.2,1.6,0.2c0.8,0,1.5-0.2,2.1-0.6c0.6-0.4,1.1-0.8,1.3-1.4c0.1-0.3,0.1-0.6,0-0.9 c-0.1-0.3-0.4-0.5-0.7-0.7l-0.3-0.2c-0.2-0.2-0.3-0.3-0.3-0.5C52.9,33.2,52.9,33.1,53.1,33z M102.1,22.1c-0.8,0-1.7,0-2.5,0 c-0.1,0-0.2,0-0.2,0.1c0,0,0,0,0,0c-0.7,1.2-1.4,2.5-2.1,3.7c0,0-0.1,0.1-0.1,0.1c0,0,0,0,0,0c0.1-1.3,0.3-2.6,0.4-4 c-0.1,0-0.1,0-0.2,0c-0.7,0-1.4,0-2.1,0c-0.1,0-0.2,0-0.3,0.1c-0.8,1.2-1.6,2.5-2.4,3.7c0,0-0.1,0.1-0.1,0.1c0,0,0,0,0,0 c0.2-1.3,0.4-2.6,0.6-4c-1,0-1.9,0-2.8,0c-0.2,2.5-0.4,4.9-0.6,7.4c0.1,0,0.3,0,0.4,0c0.7,0,1.5,0,2.2,0c0.1,0,0.2,0,0.2-0.1 c0,0,0,0,0-0.1c0.7-1.1,1.5-2.2,2.2-3.4c0,0,0-0.1,0.1-0.1c-0.1,1.2-0.2,2.4-0.3,3.6c0,0,0.1,0,0.1,0c0.9,0,1.7,0,2.6,0 c0.1,0,0.1,0,0.2-0.1c0.2-0.3,0.5-0.7,0.7-1c1.3-2,2.7-4.1,4-6.2c0,0,0.1-0.1,0.1-0.2C102.2,22.1,102.1,22.1,102.1,22.1z M44.9,36 c0.1-0.2,0.2-0.5,0.3-0.8c0.1-0.3,0.2-0.7,0.2-1.1c0,0.2,0,0.4,0,0.6c0,0.2,0.1,0.4,0.1,0.7l0.4,2.2H48l2.3-6.1h-2.2l-0.5,1.4 c-0.1,0.3-0.2,0.6-0.3,0.9c-0.1,0.4-0.2,0.8-0.3,1.4l0-0.5c0-0.2,0-0.4,0-0.6s0-0.3,0-0.4l-0.3-2.1h-2.1l-2.3,6.1h2.2L44.9,36z M71.1,29.6c0.8,0,1.6,0,2.3,0c0.1,0,0.1,0,0.2-0.1c1.9-2.4,3.7-4.8,5.6-7.2c0,0,0-0.1,0.1-0.1c-0.1,0-0.1,0-0.2,0 c-0.9,0-1.8,0-2.7,0c-0.1,0-0.2,0-0.3,0.1c-0.8,1.2-1.6,2.4-2.4,3.6c0,0-0.1,0.1-0.1,0.1c0,0,0,0,0,0c0.1-1.3,0.1-2.6,0.2-3.9 c-0.2,0-2.9,0-3,0C70.8,24.6,70.9,27.1,71.1,29.6C71.1,29.6,71.1,29.6,71.1,29.6z M80.1,29.6c0.9-2.5,1.8-4.9,2.7-7.4 c-1,0-2,0-2.9,0c-0.9,2.5-1.8,4.9-2.7,7.4C78.2,29.6,79.1,29.6,80.1,29.6z M76.6,33.3c0.4-0.3,0.8-0.4,1.2-0.4 c0.4,0,0.6,0.1,0.9,0.4l0.6-1.7c-0.3-0.1-0.7-0.1-1.1-0.1c-1.1,0-2.1,0.3-3,0.8c-0.9,0.6-1.5,1.3-1.8,2.2c-0.4,1-0.3,1.7,0.2,2.3 c0.5,0.5,1.1,0.7,2.1,0.7c0.4,0,0.9-0.1,1.4-0.2l0.8-1.6c-0.5,0.3-0.9,0.4-1.3,0.4c-0.2,0-0.4,0-0.6-0.1c-0.2-0.1-0.3-0.2-0.3-0.3 c-0.1-0.1-0.1-0.3-0.1-0.5c0-0.2,0.1-0.4,0.1-0.7C75.9,34,76.2,33.6,76.6,33.3z M81,37.5l1.7-4.6H84l0.5-1.5h-4.8l-0.5,1.5h1.2 l-1.7,4.6H81z M86.8,29.6c0.2-0.6,0.5-1.3,0.7-1.9c-0.9,0-1.7,0-2.6,0c0.1-0.3,0.2-0.6,0.3-0.9c0.8,0,1.5,0,2.3,0 c0.2-0.6,0.5-1.3,0.7-1.9c-0.8,0-1.5,0-2.3,0c0.1-0.3,0.2-0.6,0.3-0.8c0.9,0,1.7,0,2.6,0c0.2-0.6,0.5-1.3,0.7-1.9 c-1.8,0-3.6,0-5.4,0c-0.9,2.5-1.8,4.9-2.7,7.4C83.2,29.6,85,29.6,86.8,29.6z M42.3,32.3c-0.4-0.6-1-0.8-2-0.8 c-0.8,0-1.5,0.2-2.3,0.6c-1,0.5-1.7,1.3-2,2.4c-0.4,1.1-0.3,1.9,0.2,2.4c0.4,0.4,1,0.6,1.9,0.6c0.9,0,1.8-0.3,2.6-0.8 c0.8-0.6,1.4-1.3,1.7-2.2C42.7,33.6,42.7,32.8,42.3,32.3z M40,34.5c-0.2,0.5-0.4,0.9-0.7,1.1c-0.2,0.3-0.5,0.4-0.8,0.4 c-0.3,0-0.4-0.1-0.4-0.4c0-0.3,0-0.7,0.2-1.2c0.2-0.5,0.4-0.9,0.7-1.2c0.3-0.3,0.5-0.4,0.8-0.4C40.4,32.9,40.4,33.4,40,34.5z M89.3,37.5c0.9,0,1.8-0.3,2.6-0.8c0.8-0.6,1.4-1.3,1.7-2.2c0.4-0.9,0.3-1.7,0-2.2c-0.4-0.6-1-0.8-2-0.8c-0.8,0-1.5,0.2-2.3,0.6 c-1,0.5-1.7,1.3-2,2.4c-0.4,1.1-0.3,1.9,0.2,2.4C87.8,37.3,88.4,37.5,89.3,37.5z M89.5,34.5c0.2-0.5,0.4-0.9,0.7-1.2 c0.3-0.3,0.5-0.4,0.8-0.4c0.5,0,0.6,0.5,0.2,1.6c-0.2,0.5-0.4,0.9-0.7,1.1c-0.2,0.3-0.5,0.4-0.8,0.4c-0.3,0-0.4-0.1-0.4-0.4 C89.3,35.4,89.3,35,89.5,34.5z M87.4,31.5h-2.2l-2.3,6.1h2.2L87.4,31.5z M59,32.9h1.3l0.5-1.5H56l-0.5,1.5h1.2L55,37.5h2.2 L59,32.9z M71.9,41.7c0.1,0,0.1,0,0.2,0c6.3,0,12.6,0,19,0c2.1,0,4.2,0,6.4,0c0.5,0,1,0,1.5,0c0,0,0.1,0,0.1,0 c0.1-0.1,0.2-0.3,0.3-0.4c-9.1,0-18.1,0-27.2,0C72,41.4,71.9,41.5,71.9,41.7z M62.3,35.2c0,0.1,0,0.1,0,0.1l0.3,2.2H65L64.3,35 c1-0.3,1.6-0.8,1.9-1.5c0.3-0.7,0.1-1.2-0.4-1.6c-0.4-0.3-1.1-0.4-2.1-0.4h-2.3l-2.3,6.1h2.2l0.8-2.1l0.1-0.4 C62.3,35.1,62.3,35.2,62.3,35.2z M63.2,32.7L63.2,32.7c0.7,0,1,0.2,0.8,0.7c-0.1,0.2-0.2,0.4-0.5,0.6c-0.2,0.1-0.5,0.2-0.7,0.2 h-0.2L63.2,32.7z M66.9,39.7c-0.2,0.7-0.5,1.5-0.7,2.2c0,0,0,0,0,0c-0.3-0.7-0.6-1.5-0.9-2.2c-0.1,0-0.2,0-0.3,0 c-0.1,0-0.2,0-0.3,0c-0.4,1.1-0.7,2.2-1.1,3.3c0.2,0,0.4,0,0.7,0c0.1-0.4,0.2-0.7,0.4-1.1c0.1-0.4,0.2-0.7,0.4-1.1 c0.3,0.8,0.6,1.5,1,2.2c0.2,0,0.5,0,0.7,0c0.4-1.1,0.7-2.2,1.1-3.3C67.4,39.7,67.1,39.7,66.9,39.7z M63.4,39.7 c-0.4,1.1-0.7,2.2-1.1,3.3c0.2,0,0.5,0,0.7,0c0.4-1.1,0.7-2.2,1.1-3.3C63.8,39.7,63.6,39.7,63.4,39.7z M69,40.3 c0.3-0.1,0.5-0.1,0.8-0.1c0.2,0.1,0.3,0.2,0.5,0.3c0.1-0.3,0.2-0.5,0.3-0.8c-0.1,0-0.2-0.1-0.3-0.1c-0.4-0.1-0.7-0.1-1.1,0 c-0.8,0.2-1.3,0.7-1.6,1.5c-0.1,0.3-0.2,0.5-0.2,0.8c0,0.5,0.3,0.9,0.9,1c0.4,0.1,0.8,0,1.2-0.1c0.1,0,0.1-0.1,0.1-0.1 c0.1-0.2,0.1-0.4,0.2-0.6c0,0,0-0.1,0-0.1c-0.1,0-0.1,0.1-0.1,0.1c-0.2,0.1-0.5,0.2-0.8,0.3c-0.5,0-0.8-0.3-0.8-0.7 C68.1,41.1,68.5,40.6,69,40.3z M70.6,42.2c-0.2,0-0.4,0.2-0.5,0.4c-0.1,0.2,0.1,0.4,0.3,0.4c0.2,0,0.5-0.2,0.5-0.4 C70.9,42.4,70.8,42.2,70.6,42.2z M32.7,30c0.7,0.2,1.5,0.2,2.3,0.1c0.7-0.1,1.3-0.2,2-0.4c0.1,0,0.1-0.1,0.1-0.1 c0.4-1,0.7-2,1.1-3c0,0,0-0.1,0-0.1c-0.3,0.1-0.5,0.2-0.8,0.3c-0.6,0.2-1.2,0.3-1.8,0.2c-0.3,0-0.6-0.1-0.9-0.2 c-0.6-0.3-0.8-0.9-0.7-1.5c0.1-0.4,0.3-0.8,0.6-1.1c0.8-0.7,1.7-1.1,2.7-1.1c0.6,0,1.2,0.1,1.8,0.4c0,0,0.1,0,0.1,0 c0.4-1,0.8-2.1,1.1-3.1c-0.1,0-0.1-0.1-0.2-0.1c-0.6-0.2-1.1-0.3-1.7-0.4c-0.8-0.1-1.5,0-2.2,0.1c-1.8,0.4-3.5,1.2-4.8,2.5 c-0.7,0.7-1.3,1.4-1.6,2.3c-0.2,0.6-0.4,1.3-0.3,1.9c0.1,0.8,0.4,1.5,1,2.1C31.2,29.5,31.9,29.8,32.7,30z M52.5,41.3 c-4.4,0-8.8,0-13.2,0c-2.4,0-4.8,0-7.2,0c0,0-0.1,0-0.1,0c0,0-0.1,0-0.1,0c-0.1,0.1-0.2,0.3-0.3,0.4c9.6,0,19.2,0,28.8,0 c0.1-0.1,0.1-0.3,0.2-0.4c-0.1,0-0.1,0-0.2,0C57.9,41.3,55.2,41.3,52.5,41.3z M41.3,29.6c0.3-0.8,0.6-1.7,0.9-2.5c0,0,0,0,0,0 c0.2,0.8,0.4,1.7,0.5,2.5c1,0,2.1,0,3.1,0c-0.3-1.1-0.6-2.1-0.9-3.2c0.1,0,0.1,0,0.2-0.1c0.6-0.2,1.1-0.5,1.6-0.9 c0.4-0.4,0.8-0.9,0.9-1.5c0.1-0.7-0.2-1.4-0.9-1.6c-0.3-0.1-0.5-0.1-0.8-0.1c-1.5,0-3,0-4.6,0c-0.1,0-0.1,0-0.2,0 c-0.9,2.5-1.8,5-2.7,7.4C39.4,29.6,40.3,29.6,41.3,29.6z M43.3,24.1c0.2,0,0.5,0,0.7,0c0.1,0,0.1,0,0.2,0c0.2,0.1,0.4,0.3,0.3,0.5 c0,0.1,0,0.2-0.1,0.3c-0.2,0.4-0.6,0.6-1,0.6c-0.2,0-0.3,0-0.5,0c0,0-0.1,0-0.1,0C43,25,43.1,24.5,43.3,24.1z M52.4,29.6 c0.2-0.6,0.5-1.3,0.7-1.9c-0.9,0-1.7,0-2.6,0c0.1-0.3,0.2-0.6,0.3-0.9c0.8,0,1.5,0,2.3,0c0.2-0.6,0.5-1.3,0.7-1.9 c-0.4,0-0.8,0-1.1,0c-0.4,0-0.7,0-1.1,0c0.1-0.3,0.2-0.6,0.3-0.8c0.9,0,1.7,0,2.6,0c0.2-0.6,0.5-1.3,0.7-1.9c-1.8,0-3.6,0-5.4,0 c-0.2,0.5-2.7,7.3-2.7,7.4C48.8,29.6,50.6,29.6,52.4,29.6z M98.8,32.8c-0.1,0.3-0.2,0.6-0.3,0.9c-0.1,0.4-0.2,0.8-0.3,1.4l0-0.5 c0-0.2,0-0.4,0-0.6s0-0.3,0-0.4l-0.3-2.1h-2.1l-2.3,6.1h2.2l0.6-1.5c0.1-0.2,0.2-0.5,0.3-0.8c0.1-0.3,0.2-0.7,0.2-1.1 c0,0.2,0,0.4,0,0.6c0,0.2,0.1,0.4,0.1,0.7l0.4,2.2h2.2l2.3-6.1h-2.2L98.8,32.8z M73.6,31.5h-2.2l-1.5,3.9 c-0.1,0.3-0.2,0.5-0.3,0.6c-0.1,0.1-0.3,0.2-0.5,0.2c-0.2,0-0.3-0.1-0.4-0.2c0-0.1,0-0.3,0.1-0.6l1.5-3.9H68l-1.5,4 c-0.3,0.8-0.2,1.3,0.4,1.7c0.4,0.3,1,0.4,1.8,0.4c0.7,0,1.3-0.1,1.9-0.4c0.4-0.2,0.8-0.4,1-0.6c0.2-0.2,0.4-0.5,0.6-0.9L73.6,31.5 z M34.2,37.3l0.8-1.6c-0.5,0.3-0.9,0.4-1.3,0.4c-0.2,0-0.4,0-0.6-0.1c-0.2-0.1-0.3-0.2-0.3-0.3c-0.1-0.1-0.1-0.3-0.1-0.5 c0-0.2,0.1-0.4,0.1-0.7c0.2-0.5,0.5-0.9,0.8-1.2c0.4-0.3,0.8-0.4,1.2-0.4c0.4,0,0.6,0.1,0.9,0.4l0.6-1.7c-0.3-0.1-0.7-0.1-1.1-0.1 c-1.1,0-2.1,0.3-3,0.8c-0.9,0.6-1.5,1.3-1.8,2.2c-0.4,1-0.3,1.7,0.2,2.3c0.5,0.5,1.1,0.7,2.1,0.7C33.1,37.5,33.6,37.5,34.2,37.3z"></path> </g> </g> </svg> 