<?xml version="1.0" encoding="UTF-8"?> <svg xmlns="http://www.w3.org/2000/svg" xmlns:xlink="http://www.w3.org/1999/xlink" version="1.1" id="Layer_1" x="0px" y="0px" viewBox="0 0 130 120" style="enable-background:new 0 0 130 120;" xml:space="preserve"> <style type="text/css"> .st0{fill:#002554;} .st1{fill:#FFFFFF;} .st2{fill:#E31837;} .st3{fill-rule:evenodd;clip-rule:evenodd;fill:#FFFFFF;} .st4{fill:#002F65;} .st5{fill:#ED1B2F;} </style> <g> <g> <path class="st0" d="M65,109.48c-1.72,0-3.41-0.41-4.73-1.14L22.95,87.54c-2.56-1.42-4.82-4.56-5.36-7.44l-0.35-1.84L0.42,73.6 V47.5h11.05L9.09,34.83c-0.56-2.94,0.5-6.69,2.5-8.92l10.52-11.7c1.93-2.14,5.42-3.7,8.3-3.7h69.16c2.88,0,6.37,1.56,8.3,3.7 l10.53,11.7c2,2.23,3.05,5.98,2.5,8.92l-2.38,12.67h11.05v26.1l-16.82,4.66l-0.35,1.84c-0.54,2.89-2.8,6.01-5.36,7.44 l-37.33,20.79C68.4,109.07,66.73,109.48,65,109.48"></path> <polygon class="st0" points="111.4,72.67 128.36,72.67 111.4,77.38 "></polygon> <polygon class="st0" points="18.6,72.67 1.64,72.67 18.6,77.38 "></polygon> <path class="st1" d="M111.22,79.88c-0.47,2.52-2.52,5.36-4.76,6.6l-37.33,20.79c-1.15,0.64-2.61,0.99-4.14,0.99 c-1.52,0-2.99-0.35-4.14-0.99L23.54,86.48c-2.24-1.25-4.28-4.09-4.75-6.6l-0.93-4.96l-6.22-33.15l-1.35-7.17 c-0.48-2.56,0.47-5.95,2.21-7.88l10.53-11.7c1.69-1.88,4.87-3.29,7.4-3.29h69.16c2.53,0,5.7,1.42,7.4,3.29l10.53,11.7 c1.74,1.94,2.69,5.32,2.21,7.88l-1.35,7.16L111.22,79.88z"></path> <path class="st0" d="M65,109.66c-1.76,0-3.47-0.41-4.82-1.17L22.86,87.7c-2.61-1.45-4.9-4.63-5.45-7.57l-8.5-45.27 c-0.56-2.99,0.51-6.81,2.55-9.07l10.52-11.7c1.96-2.18,5.51-3.76,8.44-3.76h69.16c2.93,0,6.47,1.58,8.43,3.76l10.53,11.7 c2.04,2.27,3.11,6.08,2.54,9.08l-8.49,45.27c-0.55,2.93-2.84,6.12-5.45,7.57L69.82,108.5C68.47,109.25,66.76,109.66,65,109.66 M30.42,13.14c-2.13,0-4.93,1.24-6.36,2.83L13.54,27.66c-1.45,1.62-2.28,4.55-1.88,6.69l8.5,45.27c0.4,2.12,2.18,4.6,4.06,5.64 l37.33,20.79c1.88,1.05,5.03,1.05,6.91,0l37.33-20.79c1.88-1.05,3.67-3.53,4.06-5.64v0l8.49-45.27c0.4-2.13-0.42-5.07-1.88-6.69 l-10.53-11.69c-1.43-1.59-4.22-2.83-6.36-2.83H30.42z"></path> <path class="st1" d="M111.22,79.88c-0.47,2.52-2.52,5.36-4.76,6.6l-37.33,20.79c-1.15,0.64-2.61,0.99-4.14,0.99 c-1.52,0-2.99-0.35-4.14-0.99L23.54,86.48c-2.24-1.25-4.28-4.09-4.75-6.6l-0.93-4.96l-6.22-33.15l-1.35-7.17 c-0.48-2.56,0.47-5.95,2.21-7.88l10.53-11.7c1.69-1.88,4.87-3.29,7.4-3.29h69.16c2.53,0,5.7,1.42,7.4,3.29l10.53,11.7 c1.74,1.94,2.69,5.32,2.21,7.88l-1.35,7.16L111.22,79.88z"></path> <path class="st2" d="M21.46,79.38c0.33,1.74,1.86,3.87,3.4,4.73l37.33,20.79c1.55,0.86,4.08,0.86,5.62,0l37.33-20.79 c1.55-0.86,3.08-2.99,3.41-4.73l1.35-7.19H20.11L21.46,79.38z"></path> <path class="st0" d="M117.04,34.1c0.33-1.74-0.38-4.24-1.56-5.56l-10.53-11.69c-1.18-1.32-3.6-2.39-5.37-2.39H30.42 c-1.77,0-4.19,1.08-5.37,2.39L14.52,28.55c-1.18,1.32-1.89,3.82-1.56,5.56l2.83,15.09h98.41L117.04,34.1z"></path> <rect x="1.64" y="48.71" class="st1" width="126.72" height="23.96"></rect> <rect x="1.64" y="72.67" class="st0" width="126.72" height="1.22"></rect> <rect x="1.64" y="47.5" class="st0" width="126.72" height="1.22"></rect> <polygon class="st0" points="7.25,57.2 4.13,57.2 4.99,53.81 12.96,53.81 12.96,57.2 10.27,57.2 10.27,67.63 7.25,67.63 "></polygon> <polygon class="st0" points="13.61,53.81 16.63,53.81 16.63,59.04 19.28,59.04 19.28,53.81 22.3,53.81 22.3,67.63 19.28,67.63 19.28,62.42 16.63,62.42 16.63,67.63 13.61,67.63 "></polygon> <path class="st0" d="M23.23,53.81h3.02v10.43h2.5V53.81h3.02v13.82H24.7c-0.85,0-1.47-0.85-1.47-2.01V53.81z"></path> <path class="st0" d="M41.48,67.63h-3.02V57.21h-2.65v10.43h-3.02V53.81h6.94c1.02,0,1.76,1.01,1.76,2.41V67.63z"></path> <path class="st0" d="M42.41,67.63V53.81h6.65c1.02,0,1.76,1.01,1.76,2.41v9c0,1.4-0.73,2.41-1.76,2.41H42.41z M47.79,57.21h-2.36 v7.03h2.36V57.21z"></path> <polygon class="st0" points="51.97,53.81 59.65,53.81 58.79,57.2 54.99,57.2 54.99,59.34 58.79,59.34 58.79,61.94 54.99,61.94 54.99,64.23 59.65,64.23 58.79,67.63 51.97,67.63 "></polygon> <path class="st0" d="M68.97,59.85c0,1.17-0.62,2.01-1.47,2.01h-0.13l2.22,5.77h-3.11l-2.69-7.46h2.16V57.2h-2.49v10.43h-3.02 V53.81h6.78c1.02,0,1.76,1.01,1.76,2.41V59.85z"></path> <path class="st0" d="M72.33,53.81h3.4l1.66,10.07h0.58l1.66-10.07h3.3l-2.6,13.82h-3.66c-1.12,0-1.84-0.61-2.12-2.07L72.33,53.81z "></path> <polygon class="st0" points="85.36,53.81 90.45,53.81 93.19,67.63 87.32,67.63 87.32,64.63 89.29,64.63 88.14,57.8 87.56,57.8 85.76,67.63 82.61,67.63 "></polygon> <polygon class="st0" points="93.55,53.81 96.57,53.81 96.57,64.23 100.43,64.23 99.56,67.63 93.55,67.63 "></polygon> <polygon class="st0" points="100.78,53.81 103.81,53.81 103.81,64.23 107.66,64.23 106.8,67.63 100.78,67.63 "></polygon> <polygon class="st0" points="108.24,53.81 115.92,53.81 115.06,57.2 111.26,57.2 111.26,59.34 115.06,59.34 115.06,61.94 111.26,61.94 111.26,64.23 115.92,64.23 115.06,67.63 108.24,67.63 "></polygon> <path class="st0" d="M116.64,67.63l0.86-3.4h4.56v-1.34h-3.77c-0.85,0-1.47-0.85-1.47-2.01v-7.07h3.02v5.69h2.22v-5.69h3.02v11.41 c0,1.4-0.73,2.41-1.76,2.41H116.64z"></path> <polygon class="st3" points="65,93.44 66.2,97.04 70.16,97 66.94,99.33 68.08,102.95 65,100.75 61.9,102.95 63.04,99.33 59.98,97.07 63.79,97.04 "></polygon> <polygon class="st1" points="31.14,76.76 33.33,76.76 36,80.12 36.01,80.12 36.01,76.76 37.43,76.76 37.43,81.38 35.23,81.38 32.57,78.02 32.55,78.02 32.55,81.38 31.14,81.38 "></polygon> <path class="st1" d="M43.39,76.76h1.85l2.54,4.63H46.2l-0.44-0.82h-2.88l-0.42,0.82h-1.59L43.39,76.76z M43.41,79.57h1.82 l-0.92-1.74L43.41,79.57z"></path> <polygon class="st1" points="50.41,76.76 55.82,76.76 55.82,77.91 53.83,77.91 53.83,81.38 52.41,81.38 52.41,77.91 50.41,77.91 "></polygon> <rect x="59.46" y="76.76" class="st1" width="1.42" height="4.63"></rect> <path class="st1" d="M64.76,78.38c0-1.36,0.76-1.68,2.04-1.68h2.28c1.28,0,2.04,0.32,2.04,1.68v1.38c0,1.36-0.76,1.68-2.04,1.68 H66.8c-1.28,0-2.04-0.32-2.04-1.68V78.38z M66.22,79.32c0,0.67,0.14,0.93,0.81,0.93h1.82c0.67,0,0.81-0.26,0.81-0.93v-0.5 c0-0.58-0.14-0.93-0.89-0.93H67.1c-0.75,0-0.89,0.35-0.89,0.93V79.32z"></path> <polygon class="st1" points="74.91,76.76 77.11,76.76 79.78,80.12 79.79,80.12 79.79,76.76 81.21,76.76 81.21,81.38 79.01,81.38 76.35,78.02 76.33,78.02 76.33,81.38 74.91,81.38 "></polygon> <path class="st1" d="M87.16,76.76h1.85l2.54,4.63h-1.58l-0.44-0.82h-2.88l-0.42,0.82h-1.59L87.16,76.76z M87.19,79.57H89 l-0.92-1.74L87.19,79.57z"></path> <polygon class="st1" points="95,76.76 96.42,76.76 96.42,80.19 99.61,80.19 99.61,81.38 95,81.38 "></polygon> <polygon class="st0" points="49.55,84.64 49.93,84.64 49.93,87.15 52.13,87.15 52.13,87.47 49.55,87.47 "></polygon> <path class="st4" d="M52.2,87.54h-2.73v-2.98h0.53v2.52h2.2V87.54z M49.63,87.39h2.43v-0.16h-2.2v-2.52h-0.23V87.39z"></path> <path class="st0" d="M53.91,84.64h0.48l1.68,2.83h-0.43l-0.35-0.6h-2.27l-0.35,0.6h-0.43L53.91,84.64z M54.14,84.95l-0.95,1.61 h1.9L54.14,84.95z"></path> <path class="st4" d="M56.19,87.54h-0.61l-0.35-0.6h-2.18l-0.35,0.6h-0.61l1.77-2.98h0.56l0.02,0.04L56.19,87.54z M55.67,87.39 h0.26l-1.59-2.68h-0.39l-1.59,2.68h0.26l0.35-0.6h2.35L55.67,87.39z M55.22,86.63h-2.16l1.08-1.83L55.22,86.63z M53.33,86.48h1.64 l-0.82-1.38L53.33,86.48z"></path> <polygon class="st0" points="56.5,84.64 56.88,84.64 56.88,85.84 57.36,85.84 59.14,84.64 59.76,84.64 59.77,84.65 57.74,86 59.95,87.46 59.94,87.47 59.27,87.47 57.33,86.15 56.88,86.15 56.88,87.47 56.5,87.47 "></polygon> <path class="st4" d="M59.94,87.54h-0.7l-0.02-0.01l-1.92-1.3h-0.35v1.32h-0.53v-2.98h0.53v1.2h0.38l1.77-1.2h0.68l0.09,0.09 l-0.07,0.06L57.88,86l2.19,1.45l-0.09,0.09L59.94,87.54z M59.3,87.39h0.42L57.61,86l1.93-1.29h-0.37l-1.77,1.2h-0.58v-1.2h-0.23 v2.68h0.23v-1.32h0.55l0.02,0.01L59.3,87.39z"></path> <polygon class="st0" points="60.36,84.64 63.13,84.64 63.13,84.95 60.74,84.95 60.74,85.85 63.04,85.85 63.04,86.17 60.74,86.17 60.74,87.15 63.15,87.15 63.15,87.47 60.36,87.47 "></polygon> <path class="st4" d="M63.23,87.54h-2.94v-2.98h2.93v0.46h-2.39v0.75h2.3v0.46h-2.3v0.84h2.41V87.54z M60.43,87.39h2.64v-0.16 h-2.41v-1.14h2.3v-0.16h-2.3v-1.05h2.4v-0.16h-2.63V87.39z"></path> <polygon class="st0" points="63.38,84.64 63.76,84.64 64.75,87.11 65.72,84.64 66.21,84.64 67.17,87.12 68.17,84.64 68.54,84.64 67.42,87.47 66.92,87.47 65.96,84.98 65,87.47 64.51,87.47 "></polygon> <path class="st4" d="M67.47,87.54h-0.6l-0.91-2.35l-0.91,2.35h-0.6l-0.02-0.05l-1.17-2.93h0.54l0.02,0.05l0.92,2.3l0.92-2.34h0.6 l0.91,2.36l0.95-2.36h0.54L67.47,87.54z M66.98,87.39h0.39l1.07-2.68h-0.21l-1.05,2.61l-1.01-2.61h-0.39l-1.02,2.6l-1.04-2.6H63.5 l1.07,2.68h0.39l1.01-2.62L66.98,87.39z"></path> <path class="st0" d="M68.87,85.67c0-0.72,0.24-1.06,1.01-1.06h1.63c0.77,0,1.01,0.34,1.01,1.06v0.77c0,0.72-0.24,1.06-1.01,1.06 h-1.63c-0.77,0-1.01-0.34-1.01-1.06V85.67z M72.13,85.52c0-0.49-0.3-0.6-0.66-0.6h-1.55c-0.37,0-0.66,0.11-0.66,0.6v1.06 c0,0.49,0.3,0.6,0.66,0.6h1.55c0.37,0,0.66-0.11,0.66-0.6V85.52z"></path> <path class="st4" d="M71.51,87.57h-1.63c-0.77,0-1.08-0.33-1.08-1.13v-0.77c0-0.81,0.31-1.13,1.08-1.13h1.63 c0.77,0,1.08,0.33,1.08,1.13v0.77C72.59,87.25,72.28,87.57,71.51,87.57 M69.88,84.68c-0.68,0-0.93,0.27-0.93,0.98v0.77 c0,0.72,0.25,0.98,0.93,0.98h1.63c0.68,0,0.93-0.27,0.93-0.98v-0.77c0-0.72-0.25-0.98-0.93-0.98H69.88z M71.47,87.26h-1.55 c-0.18,0-0.74,0-0.74-0.68v-1.06c0-0.68,0.56-0.68,0.74-0.68h1.55c0.18,0,0.74,0,0.74,0.68v1.06 C72.21,87.26,71.65,87.26,71.47,87.26 M69.92,85c-0.42,0-0.59,0.15-0.59,0.53v1.06c0,0.37,0.17,0.53,0.59,0.53h1.55 c0.42,0,0.59-0.15,0.59-0.53v-1.06c0-0.37-0.17-0.53-0.59-0.53H69.92z"></path> <path class="st0" d="M73.12,85.67c0-0.72,0.24-1.06,1.01-1.06h1.63c0.77,0,1.01,0.34,1.01,1.06v0.77c0,0.72-0.24,1.06-1.01,1.06 h-1.63c-0.77,0-1.01-0.34-1.01-1.06V85.67z M76.38,85.52c0-0.49-0.3-0.6-0.66-0.6h-1.55c-0.37,0-0.66,0.11-0.66,0.6v1.06 c0,0.49,0.3,0.6,0.66,0.6h1.55c0.37,0,0.66-0.11,0.66-0.6V85.52z"></path> <path class="st4" d="M75.76,87.57h-1.63c-0.77,0-1.08-0.33-1.08-1.13v-0.77c0-0.81,0.31-1.13,1.08-1.13h1.63 c0.77,0,1.08,0.33,1.08,1.13v0.77C76.84,87.25,76.53,87.57,75.76,87.57 M74.13,84.68c-0.68,0-0.93,0.27-0.93,0.98v0.77 c0,0.72,0.25,0.98,0.93,0.98h1.63c0.68,0,0.93-0.27,0.93-0.98v-0.77c0-0.72-0.25-0.98-0.93-0.98H74.13z M75.72,87.26h-1.55 c-0.18,0-0.74,0-0.74-0.68v-1.06c0-0.68,0.56-0.68,0.74-0.68h1.55c0.18,0,0.74,0,0.74,0.68v1.06 C76.46,87.26,75.9,87.26,75.72,87.26 M74.17,85c-0.42,0-0.59,0.15-0.59,0.53v1.06c0,0.37,0.17,0.53,0.59,0.53h1.55 c0.42,0,0.59-0.15,0.59-0.53v-1.06c0-0.37-0.17-0.53-0.59-0.53H74.17z"></path> <path class="st0" d="M77.42,84.64h2.29c0.95,0,1.21,0.3,1.21,1.41c0,1.04-0.26,1.41-1.22,1.41h-2.27V84.64z M80.53,85.92 c0-0.82-0.25-0.97-0.72-0.97h-2v2.2h1.94c0.46,0,0.79-0.1,0.79-0.95V85.92z"></path> <path class="st4" d="M79.69,87.54h-2.35v-2.98h2.36c0.99,0,1.28,0.33,1.28,1.49C80.99,87.17,80.66,87.54,79.69,87.54 M77.5,87.39 h2.2c0.89,0,1.14-0.3,1.14-1.34c0-1.08-0.22-1.34-1.13-1.34H77.5V87.39z M79.75,87.23h-2.02v-2.35h2.08c0.51,0,0.8,0.17,0.8,1.04 v0.29C80.61,87.06,80.29,87.23,79.75,87.23 M77.88,87.08h1.87c0.42,0,0.71-0.06,0.71-0.87v-0.29c0-0.83-0.27-0.89-0.65-0.89h-1.93 V87.08z"></path> <path class="st0" d="M49.67,89.84c0-0.72,0.24-1.06,1.01-1.06h1.47c0.7,0,0.89,0.32,0.89,0.7v0.24h-0.34V89.6 c0-0.48-0.3-0.5-0.65-0.5h-1.33c-0.37,0-0.66,0.11-0.66,0.6v1.06c0,0.49,0.3,0.6,0.66,0.6h1.34c0.52,0,0.66-0.11,0.66-0.49v-0.18 h0.36v0.19c0,0.51-0.16,0.79-0.96,0.79h-1.45c-0.77,0-1.01-0.34-1.01-1.06V89.84z"></path> <path class="st4" d="M52.12,91.75h-1.45c-0.77,0-1.08-0.33-1.08-1.13v-0.77c0-0.81,0.31-1.13,1.08-1.13h1.47 c0.8,0,0.96,0.42,0.96,0.78v0.32h-0.49v-0.2c0-0.39-0.18-0.43-0.57-0.43h-1.33c-0.42,0-0.59,0.15-0.59,0.53v1.06 c0,0.37,0.17,0.53,0.59,0.53h1.34c0.5,0,0.59-0.1,0.59-0.42v-0.25h0.51v0.27C53.15,91.42,52.98,91.75,52.12,91.75 M50.67,88.86 c-0.68,0-0.93,0.27-0.93,0.98v0.77c0,0.72,0.25,0.98,0.93,0.98h1.45c0.75,0,0.88-0.24,0.88-0.71v-0.12h-0.21v0.1 c0,0.48-0.25,0.57-0.74,0.57h-1.34c-0.18,0-0.74,0-0.74-0.68V89.7c0-0.68,0.56-0.68,0.74-0.68h1.33c0.31,0,0.72,0,0.72,0.58v0.05 h0.18v-0.17c0-0.27-0.08-0.63-0.81-0.63H50.67z"></path> <path class="st0" d="M53.62,89.84c0-0.72,0.24-1.06,1.01-1.06h1.63c0.77,0,1.01,0.34,1.01,1.06v0.77c0,0.72-0.24,1.06-1.01,1.06 h-1.63c-0.77,0-1.01-0.34-1.01-1.06V89.84z M56.88,89.7c0-0.49-0.3-0.6-0.66-0.6h-1.55c-0.37,0-0.66,0.11-0.66,0.6v1.06 c0,0.49,0.3,0.6,0.66,0.6h1.55c0.37,0,0.66-0.11,0.66-0.6V89.7z"></path> <path class="st4" d="M56.26,91.75h-1.63c-0.77,0-1.08-0.33-1.08-1.13v-0.77c0-0.81,0.31-1.13,1.08-1.13h1.63 c0.77,0,1.08,0.33,1.08,1.13v0.77C57.34,91.42,57.03,91.75,56.26,91.75 M54.63,88.86c-0.68,0-0.93,0.27-0.93,0.98v0.77 c0,0.72,0.25,0.98,0.93,0.98h1.63c0.68,0,0.93-0.27,0.93-0.98v-0.77c0-0.72-0.25-0.98-0.93-0.98H54.63z M56.22,91.44h-1.55 c-0.18,0-0.74,0-0.74-0.68V89.7c0-0.68,0.56-0.68,0.74-0.68h1.55c0.18,0,0.74,0,0.74,0.68v1.06 C56.96,91.44,56.4,91.44,56.22,91.44 M54.67,89.17c-0.42,0-0.59,0.15-0.59,0.53v1.06c0,0.37,0.17,0.53,0.59,0.53h1.55 c0.42,0,0.59-0.15,0.59-0.53V89.7c0-0.37-0.17-0.53-0.59-0.53H54.67z"></path> <polygon class="st0" points="57.95,88.81 58.33,88.81 58.33,91.33 60.53,91.33 60.53,91.64 57.95,91.64 "></polygon> <path class="st4" d="M60.6,91.72h-2.73v-2.98h0.53v2.52h2.2V91.72z M58.02,91.57h2.43V91.4h-2.2v-2.52h-0.23V91.57z"></path> <path class="st0" d="M60.86,89.84c0-0.72,0.24-1.06,1.01-1.06h1.63c0.77,0,1.01,0.34,1.01,1.06v0.77c0,0.72-0.24,1.06-1.01,1.06 h-1.63c-0.77,0-1.01-0.34-1.01-1.06V89.84z M64.13,89.7c0-0.49-0.3-0.6-0.66-0.6h-1.55c-0.37,0-0.66,0.11-0.66,0.6v1.06 c0,0.49,0.3,0.6,0.66,0.6h1.55c0.37,0,0.66-0.11,0.66-0.6V89.7z"></path> <path class="st4" d="M63.5,91.75h-1.63c-0.77,0-1.08-0.33-1.08-1.13v-0.77c0-0.81,0.31-1.13,1.08-1.13h1.63 c0.77,0,1.08,0.33,1.08,1.13v0.77C64.58,91.42,64.27,91.75,63.5,91.75 M61.87,88.86c-0.68,0-0.93,0.27-0.93,0.98v0.77 c0,0.72,0.25,0.98,0.93,0.98h1.63c0.68,0,0.93-0.27,0.93-0.98v-0.77c0-0.72-0.25-0.98-0.93-0.98H61.87z M63.46,91.44h-1.55 c-0.18,0-0.74,0-0.74-0.68V89.7c0-0.68,0.56-0.68,0.74-0.68h1.55c0.18,0,0.74,0,0.74,0.68v1.06 C64.2,91.44,63.64,91.44,63.46,91.44 M61.91,89.17c-0.42,0-0.59,0.15-0.59,0.53v1.06c0,0.37,0.17,0.53,0.59,0.53h1.55 c0.42,0,0.59-0.15,0.59-0.53V89.7c0-0.37-0.17-0.53-0.59-0.53H61.91z"></path> <path class="st0" d="M65.16,88.81h2.26c0.82,0,0.95,0.27,0.95,0.8v0.23c0,0.4-0.23,0.51-0.52,0.54v0.01 c0.39,0.07,0.48,0.27,0.48,0.53v0.72h-0.36v-0.62c0-0.44-0.22-0.5-0.56-0.5h-1.87v1.12h-0.38V88.81z M67.38,90.21 c0.43,0,0.61-0.11,0.61-0.41v-0.26c0-0.32-0.14-0.42-0.7-0.42h-1.74v1.09H67.38z"></path> <path class="st4" d="M68.41,91.72H67.9v-0.7c0-0.38-0.16-0.42-0.49-0.42h-1.79v1.12h-0.53v-2.98h2.34c0.86,0,1.02,0.31,1.02,0.88 v0.23c0,0.33-0.15,0.48-0.32,0.55c0.19,0.1,0.29,0.27,0.29,0.52V91.72z M68.05,91.57h0.21v-0.65c0-0.23-0.07-0.39-0.42-0.46 l-0.06-0.01v-0.13l0.07-0.01c0.27-0.03,0.45-0.11,0.45-0.46v-0.23c0-0.51-0.12-0.73-0.87-0.73h-2.19v2.68h0.23v-1.12h1.94 c0.34,0,0.64,0.04,0.64,0.57V91.57z M67.38,90.29h-1.91v-1.24h1.82c0.51,0,0.77,0.08,0.77,0.49v0.26 C68.06,90.23,67.7,90.29,67.38,90.29 M65.62,90.14h1.76c0.44,0,0.53-0.12,0.53-0.34v-0.26c0-0.24-0.06-0.34-0.62-0.34h-1.67V90.14 z"></path> <path class="st0" d="M70.41,88.81h0.48l1.68,2.83h-0.43l-0.35-0.6h-2.27l-0.35,0.6h-0.43L70.41,88.81z M70.65,89.13l-0.95,1.61 h1.9L70.65,89.13z"></path> <path class="st4" d="M72.7,91.72h-0.61l-0.35-0.6h-2.18l-0.35,0.6H68.6l1.77-2.98h0.56l0.02,0.04L72.7,91.72z M72.18,91.57h0.26 l-1.59-2.68h-0.39l-1.59,2.68h0.26l0.35-0.6h2.35L72.18,91.57z M71.73,90.81h-2.16l1.08-1.83L71.73,90.81z M69.83,90.66h1.64 l-0.82-1.38L69.83,90.66z"></path> <path class="st0" d="M72.98,88.81h2.29c0.95,0,1.21,0.3,1.21,1.41c0,1.04-0.26,1.41-1.22,1.41h-2.27V88.81z M76.09,90.09 c0-0.82-0.25-0.97-0.72-0.97h-2v2.2h1.94c0.47,0,0.79-0.1,0.79-0.95V90.09z"></path> <path class="st4" d="M75.25,91.72h-2.35v-2.98h2.36c0.99,0,1.28,0.33,1.28,1.49C76.55,91.34,76.22,91.72,75.25,91.72 M73.06,91.57 h2.2c0.89,0,1.14-0.3,1.14-1.34c0-1.08-0.22-1.34-1.13-1.34h-2.21V91.57z M75.3,91.4h-2.02v-2.35h2.08c0.51,0,0.8,0.17,0.8,1.04 v0.29C76.17,91.24,75.85,91.4,75.3,91.4 M73.44,91.25h1.87c0.42,0,0.71-0.06,0.71-0.87v-0.29c0-0.83-0.27-0.89-0.65-0.89h-1.93 V91.25z"></path> <path class="st0" d="M77.08,89.84c0-0.72,0.24-1.06,1.01-1.06h1.63c0.77,0,1.01,0.34,1.01,1.06v0.77c0,0.72-0.24,1.06-1.01,1.06 h-1.63c-0.77,0-1.01-0.34-1.01-1.06V89.84z M80.34,89.7c0-0.49-0.3-0.6-0.66-0.6h-1.55c-0.37,0-0.66,0.11-0.66,0.6v1.06 c0,0.49,0.3,0.6,0.66,0.6h1.55c0.37,0,0.66-0.11,0.66-0.6V89.7z"></path> <path class="st4" d="M79.72,91.75h-1.63c-0.77,0-1.08-0.33-1.08-1.13v-0.77c0-0.81,0.31-1.13,1.08-1.13h1.63 c0.77,0,1.08,0.33,1.08,1.13v0.77C80.8,91.42,80.48,91.75,79.72,91.75 M78.09,88.86c-0.68,0-0.93,0.27-0.93,0.98v0.77 c0,0.72,0.25,0.98,0.93,0.98h1.63c0.68,0,0.93-0.27,0.93-0.98v-0.77c0-0.72-0.25-0.98-0.93-0.98H78.09z M79.68,91.44h-1.55 c-0.18,0-0.74,0-0.74-0.68V89.7c0-0.68,0.56-0.68,0.74-0.68h1.55c0.18,0,0.74,0,0.74,0.68v1.06 C80.42,91.44,79.86,91.44,79.68,91.44 M78.13,89.17c-0.42,0-0.59,0.15-0.59,0.53v1.06c0,0.37,0.17,0.53,0.59,0.53h1.55 c0.42,0,0.59-0.15,0.59-0.53V89.7c0-0.37-0.17-0.53-0.59-0.53H78.13z"></path> </g> <g> <rect x="27.27" y="21.32" transform="matrix(1 -2.215653e-03 2.215653e-03 1 -0.0701 0.0835)" class="st5" width="20.72" height="20.72"></rect> <g> <path class="st1" d="M96.89,32.19l1.16-3.05l1.17,3.05L96.89,32.19z M99.25,27.41l-2.41,0.01l-3.36,8.27l2.09,0l0.76-2.02 l3.44-0.01l0.77,2.02l2.09,0L99.25,27.41z M82.23,34.28c-1.36,0-2.47-1.22-2.47-2.74c0-1.52,1.1-2.75,2.46-2.75 c1.36,0,2.47,1.22,2.47,2.74C84.69,33.04,83.59,34.27,82.23,34.28 M82.22,27.16c-2.41,0.01-4.36,1.96-4.36,4.38 c0.01,2.41,1.97,4.36,4.38,4.36c2.41-0.01,4.36-1.96,4.36-4.38C86.59,29.11,84.63,27.16,82.22,27.16 M65,34.31 c-1.36,0-2.47-1.22-2.47-2.74c0-1.52,1.1-2.75,2.46-2.75c1.36,0,2.47,1.22,2.47,2.74C67.46,33.08,66.36,34.31,65,34.31 M64.99,27.2c-2.41,0.01-4.36,1.96-4.36,4.38c0.01,2.41,1.96,4.36,4.37,4.36c2.41-0.01,4.36-1.96,4.36-4.38 C69.36,29.15,67.4,27.2,64.99,27.2 M75.78,27.46l-2.13,3.35l-2.15-3.34l-2.09,0l3.32,5.18l0.01,3.08l1.84,0l-0.01-3.08l3.3-5.19 L75.78,27.46z M93.9,27.42l-7.07,0.02l0,1.59l2.62-0.01l0.01,6.68l1.84,0l-0.01-6.68l2.61-0.01L93.9,27.42z M53.17,29.1 l2.62-0.01l0.01,6.68l1.84,0l-0.01-6.68l2.61-0.01l0-1.59l-7.07,0.02L53.17,29.1z"></path> <path class="st1" d="M37.62,26.97c-3.91,0.01-6.9,2.03-6.9,4.72c0.01,2.6,2.93,4.7,6.92,4.69c3.99-0.01,6.9-2.12,6.9-4.72 C44.54,28.98,41.54,26.97,37.62,26.97 M41.94,28.98c0.15,0.58-0.53,1.31-2.7,1.55c-0.15-1.48-0.59-2.72-1.32-2.99 c0.98,0.03,1.9,0.19,2.71,0.48C41.39,28.31,41.86,28.67,41.94,28.98 M38.72,31.65c0,1.87-0.56,2.65-1.08,2.65 c-0.53,0-1.09-0.77-1.09-2.64c0-0.01,0-0.01,0-0.02c0.35,0.03,0.71,0.04,1.09,0.04c0.37,0,0.74-0.02,1.09-0.05 C38.72,31.64,38.72,31.65,38.72,31.65 M37.63,30.61c-0.37,0-0.71-0.01-1.02-0.03c0.16-1.22,0.6-1.94,1.02-1.94 c0.42,0,0.86,0.71,1.02,1.93C38.34,30.6,38,30.61,37.63,30.61 M33.32,29c0.08-0.31,0.54-0.67,1.29-0.96 c0.81-0.3,1.74-0.47,2.72-0.5c-0.73,0.27-1.16,1.51-1.3,2.99C33.86,30.31,33.18,29.58,33.32,29 M31.75,31.52 c0-0.79,0.26-1.48,0.72-2.05c0.06,1.05,1.48,1.83,3.51,2.1c0,0.03,0,0.05,0,0.08c0.01,2.53,0.66,3.88,1.38,4.15 C34.27,35.71,31.75,33.81,31.75,31.52 M37.92,35.81c0.72-0.29,1.38-1.73,1.37-4.16c0-0.03,0-0.05,0-0.08 c2.03-0.28,3.44-1.07,3.5-2.12c0.46,0.57,0.73,1.25,0.73,2.04C43.53,33.79,41.02,35.7,37.92,35.81"></path> </g> </g> </g> </svg> 