<?xml version="1.0" encoding="UTF-8"?> <svg xmlns="http://www.w3.org/2000/svg" xmlns:xlink="http://www.w3.org/1999/xlink" version="1.1" id="Layer_1" x="0px" y="0px" viewBox="0 0 130 120" style="enable-background:new 0 0 130 120;" xml:space="preserve"> <style type="text/css"> .st0{fill:#002554;} .st1{fill:#FFFFFF;} .st2{fill:#E31837;} .st3{fill-rule:evenodd;clip-rule:evenodd;fill:#FFFFFF;} </style> <g> <g> <g> <g> <path class="st0" d="M65,109.5c-1.7,0-3.4-0.4-4.7-1.1L22.9,87.5c-2.6-1.4-4.8-4.6-5.4-7.4l-0.3-1.8L0.4,73.6V47.5h11L9.1,34.8 c-0.6-2.9,0.5-6.7,2.5-8.9l10.5-11.7c1.9-2.1,5.4-3.7,8.3-3.7h69.2c2.9,0,6.4,1.6,8.3,3.7l10.5,11.7c2,2.2,3.1,6,2.5,8.9 l-2.4,12.7h11v26.1l-16.8,4.7l-0.3,1.8c-0.5,2.9-2.8,6-5.4,7.4l-37.3,20.8C68.4,109.1,66.7,109.5,65,109.5z"></path> </g> <polygon class="st0" points="111.4,72.7 128.4,72.7 128.4,72.7 111.4,77.4 "></polygon> <polygon class="st0" points="18.6,72.7 1.6,72.7 1.6,72.7 18.6,77.4 "></polygon> <g> <path class="st1" d="M111.2,79.9c-0.5,2.5-2.5,5.4-4.8,6.6l-37.3,20.8c-1.1,0.6-2.6,1-4.1,1c-1.5,0-3-0.3-4.1-1L23.5,86.5 c-2.2-1.2-4.3-4.1-4.8-6.6l-0.9-5l-6.2-33.1l-1.3-7.2c-0.5-2.6,0.5-5.9,2.2-7.9L23,15c1.7-1.9,4.9-3.3,7.4-3.3h69.2 c2.5,0,5.7,1.4,7.4,3.3l10.5,11.7c1.7,1.9,2.7,5.3,2.2,7.9l-1.3,7.2L111.2,79.9z"></path> <path class="st0" d="M65,109.7c-1.8,0-3.5-0.4-4.8-1.2L22.9,87.7c-2.6-1.4-4.9-4.6-5.4-7.6L8.9,34.9c-0.6-3,0.5-6.8,2.5-9.1 L22,14.1c2-2.2,5.5-3.8,8.4-3.8h69.2c2.9,0,6.5,1.6,8.4,3.8l10.5,11.7c2,2.3,3.1,6.1,2.5,9.1l-8.5,45.3 c-0.5,2.9-2.8,6.1-5.4,7.6l-37.3,20.8C68.5,109.2,66.8,109.7,65,109.7z M30.4,13.1c-2.1,0-4.9,1.2-6.4,2.8L13.5,27.7 c-1.5,1.6-2.3,4.6-1.9,6.7l8.5,45.3c0.4,2.1,2.2,4.6,4.1,5.6l37.3,20.8c1.9,1,5,1,6.9,0l37.3-20.8c1.9-1,3.7-3.5,4.1-5.6v0 l8.5-45.3c0.4-2.1-0.4-5.1-1.9-6.7L105.9,16c-1.4-1.6-4.2-2.8-6.4-2.8H30.4z"></path> </g> <path class="st1" d="M111.2,79.9c-0.5,2.5-2.5,5.4-4.8,6.6l-37.3,20.8c-1.1,0.6-2.6,1-4.1,1c-1.5,0-3-0.3-4.1-1L23.5,86.5 c-2.2-1.2-4.3-4.1-4.8-6.6l-0.9-5l-6.2-33.1l-1.3-7.2c-0.5-2.6,0.5-5.9,2.2-7.9L23,15c1.7-1.9,4.9-3.3,7.4-3.3h69.2 c2.5,0,5.7,1.4,7.4,3.3l10.5,11.7c1.7,1.9,2.7,5.3,2.2,7.9l-1.3,7.2L111.2,79.9z"></path> <g> <path class="st2" d="M21.5,79.4c0.3,1.7,1.9,3.9,3.4,4.7l37.3,20.8c1.5,0.9,4.1,0.9,5.6,0l37.3-20.8c1.5-0.9,3.1-3,3.4-4.7 l1.3-7.2H20.1L21.5,79.4z"></path> <path class="st0" d="M117,34.1c0.3-1.7-0.4-4.2-1.6-5.6L105,16.9c-1.2-1.3-3.6-2.4-5.4-2.4H30.4c-1.8,0-4.2,1.1-5.4,2.4 L14.5,28.5c-1.2,1.3-1.9,3.8-1.6,5.6l2.8,15.1h98.4L117,34.1z"></path> </g> <path class="st1" d="M128.4,72.7H1.6v-24h126.7V72.7z"></path> <rect x="1.6" y="72.7" class="st0" width="126.7" height="1.2"></rect> <rect x="1.6" y="47.5" class="st0" width="126.7" height="1.2"></rect> <g> <path class="st0" d="M31.7,53.8h3v10.4h2.5V53.8h3v13.8h-7.1c-0.8,0-1.5-0.8-1.5-2V53.8z"></path> <path class="st0" d="M49.9,67.6h-3V57.2h-2.6v10.4h-3V53.8h6.9c1,0,1.8,1,1.8,2.4V67.6z"></path> <path class="st0" d="M53,53.8H58l2.7,13.8h-5.9v-3h2l-1.2-6.8h-0.6l-1.8,9.8h-3.2L53,53.8z"></path> <path class="st0" d="M61.1,67.6V53.8h6.6c1,0,1.8,1,1.8,2.4v9c0,1.4-0.7,2.4-1.8,2.4H61.1z M66.5,64.2v-7h-2.4v7H66.5z"></path> <path class="st0" d="M70.5,53.8h3v13.8h-3V53.8z"></path> <path class="st0" d="M74.5,53.8h3v10.4h3.9l-0.9,3.4h-6V53.8z"></path> <path class="st0" d="M81.7,53.8h3v10.4h3.9l-0.9,3.4h-6V53.8z"></path> <path class="st0" d="M91.1,53.8h5.1l2.7,13.8H93v-3h2l-1.2-6.8h-0.6l-1.8,9.8h-3.2L91.1,53.8z"></path> </g> </g> <g> <polyline class="st3" points="65,93.4 66.2,97 70.2,97 66.9,99.3 68.1,103 65,100.8 61.9,103 63,99.3 60,97.1 63.8,97 65,93.4 "></polyline> <g> <g> <path class="st1" d="M31.1,76.8h2.2l2.7,3.4h0v-3.4h1.4v4.6h-2.2L32.6,78h0v3.4h-1.4V76.8z"></path> <path class="st1" d="M43.4,76.8h1.8l2.5,4.6h-1.6l-0.4-0.8h-2.9l-0.4,0.8h-1.6L43.4,76.8z M43.4,79.6h1.8l-0.9-1.7L43.4,79.6z"></path> <path class="st1" d="M50.4,76.8h5.4v1.2h-2v3.5h-1.4v-3.5h-2V76.8z"></path> <path class="st1" d="M59.5,76.8h1.4v4.6h-1.4V76.8z"></path> <path class="st1" d="M64.8,78.4c0-1.4,0.8-1.7,2-1.7h2.3c1.3,0,2,0.3,2,1.7v1.4c0,1.4-0.8,1.7-2,1.7h-2.3c-1.3,0-2-0.3-2-1.7 V78.4z M66.2,79.3c0,0.7,0.1,0.9,0.8,0.9h1.8c0.7,0,0.8-0.3,0.8-0.9v-0.5c0-0.6-0.1-0.9-0.9-0.9h-1.7c-0.7,0-0.9,0.4-0.9,0.9 V79.3z"></path> <path class="st1" d="M74.9,76.8h2.2l2.7,3.4h0v-3.4h1.4v4.6H79L76.3,78h0v3.4h-1.4V76.8z"></path> <path class="st1" d="M87.2,76.8H89l2.5,4.6H90l-0.4-0.8h-2.9l-0.4,0.8h-1.6L87.2,76.8z M87.2,79.6H89l-0.9-1.7L87.2,79.6z"></path> <path class="st1" d="M95,76.8h1.4v3.4h3.2v1.2H95V76.8z"></path> </g> </g> <g> <g> <path class="st0" d="M48.4,84.6H49l2.6,2.5v-2.5h0.4v2.8h-0.6L48.8,85v2.5h-0.4V84.6z"></path> <path class="st0" d="M52,87.5h-0.7l0,0l-2.5-2.4v2.4h-0.5v-3H49l0,0l2.5,2.4v-2.4H52V87.5z M51.4,87.4h0.5v-2.7h-0.2v2.6 l-2.7-2.6h-0.5v2.7h0.2v-2.6L51.4,87.4z"></path> </g> <g> <path class="st0" d="M52.7,84.6h2.8V85H53v0.9h2.3v0.3H53v1h2.4v0.3h-2.8V84.6z"></path> <path class="st0" d="M55.5,87.5h-2.9v-3h2.9V85h-2.4v0.8h2.3v0.5h-2.3v0.8h2.4V87.5z M52.7,87.4h2.6v-0.2H53v-1.1h2.3v-0.2H53 v-1.1h2.4v-0.2h-2.6V87.4z"></path> </g> <g> <path class="st0" d="M55.7,84.6h0.4l1,2.5l1-2.5h0.5l1,2.5l1-2.5h0.4l-1.1,2.8h-0.5l-1-2.5l-1,2.5h-0.5L55.7,84.6z"></path> <path class="st0" d="M59.8,87.5h-0.6l-0.9-2.4l-0.9,2.4h-0.6l0,0l-1.2-2.9h0.5l0.9,2.3l0.9-2.3h0.6l0.9,2.4l0.9-2.4H61l0,0.1 L59.8,87.5z M59.3,87.4h0.4l1.1-2.7h-0.2l-1.1,2.6l-1-2.6h-0.4l-1,2.6l-1-2.6h-0.2l1.1,2.7h0.4l1-2.6L59.3,87.4z"></path> </g> <g> <path class="st0" d="M63.1,84.6h2.4c0.6,0,0.7,0.3,0.7,0.6v0.2c0,0.2-0.1,0.4-0.5,0.4v0c0.3,0,0.6,0.1,0.6,0.6v0.3 c0,0.4-0.4,0.6-0.8,0.6h-2.5V84.6z M65.9,85.2c0-0.3-0.3-0.3-0.4-0.3h-2v0.9h2c0.2,0,0.4-0.1,0.4-0.3V85.2z M66,86.6 c0-0.4-0.2-0.4-0.5-0.4h-2v1h2c0.4,0,0.5-0.1,0.5-0.4V86.6z"></path> <path class="st0" d="M65.6,87.5h-2.5v-3h2.5c0.7,0,0.8,0.4,0.8,0.7v0.2c0,0.2-0.1,0.4-0.2,0.4c0.2,0.1,0.4,0.3,0.4,0.6v0.3 C66.5,87.3,66.1,87.5,65.6,87.5z M63.2,87.4h2.4c0.4,0,0.7-0.1,0.7-0.5v-0.3c0-0.3-0.2-0.5-0.5-0.5l-0.1,0v-0.1l0.1,0 c0.3,0,0.4-0.2,0.4-0.4v-0.2c0-0.4-0.2-0.6-0.7-0.6h-2.3V87.4z M65.5,87.2h-2.1v-1.1h2c0.3,0,0.6,0,0.6,0.5v0.2 C66.1,87.1,65.9,87.2,65.5,87.2z M63.6,87.1h1.9c0.3,0,0.4-0.1,0.4-0.3v-0.2c0-0.3-0.1-0.3-0.5-0.3h-1.9V87.1z M65.5,85.9h-2.1 v-1.1h2.1c0.2,0,0.5,0.1,0.5,0.4v0.3C66,85.8,65.8,85.9,65.5,85.9z M63.6,85.8h1.9c0.3,0,0.3-0.2,0.3-0.3v-0.3 c0-0.2-0.3-0.2-0.3-0.2h-1.9V85.8z"></path> </g> <g> <path class="st0" d="M67.1,84.6h2.8V85h-2.4v0.9h2.3v0.3h-2.3v1h2.4v0.3h-2.8V84.6z"></path> <path class="st0" d="M70,87.5H67v-3h2.9V85h-2.4v0.8h2.3v0.5h-2.3v0.8H70V87.5z M67.2,87.4h2.6v-0.2h-2.4v-1.1h2.3v-0.2h-2.3 v-1.1h2.4v-0.2h-2.6V87.4z"></path> </g> <g> <path class="st0" d="M70.4,84.6h2.3c0.8,0,0.9,0.3,0.9,0.8v0.2c0,0.4-0.2,0.5-0.5,0.5v0c0.4,0.1,0.5,0.3,0.5,0.5v0.7h-0.4v-0.6 c0-0.4-0.2-0.5-0.6-0.5h-1.9v1.1h-0.4V84.6z M72.7,86c0.4,0,0.6-0.1,0.6-0.4v-0.3c0-0.3-0.1-0.4-0.7-0.4h-1.7V86H72.7z"></path> <path class="st0" d="M73.7,87.5h-0.5v-0.7c0-0.4-0.2-0.4-0.5-0.4h-1.8v1.1h-0.5v-3h2.3c0.9,0,1,0.3,1,0.9v0.2 c0,0.3-0.1,0.5-0.3,0.6c0.2,0.1,0.3,0.3,0.3,0.5V87.5z M73.3,87.4h0.2v-0.6c0-0.2-0.1-0.4-0.4-0.5l-0.1,0v-0.1l0.1,0 c0.3,0,0.5-0.1,0.5-0.5v-0.2c0-0.5-0.1-0.7-0.9-0.7h-2.2v2.7h0.2v-1.1h1.9c0.3,0,0.6,0,0.6,0.6V87.4z M72.7,86.1h-1.9v-1.2h1.8 c0.5,0,0.8,0.1,0.8,0.5v0.3C73.3,86.1,73,86.1,72.7,86.1z M70.9,86h1.8c0.4,0,0.5-0.1,0.5-0.3v-0.3c0-0.2-0.1-0.3-0.6-0.3h-1.7 V86z"></path> </g> <g> <path class="st0" d="M74.3,84.6h0.4v2.5h2.2v0.3h-2.6V84.6z"></path> <path class="st0" d="M77,87.5h-2.7v-3h0.5v2.5H77V87.5z M74.4,87.4h2.4v-0.2h-2.2v-2.5h-0.2V87.4z"></path> </g> <g> <path class="st0" d="M77.3,84.6h0.4v2.8h-0.4V84.6z"></path> <path class="st0" d="M77.8,87.5h-0.5v-3h0.5V87.5z M77.4,87.4h0.2v-2.7h-0.2V87.4z"></path> </g> <g> <path class="st0" d="M78.5,84.6H79l2.6,2.5v-2.5H82v2.8h-0.6L78.8,85v2.5h-0.4V84.6z"></path> <path class="st0" d="M82.1,87.5h-0.7l0,0l-2.5-2.4v2.4h-0.5v-3h0.7l0,0l2.5,2.4v-2.4h0.5V87.5z M81.5,87.4h0.5v-2.7h-0.2v2.6 L79,84.7h-0.5v2.7h0.2v-2.6L81.5,87.4z"></path> </g> <g> <path class="st0" d="M50.3,88.8h0.6l2.6,2.5v-2.5h0.4v2.8h-0.6l-2.6-2.5v2.5h-0.4V88.8z"></path> <path class="st0" d="M53.9,91.7h-0.7l0,0l-2.5-2.4v2.4h-0.5v-3h0.7l0,0l2.5,2.4v-2.4h0.5V91.7z M53.3,91.6h0.5v-2.7h-0.2v2.6 l-2.7-2.6h-0.5v2.7h0.2V89L53.3,91.6z"></path> </g> <g> <path class="st0" d="M54.6,88.8h2.8v0.3H55V90h2.3v0.3H55v1h2.4v0.3h-2.8V88.8z"></path> <path class="st0" d="M57.5,91.7h-2.9v-3h2.9v0.5h-2.4V90h2.3v0.5h-2.3v0.8h2.4V91.7z M54.7,91.6h2.6v-0.2h-2.4v-1.1h2.3v-0.2 h-2.3v-1.1h2.4v-0.2h-2.6V91.6z"></path> </g> <g> <path class="st0" d="M57.6,88.8H58l1,2.5l1-2.5h0.5l1,2.5l1-2.5h0.4l-1.1,2.8h-0.5l-1-2.5l-1,2.5h-0.5L57.6,88.8z"></path> <path class="st0" d="M61.7,91.7h-0.6l-0.9-2.4l-0.9,2.4h-0.6l0,0l-1.2-2.9H58l0.9,2.3l0.9-2.3h0.6l0.9,2.4l0.9-2.4h0.5l0,0.1 L61.7,91.7z M61.2,91.6h0.4l1.1-2.7h-0.2l-1.1,2.6l-1-2.6H60l-1,2.6l-1-2.6h-0.2l1.1,2.7h0.4l1-2.6L61.2,91.6z"></path> </g> <g> <path class="st0" d="M66.4,90.4l-1.6-1.6h0.5l1.3,1.3l1.3-1.3h0.5l-1.6,1.6v1.2h-0.4V90.4z"></path> <path class="st0" d="M66.8,91.7h-0.5v-1.2l-1.7-1.7h0.7l1.3,1.3l1.3-1.3h0.7l-1.7,1.7V91.7z M66.5,91.6h0.2v-1.2l0,0l1.5-1.5 h-0.3l-1.3,1.3l-1.3-1.3h-0.3l1.5,1.5V91.6z"></path> </g> <g> <path class="st0" d="M68.8,89.8c0-0.7,0.2-1.1,1-1.1h1.6c0.8,0,1,0.3,1,1.1v0.8c0,0.7-0.2,1.1-1,1.1h-1.6c-0.8,0-1-0.3-1-1.1 V89.8z M72,89.7c0-0.5-0.3-0.6-0.7-0.6h-1.6c-0.4,0-0.7,0.1-0.7,0.6v1.1c0,0.5,0.3,0.6,0.7,0.6h1.6c0.4,0,0.7-0.1,0.7-0.6V89.7 z"></path> <path class="st0" d="M71.4,91.7h-1.6c-0.8,0-1.1-0.3-1.1-1.1v-0.8c0-0.8,0.3-1.1,1.1-1.1h1.6c0.8,0,1.1,0.3,1.1,1.1v0.8 C72.5,91.4,72.2,91.7,71.4,91.7z M69.8,88.9c-0.7,0-0.9,0.3-0.9,1v0.8c0,0.7,0.3,1,0.9,1h1.6c0.7,0,0.9-0.3,0.9-1v-0.8 c0-0.7-0.3-1-0.9-1H69.8z M71.4,91.4h-1.6c-0.2,0-0.7,0-0.7-0.7v-1.1c0-0.7,0.6-0.7,0.7-0.7h1.6c0.2,0,0.7,0,0.7,0.7v1.1 C72.1,91.4,71.5,91.4,71.4,91.4z M69.8,89.2c-0.4,0-0.6,0.2-0.6,0.5v1.1c0,0.4,0.2,0.5,0.6,0.5h1.6c0.4,0,0.6-0.2,0.6-0.5v-1.1 c0-0.4-0.2-0.5-0.6-0.5H69.8z"></path> </g> <g> <path class="st0" d="M73.1,88.8h2.3c0.8,0,0.9,0.3,0.9,0.8v0.2c0,0.4-0.2,0.5-0.5,0.5v0c0.4,0.1,0.5,0.3,0.5,0.5v0.7h-0.4V91 c0-0.4-0.2-0.5-0.6-0.5h-1.9v1.1h-0.4V88.8z M75.3,90.2c0.4,0,0.6-0.1,0.6-0.4v-0.3c0-0.3-0.1-0.4-0.7-0.4h-1.7v1.1H75.3z"></path> <path class="st0" d="M76.3,91.7h-0.5V91c0-0.4-0.2-0.4-0.5-0.4h-1.8v1.1H73v-3h2.3c0.9,0,1,0.3,1,0.9v0.2 c0,0.3-0.1,0.5-0.3,0.6c0.2,0.1,0.3,0.3,0.3,0.5V91.7z M75.9,91.6h0.2v-0.6c0-0.2-0.1-0.4-0.4-0.5l-0.1,0v-0.1l0.1,0 c0.3,0,0.5-0.1,0.5-0.5v-0.2c0-0.5-0.1-0.7-0.9-0.7h-2.2v2.7h0.2v-1.1h1.9c0.3,0,0.6,0,0.6,0.6V91.6z M75.3,90.3h-1.9v-1.2h1.8 c0.5,0,0.8,0.1,0.8,0.5v0.3C76,90.2,75.6,90.3,75.3,90.3z M73.5,90.1h1.8c0.4,0,0.5-0.1,0.5-0.3v-0.3c0-0.2-0.1-0.3-0.6-0.3 h-1.7V90.1z"></path> </g> <g> <path class="st0" d="M76.9,88.8h0.4V90h0.5l1.8-1.2h0.6l0,0l-2,1.4l2.2,1.5l0,0h-0.7l-1.9-1.3h-0.4v1.3h-0.4V88.8z"></path> <path class="st0" d="M80.4,91.7h-0.7l0,0l-1.9-1.3h-0.4v1.3h-0.5v-3h0.5v1.2h0.4l1.8-1.2h0.7l0.1,0.1l-0.1,0.1l-1.9,1.3 l2.2,1.4L80.4,91.7L80.4,91.7z M79.7,91.6h0.4L78,90.2l1.9-1.3h-0.4l-1.8,1.2h-0.6v-1.2H77v2.7h0.2v-1.3h0.5l0,0L79.7,91.6z"></path> </g> </g> </g> </g> <g> <g> <g> <path class="st1" d="M48.5,30.4l1.1,0.1c0.5,0.1,0.5,0.5,0.5,0.7v1.3h-4.9v-1.3c0-0.3,0.1-0.7,0.5-0.7l1.1-0.1v-1.1h-6.4v1.1 l1.1,0.1C42,30.6,42,31,42,31.3v4.1c0,0.3-0.1,0.7-0.5,0.7l-1.1,0.1v1.1h6.4v-1.1l-1.1-0.1c-0.5-0.1-0.5-0.5-0.5-0.7v-1.3h4.9 v1.3c0,0.3-0.1,0.7-0.5,0.7l-1.1,0.1v1.1h6.4v-1.1l-1.1-0.1c-0.5-0.1-0.5-0.5-0.5-0.7v-4.1c0-0.3,0.1-0.7,0.5-0.7l1.1-0.1v-1.1 h-6.4V30.4z"></path> <path class="st1" d="M91.1,29.4h-7.9v1.1l0.9,0.1c0.3,0,0.6,0.2,0.6,0.7l0,4.2c0,0.3-0.1,0.7-0.5,0.7l-1.1,0.1v1.1l8,0 c2.9,0,5.2-1.2,5.2-4C96.3,30.5,94,29.4,91.1,29.4 M90.5,35.8l-2.7,0v-4.9h2.7c1.6,0,2.1,0.7,2.1,2.5 C92.7,35.1,92.1,35.8,90.5,35.8z"></path> <path class="st1" d="M109.8,36.1c-0.5-0.1-0.7-0.4-0.8-0.6c-3.7-5.6-3.7-5.6-3.7-5.6c-0.3-0.4-0.5-0.5-0.8-0.5h-6.1v1.1l1.4,0.2 c0.2,0,0.5,0.3,0.3,0.7l-2.7,4.4c-0.1,0.2-0.2,0.4-0.6,0.4l-1.1,0.1v1.1h5.1v-1.1l-0.9-0.1c-0.4,0-0.6-0.3-0.4-0.6l0.4-0.7h4.9 l0.4,0.6c0.3,0.5-0.1,0.7-0.4,0.7l-0.9,0.1v1.1h6.9v-1.1L109.8,36.1 M100.8,33.5l1.5-2.5l1.6,2.5H100.8z"></path> <path class="st1" d="M77.5,30.4l1.1,0.1c0.5,0.1,0.5,0.5,0.5,0.7v4l-4.2-5.6c-0.2-0.3-0.4-0.3-0.8-0.3c-0.3,0-5.5,0-5.5,0v1.1 l1.1,0.1c0.5,0.1,0.5,0.5,0.5,0.7v4.1c0,0.3-0.1,0.7-0.5,0.7l-1.1,0.1v1.1h5.1v-1.1l-1.1-0.1c-0.5-0.1-0.5-0.5-0.5-0.7v-4 l4.2,5.6c0.2,0.3,0.4,0.3,0.8,0.3c0,0,0,0,0,0c0.2,0,1,0,3.8,0v-6.1c0-0.3,0.1-0.7,0.5-0.7l1.1-0.1v-1.1h-5.1V30.4z"></path> <path class="st1" d="M61.8,29.1c-5.2,0-6.5,2.3-6.5,4.3c0,2,1.3,4.3,6.5,4.3c5.2,0,6.5-2.3,6.5-4.3 C68.3,31.4,66.9,29.1,61.8,29.1 M61.8,36.1c-2,0-2.8-0.8-2.8-2.7c0-1.9,0.8-2.7,2.8-2.7c2,0,2.8,0.8,2.8,2.7 C64.6,35.2,63.8,36.1,61.8,36.1z"></path> </g> <g> <polygon class="st1" points="24.9,37.3 23.8,36.3 29.6,35.6 32.4,37.3 "></polygon> <path class="st1" d="M34.7,32.8l-12.3,2.3l1.1,1l5.7-0.7c-0.1,0-0.1-0.1-0.1-0.2c0-0.1,0.1-0.1,0.1-0.2c0.1,0,3.1-0.5,3.4-0.5 c0.1,0,0.4-0.1,0.6-0.2c0.3-0.1,0.4-0.3,0.5-0.4c0.1-0.1,0.3-0.3,0.5-0.5c0.1-0.1,0.2-0.2,0.3-0.3 C34.6,33.1,34.7,32.9,34.7,32.8C34.8,32.8,34.8,32.8,34.7,32.8z"></path> <path class="st1" d="M36.7,30.1L21.3,34l0.9,0.9L27,34c-0.1,0-0.1-0.1-0.1-0.2c0-0.1,0-0.1,0.1-0.2l7.7-1.5 c0.1,0,0.4-0.1,0.6-0.2c0.2-0.2,0.4-0.3,0.5-0.4c0.1-0.1,0.3-0.3,0.4-0.5c0.1-0.1,0.2-0.3,0.3-0.4 C36.5,30.5,36.6,30.3,36.7,30.1C36.7,30.1,36.7,30.1,36.7,30.1z"></path> <path class="st1" d="M34.6,25.6c0.2-0.1,1.2-0.5,1.5-0.6c0.2-0.1,0.9-0.4,1.2-0.5c0.3-0.1,1.1-0.5,1.2-0.6 c0.6-0.3,1.3-0.6,1.4-0.7c0,0,0.1,0,0.1,0.1c-0.1,0.3-0.2,0.7-0.4,1.1c-0.1,0.2-0.3,0.6-0.4,0.8c-0.2,0.3-0.3,0.5-0.5,0.6 c-0.3,0.3-0.5,0.4-0.8,0.5c-0.2,0.1-0.5,0.2-0.7,0.3c-0.1,0-0.9,0.3-1.1,0.4L21,32.3c-0.4,0.1-0.8,0.4-0.8,0.8 c0,0.2,0.1,0.5,0.4,0.7l3.8,3.6c0,0-1.6,0-1.8,0c0-0.1-0.1-0.2-0.2-0.4c-0.1-0.1-0.1-0.2-0.3-0.4c-0.2-0.2-0.3-0.3-0.4-0.4l-2-2 c-0.4-0.4-0.6-0.8-0.6-1.3c0-0.6,0.3-1.2,1.3-1.6L34.6,25.6z"></path> <path class="st1" d="M36.3,27.6c0.2-0.1,0.6-0.2,0.7-0.2c0.1,0,0.5-0.2,0.6-0.2c0.3-0.1,0.5-0.2,0.8-0.3c0,0,0.1,0,0.1,0.1 c0,0.1-0.2,0.5-0.3,0.5c-0.1,0.2-0.2,0.4-0.4,0.6c-0.1,0.2-0.3,0.4-0.4,0.5c-0.2,0.2-0.3,0.3-0.5,0.5c-0.3,0.2-0.6,0.3-0.7,0.3 l-11.1,3c-0.1,0-0.1,0.1-0.1,0.2c0,0.1,0,0.1,0.1,0.2l-3.9,1l-0.3-0.3c-0.1-0.1-0.2-0.3-0.2-0.4c0-0.3,0.2-0.4,0.6-0.5 L36.3,27.6z"></path> </g> </g> </g> </g> </svg> 